ply
format ascii 1.0
comment Created in Blender version 4.2.3 LTS
element vertex 564
property float x
property float y
property float z
property float s
property float t
element face 780
property list uchar uint vertex_indices
end_header
1.5682727 -0.07524303 -1.4288349 0.611 0.53174
1.5459783 -0.104392506 -1.4580071 0.61534 0.52935
1.5357106 -0.03800191 -1.4649901 0.61534 0.53657
1.5876919 -0.108019285 -1.4190035 0.60947 0.52793
1.5682727 -0.07524303 -1.4288349 0.46622 0.87778
1.6216859 -0.10340407 -1.485424 0.4762 0.88127
1.5876919 -0.108019285 -1.4190035 0.46667 0.88237
1.5613273 -0.036678985 -1.4323528 0.61101 0.53584
1.7344052 -0.07524304 -1.3447316 0.59194 0.52791
1.7755324 -0.16075593 -1.3402817 0.5896 0.51822
1.7149898 -0.10801929 -1.3545594 0.59484 0.52499
1.7292488 -0.1981436 -1.3627076 0.5957 0.51541
1.6857463 -0.12978365 -1.3693635 0.59865 0.52343
1.7755324 -0.16075593 -1.3402817 0.91493 0.58328
1.6673833 -0.20955008 -1.2259798 0.8989 0.5761
1.7292488 -0.1981436 -1.3627076 0.91493 0.57633
1.6751629 -0.21150815 -1.3897297 0.60224 0.51526
1.6073855 -0.22442928 -1.2563095 0.89905 0.56891
1.6751629 -0.21150815 -1.3897297 0.91509 0.56958
1.6213664 -0.1981436 -1.4173234 0.91549 0.56282
1.547211 -0.20955008 -1.2868161 0.89932 0.56164
1.5380971 -0.23258111 -1.1226902 0.8834 0.56847
1.6017255 -0.21703671 -1.0902147 0.8834 0.57594
1.6546124 -0.17364323 -1.0627112 0.88344 0.58339
1.5803406 -0.17664987 -0.92887783 0.86788 0.5832
1.5297499 -0.21798758 -0.956058 0.86778 0.57588
1.6130004 -0.11437838 -0.90998936 0.86796 0.59068
1.4996984 -0.17807056 -0.7973294 0.85148 0.58291
1.5286638 -0.12222955 -0.7790451 0.85142 0.59008
1.4996984 -0.17807056 -0.7973294 0.33658 0.8967
1.5286638 -0.12222955 -0.7790451 0.33901 0.90316
1.4668283 -0.09387683 -0.82546425 0.33047 0.90454
1.4737023 -0.05571868 -0.8219838 0.33049 0.90862
1.5379957 -0.056335088 -0.7700553 0.85132 0.59747
1.5379957 -0.056335088 -0.7700553 0.33901 0.91026
1.5255743 0.009758614 -0.77206993 0.33649 0.91691
1.4668283 -0.017560527 -0.82546425 0.32892 0.91238
1.4239122 -0.02880916 -0.7714648 0.59796 0.71028
1.4737023 -0.05571868 -0.8219838 0.60591 0.7061
1.4668283 -0.017560527 -0.82546425 0.60628 0.71024
1.4300793 -0.06305495 -0.76834154 0.59772 0.70587
1.4668283 -0.09387683 -0.82546425 0.60559 0.702
1.5255743 0.009758614 -0.77206993 0.85119 0.60489
1.6238844 -0.04113645 -0.90172815 0.86803 0.59828
1.4938431 0.066035576 -0.7845025 0.33186 0.92214
1.4938431 0.066035576 -0.7845025 0.85103 0.61218
1.6106964 0.03205297 -0.90567446 0.86809 0.60582
1.7011591 -0.03172934 -1.036828 0.88355 0.5987
1.6892452 -0.10838013 -1.0441003 0.88349 0.59101
1.7640733 -0.03196989 -1.1776443 0.8989 0.5985
1.7520016 -0.1054599 -1.1834846 0.89886 0.59089
1.8183733 -0.038001925 -1.3218925 0.91522 0.59794
1.8082485 0.028471358 -1.3287961 0.91541 0.6054
1.7520354 0.041407414 -1.1840372 0.89894 0.60605
1.7784 0.085015185 -1.3454232 0.58442 0.54371
1.8082485 0.028471358 -1.3287961 0.58207 0.5371
1.7344052 0.0018850192 -1.3447316 0.59038 0.53582
1.7784 0.085015185 -1.3454232 0.9156 0.61272
1.7413542 -0.036678992 -1.3412135 0.59036 0.53171
1.8183733 -0.038001925 -1.3218925 0.58221 0.52995
1.7328643 0.12257952 -1.369484 0.58899 0.54873
1.7149898 0.03466127 -1.3545594 0.59196 0.53962
1.6857463 0.056425698 -1.3693635 0.59488 0.54252
1.6789212 0.13602677 -1.3971522 0.59504 0.55144
1.6789212 0.13602677 -1.3971522 0.91606 0.62676
1.6677364 0.14501289 -1.2271719 0.89903 0.62043
1.7328643 0.12257952 -1.369484 0.91581 0.61981
1.7183948 0.103697725 -1.2013369 0.89898 0.61338
1.6879336 0.044737257 -1.0423188 0.88361 0.60628
1.6523161 0.109602 -1.0593514 0.88365 0.61361
1.5761163 0.094207965 -0.9208765 0.86811 0.61314
1.5243229 0.1354329 -0.94558 0.86806 0.62025
1.4460373 0.103419535 -0.80630064 0.85078 0.61934
1.4460373 0.103419535 -0.80630064 0.32564 0.92505
1.4476196 0.014866203 -0.8351908 0.32606 0.91527
1.4186842 0.03640134 -0.8498368 0.32232 0.91683
1.383995 0.11680288 -0.8368521 0.31812 0.92512
1.4605181 0.15016922 -0.9773412 0.86781 0.6276
1.383995 0.11680288 -0.8368521 0.85047 0.62718
1.470519 0.1525971 -1.1507387 0.88347 0.63497
1.3918912 0.1354329 -1.0126204 0.8674 0.63562
1.535519 0.16796109 -1.1176019 0.88359 0.62767
1.4968008 0.10369774 -1.3135188 0.89967 0.64173
1.4149448 0.10960201 -1.1795197 0.88336 0.64262
1.5479627 0.14501289 -1.287808 0.89934 0.63437
1.4627806 0.04140743 -1.3304727 0.90019 0.64953
1.5783411 0.0850152 -1.4467058 0.91669 0.64083
1.6246887 0.12257952 -1.4242499 0.91631 0.63371
1.5783411 0.0850152 -1.4467058 0.6079 0.54851
1.6246887 0.12257952 -1.4242499 0.60168 0.55134
1.6169316 0.056425698 -1.4041994 0.60278 0.54408
1.6513389 0.064212896 -1.3867831 0.59868 0.5441
1.6513389 0.064212896 -1.3867831 0.4644 0.92959
1.6857463 0.056425698 -1.3693635 0.46438 0.92485
1.7087585 0.042621426 -1.4413428 0.47452 0.92567
1.5472711 0.028471388 -1.4609199 0.6127 0.54331
1.5876919 0.03466127 -1.4190035 0.60657 0.54251
1.5682727 0.0018850267 -1.4288349 0.60945 0.53961
1.4504757 -0.031969868 -1.3364031 0.901 0.65776
1.5472711 0.028471388 -1.4609199 0.91728 0.64819
1.5357106 -0.03800191 -1.4649901 0.91814 0.6557
1.4623522 -0.105459884 -1.3301191 0.90047 0.54624
1.4504757 -0.031969868 -1.3364031 0.90147 0.53815
1.5357106 -0.03800191 -1.4649901 0.91814 0.54136
1.37882 0.044737272 -1.1988077 0.8834 0.65065
1.3794812 -0.10838011 -1.2009196 0.88396 0.54442
1.3663799 -0.03172932 -1.2063088 0.88464 0.536
1.3663799 -0.03172932 -1.2063088 0.88367 0.65913
1.416294 -0.17364322 -1.183361 0.88358 0.55265
1.3365088 -0.17664984 -1.05232 0.86726 0.55157
1.2841741 -0.04113643 -1.0737047 0.8676 0.53537
1.297862 -0.114378355 -1.069529 0.86728 0.54347
1.2841741 -0.04113643 -1.0737047 0.86636 0.65994
1.2957461 0.032053 -1.0651169 0.86654 0.6518
1.2132022 0.009758629 -0.9302087 0.84918 0.65299
1.2031038 -0.056335066 -0.93959284 0.84899 0.66044
1.2031038 -0.056335066 -0.93959284 0.85045 0.53568
1.2498572 0.066035606 -0.90802336 0.84956 0.64519
1.2498572 0.066035606 -0.90802336 0.30329 0.91662
1.2132022 0.009758629 -0.9302087 0.30004 0.90986
1.3024547 -0.01756052 -0.9086809 0.31005 0.90872
1.2955807 -0.055718668 -0.91216135 0.30999 0.90465
1.2031038 -0.056335066 -0.93959284 0.30004 0.90272
1.2169944 -0.12222953 -0.9368305 0.30281 0.89616
1.3024547 -0.09387682 -0.9086809 0.31153 0.90087
1.3024547 -0.09387682 -0.9086809 0.60774 0.67745
1.2702197 -0.063054934 -0.8492694 0.60161 0.67197
1.2955807 -0.055718668 -0.91216135 0.60904 0.67334
1.2763908 -0.028809153 -0.8461466 0.6007 0.73779
1.2955807 -0.055718668 -0.91216135 0.60904 0.73942
1.2702197 -0.063054934 -0.8492694 0.60208 0.74164
1.3024547 -0.01756052 -0.9086809 0.60829 0.73544
1.2169944 -0.12222953 -0.9368305 0.85042 0.54302
1.256731 -0.17807055 -0.9203315 0.30838 0.89124
1.256731 -0.17807055 -0.9203315 0.85064 0.55069
1.3216672 -0.12630354 -0.8989544 0.31438 0.89796
1.3211974 -0.21502224 -0.8900881 0.3165 0.88884
1.3211974 -0.21502224 -0.8900881 0.85099 0.55942
1.3505987 -0.14783864 -0.8843045 0.31815 0.89639
1.3846414 -0.15554322 -0.8670721 0.32223 0.89636
1.3929813 -0.22820646 -0.85460234 0.85129 0.56827
1.3971266 -0.21798757 -1.0232005 0.86743 0.55997
1.3929813 -0.22820646 -0.85460234 0.32504 0.88909
1.4186842 -0.14783865 -0.8498368 0.326 0.89791
1.3807027 -0.14573027 -0.7933378 0.59741 0.69292
1.3846414 -0.15554322 -0.8670721 0.60538 0.68959
1.4186842 -0.14783865 -0.8498368 0.60527 0.69374
1.3501514 -0.1526418 -0.80880356 0.59755 0.68858
1.3505987 -0.14783864 -0.8843045 0.60578 0.6855
1.406669 -0.12640503 -0.7801914 0.59746 0.69722
1.3898956 -0.13970572 -0.7334533 0.59148 0.69685
1.3595886 -0.16308993 -0.7526016 0.5917 0.69217
1.4109122 -0.10449032 -0.72032166 0.59139 0.70151
1.3952738 -0.11138683 -0.6692238 0.58593 0.70143
1.3712958 -0.15246144 -0.686636 0.58611 0.69652
1.4187181 -0.06305496 -0.71546984 0.59148 0.70607
1.4043537 -0.063054964 -0.6627221 0.5859 0.70618
1.3744639 -0.11762936 -0.61849356 0.58081 0.70132
1.349054 -0.16401446 -0.63992786 0.58109 0.69619
1.4109122 -0.021619558 -0.72032166 0.59161 0.71066
1.3952738 -0.01472681 -0.6692238 0.58608 0.71095
1.4239122 -0.097300656 -0.7714648 0.59759 0.70152
1.4476196 -0.12630355 -0.8351908 0.60536 0.69788
1.4476196 -0.12630355 -0.8351908 0.32891 0.90078
1.4539825 -0.21502224 -0.8228674 0.33189 0.89183
1.4539825 -0.21502224 -0.8228674 0.85145 0.57591
1.4662946 -0.23278031 -0.98874426 0.86763 0.56827
1.472571 -0.2170367 -1.1555982 0.88344 0.56069
1.4960905 -0.1679907 -1.3128271 0.89977 0.5541
1.5758944 -0.16075593 -1.44135 0.91611 0.55588
1.5459783 -0.104392506 -1.4580071 0.91699 0.54869
1.6169316 -0.12978363 -1.4041994 0.60656 0.52501
1.5758944 -0.16075593 -1.44135 0.61286 0.52279
1.6213664 -0.1981436 -1.4173234 0.60825 0.51787
1.6513389 -0.1375709 -1.3867831 0.60277 0.52342
1.3898956 0.013595879 -0.7334533 0.5919 0.71543
1.3712958 0.026351579 -0.686636 0.5864 0.71593
1.349054 0.037904583 -0.63992786 0.58129 0.71636
1.3744639 -0.008480504 -0.61849356 0.58091 0.71118
1.3807027 0.019616656 -0.7933378 0.59828 0.71937
1.3595886 0.0369801 -0.7526016 0.59226 0.72029
1.406669 0.00029521435 -0.7801914 0.59815 0.71478
1.3846414 0.04410588 -0.8670721 0.60717 0.72301
1.3501514 0.026531972 -0.80880356 0.59854 0.72403
1.4476196 0.014866203 -0.8351908 0.60665 0.71443
1.4186842 0.03640134 -0.8498368 0.60697 0.71871
1.3846414 0.04410588 -0.8670721 0.31827 0.91685
1.3505987 0.03640134 -0.8843045 0.6074 0.72724
1.3125495 0.103419535 -0.87387896 0.30995 0.92206
1.3505987 0.03640134 -0.8843045 0.31454 0.91531
1.3125495 0.103419535 -0.87387896 0.85002 0.63625
1.3216672 0.0148662105 -0.8989544 0.31163 0.91247
1.3325588 0.09420798 -1.0441756 0.86693 0.64381
1.2936301 0.0002952218 -0.8374157 0.59963 0.7334
1.3216672 0.0148662105 -0.8989544 0.60775 0.73138
1.3195964 0.01961667 -0.82427263 0.59894 0.72875
1.29186 0.036980115 -0.7979536 0.59369 0.72992
1.3251549 0.045346074 -0.775084 0.59282 0.72513
1.3375311 0.053625666 -0.7117715 0.58689 0.72101
1.2643002 0.053625666 -0.77143097 0.58903 0.73104
1.2999289 0.0633822 -0.7412667 0.58769 0.72606
1.2349855 0.026351593 -0.79746485 0.59084 0.73598
1.2064862 0.037904598 -0.7766247 0.58701 0.73721
1.2369398 0.06870402 -0.7445626 0.58477 0.73203
1.1864129 -0.008480482 -0.7979717 0.5897 0.74241
1.176818 0.047217734 -0.7574315 0.58345 0.73862
1.1591276 -0.0034443438 -0.7842808 0.58677 0.74389
1.152795 -0.06305495 -0.79388666 0.5903 0.74926
1.059367 -0.06305495 -0.7356968 0.5804 0.75563
1.0660268 -0.00044142455 -0.7255006 0.57674 0.74984
1.1591276 -0.12266547 -0.7842808 0.5866 0.66923
1.059367 -0.06305495 -0.7356968 0.58051 0.65748
1.152795 -0.06305495 -0.79388666 0.59022 0.66399
1.0660268 -0.1256684 -0.7255006 0.57677 0.66316
1.2064862 -0.16401443 -0.7766247 0.5867 0.6758
1.176818 -0.17332758 -0.7574315 0.58323 0.67436
1.1864129 -0.117629334 -0.7979717 0.58946 0.67075
1.2349855 -0.15246141 -0.79746485 0.59042 0.67708
1.2643002 -0.1797355 -0.77143097 0.58858 0.68184
1.2369398 -0.19481385 -0.7445626 0.58444 0.68083
1.3251549 -0.17145592 -0.775084 0.59218 0.68754
1.2999289 -0.18949208 -0.7412667 0.58726 0.68665
1.29186 -0.16308993 -0.7979536 0.59305 0.68297
1.3375311 -0.17973551 -0.7117715 0.58651 0.69156
1.3195964 -0.14573027 -0.82427263 0.59801 0.68419
1.2936301 -0.12640503 -0.8374157 0.59878 0.67983
1.2641162 -0.1397057 -0.81761694 0.59439 0.67844
1.2763908 -0.09730065 -0.8461466 0.60003 0.67566
1.3216672 -0.12630354 -0.8989544 0.6066 0.68146
1.2457681 -0.1044903 -0.83070326 0.59621 0.67404
1.2156489 -0.11138305 -0.81480217 0.59275 0.67237
1.2087337 -0.06305494 -0.82100296 0.59555 0.66787
1.2392023 -0.06305494 -0.8353863 0.59851 0.66993
1.2087337 -0.06305494 -0.82100296 0.59578 0.74551
1.2156527 -0.014726795 -0.81480217 0.5931 0.74085
1.2457681 -0.021619543 -0.83070326 0.59669 0.73927
1.1792309 -0.06305495 -0.8056092 0.59282 0.7475
1.1792309 -0.06305495 -0.8056092 0.59267 0.66581
1.2392023 -0.06305494 -0.8353863 0.59885 0.74354
1.2641162 0.0135958865 -0.81761694 0.59498 0.73467
1.3134816 -0.19481386 -0.67095613 0.5817 0.691
1.2740757 -0.2058332 -0.7073746 0.58276 0.68588
1.20366 -0.20696443 -0.7170558 0.5802 0.67941
1.2364249 -0.21900237 -0.6698928 0.57766 0.6845
1.1127689 -0.21421424 -0.6541376 0.57 0.67461
1.0846304 -0.1788786 -0.6970091 0.57322 0.66886
1.1465712 -0.22685724 -0.6039419 0.56724 0.6805
1.2712157 -0.20696446 -0.62319183 0.57572 0.68978
1.1815761 -0.21421425 -0.55408764 0.56509 0.68661
1.3025825 -0.1733276 -0.5832486 0.57442 0.69528
1.2124091 -0.17887864 -0.5116224 0.56344 0.69296
1.233794 -0.12566845 -0.48294306 0.56242 0.69959
1.2417355 -0.063054994 -0.47250605 0.56204 0.70634
1.3248805 -0.1226655 -0.5558467 0.57371 0.70082
1.3333293 -0.06305498 -0.5457177 0.57354 0.7063
1.3841304 -0.06305497 -0.6105113 0.58074 0.70624
1.3248805 -0.0034443736 -0.5558467 0.57378 0.71178
1.3025825 0.04721772 -0.5832486 0.57454 0.71735
1.233794 -0.0004414618 -0.48294306 0.56246 0.7131
1.2124091 0.052768715 -0.5116224 0.56351 0.71974
1.2712194 0.08085462 -0.62319183 0.5759 0.72291
1.1815761 0.08810439 -0.55408764 0.56517 0.72612
1.2364249 0.092892475 -0.6698928 0.57787 0.72827
1.3134816 0.068704 -0.67095613 0.58197 0.72163
1.1465712 0.10074737 -0.6039419 0.56733 0.73228
1.1127689 0.088104405 -0.6541376 0.57008 0.73823
1.0846304 0.052768745 -0.6970091 0.57326 0.74405
1.20366 0.08085463 -0.7170558 0.58043 0.73345
1.2740757 0.079723366 -0.7073746 0.58307 0.72686
1.607983 0.159783 -1.2574897 0.89912 0.62734
1.5990195 0.1525971 -1.0856824 0.88366 0.62065
1.8066701 -0.10439252 -1.3260341 0.58488 0.52334
1.8066701 -0.10439252 -1.3260341 0.91505 0.59051
1.7182595 -0.16799071 -1.200356 0.89884 0.5834
-1.5982755 -0.04005398 -1.4972739 0.88209 0.25638
-1.5613275 -0.036678985 -1.4323528 0.87314 0.25566
-1.568273 -0.07524303 -1.4288349 0.87377 0.25099
-1.5876921 -0.108019285 -1.4190035 0.22413 0.4853
-1.568273 -0.07524303 -1.4288349 0.22566 0.48148
-1.5459785 -0.104392506 -1.4580071 0.23 0.48387
-1.6216861 -0.10340407 -1.485424 0.88376 0.24749
-1.5876921 -0.108019285 -1.4190035 0.87422 0.2464
-1.5357108 -0.03800191 -1.4649901 0.23 0.47666
-1.5613275 -0.036678985 -1.4323528 0.22567 0.47738
-1.7344054 -0.07524304 -1.3447316 0.2066 0.48531
-1.71499 -0.10801929 -1.3545594 0.2095 0.48823
-1.7755326 -0.16075593 -1.3402817 0.20426 0.49501
-1.7292489 -0.1981436 -1.3627076 0.21036 0.49782
-1.6857466 -0.12978365 -1.3693635 0.21331 0.4898
-1.7755326 -0.16075593 -1.3402817 0.91598 0.0787
-1.7292489 -0.1981436 -1.3627076 0.91598 0.08564
-1.6673836 -0.20955008 -1.2259798 0.89995 0.08588
-1.6751631 -0.21150815 -1.3897297 0.21691 0.49797
-1.6751631 -0.21150815 -1.3897297 0.91613 0.0924
-1.6073856 -0.22442928 -1.2563095 0.9001 0.09307
-1.6213665 -0.1981436 -1.4173234 0.91654 0.09915
-1.5472113 -0.20955008 -1.2868161 0.90037 0.10034
-1.5380974 -0.23258111 -1.1226902 0.88445 0.09351
-1.6017257 -0.21703671 -1.0902147 0.88445 0.08603
-1.6546127 -0.17364323 -1.0627112 0.88449 0.07859
-1.5803409 -0.17664987 -0.92887783 0.86893 0.07878
-1.5297501 -0.21798758 -0.956058 0.86882 0.0861
-1.6130005 -0.11437838 -0.90998936 0.869 0.0713
-1.4996986 -0.17807056 -0.7973294 0.85253 0.07907
-1.528664 -0.12222955 -0.7790451 0.85247 0.07189
-1.4996986 -0.17807056 -0.7973294 0.88658 0.15811
-1.4668286 -0.09387683 -0.82546425 0.88047 0.15026
-1.528664 -0.12222955 -0.7790451 0.88902 0.15164
-1.4737025 -0.05571868 -0.8219838 0.88049 0.14619
-1.5379959 -0.056335088 -0.7700553 0.85237 0.06451
-1.5379959 -0.056335088 -0.7700553 0.88902 0.14455
-1.4668286 -0.017560527 -0.82546425 0.87892 0.14243
-1.5255746 0.009758614 -0.77206993 0.88649 0.13789
-1.4737025 -0.05571868 -0.8219838 0.57387 0.91599
-1.4239124 -0.02880916 -0.7714648 0.56592 0.91181
-1.4668286 -0.017560527 -0.82546425 0.57424 0.91186
-1.4300796 -0.06305495 -0.76834154 0.56568 0.91623
-1.4668286 -0.09387683 -0.82546425 0.57355 0.9201
-1.6238847 -0.04113645 -0.90172815 0.86907 0.0637
-1.5255746 0.009758614 -0.77206993 0.85223 0.05708
-1.4938433 0.066035576 -0.7845025 0.88186 0.13266
-1.6106967 0.03205297 -0.90567446 0.86913 0.05616
-1.4938433 0.066035576 -0.7845025 0.85207 0.0498
-1.7011594 -0.03172934 -1.036828 0.8846 0.06328
-1.6892455 -0.10838013 -1.0441003 0.88454 0.07097
-1.7640734 -0.03196989 -1.1776443 0.89994 0.06348
-1.7520018 -0.1054599 -1.1834846 0.89991 0.07109
-1.8082488 0.028471358 -1.3287961 0.91646 0.05658
-1.8183736 -0.038001925 -1.3218925 0.91627 0.06404
-1.7520356 0.041407414 -1.1840372 0.89999 0.05593
-1.7344054 0.0018850192 -1.3447316 0.20505 0.47741
-1.8082488 0.028471358 -1.3287961 0.19673 0.47612
-1.7784002 0.085015185 -1.3454232 0.19908 0.46951
-1.7413545 -0.036678992 -1.3412135 0.20502 0.48152
-1.7784002 0.085015185 -1.3454232 0.91665 0.04926
-1.8183736 -0.038001925 -1.3218925 0.19688 0.48327
-1.7581354 -0.040053993 -1.4163461 0.88298 0.21787
-1.7344054 -0.07524304 -1.3447316 0.87306 0.22307
-1.7413545 -0.036678992 -1.3412135 0.87258 0.21833
-1.7519642 -0.0058082044 -1.4194694 0.88266 0.21291
-1.7344054 0.0018850192 -1.3447316 0.87219 0.21351
-1.71499 0.03466127 -1.3545594 0.872 0.20868
-1.7347248 0.02329614 -1.428196 0.88233 0.20799
-1.6857466 0.056425698 -1.3693635 0.87193 0.20392
-1.71499 0.03466127 -1.3545594 0.20662 0.4736
-1.7328645 0.12257952 -1.369484 0.20365 0.46449
-1.6857466 0.056425698 -1.3693635 0.20954 0.47071
-1.6789215 0.13602677 -1.3971522 0.91711 0.03522
-1.7328645 0.12257952 -1.369484 0.91686 0.04217
-1.6677366 0.14501289 -1.2271719 0.90008 0.04155
-1.6789215 0.13602677 -1.3971522 0.20971 0.46179
-1.718395 0.103697725 -1.2013369 0.90002 0.0486
-1.6879338 0.044737257 -1.0423188 0.88466 0.0557
-1.6523163 0.109602 -1.0593514 0.8847 0.04837
-1.5761164 0.094207965 -0.9208765 0.86916 0.04884
-1.5243231 0.1354329 -0.94558 0.8691 0.04173
-1.4460375 0.103419535 -0.80630064 0.85182 0.04264
-1.4476198 0.014866203 -0.8351908 0.87606 0.13953
-1.4460375 0.103419535 -0.80630064 0.87564 0.12975
-1.4186845 0.03640134 -0.8498368 0.87232 0.13797
-1.3839952 0.11680288 -0.8368521 0.86812 0.12969
-1.4605184 0.15016922 -0.9773412 0.86886 0.03438
-1.3839952 0.11680288 -0.8368521 0.85152 0.0348
-1.3918914 0.1354329 -1.0126204 0.86845 0.02636
-1.4705192 0.1525971 -1.1507387 0.88452 0.027
-1.5355192 0.16796109 -1.1176019 0.88463 0.03431
-1.496801 0.10369774 -1.3135188 0.90071 0.02025
-1.5479629 0.14501289 -1.287808 0.90038 0.0276
-1.414945 0.10960201 -1.1795197 0.88441 0.01935
-1.5783414 0.0850152 -1.4467058 0.91774 0.02115
-1.4627808 0.04140743 -1.3304727 0.90124 0.01244
-1.624689 0.12257952 -1.4242499 0.91735 0.02827
-1.6169318 0.056425698 -1.4041994 0.21745 0.46915
-1.624689 0.12257952 -1.4242499 0.21635 0.46189
-1.5783414 0.0850152 -1.4467058 0.22256 0.46471
-1.6513392 0.064212896 -1.3867831 0.21334 0.46913
-1.7087587 0.042621426 -1.4413428 0.88208 0.2031
-1.6513392 0.064212896 -1.3867831 0.87195 0.19917
-1.6216861 0.023296155 -1.485424 0.88181 0.18873
-1.5876921 0.03466127 -1.4190035 0.87212 0.18975
-1.568273 0.0018850267 -1.4288349 0.8721 0.18509
-1.5876921 0.03466127 -1.4190035 0.22124 0.47071
-1.5472714 0.028471388 -1.4609199 0.22736 0.46991
-1.568273 0.0018850267 -1.4288349 0.22411 0.47361
-1.5472714 0.028471388 -1.4609199 0.91833 0.01379
-1.4504759 -0.031969868 -1.3364031 0.90204 0.00421
-1.5357108 -0.03800191 -1.4649901 0.91919 0.00628
-1.5357108 -0.03800191 -1.4649901 0.91919 0.12062
-1.4504759 -0.031969868 -1.3364031 0.90252 0.12383
-1.4623523 -0.105459884 -1.3301191 0.90152 0.11574
-1.3788201 0.044737272 -1.1988077 0.88444 0.01133
-1.36638 -0.03172932 -1.2063088 0.88568 0.12598
-1.3794813 -0.10838011 -1.2009196 0.88501 0.11756
-1.36638 -0.03172932 -1.2063088 0.88472 0.00284
-1.4162941 -0.17364322 -1.183361 0.88463 0.10932
-1.3365088 -0.17664984 -1.05232 0.86831 0.11041
-1.2841742 -0.04113643 -1.0737047 0.86864 0.12661
-1.2978622 -0.114378355 -1.069529 0.86833 0.11851
-1.2957462 0.032053 -1.0651169 0.86759 0.01017
-1.2841742 -0.04113643 -1.0737047 0.86741 0.00203
-1.2132024 0.009758629 -0.9302087 0.85022 0.00898
-1.2031039 -0.056335066 -0.93959284 0.85149 0.1263
-1.2031039 -0.056335066 -0.93959284 0.85004 0.00153
-1.3024548 -0.01756052 -0.9086809 0.86005 0.14608
-1.2132024 0.009758629 -0.9302087 0.85004 0.14495
-1.2498573 0.066035606 -0.90802336 0.85329 0.13818
-1.2955809 -0.055718668 -0.91216135 0.85999 0.15016
-1.2498573 0.066035606 -0.90802336 0.85061 0.01679
-1.2031039 -0.056335066 -0.93959284 0.85004 0.15209
-1.3024548 -0.09387682 -0.9086809 0.86153 0.15393
-1.2169945 -0.12222953 -0.9368305 0.85281 0.15864
-1.3024548 -0.09387682 -0.9086809 0.5757 0.94464
-1.2955809 -0.055718668 -0.91216135 0.577 0.94876
-1.2702198 -0.063054934 -0.8492694 0.56957 0.95013
-1.2955809 -0.055718668 -0.91216135 0.577 0.88267
-1.2763909 -0.028809153 -0.8461466 0.56866 0.88431
-1.2702198 -0.063054934 -0.8492694 0.57004 0.88046
-1.3024548 -0.01756052 -0.9086809 0.57625 0.88666
-1.2567312 -0.17807055 -0.9203315 0.85839 0.16357
-1.2169945 -0.12222953 -0.9368305 0.85146 0.11896
-1.2567312 -0.17807055 -0.9203315 0.85168 0.11129
-1.3211975 -0.21502224 -0.8900881 0.85203 0.10256
-1.3216673 -0.12630354 -0.8989544 0.86439 0.15684
-1.3211975 -0.21502224 -0.8900881 0.8665 0.16597
-1.3505988 -0.14783864 -0.8843045 0.86815 0.15841
-1.3505988 -0.14783864 -0.8843045 0.57374 0.9366
-1.3216673 -0.12630354 -0.8989544 0.57456 0.94063
-1.2936302 -0.12640503 -0.8374157 0.56674 0.94227
-1.2763909 -0.09730065 -0.8461466 0.56799 0.94643
-1.2641163 -0.1397057 -0.81761694 0.56235 0.94365
-1.2457682 -0.1044903 -0.83070326 0.56417 0.94806
-1.2918601 -0.16308993 -0.7979536 0.56101 0.93912
-1.2349856 -0.15246141 -0.79746485 0.55838 0.94502
-1.215649 -0.11138305 -0.81480217 0.56071 0.94972
-1.186413 -0.117629334 -0.7979717 0.55742 0.95135
-1.179231 -0.06305495 -0.8056092 0.56063 0.95629
-1.2087338 -0.06305494 -0.82100296 0.56351 0.95423
-1.2156528 -0.014726795 -0.81480217 0.56106 0.88124
-1.179231 -0.06305495 -0.8056092 0.56078 0.8746
-1.2087338 -0.06305494 -0.82100296 0.56374 0.87658
-1.186413 -0.008480482 -0.7979717 0.55767 0.87968
-1.1527951 -0.06305495 -0.79388666 0.55826 0.87283
-1.1527951 -0.06305495 -0.79388666 0.55818 0.9581
-1.2457682 -0.021619543 -0.83070326 0.56465 0.88283
-1.2349856 0.026351593 -0.79746485 0.5588 0.88612
-1.2641163 0.0135958865 -0.81761694 0.56294 0.88743
-1.2918601 0.036980115 -0.7979536 0.56165 0.89217
-1.2936302 0.0002952218 -0.8374157 0.56759 0.8887
-1.3195965 0.01961667 -0.82427263 0.5669 0.89334
-1.325155 0.045346074 -0.775084 0.56078 0.89696
-1.2643003 0.053625666 -0.77143097 0.55699 0.89105
-1.3501515 0.026531972 -0.80880356 0.5665 0.89806
-1.3595887 0.0369801 -0.7526016 0.56022 0.90181
-1.3375312 0.053625666 -0.7117715 0.55485 0.90109
-1.299929 0.0633822 -0.7412667 0.55566 0.89603
-1.2740759 0.079723366 -0.7073746 0.55103 0.89523
-1.3134817 0.068704 -0.67095613 0.54993 0.90047
-1.3712959 0.026351579 -0.686636 0.55436 0.90617
-1.2369399 0.06870402 -0.7445626 0.55273 0.89006
-1.2036601 0.08085463 -0.7170558 0.54839 0.88864
-1.236425 0.092892475 -0.6698928 0.54583 0.89383
-1.1768181 0.047217734 -0.7574315 0.55141 0.88348
-1.0846305 0.052768745 -0.6970091 0.54123 0.87804
-1.112769 0.088104405 -0.6541376 0.53804 0.88387
-1.0660269 -0.00044142455 -0.7255006 0.54471 0.87225
-1.1591277 -0.0034443438 -0.7842808 0.55473 0.8782
-1.0593671 -0.06305495 -0.7356968 0.54836 0.86647
-1.1591277 -0.12266547 -0.7842808 0.55456 0.95287
-1.0593671 -0.06305495 -0.7356968 0.54847 0.96462
-1.0660269 -0.1256684 -0.7255006 0.54473 0.95894
-1.2064863 -0.16401443 -0.7766247 0.55466 0.94629
-1.1768181 -0.17332758 -0.7574315 0.55119 0.94773
-1.2643003 -0.1797355 -0.77143097 0.55654 0.94026
-1.2369399 -0.19481385 -0.7445626 0.5524 0.94126
-1.299929 -0.18949208 -0.7412667 0.55522 0.93545
-1.325155 -0.17145592 -0.775084 0.56014 0.93456
-1.3501515 -0.1526418 -0.80880356 0.56551 0.93352
-1.3595887 -0.16308993 -0.7526016 0.55966 0.92992
-1.3375312 -0.17973551 -0.7117715 0.55447 0.93054
-1.3195965 -0.14573027 -0.82427263 0.56597 0.9379
-1.3712959 -0.15246144 -0.686636 0.55407 0.92558
-1.3134817 -0.19481386 -0.67095613 0.54967 0.93109
-1.2740759 -0.2058332 -0.7073746 0.55072 0.93622
-1.2036601 -0.20696443 -0.7170558 0.54816 0.94269
-1.236425 -0.21900237 -0.6698928 0.54562 0.9376
-1.112769 -0.21421424 -0.6541376 0.53796 0.94749
-1.0846305 -0.1788786 -0.6970091 0.54119 0.95324
-1.1465713 -0.22685724 -0.6039419 0.5352 0.9416
-1.2712158 -0.20696446 -0.62319183 0.54368 0.93231
-1.1815763 -0.21421425 -0.55408764 0.53305 0.93549
-1.3490541 -0.16401446 -0.63992786 0.54906 0.92591
-1.2124093 -0.17887864 -0.5116224 0.53141 0.92913
-1.3025826 -0.1733276 -0.5832486 0.54238 0.92681
-1.2337941 -0.12566845 -0.48294306 0.53038 0.92251
-1.3248806 -0.1226655 -0.5558467 0.54167 0.92127
-1.2417356 -0.063054994 -0.47250605 0.53 0.91575
-1.3248806 -0.0034443736 -0.5558467 0.54174 0.91032
-1.3333294 -0.06305498 -0.5457177 0.54151 0.9158
-1.2337941 -0.0004414618 -0.48294306 0.53042 0.909
-1.3490541 0.037904583 -0.63992786 0.54925 0.90573
-1.374464 -0.008480504 -0.61849356 0.54887 0.91092
-1.3025826 0.04721772 -0.5832486 0.54251 0.90474
-1.3952739 -0.01472681 -0.6692238 0.55404 0.91115
-1.2712195 0.08085462 -0.62319183 0.54386 0.89919
-1.1465713 0.10074737 -0.6039419 0.53529 0.88981
-1.2124093 0.052768715 -0.5116224 0.53147 0.90236
-1.1815763 0.08810439 -0.55408764 0.53313 0.89597
-1.3898957 0.013595879 -0.7334533 0.55986 0.90666
-1.4043539 -0.063054964 -0.6627221 0.55386 0.91592
-1.4187183 -0.06305496 -0.71546984 0.55944 0.91602
-1.4109124 -0.021619558 -0.72032166 0.55957 0.91143
-1.3952739 -0.11138683 -0.6692238 0.5539 0.92067
-1.4239124 -0.097300656 -0.7714648 0.56555 0.92057
-1.4109124 -0.10449032 -0.72032166 0.55935 0.92059
-1.374464 -0.11762936 -0.61849356 0.54877 0.92078
-1.3898957 -0.13970572 -0.7334533 0.55944 0.92524
-1.4066691 -0.12640503 -0.7801914 0.56542 0.92487
-1.3807029 -0.14573027 -0.7933378 0.56537 0.92918
-1.4186845 -0.14783865 -0.8498368 0.57323 0.92836
-1.3846415 -0.15554322 -0.8670721 0.57334 0.9325
-1.3929813 -0.22820646 -0.85460234 0.87505 0.16572
-1.3846415 -0.15554322 -0.8670721 0.87223 0.15845
-1.4186845 -0.14783865 -0.8498368 0.87601 0.15689
-1.4662949 -0.23278031 -0.98874426 0.86868 0.09371
-1.3929813 -0.22820646 -0.85460234 0.85234 0.09371
-1.4539826 -0.21502224 -0.8228674 0.8525 0.08607
-1.4539826 -0.21502224 -0.8228674 0.88189 0.16298
-1.3971267 -0.21798757 -1.0232005 0.86848 0.102
-1.4725713 -0.2170367 -1.1555982 0.88449 0.10129
-1.4960908 -0.1679907 -1.3128271 0.90081 0.10788
-1.5758946 -0.16075593 -1.44135 0.91716 0.1061
-1.5459785 -0.104392506 -1.4580071 0.91804 0.11328
-1.5758946 -0.16075593 -1.44135 0.22753 0.49043
-1.6169318 -0.12978363 -1.4041994 0.22122 0.48821
-1.6213665 -0.1981436 -1.4173234 0.22292 0.49535
-1.6513392 -0.1375709 -1.3867831 0.21743 0.4898
-1.6476523 -0.122725554 -1.4722772 0.88415 0.24268
-1.6169318 -0.12978363 -1.4041994 0.87441 0.24176
-1.4476198 -0.12630355 -0.8351908 0.87891 0.15403
-1.4476198 -0.12630355 -0.8351908 0.57332 0.92422
-1.3841305 -0.06305497 -0.6105113 0.5487 0.91586
-1.3807029 0.019616656 -0.7933378 0.56624 0.90273
-1.4066691 0.00029521435 -0.7801914 0.56611 0.90732
-1.3846415 0.04410588 -0.8670721 0.57514 0.89908
-1.4186845 0.03640134 -0.8498368 0.57493 0.90339
-1.4476198 0.014866203 -0.8351908 0.57461 0.90767
-1.3505988 0.03640134 -0.8843045 0.57536 0.89486
-1.3846415 0.04410588 -0.8670721 0.86828 0.13795
-1.3505988 0.03640134 -0.8843045 0.86454 0.1395
-1.3125496 0.103419535 -0.87387896 0.85995 0.13274
-1.3125496 0.103419535 -0.87387896 0.85107 0.02573
-1.3216673 0.0148662105 -0.8989544 0.86163 0.14233
-1.3325589 0.09420798 -1.0441756 0.86798 0.01817
-1.3216673 0.0148662105 -0.8989544 0.57571 0.89072
-1.2064863 0.037904598 -0.7766247 0.55497 0.88489
-1.2392024 -0.06305494 -0.8353863 0.56681 0.87855
-1.2392024 -0.06305494 -0.8353863 0.56647 0.95216
-1.5613275 -0.036678985 -1.4323528 0.87194 0.18046
-1.6044466 -0.0058081895 -1.4941506 0.88152 0.18407
-1.6079832 0.159783 -1.2574897 0.90017 0.03463
-1.5990196 0.1525971 -1.0856824 0.88471 0.04132
-1.8066703 -0.10439252 -1.3260341 0.9161 0.07147
-1.8066703 -0.10439252 -1.3260341 0.19955 0.48989
-1.7182597 -0.16799071 -1.200356 0.89989 0.07858
3 0 1 2
3 1 0 3
3 4 5 6
3 0 2 7
3 8 9 10
3 11 10 9
3 11 12 10
3 13 14 15
3 12 11 16
3 15 17 18
3 15 14 17
3 17 19 18
3 17 20 19
3 21 20 17
3 22 21 17
3 22 17 14
3 23 22 14
3 24 22 23
3 25 21 22
3 24 25 22
3 26 24 23
3 27 25 24
3 28 27 24
3 28 24 26
3 29 30 31
3 30 32 31
3 33 28 26
3 30 34 32
3 35 36 32
3 37 38 39
3 37 40 38
3 40 41 38
3 35 32 34
3 42 33 43
3 36 35 44
3 45 42 46
3 42 43 46
3 46 43 47
3 43 48 47
3 43 26 48
3 33 26 43
3 49 47 48
3 50 48 23
3 49 48 50
3 26 23 48
3 51 49 50
3 52 49 51
3 53 47 49
3 52 53 49
3 54 55 56
3 57 53 52
3 55 58 56
3 55 59 58
3 59 8 58
3 60 61 62
3 60 54 61
3 54 56 61
3 63 60 62
3 64 65 66
3 66 67 57
3 66 65 67
3 57 67 53
3 67 68 53
3 67 69 68
3 65 69 67
3 70 68 69
3 53 68 47
3 46 47 68
3 70 46 68
3 71 70 69
3 45 46 70
3 72 45 70
3 72 70 71
3 73 74 44
3 75 73 76
3 73 75 74
3 77 78 72
3 77 72 71
3 79 80 77
3 80 78 77
3 81 77 71
3 79 77 81
3 82 83 79
3 83 80 79
3 84 79 81
3 82 79 84
3 85 82 86
3 85 83 82
3 82 87 86
3 82 84 87
3 88 89 90
3 89 91 90
3 89 63 91
3 84 64 87
3 63 62 91
3 92 93 94
3 95 96 97
3 95 88 96
3 88 90 96
3 2 95 97
3 98 99 100
3 85 86 99
3 98 85 99
3 101 102 103
3 98 104 85
3 105 106 102
3 98 107 104
3 105 102 101
3 108 105 101
3 109 105 108
3 105 110 106
3 105 111 110
3 109 111 105
3 107 112 113
3 112 114 113
3 112 115 114
3 111 116 110
3 113 114 117
3 118 119 120
3 119 121 120
3 119 122 121
3 121 123 124
3 125 126 127
3 128 129 130
3 128 131 129
3 121 122 123
3 111 132 116
3 124 123 133
3 134 132 111
3 124 133 135
3 136 135 133
3 137 134 109
3 134 111 109
3 136 138 135
3 136 139 138
3 140 137 141
3 136 142 139
3 137 109 141
3 142 143 139
3 144 145 146
3 144 147 145
3 147 148 145
3 149 144 146
3 150 144 149
3 150 151 144
3 151 147 144
3 152 150 149
3 153 150 152
3 153 154 150
3 154 151 150
3 155 156 153
3 156 157 153
3 153 157 158
3 153 158 154
3 155 153 152
3 37 159 155
3 160 155 159
3 160 156 155
3 155 161 40
3 37 155 40
3 155 152 161
3 40 161 41
3 152 149 161
3 161 149 162
3 161 162 41
3 29 31 163
3 149 146 162
3 164 163 143
3 164 29 163
3 165 140 166
3 142 164 143
3 27 165 25
3 165 166 25
3 25 166 21
3 166 167 21
3 166 141 167
3 140 141 166
3 21 167 20
3 167 168 20
3 167 108 168
3 141 108 167
3 20 168 169
3 168 170 169
3 168 101 170
3 108 101 168
3 171 172 3
3 1 3 172
3 171 173 172
3 20 169 19
3 173 171 174
3 12 16 174
3 173 174 16
3 175 176 160
3 177 160 176
3 177 178 160
3 178 156 160
3 175 160 159
3 179 180 175
3 180 176 175
3 181 175 159
3 179 175 181
3 182 183 179
3 183 180 179
3 179 184 185
3 182 179 185
3 179 181 184
3 75 76 186
3 187 183 182
3 188 189 186
3 188 186 76
3 80 190 78
3 188 191 189
3 192 117 190
3 188 118 191
3 192 190 80
3 104 113 192
3 113 117 192
3 83 192 80
3 104 192 83
3 131 193 194
3 195 194 193
3 195 187 194
3 118 120 191
3 193 196 195
3 195 196 197
3 187 195 183
3 195 197 183
3 183 197 180
3 197 198 180
3 199 200 197
3 197 200 198
3 199 197 196
3 201 199 196
3 202 199 201
3 202 203 199
3 203 200 199
3 204 202 201
3 205 203 202
3 206 205 202
3 206 202 204
3 207 206 204
3 208 206 207
3 209 205 206
3 208 209 206
3 210 211 212
3 210 213 211
3 214 215 210
3 215 213 210
3 216 210 212
3 214 210 216
3 217 214 216
3 218 214 217
3 219 215 214
3 218 219 214
3 220 221 218
3 221 219 218
3 222 218 217
3 220 218 222
3 151 220 147
3 223 220 151
3 223 221 220
3 220 224 147
3 220 222 224
3 147 224 148
3 222 225 224
3 148 224 225
3 222 226 225
3 226 227 225
3 227 228 225
3 148 225 228
3 226 229 227
3 229 126 227
3 125 227 126
3 227 125 228
3 226 230 229
3 229 230 231
3 229 232 126
3 229 231 232
3 233 234 235
3 236 234 233
3 230 237 231
3 233 235 238
3 130 238 235
3 128 235 239
3 130 235 128
3 234 239 235
3 234 201 239
3 201 196 239
3 193 239 196
3 128 239 193
3 236 204 234
3 207 204 236
3 216 212 237
3 230 216 237
3 204 201 234
3 226 217 230
3 217 216 230
3 222 217 226
3 154 223 151
3 154 240 223
3 223 240 241
3 223 241 221
3 221 241 219
3 241 242 219
3 241 243 242
3 240 243 241
3 243 244 242
3 219 242 215
3 242 245 215
3 242 244 245
3 215 245 213
3 243 246 244
3 247 246 243
3 247 248 246
3 158 249 247
3 250 247 249
3 240 247 243
3 158 247 240
3 250 248 247
3 251 250 249
3 252 251 253
3 251 249 253
3 254 253 157
3 252 253 254
3 253 158 157
3 253 249 158
3 178 254 255
3 254 157 255
3 178 256 254
3 256 252 254
3 177 257 256
3 257 258 256
3 177 256 178
3 256 258 252
3 257 259 258
3 260 259 257
3 260 261 259
3 262 260 263
3 264 260 262
3 260 177 263
3 260 257 177
3 264 261 260
3 265 264 262
3 266 265 267
3 265 262 267
3 205 267 203
3 266 267 205
3 267 268 203
3 267 262 268
3 203 268 200
3 262 263 268
3 268 198 200
3 268 263 198
3 209 266 205
3 263 176 198
3 263 177 176
3 178 255 156
3 156 255 157
3 154 158 240
3 180 198 176
3 131 128 193
3 181 39 184
3 181 37 39
3 181 159 37
3 141 109 108
3 107 113 104
3 85 104 83
3 101 103 170
3 2 97 7
3 84 269 64
3 84 81 269
3 269 81 270
3 64 269 65
3 269 270 65
3 81 71 270
3 65 270 69
3 71 69 270
3 36 44 74
3 59 271 8
3 51 50 272
3 8 271 9
3 272 273 13
3 272 50 273
3 13 273 14
3 23 14 273
3 50 23 273
3 274 275 276
3 277 278 279
3 280 276 281
3 278 282 279
3 278 283 282
3 284 285 286
3 285 287 286
3 285 288 287
3 289 290 291
3 288 292 287
3 290 293 294
3 290 294 291
3 295 294 293
3 295 296 294
3 296 297 294
3 294 297 298
3 294 298 291
3 291 298 299
3 298 300 299
3 297 301 298
3 298 301 300
3 299 300 302
3 301 303 300
3 300 303 304
3 300 304 302
3 305 306 307
3 308 307 306
3 302 304 309
3 308 310 307
3 308 311 312
3 313 314 315
3 316 313 317
3 313 316 314
3 308 312 310
3 318 309 319
3 311 320 312
3 321 319 322
3 318 319 321
3 323 318 321
3 324 318 323
3 324 302 318
3 302 309 318
3 325 326 324
3 326 299 324
3 325 324 323
3 299 302 324
3 327 328 325
3 328 326 325
3 329 325 323
3 327 325 329
3 330 331 332
3 333 331 330
3 334 327 329
3 333 335 331
3 335 333 284
3 336 337 338
3 339 338 340
3 339 340 341
3 342 341 343
3 344 345 346
3 344 332 345
3 330 332 344
3 347 348 349
3 350 346 345
3 348 334 351
3 348 351 349
3 334 329 351
3 351 329 352
3 349 351 353
3 351 352 353
3 329 323 352
3 352 354 353
3 323 321 352
3 352 321 354
3 353 354 355
3 321 322 354
3 354 322 356
3 354 356 355
3 357 358 320
3 357 359 358
3 359 360 358
3 361 356 362
3 361 355 356
3 363 361 362
3 364 361 363
3 364 365 361
3 365 355 361
3 366 367 364
3 367 365 364
3 368 364 363
3 366 364 368
3 369 366 370
3 370 366 368
3 371 366 369
3 371 367 366
3 372 373 374
3 375 373 372
3 375 350 373
3 347 367 371
3 350 375 346
3 376 343 377
3 378 379 380
3 381 382 383
3 381 374 382
3 372 374 381
3 384 385 386
3 282 383 382
3 369 370 384
3 384 370 385
3 387 388 389
3 385 370 390
3 388 391 392
3 385 390 393
3 388 392 389
3 389 392 394
3 392 395 394
3 392 391 396
3 392 397 395
3 392 396 397
3 393 398 399
3 399 398 400
3 397 396 401
3 399 400 402
3 403 404 405
3 406 404 403
3 398 407 400
3 406 408 404
3 406 409 410
3 411 412 413
3 414 415 416
3 414 417 415
3 406 410 408
3 409 418 410
3 397 401 419
3 397 419 420
3 395 420 421
3 422 423 418
3 409 422 418
3 397 420 395
3 422 424 423
3 425 426 427
3 426 428 427
3 426 411 428
3 428 429 427
3 428 430 429
3 413 430 428
3 411 413 428
3 427 429 431
3 431 429 432
3 429 433 432
3 429 430 433
3 432 433 434
3 433 435 434
3 433 436 435
3 430 436 433
3 437 438 439
3 437 440 438
3 440 441 438
3 434 435 442
3 443 437 439
3 444 440 437
3 445 444 437
3 445 437 443
3 415 445 443
3 446 444 445
3 415 447 445
3 447 446 445
3 447 448 446
3 448 449 446
3 446 450 444
3 449 450 446
3 448 451 449
3 451 452 449
3 449 452 453
3 449 454 450
3 449 453 454
3 453 455 454
3 453 456 455
3 457 456 453
3 452 457 453
3 454 455 458
3 455 459 458
3 455 460 459
3 456 460 455
3 458 459 461
3 459 462 461
3 460 463 459
3 459 463 462
3 461 462 464
3 465 464 466
3 461 464 465
3 467 442 468
3 465 466 441
3 467 468 469
3 470 434 467
3 434 442 467
3 471 467 469
3 470 467 471
3 472 432 470
3 432 434 470
3 473 470 471
3 472 470 473
3 474 472 473
3 475 472 474
3 431 432 472
3 475 431 472
3 476 475 477
3 475 478 477
3 475 474 478
3 479 475 476
3 479 431 475
3 476 425 479
3 427 431 479
3 425 427 479
3 477 478 480
3 480 478 481
3 478 482 481
3 478 474 482
3 474 473 482
3 482 473 483
3 481 482 484
3 482 483 484
3 473 471 483
3 484 483 485
3 483 471 486
3 483 486 485
3 471 469 486
3 484 485 487
3 488 484 487
3 488 487 489
3 490 481 488
3 481 484 488
3 488 491 492
3 490 488 492
3 488 489 491
3 492 491 493
3 494 493 495
3 492 493 494
3 496 497 495
3 494 495 497
3 496 495 498
3 499 500 496
3 500 497 496
3 501 496 498
3 499 496 501
3 457 499 456
3 502 499 457
3 502 500 499
3 499 501 503
3 499 503 456
3 456 503 460
3 503 504 460
3 503 501 505
3 503 506 504
3 503 505 506
3 501 498 505
3 460 504 463
3 507 502 457
3 508 500 502
3 509 508 502
3 507 510 502
3 509 502 510
3 314 509 510
3 509 511 508
3 314 316 509
3 512 509 316
3 509 513 511
3 512 513 509
3 508 511 514
3 511 490 514
3 515 480 511
3 511 480 490
3 515 511 513
3 516 515 513
3 477 480 515
3 517 515 516
3 517 477 515
3 516 518 517
3 476 477 517
3 519 476 517
3 519 517 518
3 520 521 522
3 476 519 425
3 521 423 424
3 521 520 423
3 523 524 525
3 520 522 526
3 527 421 524
3 527 524 523
3 528 527 523
3 394 527 528
3 395 421 527
3 394 395 527
3 296 528 297
3 529 528 296
3 528 523 297
3 529 394 528
3 530 529 296
3 531 529 530
3 531 389 529
3 389 394 529
3 277 279 532
3 533 277 532
3 530 296 295
3 533 532 534
3 535 533 534
3 536 281 537
3 288 535 292
3 535 534 292
3 297 523 301
3 523 525 301
3 538 526 522
3 301 525 303
3 538 305 526
3 305 538 306
3 539 512 317
3 516 539 518
3 539 516 512
3 516 513 512
3 514 497 540
3 508 514 540
3 514 494 497
3 490 494 514
3 508 540 500
3 500 540 497
3 316 317 512
3 452 507 457
3 541 507 452
3 541 542 507
3 542 510 507
3 543 544 541
3 545 541 544
3 451 541 452
3 543 541 451
3 545 542 541
3 546 543 451
3 359 547 360
3 547 548 549
3 547 549 360
3 363 362 550
3 551 549 548
3 551 405 549
3 552 550 407
3 552 363 550
3 398 552 407
3 390 552 398
3 390 368 552
3 368 363 552
3 417 553 447
3 553 448 447
3 553 546 448
3 403 405 551
3 546 451 448
3 315 542 545
3 542 314 510
3 315 314 542
3 490 492 494
3 480 481 490
3 440 465 441
3 554 465 440
3 554 461 465
3 444 554 440
3 450 554 444
3 450 458 554
3 458 461 554
3 454 458 450
3 417 447 415
3 416 415 443
3 443 439 555
3 416 443 555
3 413 556 430
3 430 556 436
3 393 390 398
3 370 368 390
3 387 389 531
3 282 283 383
3 557 558 380
3 347 559 367
3 367 559 365
3 559 560 365
3 347 349 559
3 559 349 560
3 349 353 560
3 365 560 355
3 353 355 560
3 311 357 320
3 328 561 326
3 335 284 562
3 284 286 562
3 561 289 563
3 561 563 326
3 289 291 563
3 291 299 563
3 326 563 299
