ply
format ascii 1.0
comment Created in Blender version 4.2.3 LTS
element vertex 698
property float x
property float y
property float z
property float s
property float t
element face 1078
property list uchar uint vertex_indices
end_header
0.24034032 -0.2024396 0.1839776 0.81633 0.40781
0.2883603 -0.10209644 0.23447037 0.8227 0.39802
0.23041463 -0.19432165 0.23447037 0.82131 0.40846
0.30078155 -0.10624561 0.1839776 0.8177 0.3972
0.30568987 -0.0028957725 0.23447037 0.82428 0.38823
0.27672458 -0.0031588152 0.28496313 0.83036 0.38925
0.2610374 -0.092967466 0.28496313 0.82857 0.39905
0.20857507 -0.17646214 0.28496313 0.82703 0.40931
0.13391617 0.2634634 0.1839776 0.82582 0.35616
0.23134293 0.18170878 0.23447037 0.82784 0.36886
0.24131003 0.18977413 0.1839776 0.82296 0.36792
-0.00023677373 0.29437178 0.1839776 0.82939 0.34344
0.12838022 0.2523614 0.23447037 0.8306 0.35735
-0.00023677373 0.28199562 0.23447037 0.83428 0.34515
0.11620325 0.22793227 0.28496313 0.83603 0.35868
0.20941697 0.16396964 0.28496313 0.83351 0.36982
0.13324724 -0.27787265 0.1839776 0.81528 0.42007
-0.00023677373 -0.2963373 0.23447037 0.81996 0.43286
-0.00023677373 -0.30884495 0.1839776 0.81502 0.43286
0.1277413 -0.2666391 0.23447037 0.82029 0.42039
0.11562451 -0.24193192 0.28496313 0.82589 0.4208
-0.00023677373 -0.26881889 0.28496313 0.82569 0.43286
0.3014468 0.09797364 0.1839776 0.82092 0.37793
0.3188553 -0.002775468 0.1839776 0.81926 0.38739
0.2889992 0.09369663 0.23447037 0.82586 0.37875
0.26161617 0.0842896 0.28496313 0.83174 0.37966
0.2897096 0.093940996 -0.017994404 0.79864 0.37325
0.29715103 -0.0029746667 0.03249836 0.80202 0.38446
0.30643782 -0.0028882176 -0.017994404 0.79659 0.3835
0.23191044 0.18216738 -0.017994404 0.80132 0.36253
0.28093016 0.09092302 0.03249836 0.80402 0.37437
0.22488238 0.17648107 0.03249836 0.80659 0.36383
0.26161617 0.08428963 0.0829916 0.80987 0.3756
0.27672458 -0.0031587929 0.0829916 0.80794 0.3855
0.12805325 -0.267278 -0.017994404 0.79302 0.41906
-0.00023677373 -0.28822678 0.03249836 0.79809 0.43286
-0.00023677373 -0.29705134 -0.017994404 0.79268 0.43286
0.22397667 -0.18905994 0.03249836 0.7993 0.40631
0.12417091 -0.25935918 0.03249836 0.79856 0.41932
0.20857507 -0.17646211 0.0829916 0.80517 0.40692
0.11562451 -0.24193189 0.0829916 0.80431 0.41965
-0.00023677373 -0.26881886 0.0829916 0.80391 0.43286
0.12869592 0.25299278 -0.017994404 0.80503 0.35021
-0.00023677373 0.28269848 -0.017994404 0.80933 0.33769
0.12479103 0.24516043 0.03249836 0.81007 0.35173
-0.00023677373 0.2739679 0.03249836 0.81412 0.33953
0.11620325 0.2279323 0.0829916 0.81543 0.35327
0.20941697 0.16396967 0.0829916 0.81225 0.36514
0.23097838 -0.19478388 -0.017994404 0.79379 0.40576
0.28030628 -0.09940546 0.03249836 0.80048 0.39496
0.28906685 -0.10233314 -0.017994404 0.79499 0.39418
0.2610374 -0.09296744 0.0829916 0.80642 0.39577
0.2889992 0.09369665 0.13348436 0.81594 0.37686
0.30568987 -0.0028957576 0.13348436 0.81417 0.38654
0.23134293 0.18170881 0.13348436 0.81806 0.36668
0.1277413 -0.26663908 0.13348436 0.81018 0.41984
-0.00023677373 -0.29633728 0.13348436 0.80997 0.43286
0.23041463 -0.19432163 0.13348436 0.81123 0.40739
0.12838022 0.25236142 0.13348436 0.821 0.35482
-0.00023677373 0.28199565 0.13348436 0.82432 0.34237
0.2883603 -0.10209642 0.13348436 0.81259 0.39657
0.12479103 0.24516043 -0.06848717 0.79997 0.34848
0.22488238 0.17648107 -0.06848717 0.796 0.36093
0.28093016 0.09092303 -0.06848717 0.79316 0.37192
0.29715103 -0.0029746518 -0.06848717 0.79096 0.3825
-0.24081393 -0.2024396 0.1839776 0.81633 0.45792
-0.2888339 -0.10209644 0.23447037 0.8227 0.46771
-0.30125508 -0.10624561 0.1839776 0.8177 0.46852
-0.23088822 -0.19432165 0.23447037 0.82131 0.45726
-0.26151094 -0.092967466 0.28496313 0.82857 0.46668
-0.2771981 -0.0031588152 0.28496313 0.83036 0.47648
-0.30616346 -0.0028957725 0.23447037 0.82428 0.47749
-0.31932878 -0.002775468 0.1839776 0.81926 0.47834
-0.23181649 0.18170878 0.23447037 0.82784 0.49687
-0.13438971 0.2634634 0.1839776 0.82582 0.50956
-0.24178356 0.18977413 0.1839776 0.82296 0.4978
-0.20989427 0.16396964 0.28496313 0.83351 0.49591
-0.12885377 0.2523614 0.23447037 0.8306 0.50838
-0.11667679 0.22793227 0.28496313 0.83603 0.50705
-0.00023677373 0.28199562 0.23447037 0.83428 0.52058
-0.00023677373 0.29437178 0.1839776 0.82939 0.52229
-0.13372079 -0.27787265 0.1839776 0.81528 0.44566
-0.12821487 -0.2666391 0.23447037 0.82029 0.44534
-0.20905237 -0.17646214 0.28496313 0.82703 0.45642
-0.30192032 0.09797364 0.1839776 0.82092 0.4878
-0.2894728 0.09369663 0.23447037 0.82586 0.48697
-0.2620897 0.0842896 0.28496313 0.83174 0.48606
-0.2976283 -0.0029746667 0.03249836 0.80202 0.48127
-0.29018313 0.093940996 -0.017994404 0.79864 0.49247
-0.30691135 -0.0028882176 -0.017994404 0.79659 0.48223
-0.2771981 -0.0031587929 0.0829916 0.80794 0.48023
-0.28140366 0.09092302 0.03249836 0.80402 0.49135
-0.2620897 0.08428963 0.0829916 0.80987 0.49013
-0.22535598 0.17648107 0.03249836 0.80659 0.5019
-0.23238403 0.18216738 -0.017994404 0.80132 0.5032
-0.12852679 -0.267278 -0.017994404 0.79302 0.44667
-0.12464446 -0.25935918 0.03249836 0.79856 0.44641
-0.20905237 -0.17646211 0.0829916 0.80517 0.45881
-0.22445023 -0.18905994 0.03249836 0.7993 0.45941
-0.23145196 -0.19478388 -0.017994404 0.79379 0.45996
-0.12916943 0.25299278 -0.017994404 0.80503 0.51551
-0.20989427 0.16396967 0.0829916 0.81225 0.50059
-0.12526459 0.24516043 0.03249836 0.81007 0.514
-0.11667679 0.2279323 0.0829916 0.81543 0.51246
-0.00023677373 0.2739679 0.03249836 0.81412 0.5262
-0.00023677373 0.28269848 -0.017994404 0.80933 0.52803
-0.28078353 -0.09940546 0.03249836 0.80048 0.47077
-0.28954044 -0.10233314 -0.017994404 0.79499 0.47155
-0.26151094 -0.09296744 0.0829916 0.80642 0.46996
-0.2894728 0.09369665 0.13348436 0.81594 0.48886
-0.30616346 -0.0028957576 0.13348436 0.81417 0.47919
-0.23181649 0.18170881 0.13348436 0.81806 0.49905
-0.12821487 -0.26663908 0.13348436 0.81018 0.44589
-0.11609805 -0.24193189 0.0829916 0.80431 0.44607
-0.23088822 -0.19432163 0.13348436 0.81123 0.45834
-0.12885377 0.25236142 0.13348436 0.821 0.51091
-0.00023677373 0.28199565 0.13348436 0.82432 0.52335
-0.00023677373 0.25475916 0.0829916 0.81891 0.52424
-0.2888339 -0.10209642 0.13348436 0.81259 0.46915
-0.22535598 0.17648107 -0.06848717 0.796 0.5048
-0.12526459 0.24516043 -0.06848717 0.79997 0.51725
-0.00023677373 0.2739679 -0.06848717 0.80444 0.52956
-0.20412523 -0.5377299 0.25680208 0.34331 0.73174
-4.621494e-18 -0.36865473 0.25680208 0.31667 0.72371
-4.621494e-18 -0.5789474 0.25680208 0.33506 0.71149
-0.20412523 -0.53773 0.38463354 0.09885 0.62287
-4.621494e-18 -0.5375458 0.38463354 0.07865 0.62745
-0.188299 -0.499523 0.38463354 0.09644 0.61946
-0.49279752 -0.24905396 0.38463354 0.12087 0.58819
-0.49261332 -0.04493249 0.38463354 0.11574 0.56852
-0.53401494 -0.04493249 0.38463354 0.11991 0.56755
-0.19542849 -0.24036095 0.25680208 0.3168 0.74826
-0.090770744 -0.32032657 0.25680208 0.31771 0.73446
0.19542849 -0.24036095 0.25680208 0.29409 0.71407
0.20412523 -0.5377299 0.25680208 0.3196 0.69603
0.090770744 -0.32032657 0.25680208 0.30717 0.71858
-0.34832793 -0.39326048 0.38463354 0.10989 0.60542
-0.45459053 -0.23322773 0.38463354 0.11676 0.58754
-0.32372227 -0.04493247 0.25680208 0.30715 0.77083
-0.49279752 0.15919274 0.25680208 0.29912 0.79748
-0.2753941 0.045838304 0.25680208 0.2964 0.77188
-0.49279752 0.15919271 0.38463354 0.11167 0.54869
-0.34832793 0.30339918 0.38463354 0.09437 0.53806
-0.37760526 0.33267647 0.38463354 0.09666 0.53436
-0.19542849 0.15049976 0.25680208 0.2826 0.77096
-4.621494e-18 0.27878982 0.25680208 0.26003 0.76132
0.20412523 0.44786504 0.25680208 0.23338 0.75328
0.090770744 0.23046541 0.25680208 0.25899 0.75057
-0.45459053 0.14336649 0.38463354 0.10828 0.55107
-0.098956384 -0.1438888 0.25680208 0.30275 0.74542
-4.621494e-18 -0.04493247 0.25680208 0.28835 0.74251
-4.621494e-18 -0.23279175 0.25680208 0.30478 0.7316
0.098956384 -0.1438888 0.25680208 0.29126 0.72811
-4.621494e-18 0.44768086 0.38463354 0.05696 0.5319
-0.20412523 0.44786498 0.38463354 0.07701 0.52731
-0.188299 0.40965804 0.38463354 0.07634 0.53139
0.19542849 0.15049976 0.25680208 0.2599 0.73677
-0.20412523 -0.5377299 0.25680208 0.10848 0.63642
-0.37760526 -0.42253768 0.38463354 0.1136 0.60776
-0.37760526 -0.42253765 0.25680208 0.12682 0.61527
-0.10570628 -0.15063515 1.1988382 0.2608 0.84013
-0.27095932 -0.13297483 1.1871123 0.24753 0.85117
-0.19255337 -0.23748595 1.1881571 0.24822 0.83762
-4.621494e-18 -0.044932596 1.2003641 0.27599 0.84316
-0.1989012 -0.044932596 1.1973686 0.25888 0.85458
-0.10570628 0.060773723 1.1988382 0.27296 0.85835
-0.27095932 0.043113418 1.1871123 0.25767 0.86637
-0.30895966 -0.044932593 1.1820536 0.24936 0.86093
-4.621494e-18 -0.4943516 0.9777708 0.53784 0.16562
-0.17772308 -0.47399282 0.8299413 0.52296 0.18439
-4.621494e-18 -0.50988096 0.8299413 0.52257 0.1656
-0.31778792 -0.3627205 0.9777708 0.53923 0.20177
-0.1717887 -0.4596624 0.9777708 0.53829 0.18375
-0.32876593 -0.3736985 0.8299413 0.52412 0.20304
-0.18225189 -0.484922 0.6483469 0.50402 0.1853
-4.621494e-18 -0.5217234 0.6483469 0.50382 0.16557
-0.3738206 -0.42350358 0.5169487 0.48779 0.20642
-0.20251295 -0.53527206 0.5840497 0.49235 0.18598
-0.37097552 -0.42065856 0.58401966 0.49439 0.20556
-0.2040501 -0.53898525 0.51697874 0.48554 0.18643
-4.621494e-18 -0.57628655 0.5840535 0.49182 0.16554
-4.621494e-18 -0.5722614 0.6511283 0.49837 0.16556
-0.20097579 -0.5315589 0.6511245 0.49902 0.18559
-0.36813053 -0.4178135 0.6510906 0.50106 0.20472
0.4147336 -0.2167175 0.9777708 0.54118 0.11177
0.4671733 -0.050141566 0.8289113 0.52867 0.09201
0.44941905 -0.044932567 0.9777708 0.54384 0.09416
0.31778792 -0.3627205 0.9777708 0.5393 0.12952
0.4296278 -0.22395226 0.8294749 0.52598 0.10994
0.33714324 -0.38207576 0.6483469 0.50587 0.12666
0.44340202 -0.23496404 0.6455507 0.50684 0.10833
0.45033988 -0.10720024 0.6259885 0.50661 0.09515
0.4147336 0.12685615 0.9777708 0.54772 0.07673
0.32855546 0.28362292 0.8349471 0.53863 0.05506
0.31778792 0.27285534 0.9777708 0.55268 0.05961
0.4294023 0.13137746 0.8336468 0.53316 0.07315
0.44133872 0.13121206 0.6831937 0.51737 0.06936
0.33544445 0.29051194 0.6883955 0.52397 0.05032
-4.621494e-18 0.4044902 0.9777708 0.5666 0.02584
0.1776066 0.3838533 0.8349471 0.54501 0.03728
-4.621494e-18 0.41971514 0.8349471 0.55233 0.01944
0.1717887 0.369801 0.9777708 0.55897 0.04281
0.1813311 0.39284322 0.6883955 0.53049 0.03186
-4.621494e-18 0.4294568 0.6883955 0.53763 0.01344
-0.31778792 0.27285534 0.9777708 0.55255 0.272
-0.1776066 0.3838533 0.8349471 0.54479 0.29444
-0.32855546 0.28362292 0.8349471 0.53841 0.27655
-4.621494e-18 0.4044902 0.9777708 0.5665 0.306
-0.1717887 0.369801 0.9777708 0.55884 0.28891
-4.621494e-18 0.41971514 0.8349471 0.55213 0.31241
-0.1813311 0.39284322 0.6883955 0.53017 0.29987
-0.33544445 0.29051194 0.6883955 0.52366 0.28127
-0.44941905 -0.044932567 0.9777708 0.54373 0.23726
-0.4294023 0.13137746 0.8336468 0.53296 0.25834
-0.4671733 -0.050141566 0.8289113 0.52849 0.23938
-0.4147336 0.12685615 0.9777708 0.5476 0.25478
-0.44133872 0.13121206 0.6831937 0.51707 0.26211
-0.45033988 -0.10720024 0.6259885 0.50634 0.23616
0.17772308 -0.47399282 0.8299413 0.52302 0.14682
0.32876593 -0.3736985 0.8299413 0.52422 0.12821
0.1717887 -0.4596624 0.9777708 0.53832 0.1475
0.18225189 -0.484922 0.6483469 0.5041 0.14585
-0.49279752 -0.24905393 0.25680208 0.13498 0.59042
-0.53401494 -0.04493247 0.25680208 0.13498 0.56404
-4.621494e-18 -0.5789474 0.38463354 0.07962 0.63177
-0.49279752 0.15919274 0.25680208 0.12328 0.54049
-0.37760526 0.3326765 0.25680208 0.1051 0.52196
-0.20412523 0.44786504 0.25680208 0.07969 0.51138
-4.621494e-18 0.48908618 0.38463354 0.05594 0.52757
-4.621494e-18 0.48908624 0.25680208 0.05255 0.51326
0.20412523 0.44786504 0.25680208 0.02757 0.52377
0.37760526 0.33267647 0.38463354 0.02265 0.55184
0.37760526 0.3326765 0.25680208 0.0096 0.5445
0.49279752 0.15919274 0.25680208 0.00153 0.56909
0.53401494 -0.04493249 0.38463354 0.01649 0.59179
0.53401494 -0.04493247 0.25680208 0.00155 0.59528
0.20412523 0.44786498 0.38463354 0.03708 0.53677
0.49279752 -0.24905393 0.25680208 0.0132 0.6186
0.37760526 -0.42253768 0.38463354 0.03936 0.62471
0.37760526 -0.42253765 0.25680208 0.03112 0.63666
0.49279752 0.15919271 0.38463354 0.01552 0.57128
-4.621494e-18 -0.5789474 0.25680208 0.08239 0.64704
0.20412523 -0.53773 0.38463354 0.05863 0.63198
0.49279752 -0.24905396 0.38463354 0.02463 0.61052
0.49279752 0.15919274 0.25680208 0.24187 0.71126
0.37760526 0.3326765 0.25680208 0.23338 0.73141
0.20412523 -0.5377299 0.25680208 0.05544 0.6467
0.32372227 -0.04493247 0.25680208 0.26955 0.71419
0.2753941 0.045838304 0.25680208 0.26441 0.72369
0.34832793 -0.39326048 0.38463354 0.04165 0.6211
0.188299 -0.499523 0.38463354 0.05934 0.62791
-0.20412523 0.44786504 0.25680208 0.2571 0.78899
-0.37760526 0.3326765 0.25680208 0.27725 0.79748
0.49261332 -0.04493249 0.38463354 0.02063 0.59083
0.45459053 -0.23322773 0.38463354 0.02799 0.60818
-0.090770744 0.23046541 0.25680208 0.26953 0.76645
-0.49279752 -0.24905393 0.25680208 0.33483 0.77376
-0.37760526 -0.42253765 0.25680208 0.34331 0.75361
0.34832793 0.30339918 0.38463354 0.02633 0.55413
0.45459053 0.14336649 0.38463354 0.0196 0.57191
0.49279752 -0.24905393 0.25680208 0.27758 0.68755
0.53401494 -0.04493247 0.25680208 0.25733 0.6958
-0.2753941 -0.13569945 0.25680208 0.31228 0.76133
0.2753941 -0.13569945 0.25680208 0.28029 0.71315
-0.45584953 -0.10825256 0.53656006 0.4938 0.2386
-0.45459053 -0.23322773 0.38463354 0.47447 0.23002
-0.450509 -0.23817366 0.5169978 0.48832 0.22613
0.188299 0.40965804 0.38463354 0.0395 0.54011
0.18785928 -0.04493247 0.25680208 0.27744 0.72608
0.098956384 0.05402767 0.25680208 0.27394 0.7396
-0.18785928 -0.04493247 0.25680208 0.29926 0.75895
-0.098956384 0.05402767 0.25680208 0.28544 0.75692
-4.621494e-18 0.14292681 0.25680208 0.27191 0.75342
-4.621494e-18 0.15396857 1.1973686 0.28741 0.86027
0.10570628 0.060773723 1.1988382 0.29118 0.84619
0.08804601 0.22602674 1.1871123 0.29919 0.86147
-4.621494e-18 0.26402703 1.1820536 0.29376 0.86978
-0.08804601 0.22602674 1.1871123 0.284 0.87162
-0.19255337 0.14762083 1.1881571 0.27045 0.87093
-4.621494e-18 -0.35388845 1.1820536 0.25821 0.81653
-4.621494e-18 -0.24383003 1.1973686 0.26457 0.82605
-0.08804601 -0.31588817 1.1871123 0.25278 0.82485
0.08804601 -0.31588817 1.1871123 0.26798 0.8147
0.10570628 -0.15063515 1.1988382 0.27901 0.82797
0.27095932 -0.13297483 1.1871123 0.2943 0.81995
0.19255337 -0.23748595 1.1881571 0.28152 0.81539
0.30895966 -0.044932593 1.1820536 0.30261 0.82539
0.1989012 -0.044932596 1.1973686 0.2931 0.83174
0.27095932 0.043113418 1.1871123 0.30444 0.83515
-4.621494e-18 -0.44023567 1.1219354 0.55468 0.16563
-0.16316713 -0.43885264 1.0686765 0.54812 0.18338
-4.621494e-18 -0.47179803 1.0686765 0.54773 0.16562
-0.27952456 -0.32445332 1.1219354 0.55583 0.20048
-0.15110299 -0.40972573 1.1219354 0.55482 0.18316
-0.30184138 -0.34677395 1.0686765 0.54899 0.20099
-0.3939201 -0.2080997 1.0686765 0.55077 0.21836
-0.3953069 -0.044932585 1.1219354 0.5599 0.2343
-0.36479312 -0.19603556 1.1219354 0.5573 0.21756
-0.4268692 -0.044932578 1.0686765 0.55328 0.23551
-0.4147336 -0.2167175 0.9777708 0.5411 0.21957
-0.3939201 0.1182346 1.0686765 0.55703 0.25238
-0.27952456 0.23459193 1.1219354 0.56808 0.26685
-0.36479312 0.10617039 1.1219354 0.56334 0.25079
-0.30184138 0.2569088 1.0686765 0.56175 0.26896
-0.16316713 0.34898743 1.0686765 0.5679 0.28512
-4.621494e-18 0.35037428 1.1219354 0.58145 0.29762
-0.15110299 0.31986427 1.1219354 0.57391 0.28251
-4.621494e-18 0.38193655 1.0686765 0.57563 0.30124
-4.621494e-18 0.35037428 1.1219354 0.58145 0.03419
0.16316713 0.34898743 1.0686765 0.56796 0.04659
-4.621494e-18 0.38193655 1.0686765 0.57567 0.03058
0.27952456 0.23459193 1.1219354 0.56811 0.06476
0.15110299 0.31986427 1.1219354 0.57394 0.04919
0.30184138 0.2569088 1.0686765 0.56182 0.06265
0.3939201 0.1182346 1.0686765 0.5571 0.07913
0.3953069 -0.044932585 1.1219354 0.55993 0.09713
0.36479312 0.10617039 1.1219354 0.56337 0.08072
0.4268692 -0.044932578 1.0686765 0.55334 0.09591
0.3939201 -0.2080997 1.0686765 0.55082 0.11299
0.27952456 -0.32445332 1.1219354 0.55584 0.13082
0.36479312 -0.19603556 1.1219354 0.55733 0.11379
0.30184138 -0.34677395 1.0686765 0.54903 0.1303
0.16316713 -0.43885264 1.0686765 0.54814 0.14788
0.15110299 -0.40972573 1.1219354 0.55483 0.14811
0.13203703 -0.3701244 1.1613679 0.26853 0.80691
0.24734963 -0.2922822 1.1615672 0.28321 0.80692
-4.621494e-18 -0.39842072 1.1607742 0.25534 0.81223
-4.621494e-18 -0.44023567 1.1219354 0.25185 0.807
0.15110299 -0.40972573 1.1219354 0.26758 0.80056
0.27952456 -0.32445332 1.1219354 0.28448 0.80056
0.35348812 -0.044932593 1.1607742 0.30691 0.82251
0.32519177 -0.17696588 1.1613679 0.29677 0.81254
0.36479312 -0.19603556 1.1219354 0.30009 0.80704
0.3953069 -0.044932585 1.1219354 0.31214 0.81902
0.19255337 0.14762083 1.1881571 0.30376 0.8487
0.32519177 0.08710448 1.1613679 0.31224 0.8357
0.24734963 0.20241699 1.1615672 0.31223 0.85038
0.36479312 0.10617039 1.1219354 0.31859 0.83475
0.27952456 0.23459193 1.1219354 0.31859 0.85165
-4.621494e-18 0.30855554 1.1607742 0.29663 0.87408
0.13203703 0.28025913 1.1613679 0.30661 0.86395
0.15110299 0.31986427 1.1219354 0.31211 0.86726
-4.621494e-18 0.35037428 1.1219354 0.30012 0.87932
-0.13203703 0.28025913 1.1613679 0.28344 0.87941
-0.24734963 0.20241699 1.1615672 0.26876 0.8794
-0.15110299 0.31986427 1.1219354 0.28439 0.88576
-0.27952456 0.23459193 1.1219354 0.26749 0.88576
-0.35348812 -0.044932593 1.1607742 0.24506 0.8638
-0.32519177 0.08710448 1.1613679 0.2552 0.87378
-0.36479312 0.10617039 1.1219354 0.25188 0.87928
-0.3953069 -0.044932585 1.1219354 0.23983 0.86729
-0.32519177 -0.17696588 1.1613679 0.23973 0.85061
-0.24734963 -0.2922822 1.1615672 0.23975 0.83593
-0.36479312 -0.19603556 1.1219354 0.23338 0.85157
-0.27952456 -0.32445332 1.1219354 0.23338 0.83466
-0.13203703 -0.3701244 1.1613679 0.24537 0.82237
-0.15110299 -0.40972573 1.1219354 0.23987 0.81905
-0.4296278 -0.22395226 0.8294749 0.52584 0.22138
-0.44340202 -0.23496404 0.6455507 0.50662 0.22293
-0.33714324 -0.38207576 0.6483469 0.50572 0.20453
-0.34279948 0.2978707 0.5149646 0.50611 0.28691
-0.45459053 0.14336649 0.38463354 0.48641 0.27158
-0.45052403 0.13510194 0.51676464 0.50047 0.26672
-0.34832793 -0.39326048 0.38463354 0.46941 0.21
-0.3428333 -0.38776582 0.51420164 0.48307 0.20754
-4.621494e-18 0.43986353 0.5149646 0.51984 0.32526
-0.188299 0.40965804 0.38463354 0.49943 0.31094
-0.1853074 0.40244582 0.5149646 0.51268 0.30619
-0.49261332 -0.04493249 0.38463354 0.47948 0.25062
0.34279948 0.2978707 0.5149646 0.50655 0.04467
0.188299 0.40965804 0.38463354 0.49999 0.0208
0.1853074 0.40244582 0.5149646 0.51313 0.02554
0.49261332 -0.04493249 0.38463354 0.47993 0.08064
0.45052403 0.13510194 0.51676464 0.50087 0.06472
0.45584953 -0.10825256 0.53656006 0.49413 0.09267
-4.621494e-18 0.43986353 0.5149646 0.52028 0.00663
0.34832793 -0.39326048 0.38463354 0.4697 0.12103
0.450509 -0.23817366 0.5169978 0.48863 0.10506
0.3428333 -0.38776582 0.51420164 0.48329 0.12356
0.45459053 0.14336649 0.38463354 0.48692 0.05984
0.188299 -0.499523 0.38463354 0.46593 0.14264
-4.621494e-18 -0.5297699 0.51420164 0.47911 0.16551
-4.621494e-18 -0.5375458 0.38463354 0.46438 0.16546
0.45459053 -0.23322773 0.38463354 0.47485 0.10112
-0.188299 -0.499523 0.38463354 0.46578 0.18832
-0.18532619 -0.49234834 0.51420164 0.48024 0.18688
0.18532619 -0.49234834 0.51420164 0.48036 0.14416
-0.48538235 -0.11487847 0.53916407 0.4956 0.23664
-0.47260416 -0.06063102 0.5812726 0.50093 0.24173
0.47987264 -0.11382615 0.62859344 0.50429 0.09628
-0.47987264 -0.11382615 0.62859344 0.50402 0.23501
-0.44889292 0.13612422 0.58552694 0.50732 0.26486
-0.33977032 0.29484156 0.5863762 0.5134 0.2846
-4.621494e-18 0.43557903 0.5863762 0.52704 0.32246
-0.18367247 0.398492 0.5863762 0.51991 0.30359
-4.621494e-18 0.4294568 0.6883955 0.53732 0.31842
0.33977032 0.29484156 0.5863762 0.51379 0.04699
-4.621494e-18 0.43557903 0.5863762 0.52742 0.00942
0.18367247 0.398492 0.5863762 0.5203 0.02814
0.47260416 -0.06063102 0.5812726 0.50125 0.08959
0.44889292 0.13612422 0.58552694 0.50768 0.06659
0.48538235 -0.11487847 0.53916407 0.49592 0.09463
0.4832439 -0.2583295 0.51966953 0.49173 0.10699
0.47613695 -0.2551237 0.64822674 0.50328 0.10904
-0.48169175 -0.2509444 0.5839443 0.49731 0.22376
-0.5006261 -0.06231095 0.5838504 0.50031 0.23829
-0.4832439 -0.2583295 0.51966953 0.49145 0.22421
-0.47613695 -0.2551237 0.64822674 0.50305 0.2222
0.37097552 -0.42065856 0.58401966 0.49458 0.12559
0.3738206 -0.42350358 0.5169487 0.488 0.1247
0.48169175 -0.2509444 0.5839443 0.49757 0.10746
0.36813053 -0.4178135 0.6510906 0.50122 0.12646
0.2040501 -0.53898525 0.51697874 0.48565 0.14463
-4.621494e-18 -0.5803079 0.51698256 0.48483 0.16552
0.20251295 -0.53527206 0.5840497 0.49245 0.14512
0.20097579 -0.5315589 0.6511245 0.4991 0.14553
0.082615204 -0.44893238 0.6864977 0.85895 0.52627
0.15282801 -0.5593215 0.7512307 0.86055 0.50989
0.082615204 -0.5666352 0.7051878 0.86585 0.5148
0.15282801 -0.44162247 0.7325406 0.8492 0.51855
0.19944991 -0.5483097 0.8205757 0.85723 0.50345
0.21612927 -0.41765574 0.88347816 0.84257 0.49479
0.21612927 -0.5353548 0.9021683 0.85676 0.49611
0.19944991 -0.52239984 0.9837613 0.85931 0.48936
0.15282801 -0.39368892 1.0344162 0.85513 0.47241
0.15282801 -0.51138806 1.0531058 0.86382 0.48359
0.082615204 -0.5040744 1.0991492 0.87057 0.48063
-4.621494e-18 -0.3837595 1.0969353 0.87975 0.46576
-4.621494e-18 -0.5014586 1.1156254 0.8779 0.47981
-0.082615204 -0.5040744 1.0991492 0.88477 0.48252
-0.15282801 -0.39368892 1.0344162 0.90195 0.47854
-0.15282801 -0.51138806 1.0531058 0.89054 0.48716
-0.19944991 -0.52239984 0.9837613 0.89338 0.49398
-0.21612927 -0.41765574 0.88347816 0.90845 0.50379
-0.21612927 -0.5353548 0.9021683 0.89404 0.50124
-0.19944991 -0.5483097 0.8205757 0.89158 0.50828
0.037357636 -0.63107145 1.0343633 0.44319 0.97903
0.04631366 -0.66530967 0.96969795 0.43851 0.97493
0.08215296 -0.63858056 1.0017452 0.44321 0.97415
-4.621494e-18 -0.6200334 1.047585 0.44264 0.98264
-4.621494e-18 -0.6547225 1.0091186 0.43899 0.98004
-0.037357636 -0.63107145 1.0343633 0.43939 0.98433
-0.04631366 -0.66530967 0.96969795 0.434 0.98123
-4.621494e-18 -0.677652 0.9247632 0.43311 0.97582
-0.15282801 -0.44162247 0.7325406 0.89539 0.52595
-0.15282801 -0.5593215 0.7512307 0.88651 0.5136
-0.082615204 -0.44893238 0.6864977 0.88299 0.53099
-0.082615204 -0.5666352 0.7051878 0.88001 0.51669
-4.621494e-18 -0.45155194 0.67002106 0.87021 0.5309
-4.621494e-18 -0.56925094 0.68871117 0.87276 0.51724
-0.10844613 -0.5712241 0.79805946 0.88323 0.50914
0.13033831 -0.6404748 0.918859 0.43992 0.96629
0.08690724 -0.6683502 0.92328644 0.43732 0.96994
0.11554934 -0.6550496 0.88334656 0.43631 0.96574
0.11554934 -0.64333117 0.9571414 0.44161 0.96953
0.04631366 -0.6798356 0.87821674 0.43221 0.97042
0.08215296 -0.6643476 0.8394685 0.43143 0.96572
0.037357636 -0.6673129 0.8061242 0.42682 0.96732
-4.621494e-18 -0.68198156 0.83745766 0.42722 0.97161
-0.04631366 -0.6798356 0.87821674 0.4277 0.97672
-0.037357636 -0.6673129 0.8061242 0.42302 0.97262
-4.621494e-18 -0.6609163 0.790133 0.42357 0.96901
-0.08690724 -0.6683502 0.92328644 0.42889 0.98171
-0.11554934 -0.64333117 0.9571414 0.4299 0.9859
-0.13033831 -0.6404748 0.918859 0.42629 0.98536
-0.11554934 -0.6550496 0.88334656 0.4246 0.98211
-0.08215296 -0.6643476 0.8394685 0.423 0.9775
-4.621494e-18 -0.5782672 0.7536926 0.87353 0.51165
-0.05862217 -0.5764106 0.7653847 0.87862 0.51132
-0.1533692 -0.554214 0.90516376 0.88835 0.50047
-0.14153053 -0.5634106 0.84726286 0.88664 0.50533
-0.10844613 -0.53720766 1.0122681 0.88588 0.49067
-0.14153053 -0.5450212 0.96306086 0.88803 0.49533
-4.621494e-18 -0.5301646 1.0566349 0.87712 0.48561
-0.05862217 -0.5320212 1.0449429 0.88199 0.48731
0.10844613 -0.53720766 1.0122681 0.86737 0.48819
0.05862217 -0.5320212 1.0449429 0.872 0.48596
0.1533692 -0.554214 0.90516376 0.86236 0.49689
0.14153053 -0.5450212 0.96306086 0.86405 0.49207
0.10844613 -0.5712241 0.79805946 0.86493 0.50656
0.14153053 -0.5634106 0.84726286 0.86271 0.50198
0.05862217 -0.5764106 0.7653847 0.86873 0.50994
0.053608578 -0.62939906 0.7832513 0.42499 0.96303
-4.621494e-18 -0.63017327 0.77188635 0.42076 0.96699
0.05862217 -0.5764106 0.7653847 0.42147 0.95684
0.100538634 -0.62481767 0.8145771 0.43063 0.96088
0.1321949 -0.61707175 0.86086464 0.43665 0.9611
0.14153053 -0.5634106 0.84726286 0.43799 0.9541
0.14353746 -0.60766095 0.91365004 0.44194 0.96348
0.1321949 -0.60025704 0.9667549 0.4459 0.96771
0.14153053 -0.5450212 0.96306086 0.45208 0.96419
0.100538634 -0.5932817 1.0131626 0.44805 0.97334
0.053608578 -0.58793366 1.0443673 0.44783 0.97937
0.05862217 -0.5320212 1.0449429 0.45483 0.9807
-4.621494e-18 -0.5851524 1.0554137 0.44545 0.98465
-0.053608578 -0.58793366 1.0443673 0.44122 0.98862
-0.05862217 -0.5320212 1.0449429 0.44474 0.9948
-0.100538634 -0.5932817 1.0131626 0.43559 0.99076
-0.08215296 -0.63858056 1.0017452 0.43478 0.98593
-0.1321949 -0.60025704 0.9667549 0.42956 0.99055
-0.14153053 -0.5450212 0.96306086 0.42823 0.99754
-0.14353746 -0.60766095 0.91365004 0.42428 0.98817
-0.1321949 -0.61707175 0.86086464 0.42031 0.98394
-0.14153053 -0.5634106 0.84726286 0.41413 0.98746
-0.100538634 -0.62481767 0.8145771 0.41816 0.9783
-0.053608578 -0.62939906 0.7832513 0.41838 0.97228
-0.05862217 -0.5764106 0.7653847 0.41138 0.97094
0.4153875 0.10959423 0.686543 0.91449 0.28879
0.5657426 0.06849713 0.74843836 0.92032 0.26851
0.5657426 0.10959423 0.686543 0.92978 0.2779
0.4153875 0.0066014454 0.7895355 0.90534 0.28341
0.4153875 0.06849713 0.74843836 0.91032 0.28523
0.5657426 -0.06622718 0.80424166 0.89478 0.26579
0.5657426 0.0066014454 0.7895355 0.90757 0.26537
0.4153875 -0.13905573 0.7895355 0.89514 0.28648
0.4153875 -0.06622718 0.80424166 0.89989 0.28391
0.5657426 -0.20095138 0.74843836 0.87542 0.28146
0.5657426 -0.13905573 0.7895355 0.88401 0.27243
0.4153875 -0.24205229 0.686543 0.88967 0.29592
0.4153875 -0.20095138 0.74843836 0.89177 0.29083
0.5657426 -0.2567585 0.61371374 0.87193 0.30593
0.5657426 -0.24205229 0.686543 0.87208 0.29345
0.4153875 -0.24205226 0.54088545 0.89212 0.30625
0.4153875 -0.2567585 0.61371374 0.88982 0.30137
0.5657426 -0.20095134 0.47899008 0.88686 0.3258
0.5657426 -0.24205226 0.54088545 0.87804 0.31687
0.4153875 -0.13905568 0.4378891 0.90136 0.31159
0.4153875 -0.20095134 0.47899008 0.89618 0.30968
0.5657426 -0.06622712 0.4231825 0.91163 0.32908
0.5657426 -0.13905568 0.4378891 0.89902 0.32914
0.4153875 0.0066014975 0.4378891 0.91186 0.30873
0.4153875 -0.06622712 0.4231825 0.90675 0.311
0.5657426 0.06849716 0.47899008 0.93133 0.31387
0.5657426 0.0066014975 0.4378891 0.92256 0.32278
0.4153875 0.10959425 0.54088545 0.91743 0.29928
0.4153875 0.06849716 0.47899008 0.91534 0.30442
0.5657426 0.12430053 0.61371374 0.9346 0.2897
0.5657426 0.10959425 0.54088545 0.9346 0.30187
0.5657426 0.006928459 0.540555 0.2923 0.98202
0.52526563 -0.026682176 0.51823807 0.29778 0.98217
0.5657426 -0.026682176 0.51823807 0.29543 0.98551
0.5657426 0.03723172 0.61371374 0.29055 0.97292
0.5657426 0.10959423 0.686543 0.28425 0.96278
0.5657426 0.029245295 0.6532588 0.29246 0.96863
0.5657426 -0.06622714 0.51025534 0.29978 0.98754
0.5657426 0.0066014454 0.7895355 0.29841 0.95407
0.5657426 0.0069284365 0.6868696 0.29587 0.96546
0.5657426 0.06849713 0.74843836 0.29054 0.95699
0.5657426 -0.13905573 0.7895355 0.31438 0.95711
0.5657426 -0.06622717 0.7171731 0.30467 0.964
0.5657426 -0.06622718 0.80424166 0.30662 0.95413
0.5657426 -0.026682198 0.70918655 0.30015 0.96381
0.5657426 -0.24205229 0.686543 0.32428 0.97119
0.5657426 -0.1393864 0.6868696 0.31243 0.96879
0.5657426 -0.20095138 0.74843836 0.32078 0.96304
0.5657426 -0.10577589 0.70918655 0.30898 0.96556
0.5657426 -0.24205226 0.54088545 0.32068 0.9882
0.5657426 -0.16968596 0.61371374 0.31427 0.978
0.5657426 -0.2567585 0.61371374 0.32428 0.9801
0.5657426 -0.1617033 0.6532588 0.31411 0.97323
0.5657426 -0.13905568 0.4378891 0.30663 0.99748
0.5657426 -0.13938639 0.540555 0.30883 0.98548
0.5657426 -0.20095134 0.47899008 0.31452 0.99413
0.5657426 -0.16170329 0.57416534 0.31229 0.98235
0.5657426 0.0066014975 0.4378891 0.28947 0.9939
0.5657426 -0.06622712 0.4231825 0.29768 0.99756
0.5657426 -0.10577586 0.51823807 0.30458 0.98743
0.5657426 0.10959425 0.54088545 0.28037 0.97948
0.5657426 0.06849716 0.47899008 0.28354 0.98756
0.52526563 -0.13938639 0.540555 0.30673 0.9823
0.5657426 0.02924531 0.57416534 0.29032 0.9777
0.52526563 0.03723172 0.61371374 0.29448 0.97385
0.52526563 -0.06622715 0.61371374 0.30232 0.97552
0.52526563 0.02924531 0.57416534 0.29452 0.97697
0.52526563 0.0069284365 0.6868696 0.29791 0.96877
0.52526563 0.029245295 0.6532588 0.29573 0.97098
0.52526563 -0.06622717 0.7171731 0.30392 0.96762
0.52526563 -0.026682198 0.70918655 0.30081 0.96763
0.52526563 -0.1393864 0.6868696 0.30902 0.9711
0.52526563 -0.10577589 0.70918655 0.30677 0.96891
0.52526563 -0.16968596 0.61371374 0.31021 0.97715
0.52526563 -0.1617033 0.6532588 0.3102 0.97401
0.52526563 -0.16170329 0.57416534 0.30894 0.98004
0.52526563 -0.06622714 0.51025534 0.30065 0.98343
0.52526563 -0.10577586 0.51823807 0.30379 0.98343
0.52526563 0.006928459 0.54055834 0.29559 0.97993
0.4153875 0.12430053 0.61371374 0.91699 0.29372
-0.5657426 0.06849713 0.74843836 0.69363 0.93584
-0.4153875 0.10959423 0.686543 0.68778 0.91558
-0.5657426 0.10959423 0.686543 0.70307 0.92645
-0.4153875 0.0066014454 0.7895355 0.67863 0.92093
-0.4153875 0.06849713 0.74843836 0.68361 0.91914
-0.5657426 -0.06622718 0.80424166 0.66813 0.93862
-0.5657426 0.0066014454 0.7895355 0.68091 0.93898
-0.4153875 -0.13905573 0.7895355 0.66843 0.91793
-0.4153875 -0.06622718 0.80424166 0.67324 0.92051
-0.5657426 -0.20095138 0.74843836 0.64872 0.92294
-0.5657426 -0.13905573 0.7895355 0.65733 0.93198
-0.4153875 -0.24205229 0.686543 0.66298 0.90845
-0.4153875 -0.20095138 0.74843836 0.66506 0.91354
-0.5657426 -0.2567585 0.61371374 0.64523 0.89849
-0.5657426 -0.24205229 0.686543 0.64539 0.91095
-0.4153875 -0.24205226 0.54088545 0.66541 0.89812
-0.4153875 -0.2567585 0.61371374 0.66314 0.90306
-0.5657426 -0.20095134 0.47899008 0.66012 0.87857
-0.5657426 -0.24205226 0.54088545 0.65131 0.88753
-0.4153875 -0.13905568 0.4378891 0.67465 0.89277
-0.4153875 -0.20095134 0.47899008 0.66946 0.89468
-0.5657426 -0.06622712 0.4231825 0.68491 0.87528
-0.5657426 -0.13905568 0.4378891 0.6723 0.87522
-0.4153875 0.0066014975 0.4378891 0.68514 0.89563
-0.4153875 -0.06622712 0.4231825 0.68004 0.89336
-0.5657426 0.06849716 0.47899008 0.70461 0.89049
-0.5657426 0.0066014975 0.4378891 0.69584 0.88158
-0.4153875 0.10959425 0.54088545 0.69072 0.90509
-0.4153875 0.06849716 0.47899008 0.68862 0.89995
-0.5657426 0.12430053 0.61371374 0.70789 0.91465
-0.5657426 0.10959425 0.54088545 0.70789 0.90249
-0.5657426 0.006928459 0.540555 0.24531 0.96961
-0.52526563 -0.026682176 0.51823807 0.25079 0.96945
-0.52526563 0.006928459 0.54055834 0.2486 0.9717
-0.5657426 0.03723172 0.61371374 0.24356 0.97871
-0.5657426 0.10959423 0.686543 0.23726 0.98884
-0.5657426 0.12430053 0.61371374 0.23362 0.98095
-0.5657426 -0.06622714 0.51025534 0.2528 0.96408
-0.5657426 -0.026682176 0.51823807 0.24844 0.96611
-0.5657426 0.0069284365 0.6868696 0.24888 0.98616
-0.5657426 0.0066014454 0.7895355 0.25142 0.99756
-0.5657426 0.06849713 0.74843836 0.24355 0.99464
-0.5657426 0.029245295 0.6532588 0.24547 0.983
-0.5657426 -0.06622717 0.7171731 0.25768 0.98762
-0.5657426 -0.13905573 0.7895355 0.2674 0.99452
-0.5657426 -0.06622718 0.80424166 0.25963 0.99749
-0.5657426 -0.026682198 0.70918655 0.25316 0.98782
-0.5657426 -0.1393864 0.6868696 0.26544 0.98283
-0.5657426 -0.24205229 0.686543 0.2773 0.98044
-0.5657426 -0.20095138 0.74843836 0.27379 0.98859
-0.5657426 -0.10577589 0.70918655 0.26199 0.98606
-0.5657426 -0.16968596 0.61371374 0.26728 0.97362
-0.5657426 -0.24205226 0.54088545 0.27369 0.96342
-0.5657426 -0.2567585 0.61371374 0.2773 0.97153
-0.5657426 -0.1617033 0.6532588 0.26712 0.97839
-0.5657426 -0.13938639 0.540555 0.26184 0.96614
-0.5657426 -0.13905568 0.4378891 0.25964 0.95415
-0.5657426 -0.20095134 0.47899008 0.26753 0.95749
-0.5657426 -0.16170329 0.57416534 0.2653 0.96927
-0.5657426 0.0066014975 0.4378891 0.24248 0.95773
-0.5657426 -0.06622712 0.4231825 0.25069 0.95407
-0.5657426 -0.10577586 0.51823807 0.25759 0.96419
-0.5657426 0.10959425 0.54088545 0.23338 0.97215
-0.5657426 0.06849716 0.47899008 0.23655 0.96407
-0.52526563 -0.13938639 0.540555 0.25974 0.96933
-0.5657426 0.02924531 0.57416534 0.24333 0.97393
-0.52526563 0.03723172 0.61371374 0.2475 0.97778
-0.52526563 -0.06622715 0.61371374 0.25533 0.97611
-0.52526563 0.029245295 0.6532588 0.24874 0.98064
-0.52526563 0.0069284365 0.6868696 0.25092 0.98286
-0.52526563 -0.026682198 0.70918655 0.25382 0.98399
-0.52526563 -0.06622717 0.7171731 0.25693 0.984
-0.52526563 -0.10577589 0.70918655 0.25978 0.98272
-0.52526563 -0.1393864 0.6868696 0.26203 0.98053
-0.52526563 -0.1617033 0.6532588 0.26321 0.97762
-0.52526563 -0.16968596 0.61371374 0.26322 0.97447
-0.52526563 -0.16170329 0.57416534 0.26195 0.97158
-0.52526563 -0.10577586 0.51823807 0.2568 0.96819
-0.52526563 -0.06622714 0.51025534 0.25366 0.96819
-0.52526563 0.02924531 0.57416534 0.24753 0.97465
-0.4153875 0.12430053 0.61371374 0.69027 0.91065
-0.00023677373 0.25475913 0.28496313 0.83949 0.34738
-0.00023677373 0.25475916 0.0829916 0.81891 0.34149
-0.00023677373 0.2739679 -0.06848717 0.80444 0.33616
-0.00023677373 0.25475913 0.28496313 0.83949 0.51835
-0.11609805 -0.24193192 0.28496313 0.82589 0.44492
-0.2976283 -0.0029746518 -0.06848717 0.79096 0.48322
-0.28140366 0.09092303 -0.06848717 0.79316 0.49381
0.37760526 -0.42253765 0.25680208 0.29945 0.68755
-0.53401494 -0.04493247 0.25680208 0.31937 0.78923
-4.621494e-18 0.48908624 0.25680208 0.24163 0.77353
-0.34832793 0.30339918 0.38463354 0.49273 0.29135
-4.621494e-18 0.44768086 0.38463354 0.5067 0.33036
0.34832793 0.30339918 0.38463354 0.49327 0.04022
-4.621494e-18 0.44768086 0.38463354 0.50725 0.00153
0.5006261 -0.06231095 0.5838504 0.50061 0.093
0.19944991 -0.43061063 0.8018851 0.8442 0.50711
0.19944991 -0.40469703 0.9650712 0.84597 0.48195
0.082615204 -0.3863753 1.0804591 0.86661 0.46599
-0.082615204 -0.3863753 1.0804591 0.89243 0.46934
-0.19944991 -0.40469703 0.9650712 0.90845 0.49027
-0.19944991 -0.43061063 0.8018851 0.9036 0.51562
-4.621494e-18 -0.5782672 0.7536926 0.41478 0.96272
0.10844613 -0.5712241 0.79805946 0.4295 0.9541
0.1533692 -0.554214 0.90516376 0.44621 0.9575
0.10844613 -0.53720766 1.0122681 0.45483 0.97222
-4.621494e-18 -0.5301646 1.0566349 0.45143 0.98893
-0.10844613 -0.53720766 1.0122681 0.43671 0.99754
-0.1533692 -0.554214 0.90516376 0.42 0.99415
-0.10844613 -0.5712241 0.79805946 0.41138 0.97943
0.5657426 0.12430053 0.61371374 0.28061 0.97068
3 0 1 2
3 3 4 1
3 1 5 6
3 2 6 7
3 8 9 10
3 11 12 8
3 13 14 12
3 12 15 9
3 16 17 18
3 16 2 19
3 19 7 20
3 19 21 17
3 22 4 23
3 10 24 22
3 9 25 24
3 24 5 4
3 26 27 28
3 29 30 26
3 31 32 30
3 30 33 27
3 34 35 36
3 34 37 38
3 38 39 40
3 38 41 35
3 42 31 29
3 43 44 42
3 45 46 44
3 44 47 31
3 48 49 37
3 50 27 49
3 49 33 51
3 37 51 39
3 33 52 53
3 32 54 52
3 52 10 22
3 53 22 23
3 41 55 56
3 39 55 40
3 57 16 55
3 56 16 18
3 47 58 54
3 46 59 58
3 58 11 8
3 54 8 10
3 51 57 39
3 33 60 51
3 53 3 60
3 60 0 57
3 61 43 42
3 62 42 29
3 63 29 26
3 64 26 28
3 65 66 67
3 68 69 66
3 66 70 71
3 67 71 72
3 73 74 75
3 76 77 73
3 78 79 77
3 77 80 74
3 17 81 18
3 21 82 17
3 82 83 68
3 81 68 65
3 71 84 72
3 70 85 71
3 86 73 85
3 85 75 84
3 87 88 89
3 90 91 87
3 92 93 91
3 91 94 88
3 35 95 36
3 41 96 35
3 96 97 98
3 95 98 99
3 93 100 94
3 101 102 93
3 103 104 102
3 102 105 100
3 99 106 107
3 98 108 106
3 106 90 87
3 107 87 89
3 90 109 92
3 110 84 109
3 109 75 111
3 92 111 101
3 41 112 113
3 56 81 112
3 81 114 112
3 112 97 113
3 101 115 103
3 111 74 115
3 115 80 116
3 103 116 117
3 114 108 97
3 65 118 114
3 67 110 118
3 118 90 108
3 119 100 120
3 120 105 121
3 122 123 124
3 125 126 127
3 128 129 130
3 122 131 132
3 133 134 135
3 128 136 137
3 138 139 140
3 134 123 135
3 141 142 143
3 139 144 140
3 145 146 147
3 141 129 148
3 149 132 131
3 150 151 149
3 152 135 151
3 151 123 132
3 153 154 155
3 146 156 147
3 157 158 159
3 154 142 155
3 160 161 162
3 163 164 160
3 165 166 164
3 164 167 161
3 168 169 170
3 171 169 172
3 173 174 169
3 170 174 175
3 176 177 178
3 179 180 177
3 177 181 182
3 178 182 183
3 184 185 186
3 187 188 184
3 188 189 190
3 188 191 185
3 192 193 194
3 186 195 192
3 185 196 195
3 195 197 193
3 198 199 200
3 194 199 201
3 193 202 199
3 200 202 203
3 204 205 206
3 207 205 208
3 209 210 205
3 206 210 211
3 212 213 214
3 215 206 213
3 213 211 216
3 214 216 217
3 187 218 219
3 168 218 220
3 170 221 218
3 219 221 189
3 222 130 223
3 157 224 125
3 225 143 226
3 222 158 128
3 227 228 229
3 225 130 141
3 230 231 232
3 227 143 154
3 233 234 235
3 230 228 236
3 237 238 239
3 233 231 240
3 241 242 224
3 237 234 243
3 244 156 245
3 246 238 242
3 242 126 224
3 244 247 248
3 243 249 238
3 242 249 250
3 251 144 252
3 243 253 254
3 240 253 234
3 251 145 255
3 256 131 257
3 240 258 259
3 260 247 261
3 256 138 262
3 236 258 231
3 260 133 263
3 264 265 266
3 236 153 267
3 150 268 152
3 269 248 268
3 268 247 263
3 152 263 133
3 138 270 262
3 140 271 270
3 270 150 149
3 262 149 131
3 255 271 144
3 145 272 255
3 147 269 272
3 272 150 271
3 163 273 165
3 274 275 273
3 273 276 277
3 165 277 278
3 279 280 281
3 282 283 280
3 280 163 160
3 281 160 162
3 284 283 285
3 286 287 284
3 288 274 287
3 287 163 283
3 289 290 291
3 292 290 293
3 294 172 290
3 291 172 168
3 292 295 294
3 296 295 297
3 298 299 295
3 294 299 171
3 296 300 298
3 301 300 302
3 303 215 300
3 298 215 212
3 301 304 303
3 305 304 306
3 307 208 304
3 303 208 204
3 308 309 310
3 311 309 312
3 313 201 309
3 310 201 198
3 311 314 313
3 315 314 316
3 317 192 314
3 313 192 194
3 315 318 317
3 319 318 320
3 321 184 318
3 317 184 186
3 319 322 321
3 289 322 323
3 291 220 322
3 321 220 187
3 285 324 325
3 282 326 324
3 324 327 328
3 325 328 329
3 284 330 286
3 285 331 284
3 325 332 331
3 331 333 330
3 334 335 336
3 288 330 335
3 335 333 337
3 336 337 338
3 275 339 276
3 334 340 275
3 336 341 340
3 340 342 339
3 278 343 344
3 277 339 343
3 343 342 345
3 344 345 346
3 166 347 167
3 278 348 166
3 344 349 348
3 348 350 347
3 162 351 352
3 161 347 351
3 351 350 353
3 352 353 354
3 281 326 279
3 162 355 281
3 352 356 355
3 355 327 326
3 171 357 173
3 299 214 357
3 357 217 358
3 357 359 173
3 360 361 362
3 266 363 364
3 365 366 367
3 362 368 264
3 369 370 371
3 366 360 367
3 372 373 374
3 370 375 371
3 376 377 378
3 379 369 373
3 380 381 382
3 383 374 377
3 364 384 385
3 380 378 386
3 387 388 264
3 190 389 191
3 183 174 359
3 388 390 217
3 360 391 392
3 362 388 391
3 388 216 391
3 392 216 211
3 367 393 365
3 367 392 394
3 394 211 210
3 394 395 393
3 371 396 369
3 371 397 398
3 398 203 202
3 398 197 396
3 373 399 374
3 369 400 373
3 396 196 400
3 399 196 191
3 401 377 374
3 182 175 174
3 381 179 385
3 402 378 377
3 189 403 190
3 384 381 385
3 387 404 405
3 406 178 404
3 178 407 404
3 404 390 405
3 402 408 409
3 401 410 402
3 410 389 403
3 408 403 411
3 412 180 413
3 409 414 412
3 408 415 414
3 414 181 180
3 409 386 378
3 385 176 364
3 406 364 176
3 412 381 386
3 389 399 191
3 266 387 264
3 415 175 181
3 399 401 374
3 390 358 217
3 221 411 189
3 407 359 358
3 125 136 158
3 416 417 418
3 419 420 417
3 420 421 422
3 421 423 422
3 423 424 425
3 424 426 425
3 426 427 428
3 427 429 428
3 429 430 431
3 430 432 431
3 432 433 434
3 433 435 434
3 436 437 438
3 439 440 436
3 441 442 440
3 440 443 437
3 435 444 445
3 446 445 444
3 447 448 449
3 447 450 445
3 451 452 453
3 454 437 452
3 452 443 455
3 453 455 456
3 455 457 456
3 443 458 455
3 459 460 458
3 458 461 457
3 443 462 459
3 442 463 462
3 462 464 465
3 459 465 466
3 447 467 468
3 435 469 434
3 435 450 470
3 432 471 431
3 432 469 472
3 429 473 428
3 429 471 474
3 426 475 425
3 426 473 476
3 423 477 422
3 423 475 478
3 420 479 417
3 420 477 480
3 467 418 481
3 418 479 481
3 461 482 457
3 483 484 482
3 484 485 482
3 482 456 457
3 456 486 453
3 485 487 486
3 487 488 486
3 486 451 453
3 451 489 454
3 488 490 489
3 490 491 489
3 489 438 454
3 438 492 436
3 491 493 492
3 493 494 492
3 492 439 436
3 439 495 441
3 494 496 495
3 496 497 495
3 495 498 441
3 498 499 463
3 497 500 499
3 500 501 499
3 499 464 463
3 464 502 465
3 501 503 502
3 503 504 502
3 502 466 465
3 466 505 460
3 504 506 505
3 506 483 505
3 505 461 460
3 448 418 449
3 507 508 509
3 510 508 511
3 510 512 513
3 514 512 515
3 514 516 517
3 518 516 519
3 518 520 521
3 522 520 523
3 522 524 525
3 526 524 527
3 526 528 529
3 530 528 531
3 530 532 533
3 534 532 535
3 534 536 537
3 538 539 540
3 541 542 543
3 539 544 540
3 545 546 547
3 542 546 543
3 548 549 550
3 545 549 551
3 552 553 554
3 548 553 555
3 556 557 558
3 552 557 559
3 560 561 562
3 556 561 563
3 564 544 565
3 560 544 566
3 567 538 568
3 564 538 540
3 569 563 561
3 567 541 570
3 571 572 573
3 574 572 575
3 576 572 577
3 578 572 579
3 580 572 581
3 569 572 582
3 583 572 584
3 585 572 539
3 578 555 553
3 582 557 563
3 574 543 546
3 579 549 555
3 573 541 571
3 575 541 543
3 584 544 583
3 570 585 538
3 581 557 580
3 584 561 566
3 577 549 576
3 581 553 559
3 577 546 551
3 586 509 536
3 587 588 589
3 587 590 591
3 592 590 593
3 592 594 595
3 596 594 597
3 596 598 599
3 600 598 601
3 600 602 603
3 604 602 605
3 604 606 607
3 608 606 609
3 608 610 611
3 612 610 613
3 612 614 615
3 616 614 617
3 618 619 620
3 621 622 623
3 624 619 625
3 626 627 628
3 626 622 629
3 630 631 632
3 630 627 633
3 634 635 636
3 634 631 637
3 638 639 640
3 638 635 641
3 642 643 644
3 642 639 645
3 624 646 647
3 624 643 648
3 618 649 650
3 618 646 625
3 645 651 642
3 621 649 652
3 653 654 655
3 656 654 657
3 658 654 659
3 660 654 661
3 662 654 663
3 651 654 664
3 665 654 619
3 620 654 666
3 637 660 634
3 638 663 645
3 629 656 626
3 630 659 637
3 621 666 653
3 621 655 629
3 624 664 665
3 652 620 666
3 638 661 662
3 642 664 648
3 630 657 658
3 634 661 641
3 626 657 633
3 589 667 616
3 0 3 1
3 3 23 4
3 1 4 5
3 2 1 6
3 8 12 9
3 11 13 12
3 13 668 14
3 12 14 15
3 16 19 17
3 16 0 2
3 19 2 7
3 19 20 21
3 22 24 4
3 10 9 24
3 9 15 25
3 24 25 5
3 26 30 27
3 29 31 30
3 31 47 32
3 30 32 33
3 34 38 35
3 34 48 37
3 38 37 39
3 38 40 41
3 42 44 31
3 43 45 44
3 45 669 46
3 44 46 47
3 48 50 49
3 50 28 27
3 49 27 33
3 37 49 51
3 33 32 52
3 32 47 54
3 52 54 10
3 53 52 22
3 41 40 55
3 39 57 55
3 57 0 16
3 56 55 16
3 47 46 58
3 46 669 59
3 58 59 11
3 54 58 8
3 51 60 57
3 33 53 60
3 53 23 3
3 60 3 0
3 64 28 50
3 61 670 43
3 62 61 42
3 65 68 66
3 68 83 69
3 66 69 70
3 67 66 71
3 73 77 74
3 76 78 77
3 78 671 79
3 77 79 80
3 17 82 81
3 21 672 82
3 82 672 83
3 81 82 68
3 71 85 84
3 70 86 85
3 86 76 73
3 85 73 75
3 87 91 88
3 90 92 91
3 92 101 93
3 91 93 94
3 35 96 95
3 41 113 96
3 96 113 97
3 95 96 98
3 93 102 100
3 101 103 102
3 103 117 104
3 102 104 105
3 99 98 106
3 98 97 108
3 106 108 90
3 107 106 87
3 90 110 109
3 110 72 84
3 109 84 75
3 92 109 111
3 41 56 112
3 56 18 81
3 81 65 114
3 112 114 97
3 101 111 115
3 111 75 74
3 115 74 80
3 103 115 116
3 114 118 108
3 65 67 118
3 67 72 110
3 118 110 90
3 107 89 673
3 119 94 100
3 120 100 105
3 673 89 88
3 674 88 94
3 122 132 123
3 125 224 126
3 128 137 129
3 122 257 131
3 133 675 134
3 128 158 136
3 138 676 139
3 134 124 123
3 141 148 142
3 139 252 144
3 145 677 146
3 141 130 129
3 149 151 132
3 150 152 151
3 152 133 135
3 151 135 123
3 153 228 154
3 146 245 156
3 157 125 158
3 154 143 142
3 160 164 161
3 163 165 164
3 165 278 166
3 164 166 167
3 168 172 169
3 171 173 169
3 173 359 174
3 170 169 174
3 176 179 177
3 179 413 180
3 177 180 181
3 178 177 182
3 184 188 185
3 187 219 188
3 188 219 189
3 188 190 191
3 192 195 193
3 186 185 195
3 185 191 196
3 195 196 197
3 198 201 199
3 194 193 199
3 193 197 202
3 200 199 202
3 204 208 205
3 207 209 205
3 209 395 210
3 206 205 210
3 212 215 213
3 215 204 206
3 213 206 211
3 214 213 216
3 187 220 218
3 168 170 218
3 170 175 221
3 219 218 221
3 222 128 130
3 157 241 224
3 225 141 143
3 222 159 158
3 227 154 228
3 225 223 130
3 230 236 231
3 227 226 143
3 233 240 234
3 230 229 228
3 237 243 238
3 233 232 231
3 241 246 242
3 237 235 234
3 244 248 156
3 246 239 238
3 242 250 126
3 244 261 247
3 243 254 249
3 242 238 249
3 251 255 144
3 243 234 253
3 240 259 253
3 251 677 145
3 256 262 131
3 240 231 258
3 260 263 247
3 256 676 138
3 236 267 258
3 260 675 133
3 264 368 265
3 236 228 153
3 150 269 268
3 269 156 248
3 268 248 247
3 152 268 263
3 138 140 270
3 140 144 271
3 270 271 150
3 262 270 149
3 255 272 271
3 145 147 272
3 147 156 269
3 272 269 150
3 163 274 273
3 274 334 275
3 273 275 276
3 165 273 277
3 279 282 280
3 282 285 283
3 280 283 163
3 281 280 160
3 284 287 283
3 286 288 287
3 288 334 274
3 287 274 163
3 289 293 290
3 292 294 290
3 294 171 172
3 291 290 172
3 292 297 295
3 296 298 295
3 298 212 299
3 294 295 299
3 296 302 300
3 301 303 300
3 303 204 215
3 298 300 215
3 301 306 304
3 305 307 304
3 307 207 208
3 303 304 208
3 308 312 309
3 311 313 309
3 313 194 201
3 310 309 201
3 311 316 314
3 315 317 314
3 317 186 192
3 313 314 192
3 315 320 318
3 319 321 318
3 321 187 184
3 317 318 184
3 319 323 322
3 289 291 322
3 291 168 220
3 321 322 220
3 285 282 324
3 282 279 326
3 324 326 327
3 325 324 328
3 284 331 330
3 285 325 331
3 325 329 332
3 331 332 333
3 334 288 335
3 288 286 330
3 335 330 333
3 336 335 337
3 275 340 339
3 334 336 340
3 336 338 341
3 340 341 342
3 278 277 343
3 277 276 339
3 343 339 342
3 344 343 345
3 166 348 347
3 278 344 348
3 344 346 349
3 348 349 350
3 162 161 351
3 161 167 347
3 351 347 350
3 352 351 353
3 281 355 326
3 162 352 355
3 352 354 356
3 355 356 327
3 171 299 357
3 299 212 214
3 357 214 217
3 357 358 359
3 360 678 361
3 266 265 363
3 365 679 366
3 362 361 368
3 369 680 370
3 366 678 360
3 372 379 373
3 370 681 375
3 376 383 377
3 379 680 369
3 380 386 381
3 383 372 374
3 364 363 384
3 380 376 378
3 387 405 388
3 190 403 389
3 183 182 174
3 388 405 390
3 360 362 391
3 362 264 388
3 388 217 216
3 392 391 216
3 367 394 393
3 367 360 392
3 394 392 211
3 394 210 395
3 371 398 396
3 371 375 397
3 398 397 203
3 398 202 197
3 373 400 399
3 369 396 400
3 396 197 196
3 399 400 196
3 401 402 377
3 182 181 175
3 381 413 179
3 402 409 378
3 189 411 403
3 384 382 381
3 387 406 404
3 406 176 178
3 178 183 407
3 404 407 390
3 402 410 408
3 401 682 410
3 410 682 389
3 408 410 403
3 412 414 180
3 409 408 414
3 408 411 415
3 414 415 181
3 409 412 386
3 385 179 176
3 406 266 364
3 412 413 381
3 389 682 399
3 266 406 387
3 415 221 175
3 399 682 401
3 390 407 358
3 221 415 411
3 407 183 359
3 125 127 136
3 416 419 417
3 419 683 420
3 420 683 421
3 421 684 423
3 423 684 424
3 424 685 426
3 426 685 427
3 427 686 429
3 429 686 430
3 430 687 432
3 432 687 433
3 433 688 435
3 436 440 437
3 439 441 440
3 441 498 442
3 440 442 443
3 435 688 444
3 446 447 445
3 447 446 448
3 447 468 450
3 451 454 452
3 454 438 437
3 452 437 443
3 453 452 455
3 455 458 457
3 443 459 458
3 459 466 460
3 458 460 461
3 443 442 462
3 442 498 463
3 462 463 464
3 459 462 465
3 447 449 467
3 435 470 469
3 435 445 450
3 432 472 471
3 432 434 469
3 429 474 473
3 429 431 471
3 426 476 475
3 426 428 473
3 423 478 477
3 423 425 475
3 420 480 479
3 420 422 477
3 467 449 418
3 418 417 479
3 461 483 482
3 483 689 484
3 484 690 485
3 482 485 456
3 456 485 486
3 485 690 487
3 487 691 488
3 486 488 451
3 451 488 489
3 488 691 490
3 490 692 491
3 489 491 438
3 438 491 492
3 491 692 493
3 493 693 494
3 492 494 439
3 439 494 495
3 494 693 496
3 496 694 497
3 495 497 498
3 498 497 499
3 497 694 500
3 500 695 501
3 499 501 464
3 464 501 502
3 501 695 503
3 503 696 504
3 502 504 466
3 466 504 505
3 504 696 506
3 506 689 483
3 505 483 461
3 448 416 418
3 507 511 508
3 510 513 508
3 510 515 512
3 514 517 512
3 514 519 516
3 518 521 516
3 518 523 520
3 522 525 520
3 522 527 524
3 526 529 524
3 526 531 528
3 530 533 528
3 530 535 532
3 534 537 532
3 534 586 536
3 538 585 539
3 541 697 542
3 539 583 544
3 545 551 546
3 542 547 546
3 548 555 549
3 545 550 549
3 552 559 553
3 548 554 553
3 556 563 557
3 552 558 557
3 560 566 561
3 556 562 561
3 564 540 544
3 560 565 544
3 567 570 538
3 564 568 538
3 569 582 563
3 567 697 541
3 571 575 572
3 574 577 572
3 576 579 572
3 578 581 572
3 580 582 572
3 569 584 572
3 583 539 572
3 585 573 572
3 578 579 555
3 582 580 557
3 574 575 543
3 579 576 549
3 573 570 541
3 575 571 541
3 584 566 544
3 570 573 585
3 581 559 557
3 584 569 561
3 577 551 549
3 581 578 553
3 577 574 546
3 586 507 509
3 587 591 588
3 587 593 590
3 592 595 590
3 592 597 594
3 596 599 594
3 596 601 598
3 600 603 598
3 600 605 602
3 604 607 602
3 604 609 606
3 608 611 606
3 608 613 610
3 612 615 610
3 612 617 614
3 616 667 614
3 618 625 619
3 621 629 622
3 624 665 619
3 626 633 627
3 626 628 622
3 630 637 631
3 630 632 627
3 634 641 635
3 634 636 631
3 638 645 639
3 638 640 635
3 642 648 643
3 642 644 639
3 624 625 646
3 624 647 643
3 618 652 649
3 618 650 646
3 645 663 651
3 621 623 649
3 653 666 654
3 656 655 654
3 658 657 654
3 660 659 654
3 662 661 654
3 651 663 654
3 665 664 654
3 620 619 654
3 637 659 660
3 638 662 663
3 629 655 656
3 630 658 659
3 621 652 666
3 621 653 655
3 624 648 664
3 652 618 620
3 638 641 661
3 642 651 664
3 630 633 657
3 634 660 661
3 626 656 657
3 589 588 667
