ply
format ascii 1.0
comment Created in Blender version 4.2.3 LTS
element vertex 436
property float x
property float y
property float z
property float s
property float t
element face 224
property list uchar uint vertex_indices
end_header
0.413953 -7.2710676 4.7314873 0.085682 0.379251
0 -7.6850204 5.0354266 0.073115 0.392946
0.413953 -8.098973 4.7314873 0.085682 0.406641
-0.413953 -8.098973 4.7314873 0.137222 0.40928698
0 -7.6850204 5.0354266 0.121146 0.42298198
-0.413953 -7.2710676 4.7314873 0.137222 0.43667603
-0.413953 -7.2710676 4.7314873 0.137222 0.43667603
0 -7.6850204 5.0354266 0.121146 0.42298198
0.413953 -7.2710676 4.7314873 0.110862 0.43667603
0.413953 -8.098973 4.7314873 0.110862 0.40928698
0 -7.6850204 5.0354266 0.121146 0.42298198
-0.413953 -8.098973 4.7314873 0.137222 0.40928698
0.413953 0.4139537 4.7314863 0.123429 0.379251
0 6.7655395e-07 5.0354257 0.110862 0.392946
0.413953 -0.41395244 4.7314863 0.123429 0.40664
-0.413953 -0.41395244 4.7314863 0.16624 0.40928698
0 6.7655395e-07 5.0354257 0.150164 0.42298198
-0.413953 0.4139537 4.7314863 0.16624 0.43667603
-0.413953 0.4139537 4.7314863 0.16624 0.43667603
0 6.7655395e-07 5.0354257 0.150164 0.42298198
0.413953 0.4139537 4.7314863 0.13988 0.43667603
0.413953 -0.41395244 4.7314863 0.13988 0.40928698
0 6.7655395e-07 5.0354257 0.150164 0.42298198
-0.413953 -0.41395244 4.7314863 0.16624 0.40928698
0.413953 8.098975 4.7314854 0.147358 0.379251
0 7.6850214 5.0354247 0.134791 0.392946
0.413953 7.2710686 4.7314854 0.147358 0.40664
-0.413953 7.2710686 4.7314854 0.099475 0.40928698
0 7.6850214 5.0354247 0.083399 0.42298198
-0.413953 8.098975 4.7314854 0.099475 0.43667603
-0.413953 8.098975 4.7314854 0.099475 0.43667603
0 7.6850214 5.0354247 0.083399 0.42298198
0.413953 8.098975 4.7314854 0.073115 0.43667603
0.413953 7.2710686 4.7314854 0.073115 0.40928698
0 7.6850214 5.0354247 0.083399 0.42298198
-0.413953 7.2710686 4.7314854 0.099475 0.40928698
0.196203 7.4737854 -4.0362763 0.390329 0.504176
0.058009 7.4737854 -3.5205314 0.372625 0.504176
0.058014 -7.4737864 -3.5205295 0.372625 0.998677
0.196207 -7.4737864 -4.0362754 0.390329 0.998677
-0.058009 -7.4737864 -4.1043925 0.738915 0.998677
-0.196203 -7.4737864 -3.5886476 0.756599 0.998677
-0.196207 7.4737854 -3.5886483 0.756599 0.504175
-0.058014 7.4737854 -4.1043935 0.738915 0.504175
0.196207 -7.4737864 -4.0362754 0.598846 0.501529
-0.058009 -7.4737864 -4.1043925 0.607523 0.501529
-0.058014 7.4737854 -4.1043935 0.607523 0.0070279837
0.196203 7.4737854 -4.0362763 0.598846 0.0070279837
-0.196203 -7.4737864 -3.5886476 0.976761 0.504175
0.058014 -7.4737864 -3.5205295 0.968018 0.504175
0.058009 7.4737854 -3.5205314 0.968018 0.998677
-0.196207 7.4737854 -3.5886483 0.976761 0.998677
0.196203 7.4737854 -3.0362763 0.268149 0.504176
0.058009 7.4737854 -2.5205312 0.250444 0.504176
0.058014 -7.4737864 -2.5205293 0.250444 0.998677
0.196207 -7.4737864 -3.0362756 0.268149 0.998677
-0.058009 -7.4737864 -3.1043925 0.695571 0.504175
-0.196203 -7.4737864 -2.5886474 0.677888 0.504175
-0.196207 7.4737854 -2.588648 0.677888 0.998677
-0.058014 7.4737854 -3.1043935 0.695571 0.998677
0.196207 -7.4737864 -3.0362756 0.576175 0.501529
-0.058009 -7.4737864 -3.1043925 0.584852 0.501529
-0.058014 7.4737854 -3.1043935 0.584852 0.0070279837
0.196203 7.4737854 -3.0362763 0.576175 0.0070279837
-0.196203 -7.4737864 -2.5886474 0.953957 0.504175
0.058014 -7.4737864 -2.5205293 0.945214 0.504175
0.058009 7.4737854 -2.5205312 0.945214 0.998677
-0.196207 7.4737854 -2.588648 0.953957 0.998677
0.196203 7.4737854 -2.036276 0.413351 0.998677
0.058009 7.473786 -1.5205312 0.431056 0.998677
0.058014 -7.473786 -1.5205293 0.431056 0.504176
0.196207 -7.4737864 -2.0362754 0.413351 0.504176
-0.058009 -7.4737864 -2.1043923 0.573516 0.504175
-0.196203 -7.473786 -1.5886472 0.555832 0.504175
-0.196207 7.473786 -1.5886482 0.555832 0.998677
-0.058014 7.4737854 -2.1043932 0.573516 0.998677
0.196207 -7.4737864 -2.0362754 0.553503 0.501529
-0.058009 -7.4737864 -2.1043923 0.56218 0.501529
-0.058014 7.4737854 -2.1043932 0.56218 0.0070279837
0.196203 7.4737854 -2.036276 0.553503 0.0070279837
-0.196203 -7.473786 -1.5886472 0.931154 0.504175
0.058014 -7.473786 -1.5205293 0.922411 0.504175
0.058009 7.473786 -1.5205312 0.922411 0.998677
-0.196207 7.473786 -1.5886482 0.931154 0.998677
0.196203 7.473786 -1.0362761 0.454078 0.998677
0.058009 7.473786 -0.52053106 0.471782 0.998677
0.058014 -7.473786 -0.52053005 0.471783 0.504176
0.196207 -7.473786 -1.0362751 0.454078 0.504176
-0.058009 -7.473786 -1.1043922 0.634544 0.504175
-0.196203 -7.473786 -0.58864707 0.61686 0.504175
-0.196207 7.473786 -0.5886481 0.61686 0.998677
-0.058014 7.473786 -1.1043931 0.634544 0.998677
0.196207 -7.473786 -1.0362751 0.503811 0.501529
-0.058009 -7.473786 -1.1043922 0.512488 0.501529
-0.058014 7.473786 -1.1043931 0.512488 0.0070279837
0.196203 7.473786 -1.0362761 0.503811 0.0070279837
-0.196203 -7.473786 -0.58864707 0.90835 0.504175
0.058014 -7.473786 -0.52053005 0.899607 0.504175
0.058009 7.473786 -0.52053106 0.899607 0.998677
-0.196207 7.473786 -0.5886481 0.90835 0.998677
0.196203 7.473786 -0.03627601 0.247786 0.504176
0.058009 7.473786 0.47946906 0.230081 0.504176
0.058014 -7.473786 0.47947007 0.230081 0.998677
0.196207 -7.473786 -0.036275 0.247785 0.998677
-0.058009 -7.473786 -0.10439201 0.776942 0.504175
-0.196203 -7.473786 0.41135308 0.759258 0.504175
-0.196207 7.473786 0.41135204 0.759258 0.998677
-0.058014 7.473786 -0.10439302 0.776942 0.998677
0.196207 -7.473786 -0.036275 0.621518 0.501529
-0.058009 -7.473786 -0.10439201 0.630195 0.501529
-0.058014 7.473786 -0.10439302 0.630195 0.0070279837
0.196203 7.473786 -0.03627601 0.621518 0.0070279837
-0.196203 -7.473786 0.41135308 0.851341 0.504175
0.058014 -7.473786 0.47947007 0.842598 0.504175
0.058009 7.473786 0.47946906 0.842598 0.998677
-0.196207 7.473786 0.41135204 0.851341 0.998677
0.196203 7.473786 0.9637241 0.227422 0.504176
0.058009 7.473786 1.4794692 0.209718 0.504176
0.058014 -7.473786 1.4794711 0.209718 0.998677
0.196207 -7.473786 0.96372515 0.227422 0.998677
-0.058009 -7.473786 0.8956081 0.736256 0.504175
-0.196203 -7.473786 1.4113531 0.718573 0.504175
-0.196207 7.473786 1.4113522 0.718573 0.998677
-0.058014 7.473786 0.8956071 0.736256 0.998677
0.196207 -7.473786 0.96372515 0.476593 0.501529
-0.058009 -7.473786 0.8956081 0.48527 0.501529
-0.058014 7.473786 0.8956071 0.48527 0.0070279837
0.196203 7.473786 0.9637241 0.476593 0.0070279837
-0.196203 -7.473786 1.4113531 0.828538 0.504175
0.058014 -7.473786 1.4794711 0.819795 0.504175
0.058009 7.473786 1.4794692 0.819795 0.998677
-0.196207 7.473786 1.4113522 0.828538 0.998677
0.196203 7.4737864 1.9637243 0.207059 0.504176
0.058009 7.4737864 2.4794693 0.189354 0.504176
0.058014 -7.4737854 2.4794712 0.189354 0.998677
0.196207 -7.4737854 1.9637252 0.207059 0.998677
-0.058009 -7.4737854 1.8956082 0.614201 0.504175
-0.196203 -7.4737854 2.411353 0.596517 0.504175
-0.196207 7.4737864 2.4113524 0.596517 0.998677
-0.058014 7.4737864 1.8956072 0.614201 0.998677
0.196207 -7.4737854 1.9637252 0.492476 0.501529
-0.058009 -7.4737854 1.8956082 0.501153 0.501529
-0.058014 7.4737864 1.8956072 0.501153 0.0070279837
0.196203 7.4737864 1.9637243 0.492476 0.0070279837
-0.196203 -7.4737854 2.411353 0.885547 0.504175
0.058014 -7.4737854 2.4794712 0.876804 0.504175
0.058009 7.4737864 2.4794693 0.876804 0.998677
-0.196207 7.4737864 2.4113524 0.885547 0.998677
0.196203 7.4737864 2.9637244 0.349603 0.504176
0.058009 7.4737864 3.4794695 0.331898 0.504176
0.058014 -7.4737854 3.4794714 0.331898 0.998677
0.196207 -7.4737854 2.963725 0.349602 0.998677
-0.058009 -7.4737854 2.8956082 0.553173 0.504175
-0.196203 -7.4737854 3.4113533 0.53549 0.504175
-0.196207 7.4737864 3.4113526 0.53549 0.998677
-0.058014 7.4737864 2.8956072 0.553174 0.998677
0.196207 -7.4737854 2.963725 0.573516 0.0070279837
-0.058009 -7.4737854 2.8956082 0.564839 0.0070279837
-0.058014 7.4737864 2.8956072 0.564839 0.501529
0.196203 7.4737864 2.9637244 0.573516 0.501529
-0.196203 -7.4737854 3.4113533 0.874145 0.504175
0.058014 -7.4737854 3.4794714 0.865402 0.504175
0.058009 7.4737864 3.4794695 0.865402 0.998677
-0.196207 7.4737864 3.4113526 0.874145 0.998677
0.196203 7.4737854 -3.5362763 0.288512 0.504176
0.058009 7.4737854 -3.0205314 0.270808 0.504176
0.058014 -7.4737864 -3.0205295 0.270808 0.998677
0.196207 -7.4737864 -3.5362756 0.288512 0.998677
-0.058009 -7.4737864 -3.6043925 0.532831 0.504175
-0.196203 -7.4737864 -3.0886476 0.515147 0.504175
-0.196207 7.4737854 -3.0886483 0.515147 0.998677
-0.058014 7.4737854 -3.6043935 0.532831 0.998677
0.196207 -7.4737864 -3.5362756 0.587511 0.501529
-0.058009 -7.4737864 -3.6043925 0.596188 0.501529
-0.058014 7.4737854 -3.6043935 0.596188 0.0070279837
0.196203 7.4737854 -3.5362763 0.587511 0.0070279837
-0.196203 -7.4737864 -3.0886476 0.965359 0.504175
0.058014 -7.4737864 -3.0205295 0.956616 0.504175
0.058009 7.4737854 -3.0205314 0.956616 0.998677
-0.196207 7.4737854 -3.0886483 0.965359 0.998677
0.196203 7.4737854 -2.536276 0.392988 0.998677
0.058009 7.4737854 -2.0205312 0.410693 0.998677
0.058014 -7.4737864 -2.0205293 0.410693 0.504176
0.196207 -7.4737864 -2.5362754 0.392988 0.504176
-0.058009 -7.4737864 -2.6043923 0.715914 0.504175
-0.196203 -7.4737864 -2.0886474 0.69823 0.504175
-0.196207 7.4737854 -2.088648 0.69823 0.998677
-0.058014 7.4737854 -2.6043932 0.715914 0.998677
0.196207 -7.4737864 -2.5362754 0.537819 0.501529
-0.058009 -7.4737864 -2.6043923 0.546495 0.501529
-0.058014 7.4737854 -2.6043932 0.546495 0.0070279837
0.196203 7.4737854 -2.536276 0.537819 0.0070279837
-0.196203 -7.4737864 -2.0886474 0.988163 0.504175
0.058014 -7.4737864 -2.0205293 0.97942 0.504175
0.058009 7.4737854 -2.0205312 0.97942 0.998677
-0.196207 7.4737854 -2.088648 0.988163 0.998677
0.196203 7.473786 -1.5362762 0.308876 0.504176
0.058009 7.473786 -1.020531 0.291171 0.504176
0.058014 -7.473786 -1.0205292 0.291171 0.998677
0.196207 -7.473786 -1.5362753 0.308876 0.998677
-0.058009 -7.473786 -1.6043923 0.675229 0.504175
-0.196203 -7.473786 -1.0886471 0.657545 0.504175
-0.196207 7.473786 -1.0886481 0.657545 0.998677
-0.058014 7.473786 -1.6043932 0.675229 0.998677
0.196207 -7.473786 -1.5362753 0.610182 0.501529
-0.058009 -7.473786 -1.6043923 0.618859 0.501529
-0.058014 7.473786 -1.6043932 0.618859 0.0070279837
0.196203 7.473786 -1.5362762 0.610182 0.0070279837
-0.196203 -7.473786 -1.0886471 0.919752 0.504175
0.058014 -7.473786 -1.0205292 0.911009 0.504175
0.058009 7.473786 -1.020531 0.911009 0.998677
-0.196207 7.473786 -1.0886481 0.919752 0.998677
0.196203 7.473786 -0.5362761 0.329239 0.504176
0.058009 7.473786 -0.020531006 0.311535 0.504176
0.058014 -7.473786 -0.020529998 0.311535 0.998677
0.196207 -7.473786 -0.536275 0.329239 0.998677
-0.058009 -7.473786 -0.60439205 0.654886 0.504175
-0.196203 -7.473786 -0.088647 0.637203 0.504175
-0.196207 7.473786 -0.088648014 0.637203 0.998677
-0.058014 7.473786 -0.60439306 0.654886 0.998677
0.196207 -7.473786 -0.536275 0.632853 0.501529
-0.058009 -7.473786 -0.60439205 0.64153 0.501529
-0.058014 7.473786 -0.60439306 0.64153 0.0070279837
0.196203 7.473786 -0.5362761 0.632853 0.0070279837
-0.196203 -7.473786 -0.088647 0.83994 0.504175
0.058014 -7.473786 -0.020529998 0.831196 0.504175
0.058009 7.473786 -0.020531006 0.831196 0.998677
-0.196207 7.473786 -0.088648014 0.83994 0.998677
0.196203 7.473786 0.46372405 0.474441 0.998677
0.058009 7.473786 0.9794691 0.492146 0.998677
0.058014 -7.473786 0.97947115 0.492146 0.504176
0.196207 -7.473786 0.46372506 0.474441 0.504176
-0.058009 -7.473786 0.39560807 0.797284 0.504175
-0.196203 -7.473786 0.9113531 0.7796 0.504175
-0.196207 7.473786 0.9113521 0.7796 0.998677
-0.058014 7.473786 0.39560705 0.797284 0.998677
0.196207 -7.473786 0.46372506 0.526483 0.501529
-0.058009 -7.473786 0.39560807 0.53516 0.501529
-0.058014 7.473786 0.39560705 0.53516 0.0070279837
0.196203 7.473786 0.46372405 0.526483 0.0070279837
-0.196203 -7.473786 0.9113531 0.854 0.998677
0.058014 -7.473786 0.97947115 0.862743 0.998677
0.058009 7.473786 0.9794691 0.862743 0.504175
-0.196207 7.473786 0.9113521 0.854 0.504175
0.196203 7.473786 1.4637241 0.433715 0.998677
0.058009 7.4737864 1.9794693 0.451419 0.998677
0.058014 -7.4737854 1.9794712 0.451419 0.504176
0.196207 -7.473786 1.4637251 0.433715 0.504176
-0.058009 -7.473786 1.3956081 0.593859 0.504175
-0.196203 -7.4737854 1.9113532 0.576175 0.504175
-0.196207 7.4737864 1.9113523 0.576175 0.998677
-0.058014 7.473786 1.3956071 0.593859 0.998677
0.196207 -7.473786 1.4637251 0.515147 0.501529
-0.058009 -7.473786 1.3956081 0.523824 0.501529
-0.058014 7.473786 1.3956071 0.523824 0.0070279837
0.196203 7.473786 1.4637241 0.515147 0.0070279837
-0.196203 -7.4737854 1.9113532 0.942556 0.504175
0.058014 -7.4737854 1.9794712 0.933812 0.504175
0.058009 7.4737864 1.9794693 0.933812 0.998677
-0.196207 7.4737864 1.9113523 0.942555 0.998677
0.196203 7.4737864 2.4637244 0.369966 0.504176
0.058009 7.4737864 2.9794693 0.352261 0.504176
0.058014 -7.4737854 2.9794712 0.352261 0.998677
0.196207 -7.4737854 2.463725 0.369966 0.998677
-0.058009 -7.4737854 2.3956082 0.512488 0.504175
-0.196203 -7.4737854 2.911353 0.494805 0.504175
-0.196207 7.4737864 2.9113524 0.494805 0.998677
-0.058014 7.4737864 2.3956072 0.512488 0.998677
0.196207 -7.4737854 2.463725 0.465257 0.501529
-0.058009 -7.4737854 2.3956082 0.473934 0.501529
-0.058014 7.4737864 2.3956072 0.473934 0.0070279837
0.196203 7.4737864 2.4637244 0.465257 0.0070279837
-0.196203 -7.4737854 2.911353 0.896948 0.504175
0.058014 -7.4737854 2.9794712 0.888205 0.504175
0.058009 7.4737864 2.9794693 0.888205 0.998677
-0.196207 7.4737864 2.9113524 0.896948 0.998677
-0.3 -7.385021 -4.0609546 0.352261 0.501529
-0.3 -7.9850225 -4.0609546 0.372202 0.501529
-0.3 -7.9850216 4.4645762 0.372202 0.22397703
-0.3 -7.3850203 4.4645762 0.352261 0.22397703
-0.3 -7.9850225 -4.0609546 0.209295 0.21948397
0.3 -7.9850225 -4.0609546 0.189354 0.21948397
0.3 -7.9850216 4.4645762 0.189354 0.501529
-0.3 -7.9850216 4.4645762 0.209295 0.501529
0.3 -7.9850225 -4.0609546 0.420059 0.501529
0.3 -7.385021 -4.0609546 0.439999 0.501529
0.3 -7.3850203 4.4645762 0.439999 0.22478998
0.3 -7.9850216 4.4645762 0.420059 0.22478998
0.3 -7.385021 -4.0609546 0.322291 0.21948397
-0.3 -7.385021 -4.0609546 0.30235 0.21948397
-0.3 -7.3850203 4.4645762 0.30235 0.501529
0.3 -7.3850203 4.4645762 0.322291 0.501529
0.3 -7.3850203 4.4645762 0.114614 0.443093
0.413953 -7.2710676 4.4645762 0.110862 0.439323
0.413953 -8.098973 4.4645762 0.110862 0.466712
0.3 -7.9850216 4.4645762 0.114614 0.462942
-0.413953 -7.2710676 4.4645762 0.177825 0.435753
-0.413953 -7.2710676 4.7314873 0.186695 0.435753
0.413953 -7.2710676 4.7314873 0.186695 0.408364
0.413953 -7.2710676 4.4645762 0.177825 0.408364
-0.3 -7.9850216 4.4645762 0.134372 0.462942
-0.413953 -8.098973 4.4645762 0.138125 0.466712
-0.413953 -7.2710676 4.4645762 0.138125 0.439323
-0.3 -7.3850203 4.4645762 0.134372 0.443093
0.413953 -8.098973 4.4645762 0.177825 0.49582398
0.413953 -8.098973 4.7314873 0.186695 0.49582398
-0.413953 -8.098973 4.7314873 0.186695 0.468435
-0.413953 -8.098973 4.4645762 0.177825 0.468435
0.413953 -7.2710676 4.4645762 0.094386 0.379251
0.413953 -7.2710676 4.7314873 0.085682 0.379251
0.413953 -8.098973 4.7314873 0.085682 0.406641
0.413953 -8.098973 4.4645762 0.094386 0.406641
-0.413953 -8.098973 4.4645762 0.010059 0.370511
-0.413953 -8.098973 4.7314873 0.001329 0.370511
-0.413953 -7.2710676 4.7314873 0.001329 0.397901
-0.413953 -7.2710676 4.4645762 0.010059 0.397901
-0.3 0.2999995 -4.0609555 0.349603 0.22397703
-0.3 -0.30000058 -4.0609555 0.329662 0.22397703
-0.3 -0.29999945 4.4645753 0.329662 0.501529
-0.3 0.30000064 4.4645753 0.349603 0.501529
-0.3 -0.30000058 -4.0609555 0.254493 0.21948397
0.3 -0.30000058 -4.0609555 0.234553 0.21948397
0.3 -0.29999945 4.4645753 0.234553 0.501529
-0.3 -0.29999945 4.4645753 0.254493 0.501529
0.3 -0.30000058 -4.0609555 0.442658 0.501529
0.3 0.2999995 -4.0609555 0.462599 0.501529
0.3 0.30000064 4.4645753 0.462599 0.22478998
0.3 -0.29999945 4.4645753 0.442658 0.22478998
0.3 0.2999995 -4.0609555 0.299691 0.21948397
-0.3 0.2999995 -4.0609555 0.279751 0.21948397
-0.3 0.30000064 4.4645753 0.279751 0.501529
0.3 0.30000064 4.4645753 0.299691 0.501529
0.3 0.30000064 4.4645753 0.076867 0.443093
0.413953 0.41395366 4.4645753 0.073115 0.439323
0.413953 -0.41395247 4.4645753 0.073115 0.466712
0.3 -0.29999945 4.4645753 0.076867 0.462942
-0.413953 0.41395366 4.4645753 0.177825 0.40571702
-0.413953 0.4139537 4.7314863 0.186695 0.40571702
0.413953 0.4139537 4.7314863 0.186695 0.37832803
0.413953 0.41395366 4.4645753 0.177825 0.37832803
-0.3 -0.29999945 4.4645753 0.096625 0.462942
-0.413953 -0.41395247 4.4645753 0.100378 0.466712
-0.413953 0.41395366 4.4645753 0.100378 0.439323
-0.3 0.30000064 4.4645753 0.096625 0.443093
0.413953 -0.41395247 4.4645753 0.158721 0.40664
0.413953 -0.41395244 4.7314863 0.167591 0.40664
-0.413953 -0.41395244 4.7314863 0.167591 0.379251
-0.413953 -0.41395247 4.4645753 0.158721 0.379251
0.413953 0.41395366 4.4645753 0.132133 0.379251
0.413953 0.4139537 4.7314863 0.123429 0.379251
0.413953 -0.41395244 4.7314863 0.123429 0.40664
0.413953 -0.41395247 4.4645753 0.132133 0.40664
-0.413953 -0.41395247 4.4645753 0.032834 0.370511
-0.413953 -0.41395244 4.7314863 0.024105 0.370511
-0.413953 0.4139537 4.7314863 0.024105 0.397901
-0.413953 0.41395366 4.4645753 0.032834 0.397901
-0.3 7.9850216 -4.0609565 0.374861 0.501529
-0.3 7.3850203 -4.0609565 0.394801 0.501529
-0.3 7.385021 4.4645743 0.394801 0.22397703
-0.3 7.9850225 4.4645743 0.374861 0.22397703
-0.3 7.3850203 -4.0609565 0.231894 0.21948397
0.3 7.3850203 -4.0609565 0.211953 0.21948397
0.3 7.385021 4.4645743 0.211953 0.501529
-0.3 7.385021 4.4645743 0.231894 0.501529
0.3 7.3850203 -4.0609565 0.39746 0.501529
0.3 7.9850216 -4.0609565 0.4174 0.501529
0.3 7.9850225 4.4645743 0.4174 0.22478998
0.3 7.385021 4.4645743 0.39746 0.22478998
0.3 7.9850216 -4.0609565 0.277092 0.21948397
-0.3 7.9850216 -4.0609565 0.257152 0.21948397
-0.3 7.9850225 4.4645743 0.257152 0.501529
0.3 7.9850225 4.4645743 0.277092 0.501529
0.3 7.9850225 4.4645743 0.164294 0.462942
0.413953 8.098975 4.4645743 0.168046 0.466712
0.413953 7.2710686 4.4645743 0.168046 0.439323
0.3 7.385021 4.4645743 0.164294 0.443093
-0.413953 8.098975 4.4645743 0.177825 0.46578902
-0.413953 8.098975 4.7314854 0.186695 0.46578902
0.413953 8.098975 4.7314854 0.186695 0.43839997
0.413953 8.098975 4.4645743 0.177825 0.43839997
-0.3 7.385021 4.4645743 0.144536 0.443093
-0.413953 7.2710686 4.4645743 0.140783 0.439323
-0.413953 8.098975 4.4645743 0.140783 0.466712
-0.3 7.9850225 4.4645743 0.144536 0.462942
0.413953 7.2710686 4.4645743 0.097044 0.406641
0.413953 7.2710686 4.7314854 0.105915 0.406641
-0.413953 7.2710686 4.7314854 0.105915 0.379251
-0.413953 7.2710686 4.4645743 0.097044 0.379251
0.413953 8.098975 4.4645743 0.156062 0.379251
0.413953 8.098975 4.7314854 0.147358 0.379251
0.413953 7.2710686 4.7314854 0.147358 0.40664
0.413953 7.2710686 4.4645743 0.156062 0.40664
-0.413953 7.2710686 4.4645743 0.021447 0.370511
-0.413953 7.2710686 4.7314854 0.012717 0.370511
-0.413953 8.098975 4.7314854 0.012717 0.397901
-0.413953 8.098975 4.4645743 0.021447 0.397901
-1 -8.000002 -5.0354247 0.138125 0.46935803
-0.4 -8.000002 -4.0354247 0.108965 0.46935803
-0.4 8 -4.0354266 0.108965 0.998677
-1 8 -5.0354266 0.138124 0.998677
-1 8 -5.0354266 0.034563 0.40054703
-0.4 8 -4.0354266 0.001329 0.42039698
0.4 8 -4.0354266 0.001329 0.446863
1 8 -5.0354266 0.034563 0.466712
1 8 -5.0354266 0.106306 0.46935898
0.4 8 -4.0354266 0.069848 0.46935898
0.4 -8.000002 -4.0354247 0.069848 0.998677
1 -8.000002 -5.0354247 0.106306 0.998677
1 -8.000002 -5.0354247 0.070456 0.40054703
0.4 -8.000002 -4.0354247 0.037222 0.42039698
-0.4 -8.000002 -4.0354247 0.037222 0.446863
-1 -8.000002 -5.0354247 0.070456 0.466712
-1 8 -5.0354266 0.067189 0.46935898
1 8 -5.0354266 0.001329 0.46935898
1 -8.000002 -5.0354247 0.001329 0.998677
-1 -8.000002 -5.0354247 0.067189 0.998677
0.4 8 -4.0354266 0.140783 0.998677
-0.4 8 -4.0354266 0.166255 0.998677
-0.4 -8.000002 -4.0354247 0.166255 0.46935898
0.4 -8.000002 -4.0354247 0.140783 0.46935898
-0.27 -7.5600004 3.4714854 0.998671 0.49847102
-0.27 -7.5600004 3.7114844 0.990822 0.49847102
-0.27 7.5600014 3.7114825 0.990821 0.998677
-0.27 7.5600014 3.4714835 0.99867 0.998677
0.27 7.5600014 3.4714835 0.652015 0.0013229847
0.27 7.5600014 3.7114825 0.644189 0.0013229847
0.27 -7.5600004 3.7114844 0.644189 0.501529
0.27 -7.5600004 3.4714854 0.652015 0.501529
-0.27 7.5600014 3.4714835 0.168913 0.998677
0.27 7.5600014 3.4714835 0.186695 0.998677
0.27 -7.5600004 3.4714854 0.186695 0.49847102
-0.27 -7.5600004 3.4714854 0.168913 0.49847102
0.27 7.5600014 3.7114825 0.817136 0.49847102
-0.27 7.5600014 3.7114825 0.799943 0.49847102
-0.27 -7.5600004 3.7114844 0.799943 0.998677
0.27 -7.5600004 3.7114844 0.817136 0.998677
3 0 1 2
3 3 4 5
3 6 7 8
3 9 10 11
3 12 13 14
3 15 16 17
3 18 19 20
3 21 22 23
3 24 25 26
3 27 28 29
3 30 31 32
3 33 34 35
3 36 37 38
3 36 38 39
3 40 41 42
3 40 42 43
3 44 45 46
3 44 46 47
3 48 49 50
3 48 50 51
3 52 53 54
3 52 54 55
3 56 57 58
3 56 58 59
3 60 61 62
3 60 62 63
3 64 65 66
3 64 66 67
3 68 69 70
3 68 70 71
3 72 73 74
3 72 74 75
3 76 77 78
3 76 78 79
3 80 81 82
3 80 82 83
3 84 85 86
3 84 86 87
3 88 89 90
3 88 90 91
3 92 93 94
3 92 94 95
3 96 97 98
3 96 98 99
3 100 101 102
3 100 102 103
3 104 105 106
3 104 106 107
3 108 109 110
3 108 110 111
3 112 113 114
3 112 114 115
3 116 117 118
3 116 118 119
3 120 121 122
3 120 122 123
3 124 125 126
3 124 126 127
3 128 129 130
3 128 130 131
3 132 133 134
3 132 134 135
3 136 137 138
3 136 138 139
3 140 141 142
3 140 142 143
3 144 145 146
3 144 146 147
3 148 149 150
3 148 150 151
3 152 153 154
3 152 154 155
3 156 157 158
3 156 158 159
3 160 161 162
3 160 162 163
3 164 165 166
3 164 166 167
3 168 169 170
3 168 170 171
3 172 173 174
3 172 174 175
3 176 177 178
3 176 178 179
3 180 181 182
3 180 182 183
3 184 185 186
3 184 186 187
3 188 189 190
3 188 190 191
3 192 193 194
3 192 194 195
3 196 197 198
3 196 198 199
3 200 201 202
3 200 202 203
3 204 205 206
3 204 206 207
3 208 209 210
3 208 210 211
3 212 213 214
3 212 214 215
3 216 217 218
3 216 218 219
3 220 221 222
3 220 222 223
3 224 225 226
3 224 226 227
3 228 229 230
3 228 230 231
3 232 233 234
3 232 234 235
3 236 237 238
3 236 238 239
3 240 241 242
3 240 242 243
3 244 245 246
3 244 246 247
3 248 249 250
3 248 250 251
3 252 253 254
3 252 254 255
3 256 257 258
3 256 258 259
3 260 261 262
3 260 262 263
3 264 265 266
3 264 266 267
3 268 269 270
3 268 270 271
3 272 273 274
3 272 274 275
3 276 277 278
3 276 278 279
3 280 281 282
3 280 282 283
3 284 285 286
3 284 286 287
3 288 289 290
3 288 290 291
3 292 293 294
3 292 294 295
3 296 297 298
3 296 298 299
3 300 301 302
3 300 302 303
3 303 302 293
3 303 293 292
3 295 294 301
3 295 301 300
3 304 305 306
3 304 306 307
3 308 309 310
3 308 310 311
3 312 313 314
3 312 314 315
3 316 317 318
3 316 318 319
3 320 321 322
3 320 322 323
3 324 325 326
3 324 326 327
3 328 329 330
3 328 330 331
3 332 333 334
3 332 334 335
3 336 337 338
3 336 338 339
3 340 341 342
3 340 342 343
3 343 342 333
3 343 333 332
3 335 334 341
3 335 341 340
3 344 345 346
3 344 346 347
3 348 349 350
3 348 350 351
3 352 353 354
3 352 354 355
3 356 357 358
3 356 358 359
3 360 361 362
3 360 362 363
3 364 365 366
3 364 366 367
3 368 369 370
3 368 370 371
3 372 373 374
3 372 374 375
3 376 377 378
3 376 378 379
3 380 381 382
3 380 382 383
3 383 382 373
3 383 373 372
3 375 374 381
3 375 381 380
3 384 385 386
3 384 386 387
3 388 389 390
3 388 390 391
3 392 393 394
3 392 394 395
3 396 397 398
3 396 398 399
3 400 401 402
3 400 402 403
3 404 405 406
3 404 406 407
3 408 409 410
3 408 410 411
3 412 413 414
3 412 414 415
3 416 417 418
3 416 418 419
3 420 421 422
3 420 422 423
3 424 425 426
3 424 426 427
3 428 429 430
3 428 430 431
3 432 433 434
3 432 434 435
