ply
format ascii 1.0
comment Created in Blender version 4.2.3 LTS
element vertex 166
property float x
property float y
property float z
property float s
property float t
element face 118
property list uchar uint vertex_indices
end_header
-0.052958302 -0.2362423 0.039364003 0.06377885 0.7808689
-0.052958302 -0.11983413 0.11429397 0.14286107 0.72983766
-0.052958302 -0.119834155 -0.04668385 0.14298558 0.83927846
-0.052958302 0.06302545 -0.04668388 0.86474967 0.016251871
0.052958302 -0.119834155 -0.04668385 0.7404323 0.088259436
-0.052958302 -0.119834155 -0.04668385 0.7404323 0.016251892
0.052958302 0.063025475 0.11429394 0.8377006 0.12076317
-0.052958302 -0.11983413 0.11429397 0.71338326 0.19277073
0.052958302 -0.11983413 0.11429397 0.71338326 0.12076318
0.05295825 0.34399992 0.033804987 0.91665035 0.27077466
-0.05295831 0.34399992 -0.046683926 0.9713708 0.34278217
-0.05295831 0.34399992 0.033804987 0.91665035 0.34278217
0.015946956 0.02405589 0.1357123 0.9652996 0.13694914
-0.015946964 0.029510591 0.11223415 0.98168635 0.1586323
-0.015946964 0.02405589 0.1357123 0.9652996 0.15863228
-0.015946964 -0.0999266 0.12682366 0.8807936 0.15863225
0.015946956 -0.094471924 0.112234175 0.8702043 0.13694914
0.015946956 -0.0999266 0.12682366 0.8807936 0.13694914
-0.052958302 -0.23624232 -0.18164138 0.06394979 0.93111956
0.052958302 -0.2362423 0.039364003 0.65371364 0.68703526
0.05295825 -0.32764456 -0.15691479 0.59157366 0.5535948
0.052958302 -0.23624232 -0.18164138 0.6537136 0.5367844
0.010173706 0.05465987 0.123790435 0.90963316 0.98319536
0.06460191 0.054659795 0.029517865 0.94663614 0.91910404
0.091816075 0.054659743 0.076654114 0.96513784 0.95114964
0.017040376 0.8908503 0.07665407 0.58676153 0.053255055
-0.010173619 0.05168162 0.029517924 0.016251892 0.0162522
-0.0101737175 0.89085025 0.029517788 0.5867614 0.016251871
-0.052958302 -0.2362423 0.039364003 0.31873092 0.5421079
-0.05295825 -0.32764456 -0.15691479 0.256591 0.67554826
-0.05295825 -0.32764453 0.0640906 0.256591 0.5252975
-0.015946964 -0.094471924 0.112234175 0.8837831 0.16879067
-0.045744494 0.86761636 0.14386068 0.76892877 0.95423484
-0.045744494 0.8534487 0.11956405 0.75929683 0.97075295
-0.045744494 0.8534487 0.14386068 0.75929683 0.95423484
-0.0315769 0.86761636 0.14386068 0.76892877 0.94460297
-0.045744494 0.86761636 0.11956405 0.78544676 0.95423484
-0.0315769 0.8534487 0.14386068 0.75929683 0.94460297
-0.0315769 0.86761636 0.11956405 0.76892877 0.92808497
-0.0315769 0.8534487 0.11956405 0.7427788 0.94460297
0.045744494 0.8534487 0.11956405 0.684125 0.92808497
0.045744494 0.86761636 0.14386068 0.69375694 0.94460297
0.045744494 0.8534487 0.14386068 0.684125 0.94460297
0.045744494 0.86761636 0.11956405 0.71027505 0.94460297
0.0315769 0.86761636 0.14386068 0.69375694 0.95423484
0.0315769 0.86761636 0.11956405 0.69375694 0.97075295
0.0315769 0.8534487 0.14386068 0.684125 0.95423484
0.0315769 0.8534487 0.11956405 0.66760695 0.95423484
0.052958302 -0.2362423 0.039364003 0.6351032 0.73634946
-0.05295825 -0.32764453 0.0640906 0.57072955 0.808357
0.05295825 -0.32764453 0.0640906 0.57072955 0.73634946
-0.05295825 -0.68116164 0.022467732 0.8911316 0.88660026
0.05295825 -0.6811617 -0.19853766 0.96313894 0.73634946
0.05295825 -0.68116164 0.022467732 0.96313894 0.88660026
-0.0101737175 0.89085025 0.029517788 0.5867616 0.23827086
-0.06460191 0.05168156 0.029517865 0.016251912 0.20126788
-0.06460201 0.8908502 0.029517729 0.58676153 0.20126767
-0.06460209 0.8908502 0.12379024 0.5867614 0.12726133
-0.010173706 0.051681634 0.123790435 0.016251892 0.09025826
-0.010173814 0.89085025 0.1237903 0.58676153 0.09025822
-0.017040461 0.054659862 0.0766542 0.016251933 0.4557904
0.010173814 0.88897794 0.1237903 0.58346367 0.4187871
-0.017040376 0.888978 0.07665407 0.58346367 0.45579067
0.091816075 0.054659743 0.076654114 0.016251871 0.3447809
0.06460201 0.8889779 0.029517729 0.5834637 0.30777788
0.09181619 0.8889779 0.07665398 0.58346367 0.34478092
0.017040461 0.051681627 0.0766542 0.016251892 0.05325522
0.05295825 -0.68116164 0.022467732 0.35123467 0.6755482
0.05295825 -0.6811617 -0.19853766 0.35123467 0.5252975
0.052958302 0.06302545 -0.04668388 0.68621737 0.62980884
0.05295825 0.34399992 0.033804987 0.8772382 0.6845293
0.052958302 0.06302547 0.03380503 0.6862174 0.6845293
0.0101737175 0.88897794 0.029517788 0.58346367 0.49279377
0.010173619 0.054659855 0.029517924 0.016251974 0.27077466
0.0101737175 0.88897794 0.029517788 0.5834637 0.2707747
-0.09181619 0.8908502 0.07665398 0.5867614 0.1642645
-0.064601995 0.051681574 0.123790376 0.016251892 0.12726182
-0.091816075 0.051681507 0.076654114 0.016251871 0.16426484
0.064601995 0.05465981 0.123790376 0.016251892 0.38178402
0.06460209 0.8889779 0.12379024 0.58346367 0.38178402
0.010173706 0.05465987 0.123790435 0.016251912 0.41878718
0.052958302 0.063025475 0.11429394 0.91665035 0.3752859
-0.052958302 0.06302547 0.03380503 0.97137076 0.44729343
-0.052958302 0.063025475 0.11429394 0.91665035 0.44729343
0.05295825 -0.68116164 0.022467732 0.32873043 0.7363495
-0.052958302 -0.23624232 -0.18164138 0.6192654 0.016251922
0.052958302 -0.2362423 0.039364003 0.6192653 0.1207632
0.05295825 -0.32764456 -0.15691479 0.57072955 0.91286814
-0.05295825 -0.6811617 -0.19853766 0.32873043 0.8408608
-0.05295825 -0.32764456 -0.15691479 0.57072955 0.8408607
0.015946956 -0.094471924 0.112234175 0.8837831 0.12679073
0.015946956 0.029510591 0.11223415 0.96785706 0.12076317
-0.05295825 -0.68116164 0.022467732 0.016251871 0.55359495
-0.05295825 -0.6811617 -0.19853766 0.016251912 0.70384574
0.052958302 -0.23624232 -0.18164138 0.6351032 0.91286826
-0.052958302 -0.23624232 -0.18164138 0.63510317 0.8408607
-0.052958302 0.06302547 0.03380503 0.66760695 0.8408607
-0.05295831 0.34399992 -0.046683926 0.85862774 0.8955812
-0.052958302 0.06302545 -0.04668388 0.66760695 0.8955812
-0.052958302 0.06302547 0.03380503 0.26724052 0.78441656
-0.052958302 0.06302545 -0.04668388 0.26730284 0.8391371
-0.052958302 0.06302545 -0.04668388 0.68621737 0.5252975
0.05295825 0.34399992 -0.046683926 0.8772382 0.597305
0.052958302 0.06302545 -0.04668388 0.68621737 0.59730506
-0.0101737175 0.89085025 0.029517788 0.9652466 0.6939001
-0.06460209 0.8908502 0.12379024 0.92824346 0.6298088
0.017040376 0.8908503 0.07665407 0.9837481 0.66185445
0.064601995 0.05465981 0.123790376 0.94663626 0.98319525
-0.017040461 0.054659862 0.0766542 0.8911316 0.9511497
0.010173619 0.054659855 0.029517924 0.9096331 0.91910404
0.06460209 0.8889779 0.12379024 0.9527581 0.016251871
0.09181619 0.8889779 0.07665398 0.97125965 0.048297476
0.06460201 0.8889779 0.029517729 0.9527581 0.080343165
-0.017040376 0.888978 0.07665407 0.89725345 0.048297558
0.010173814 0.88897794 0.1237903 0.9157549 0.016251871
-0.091816075 0.051681507 0.076654114 0.90974194 0.5573432
-0.06460191 0.05168156 0.029517865 0.92824346 0.5252975
-0.010173619 0.05168162 0.029517924 0.9652466 0.5252975
0.017040461 0.051681627 0.0766542 0.9837482 0.5573431
-0.010173706 0.051681634 0.123790435 0.9652466 0.5893888
0.0101737175 0.88897794 0.029517788 0.91575503 0.0803432
-0.06460201 0.8908502 0.029517729 0.92824346 0.6939001
-0.09181619 0.8908502 0.07665398 0.90974194 0.66185445
-0.010173814 0.89085025 0.1237903 0.9652466 0.6298088
-0.064601995 0.051681574 0.123790376 0.92824346 0.5893888
0.052958302 -0.2362423 0.039364003 0.6540364 0.3972411
0.052958302 -0.23624232 -0.18164138 0.6541638 0.24699035
0.052958302 -0.119834155 -0.04668385 0.7332262 0.33880845
0.052958302 0.06302545 -0.04668388 0.85754347 0.33891383
0.052958302 0.06302547 0.03380503 0.8574971 0.3936343
-0.052958302 0.063025475 0.11429394 0.26717824 0.72969604
0.052958302 -0.11983413 0.11429397 0.7331335 0.44824937
0.052958302 0.06302547 0.03380503 0.66760695 0.73634946
-0.05295831 0.34399992 0.033804987 0.85862774 0.8083569
-0.052958302 0.06302547 0.03380503 0.66760695 0.808357
0.052958302 0.06302545 -0.04668388 0.86474967 0.08825942
-0.052958302 0.063025475 0.11429394 0.8377006 0.19277072
0.05295825 0.34399992 -0.046683926 0.9713708 0.27077466
0.015946956 0.029510591 0.11223415 0.98168635 0.13694914
-0.015946964 -0.094471924 0.112234175 0.8702043 0.15863225
0.05295825 -0.32764453 0.0640906 0.5915737 0.7038456
-0.052958302 -0.23624232 -0.18164138 0.31873092 0.69235873
-0.015946964 0.029510591 0.11223415 0.96785706 0.17481826
-0.045744494 0.86761636 0.11956405 0.76892877 0.97075295
-0.0315769 0.86761636 0.11956405 0.78544676 0.94460297
-0.0315769 0.8534487 0.11956405 0.75929683 0.92808497
-0.045744494 0.8534487 0.11956405 0.7427788 0.95423484
0.045744494 0.86761636 0.11956405 0.69375694 0.92808497
0.0315769 0.86761636 0.11956405 0.71027505 0.95423484
0.0315769 0.8534487 0.11956405 0.684125 0.97075295
0.045744494 0.8534487 0.11956405 0.66760695 0.94460297
-0.052958302 -0.2362423 0.039364003 0.6351032 0.808357
-0.05295825 -0.6811617 -0.19853766 0.8911316 0.73634946
-0.010173619 0.05168162 0.029517924 0.016251953 0.23827092
0.06460191 0.054659795 0.029517865 0.016251912 0.30777773
0.05295825 0.34399992 -0.046683926 0.8772382 0.6298088
0.010173619 0.054659855 0.029517924 0.016251892 0.49279344
0.052958302 0.06302547 0.03380503 0.97137076 0.3752859
-0.05295825 -0.68116164 0.022467732 0.32873043 0.808357
0.052958302 -0.23624232 -0.18164138 0.6192653 0.088259414
-0.052958302 -0.2362423 0.039364003 0.6192653 0.19277072
0.05295825 -0.6811617 -0.19853766 0.32873043 0.91286826
-0.05295831 0.34399992 0.033804987 0.85862786 0.8408607
-0.05295831 0.34399992 -0.046683926 0.8772382 0.5252975
0.052958302 0.063025475 0.11429394 0.8574507 0.44835472
0.05295825 0.34399992 0.033804987 0.85862774 0.73634946
3 0 1 2
3 3 4 5
3 6 7 8
3 9 10 11
3 12 13 14
3 15 16 17
3 2 18 0
3 19 20 21
3 22 23 24
3 25 26 27
3 28 29 30
3 14 31 15
3 12 15 17
3 32 33 34
3 35 36 32
3 37 38 35
3 34 39 37
3 35 34 37
3 40 41 42
3 43 44 41
3 45 46 44
3 47 42 46
3 48 49 50
3 51 52 53
3 54 55 56
3 57 58 59
3 60 61 62
3 63 64 65
3 59 66 25
3 20 67 68
3 69 70 71
3 72 60 62
3 64 73 74
3 75 76 57
3 56 77 75
3 78 65 79
3 80 79 61
3 81 82 83
3 49 84 50
3 4 85 5
3 7 86 8
3 87 88 89
3 12 90 91
3 92 29 93
3 94 89 95
3 96 97 98
3 99 100 2
3 101 102 103
3 104 105 106
3 24 107 22
3 22 108 109
3 110 111 112
3 113 114 110
3 115 116 117
3 117 118 119
3 120 110 112
3 121 122 105
3 105 123 106
3 115 119 124
3 125 126 127
3 127 128 129
3 99 1 130
3 131 125 127
3 129 131 127
3 132 133 134
3 42 44 46
3 3 135 4
3 6 136 7
3 9 137 10
3 12 138 13
3 15 139 16
3 19 140 20
3 22 109 23
3 25 66 26
3 28 141 29
3 14 142 31
3 12 14 15
3 32 143 33
3 35 144 36
3 37 145 38
3 34 146 39
3 35 32 34
3 40 147 41
3 43 148 44
3 45 149 46
3 47 150 42
3 48 151 49
3 51 152 52
3 54 153 55
3 57 76 58
3 60 80 61
3 63 154 64
3 59 58 66
3 20 140 67
3 69 155 70
3 72 156 60
3 64 154 73
3 75 77 76
3 56 55 77
3 78 63 65
3 80 78 79
3 81 157 82
3 49 158 84
3 4 159 85
3 7 160 86
3 87 161 88
3 12 17 90
3 92 30 29
3 94 87 89
3 96 162 97
3 101 163 102
3 104 121 105
3 120 113 110
3 115 117 119
3 99 2 1
3 129 164 131
3 132 165 133
3 42 41 44
