ply
format ascii 1.0
comment Created in Blender version 4.2.3 LTS
element vertex 521
property float x
property float y
property float z
property float s
property float t
element face 784
property list uchar uint vertex_indices
end_header
-0.3217789 0.74243987 -0.9820329 0.14759655 0.66768014
-0.25125983 0.77498364 -1.01097 0.15217757 0.6649495
-0.25160176 0.73303723 -0.97935855 0.15218377 0.66832227
-0.3217789 0.74243987 -0.9820329 0.831664 0.8083127
-0.3690858 0.7779576 -0.95513785 0.83449143 0.8059592
-0.337389 0.7783572 -0.9976269 0.8342408 0.80891013
-0.25160176 0.73303723 -0.97935855 0.2939822 0.9079765
-0.33700645 0.736749 -0.940956 0.29125866 0.90256894
-0.3217789 0.74243987 -0.9820329 0.29398954 0.90339875
-0.13392155 0.7277255 -0.9648124 0.29334438 0.91561705
-0.25576973 0.7198596 -0.90669215 0.28923583 0.9079658
-0.13113508 0.77093 -1.0079254 0.15984476 0.66502815
-0.13392155 0.7277255 -0.9648124 0.15983023 0.6689689
-0.12808424 0.86234707 -1.0131255 0.15984197 0.6591115
-0.337389 0.7783572 -0.9976269 0.1465643 0.66511077
-0.24894494 0.8661245 -1.0145863 0.15206051 0.6591392
-0.12351416 1.0092025 -1.0114735 0.15979403 0.6496386
-0.33803892 0.86873055 -0.99977744 0.14623109 0.65924543
-0.2443749 1.0129801 -1.0129343 0.15198427 0.64968127
-0.37273124 0.8679485 -0.95721614 0.8393445 0.8058548
-0.33803892 0.86873055 -0.99977744 0.8394493 0.8089615
-0.36997658 1.0162684 -0.9574655 0.8477371 0.8056095
-0.33346885 1.015586 -0.99812543 0.8477512 0.80872756
-0.32890978 1.1620901 -0.99647725 0.14613888 0.6401962
-0.2398158 1.1594841 -1.0112861 0.15195622 0.6402468
-0.32890978 1.1620901 -0.99647725 0.8559845 0.80887353
-0.36351573 1.1640851 -0.95388496 0.85607946 0.80579954
-0.37055725 1.0157868 -0.91126096 0.84773034 0.8028965
-0.3430329 1.174207 -0.8854593 0.85712016 0.8016849
-0.33168557 1.1449004 -0.86341035 0.85561424 0.7999504
-0.3398202 0.8834985 -0.866351 0.83989406 0.8000009
-0.3529616 0.85515463 -0.8890482 0.8383304 0.80172265
-0.33599764 0.88808066 -0.8691088 0.8402285 0.79977286
-0.3649609 1.0154041 -0.89017785 0.8477283 0.8016817
-0.32815224 1.1401871 -0.8662728 0.8552871 0.79972017
-0.36171913 1.0152959 -0.8889829 0.8477281 0.80150175
-0.32575995 1.1390909 -0.88112915 0.8546222 0.79911053
-0.33353144 0.8893596 -0.88393843 0.840911 0.79917616
-0.3262605 0.89338446 -0.89907587 0.8416296 0.7984655
-0.35927737 1.0152949 -0.89563596 0.8477257 0.80106604
-0.3187427 1.134963 -0.8963584 0.85392773 0.7983764
-0.35142243 1.0151299 -0.9027089 0.8477206 0.800427
-0.30306566 1.1248504 -0.90272105 0.85329336 0.7975726
-0.30998063 0.9026434 -0.9052206 0.84228414 0.7976978
-0.28822863 0.91508627 -0.90533626 0.65084726 0.22492087
-0.33323187 1.0145936 -0.9053587 0.6443136 0.22224571
-0.30998063 0.9026434 -0.9052206 0.6516013 0.22348662
-0.2821293 1.1110852 -0.90313137 0.63820046 0.22577749
-0.30306566 1.1248504 -0.90272105 0.6372605 0.22445802
-0.23565863 0.851632 -0.90188754 0.655072 0.2281755
-0.13237377 0.84141135 -0.89700973 0.65598124 0.23483363
-0.22263223 0.87010366 -0.90360487 0.65390146 0.22905797
-0.038703293 0.86431146 -0.89752185 0.65467733 0.24092284
-0.027220532 0.8450391 -0.8924433 0.65598124 0.2416417
-0.027220532 0.8450391 -0.8924433 0.8426412 0.7852498
-0.13384028 0.8266097 -0.87009203 0.8399775 0.7889335
-0.019754782 0.8304822 -0.85810006 0.8414501 0.78436416
-0.23565863 0.851632 -0.90188754 0.8407342 0.79381233
-0.2457757 0.83782953 -0.88597953 0.83968633 0.7941256
-0.13614479 0.8198643 -0.8082384 0.8371584 0.7879946
-0.018744156 0.82370394 -0.7798172 0.83872235 0.7822193
-0.25105184 0.83170915 -0.84879816 0.8377424 0.79429847
0.066819414 0.88060665 -0.8505901 0.84376055 0.7815436
0.07048188 0.8754374 -0.7639717 0.84208524 0.7783619
0.05252053 0.89117783 -0.888796 0.8444548 0.7827502
0.10061939 1.0004355 -0.8469504 0.84800386 0.7804646
0.10533784 0.9992844 -0.7576741 0.8480877 0.7767415
0.031647727 0.9050128 -0.8947569 0.6522216 0.24555334
0.05252053 0.89117783 -0.888796 0.65318644 0.24690948
0.083644286 1.0014082 -0.88646996 0.6461367 0.24919197
0.037747085 1.1010118 -0.892552 0.63961875 0.24640234
0.059435412 1.1133848 -0.8862964 0.638846 0.24787645
0.059435412 1.1133848 -0.8862964 0.8514449 0.7830557
0.074337155 1.1221851 -0.8478726 0.85220295 0.78182757
-0.017280236 1.1644619 -0.88884985 0.6353597 0.24303728
-0.122001335 1.1747221 -0.89326036 0.6344439 0.236286
-0.02993542 1.14606 -0.8943523 0.6365551 0.24214855
-0.21386437 1.1518521 -0.90043557 0.63573 0.23028561
-0.22571838 1.1710547 -0.8982943 0.6344521 0.22956847
-0.22571838 1.1710547 -0.8982943 0.8550564 0.7938578
-0.122563645 1.1889775 -0.86601555 0.8559105 0.7891484
-0.23496895 1.1850984 -0.88207304 0.8560559 0.79419667
-0.017280236 1.1644619 -0.88884985 0.853364 0.7855664
-0.008947954 1.1777513 -0.85419357 0.85454065 0.78467727
-0.23988034 1.1906979 -0.8447598 0.857936 0.7944233
-0.124487594 1.1944613 -0.80402434 0.85868174 0.78829604
-0.007572636 1.1826925 -0.7757789 0.8572773 0.7825878
-0.2421884 1.192061 -0.8076211 0.8598928 0.7944896
-0.12651663 1.19561 -0.74198854 0.86167717 0.78717744
-0.24421082 1.1964604 -0.7923645 0.8608245 0.79451287
-0.12731393 1.1995573 -0.714609 0.86313736 0.7866416
-0.009033263 1.1835632 -0.69720113 0.8607168 0.77987224
-0.007843792 1.1876396 -0.66213715 0.8625746 0.77845335
0.077334926 1.1254086 -0.67423785 0.8566067 0.7741608
0.08298527 1.1294329 -0.6355504 0.85800767 0.7716564
0.07825336 1.1251686 -0.7611624 0.8540256 0.7786522
0.10459113 0.9983005 -0.6681427 0.84819424 0.771624
0.06948954 0.8733019 -0.67707384 0.8396766 0.7737892
0.1112843 0.99764335 -0.6288041 0.8482522 0.7689052
0.074850574 0.8680308 -0.6384908 0.83836925 0.77122366
-0.019403532 0.8161753 -0.66631615 0.8335057 0.77789056
-0.020311028 0.8211601 -0.70127785 0.8353357 0.7793853
-0.13934685 0.8128872 -0.71895874 0.8326616 0.78618246
-0.13828474 0.81745017 -0.7462424 0.8341339 0.78677225
-0.25577053 0.8249958 -0.79654324 0.83478266 0.79429764
-0.25346613 0.8296578 -0.81169784 0.83573526 0.7943051
-0.2586678 0.805441 -0.79708135 0.83365065 0.7946789
-0.14003816 0.7955633 -0.71503747 0.83158845 0.7861515
-0.14094827 0.76003873 -0.7215575 0.8293339 0.78653467
-0.34234232 0.77455324 -0.88687193 0.8334635 0.80217266
-0.25869825 0.76587194 -0.80193675 0.8312676 0.7953486
-0.1405767 0.7256908 -0.7655269 0.82600695 0.7883415
-0.32492283 0.7414787 -0.88788974 0.8312429 0.80221117
-0.25650355 0.7315386 -0.8325757 0.8288948 0.79711306
-0.33700645 0.736749 -0.940956 0.8314811 0.8055431
-0.32492283 0.7414787 -0.88788974 0.28781533 0.90337855
-0.13765362 0.7137104 -0.86531603 0.2868435 0.9156357
-0.25650355 0.7315386 -0.8325757 0.28441966 0.9079778
-0.014205322 0.7212503 -0.720374 0.8247685 0.7782302
-0.014859751 0.7565084 -0.66910374 0.82934487 0.7773071
-0.010735467 0.70943713 -0.8365344 0.2852698 0.92389655
-0.1405767 0.7256908 -0.7655269 0.28035367 0.91562235
-0.006456688 0.7236193 -0.952402 0.29282746 0.9238929
0.121862754 0.7195481 -0.94546616 0.29265583 0.9322103
0.11740433 0.70531094 -0.8242203 0.2847517 0.93221027
-0.014205322 0.7212503 -0.720374 0.27771685 0.92389506
0.2420366 0.7131809 -0.71189916 0.27771673 0.9404881
0.11375494 0.71706915 -0.7026814 0.27685076 0.9322102
0.24550642 0.7013677 -0.82805955 0.28526968 0.9404866
0.24978529 0.7155498 -0.94392717 0.2928274 0.9404904
0.3734883 0.69761395 -0.8484107 0.2868434 0.94871044
0.37056518 0.7095943 -0.7486216 0.2803534 0.94872355
0.49141407 0.70798564 -0.8078393 0.2844192 0.95640767
0.37722033 0.711629 -0.9479071 0.29334435 0.9487289
0.4948603 0.6962212 -0.8818661 0.28923577 0.9564216
0.4937408 0.74916685 -0.77691233 0.8307144 0.7367065
0.37056518 0.7095943 -0.7486216 0.8259816 0.7461172
0.49141407 0.70798564 -0.8078393 0.82688576 0.7351845
0.3704399 0.7519086 -0.70454705 0.8305542 0.74774694
0.2420366 0.7131809 -0.71189916 0.8253416 0.7570252
0.37307483 0.8431985 -0.697292 0.8375808 0.7480668
0.24164449 0.75507563 -0.660514 0.8304911 0.75812006
0.49712145 0.84017617 -0.7717868 0.8377683 0.7370342
0.5831567 0.748116 -0.8558861 0.83120936 0.727607
0.58956724 0.8382305 -0.85455906 0.8380155 0.7275833
0.5646545 0.7134647 -0.8584682 0.8282304 0.72810954
0.6157315 0.7472891 -0.92247427 0.8315487 0.72241616
0.5800832 0.7078684 -0.9106244 0.82764703 0.7236685
0.58686924 0.749251 -0.9670583 0.8305955 0.7185046
0.6234985 0.8379469 -0.92322075 0.8379908 0.721716
0.5677985 0.71442586 -0.9526113 0.82723165 0.7198828
0.6280685 0.98480237 -0.92156875 0.8493594 0.7217076
0.5979582 0.986254 -0.9673196 0.8494579 0.7173565
0.593388 0.8393986 -0.96897185 0.8376709 0.7175301
0.58686924 0.749251 -0.9670583 0.20635673 0.66478455
0.5043977 0.8424007 -0.9896704 0.20074236 0.6588765
0.593388 0.8393986 -0.96897185 0.20662904 0.6589246
0.5979582 0.986254 -0.9673196 0.20662904 0.64938605
0.50896764 0.98925614 -0.9880184 0.20071237 0.6494184
0.6025173 1.1327581 -0.96567166 0.20653263 0.63987535
0.6326276 1.1313064 -0.9199208 0.8607019 0.7222583
0.5135269 1.1357603 -0.98637044 0.20063494 0.639984
0.60158616 1.2221644 -0.96173847 0.20619647 0.63406855
0.60158616 1.2221644 -0.96173847 0.86823577 0.71936035
0.6025173 1.1327581 -0.96567166 0.8612083 0.7180362
0.39218688 1.1396099 -0.99292004 0.19281283 0.6400118
0.5154951 1.2258779 -0.9807607 0.20051765 0.63423353
0.26046598 0.99711037 -0.99877393 0.18463896 0.64950603
0.38762766 0.9931058 -0.9945682 0.1928608 0.649462
0.26502508 1.1436145 -0.99712574 0.1845956 0.64002454
0.3947925 1.2299631 -0.9856752 0.19281016 0.6341554
0.3830576 0.8462505 -0.99622023 0.19291821 0.658929
0.2558959 0.850255 -1.0004259 0.18469857 0.65900624
0.13263325 1.0011361 -1.0030018 0.17636465 0.6495501
0.13719238 1.14764 -1.0013536 0.17631342 0.6400593
0.004224047 1.0051798 -1.0072488 0.16805305 0.6495944
0.12806319 0.8542806 -1.0046538 0.17641602 0.65906364
0.26759666 1.233957 -0.98885787 0.18458416 0.6341419
0.01135467 1.2420264 -0.9973327 0.16793925 0.6342347
0.13975264 1.2379793 -0.9927496 0.17628044 0.6341749
0.008783147 1.1516839 -1.0056006 0.16799355 0.64011705
-0.116349295 1.2460595 -1.0025805 0.15967678 0.63434005
-0.11895506 1.1557065 -1.0098253 0.15973729 0.640195
-0.23649137 1.2495593 -1.0056316 0.15201624 0.6345016
-0.00034601986 0.8583243 -1.0089008 0.16809653 0.65909845
-0.23427498 1.2898203 -0.97309506 0.15198646 0.63117856
-0.11650364 1.2874373 -0.95851624 0.15961918 0.6304434
0.01096122 1.283331 -0.94610584 0.16791154 0.6299692
-0.11650364 1.2874373 -0.95851624 0.10982293 0.9508781
-0.23767708 1.301258 -0.9001521 0.105719104 0.9585329
-0.11943771 1.2990662 -0.85873115 0.10332541 0.9508604
0.01096122 1.283331 -0.94610584 0.10930539 0.94260323
0.0074804276 1.2947929 -0.8299495 0.10175101 0.9425997
0.13928066 1.2792598 -0.93917 0.17625588 0.62978446
0.13928066 1.2792598 -0.93917 0.109133616 0.9342867
0.13562028 1.2906669 -0.8176354 0.10123277 0.9342868
0.003212586 1.2809621 -0.71407783 0.094201095 0.94260126
0.13117276 1.276781 -0.69638526 0.09333487 0.93428683
-0.12315883 1.2854027 -0.75923073 0.0968383 0.9508731
0.13117276 1.276781 -0.69638526 0.8715111 0.76869035
0.00036083162 1.2456098 -0.66360176 0.86660874 0.7780275
0.12810053 1.2371354 -0.6431178 0.8662176 0.7686495
0.003212586 1.2809621 -0.71407783 0.87102985 0.77910787
-0.12566672 1.2511016 -0.71603334 0.86630553 0.78707975
-0.0025254786 1.2066617 -0.6564714 0.8638551 0.77797955
0.12457518 1.1567984 -0.6314832 0.8601093 0.7686039
-0.12694238 1.2163882 -0.7103034 0.86416703 0.78664154
-0.24589878 1.2157654 -0.79246557 0.8618988 0.79491526
-0.12315883 1.2854027 -0.75923073 0.8694509 0.7889441
-0.24349496 1.2544192 -0.7964407 0.86415386 0.7956179
-0.30803692 1.2840942 -0.88178575 0.86399114 0.8022837
-0.23917682 1.2883216 -0.8263122 0.86637264 0.7973831
-0.32745653 1.252899 -0.8814908 0.8618599 0.8022188
-0.3543129 1.2526734 -0.9497975 0.860805 0.8059189
-0.31977093 1.2906036 -0.93472564 0.8637146 0.805531
-0.32267225 1.2512707 -0.99230707 0.861045 0.80881304
-0.30489302 1.2850554 -0.9759289 0.8635327 0.808239
-0.23427498 1.2898203 -0.97309506 0.1104634 0.95851815
-0.31977093 1.2906036 -0.93472564 0.10774318 0.9639271
-0.30803692 1.2840942 -0.88178575 0.10430235 0.96311367
-0.23917682 1.2883216 -0.8263122 0.10090509 0.95851696
-0.30489302 1.2850554 -0.9759289 0.14741333 0.63186145
-0.32267225 1.2512707 -0.99230707 0.14641047 0.63439524
0.2564519 1.2308993 -0.65516126 0.8663189 0.7589722
0.25423825 1.1414225 -0.64822257 0.8595538 0.7588359
0.15300931 0.99631387 -0.6285876 0.84831434 0.7659599
0.25225145 0.9934402 -0.64947593 0.8484847 0.75834864
0.24502276 0.8452858 -0.65155375 0.83735687 0.7583105
0.1146466 0.83774585 -0.63507235 0.8363609 0.768073
-0.015294462 0.7963376 -0.66108716 0.8322005 0.7773638
0.11314578 0.75657314 -0.6485237 0.8301361 0.7678485
0.11375494 0.71706915 -0.7026814 0.82474506 0.76764923
0.3776449 0.99005383 -0.6956395 0.84872335 0.7482831
0.382204 1.136558 -0.6939918 0.8598242 0.74860895
0.5016914 0.9870316 -0.77013505 0.8489939 0.7372596
0.5062506 1.1335357 -0.76848686 0.8601881 0.7375916
0.38522565 1.2270379 -0.6992022 0.8667766 0.74864364
0.50850916 1.2237422 -0.77157366 0.86718917 0.73762
0.59787357 1.2210293 -0.85056627 0.8671638 0.7284813
0.59869635 1.13159 -0.8512591 0.8604142 0.72813207
0.5941372 0.98508584 -0.85290706 0.84921104 0.7277
0.6304828 1.2213104 -0.9171418 0.86707306 0.7232554
0.59731877 1.261723 -0.90439403 0.87088376 0.7247046
0.58154047 1.2560803 -0.8523642 0.87007254 0.7291409
0.51295316 1.2776194 -0.8753258 0.10571906 0.9100738
0.58154047 1.2560803 -0.8523642 0.104302265 0.90544224
0.59731877 1.261723 -0.90439403 0.10774314 0.90461564
0.3917042 1.28297 -0.84182584 0.10332529 0.9177876
0.5087409 1.2647687 -0.801576 0.100904636 0.91009164
0.38798308 1.269306 -0.7423254 0.8713624 0.74725467
0.5087409 1.2647687 -0.801576 0.87103647 0.7362972
0.2594545 1.2728925 -0.705603 0.8714391 0.7581373
0.26372242 1.2867235 -0.8214747 0.101750925 0.92601115
0.38798308 1.269306 -0.7423254 0.09683809 0.9177751
0.2672031 1.2752615 -0.937631 0.1093053 0.9260075
0.39463818 1.2713406 -0.94161093 0.1098229 0.91777
0.5136427 1.2662674 -0.9483589 0.11046378 0.9100905
0.39463818 1.2713406 -0.94161093 0.19282427 0.630257
0.5136427 1.2662674 -0.9483589 0.20050879 0.6309069
0.5846844 1.2570416 -0.94650733 0.20514874 0.631542
0.5846844 1.2570416 -0.94650733 0.11047178 0.9054609
0.5846844 1.2570416 -0.94650733 0.8715111 0.7209101
0.2672031 1.2752615 -0.937631 0.1845641 0.62987614
0.2594545 1.2728925 -0.705603 0.094201 0.9260097
-0.003431037 0.766897 -1.0026776 0.16810815 0.6650417
0.124966964 0.76284975 -0.99809444 0.1764493 0.6650085
0.25281096 0.75882757 -0.99420273 0.1847532 0.6649491
0.24978529 0.7155498 -0.94392717 0.18478101 0.66925377
-0.006456688 0.7236193 -0.952402 0.1681282 0.6693464
0.121862754 0.7195481 -0.94546616 0.17647398 0.6694369
0.37722033 0.711629 -0.9479071 0.1930366 0.668784
0.3800068 0.75483346 -0.9910201 0.19297908 0.66484463
0.4963159 0.7094842 -0.95462215 0.2007106 0.6680533
0.5007266 0.75130254 -0.9860991 0.20068371 0.6646835
0.5677985 0.71442586 -0.9526113 0.20533751 0.6673611
0.4963159 0.7094842 -0.95462215 0.2939826 0.95640886
0.5800832 0.7078684 -0.9106244 0.29125863 0.96188235
0.5646545 0.7134647 -0.8584682 0.2878152 0.9610597
-0.2845713 0.83320266 -0.9219011 0.42360273 0.82775736
-0.3663839 0.83449304 -0.6883551 0.41734883 0.84257376
-0.36125088 0.8373144 -0.9261993 0.418652 0.8271933
-0.13091303 0.8220292 -0.6784922 0.4326633 0.8440778
-0.2938907 0.82984966 -0.6838552 0.4221259 0.8431232
-0.11543158 0.8252026 -0.9163345 0.4345333 0.828745
0.032231882 0.81957966 -0.6730691 0.44320035 0.84502375
0.05387433 0.8225446 -0.9107076 0.44546503 0.8297279
0.101948395 0.8191373 -0.6725248 0.44770864 0.8453119
0.13976364 0.8609444 -0.9074472 0.57006997 0.8361927
0.101948395 0.8191373 -0.6725248 0.5540688 0.8328462
0.12526484 0.82199335 -0.91010845 0.5702147 0.8333784
0.14039116 0.91809726 -0.6684512 0.5537784 0.8401523
0.12320723 0.85803926 -0.6696383 0.553876 0.8358625
0.14407532 0.99949473 -0.9058887 0.57002825 0.8455243
0.14163758 0.9211619 -0.9067699 0.57004184 0.84025496
0.14532174 1.0765392 -0.6666688 0.5538476 0.85115266
0.1520219 0.99656034 -0.6672617 0.5537284 0.8456208
0.15744452 1.0766418 -0.44676173 0.53852105 0.8516732
0.17366539 0.9933902 -0.44707 0.53823084 0.845711
0.15233015 0.9122948 -0.44861066 0.5384554 0.8398162
0.19319193 1.080444 -0.26098704 0.52529204 0.8523461
0.21978693 0.98981535 -0.261024 0.52465045 0.845774
0.18764175 0.9020928 -0.26299334 0.5252382 0.8392721
0.119054094 0.8504849 -0.45035303 0.5388356 0.8349661
0.13654356 0.835488 -0.26537967 0.52618116 0.83359283
0.17225902 0.8176763 -0.11956644 0.5161636 0.83252585
0.24451952 0.89013475 -0.116413474 0.51458436 0.8390251
0.21661739 0.8026813 -0.011299014 0.5085761 0.8323639
0.2895041 0.985934 -0.113933206 0.51357174 0.84581655
0.31299156 0.8797478 -0.0072938204 0.5066994 0.8395369
0.2480254 0.79272294 0.07594192 0.50274426 0.83240086
0.3725614 0.9820703 -0.0042597055 0.5055059 0.8458552
0.36241758 0.8726896 0.080578566 0.5012945 0.8401558
0.36921716 1.0911876 0.08303642 0.50135344 0.8516516
0.43287367 0.97917986 0.08401883 0.50055385 0.8458845
0.31950897 1.0891799 -0.004937887 0.5067568 0.8522155
0.3705321 1.0915197 0.16276836 0.49713784 0.85193694
0.4352981 0.97821975 0.16377449 0.49725416 0.84590316
0.36365485 0.8705237 0.16028237 0.4970724 0.8399184
0.37429053 0.97951853 0.22078991 0.49263814 0.84591943
0.31422162 0.8756082 0.21772277 0.4929621 0.83807045
0.24731229 0.7894561 0.15556955 0.49781182 0.83159053
0.21700893 0.79568094 0.2136606 0.49391702 0.82989836
0.21883641 0.8880848 0.23551428 0.10320513 0.84662086
0.21700893 0.79568094 0.2136606 0.102866456 0.8527729
0.31422162 0.8756082 0.21772277 0.096886516 0.8472027
0.25531596 0.98308647 0.23770249 0.101131074 0.8403584
0.37429053 0.97951853 0.22078991 0.09333487 0.84026885
0.16057362 0.8112495 0.23278403 0.106720306 0.8517691
0.16534658 0.74351656 0.20724237 0.10598825 0.8564045
0.18431865 0.73930883 0.15072393 0.49876678 0.8264756
0.16534658 0.74351656 0.20724237 0.4950619 0.82520723
0.1268409 0.75443876 0.22608078 0.4454102 0.9038518
0.14503758 0.7378121 0.19676638 0.44681454 0.9018504
0.16534658 0.74351656 0.20724237 0.4480363 0.9027303
0.18431865 0.73930883 0.15072393 0.44965863 0.89922947
0.140159 0.7348158 0.14963138 0.44683158 0.8988534
0.18324585 0.7435235 0.07149696 0.503875 0.82734483
0.18324585 0.7435235 0.07149696 0.4500811 0.8940981
0.120080635 0.7397638 0.07112849 0.44601306 0.8937489
0.050338805 0.73489994 0.14753354 0.4412371 0.89820427
-0.013126299 0.74048644 0.066687346 0.43759108 0.8928709
0.103175655 0.7406629 0.20453537 0.44417396 0.90203214
0.09009278 0.752042 -0.016041398 0.44450712 0.8879791
-0.059526682 0.75323 -0.021025896 0.43494523 0.8870715
0.15922509 0.7550105 -0.015481949 0.44896954 0.88829607
0.058162645 0.77030605 -0.12386036 0.44289055 0.8808133
-0.09236479 0.77173156 -0.12887275 0.43320674 0.8799369
0.12606947 0.7723796 -0.12335074 0.44727966 0.881088
0.15922509 0.7550105 -0.015481949 0.50979203 0.8277262
0.12606947 0.7723796 -0.12335074 0.51720375 0.828409
0.1001115 0.7931957 -0.26880765 0.52691317 0.8299186
0.1001115 0.7931957 -0.26880765 0.44614232 0.8714863
0.03275083 0.79223955 -0.26928735 0.44178635 0.8712199
0.09064548 0.810661 -0.45348752 0.53924024 0.83165824
0.09064548 0.810661 -0.45348752 0.44618934 0.8594512
0.022388145 0.8106645 -0.45398772 0.44177535 0.859175
-0.11979365 0.79401755 -0.27436364 0.43193907 0.87034327
-0.13495511 0.8128313 -0.45922005 0.4316095 0.85826784
-0.29211187 0.82056814 -0.46439397 0.4214465 0.8573425
-0.2717123 0.80184305 -0.2795571 0.42209482 0.86944324
-0.34113917 0.8330136 -0.47723472 0.4168333 0.85680383
-0.32018277 0.81744736 -0.29397738 0.41761756 0.86890954
-0.29792503 0.7946311 -0.14446056 0.4190985 0.8785238
-0.24229994 0.7798194 -0.1339786 0.42351803 0.8790571
-0.26996547 0.7730897 -0.031150699 0.4209667 0.8856932
-0.20881236 0.761701 -0.025946856 0.42535996 0.88621837
-0.20669897 0.76119983 0.058655143 0.42518803 0.89167917
-0.14605904 0.7500213 0.062345386 0.42912826 0.8921211
-0.040921584 0.7461344 0.14369965 0.43552896 0.89761835
-0.07940659 0.76256776 0.1421541 0.43289548 0.8976515
-0.26996547 0.7730897 -0.031150699 0.14045402 0.85581404
-0.21066135 0.8146876 0.060848236 0.13333687 0.85263723
-0.27888775 0.822054 -0.029398084 0.14061031 0.85258234
-0.07940659 0.76256776 0.1421541 0.12326388 0.8556533
-0.078549325 0.8203978 0.1450032 0.123266816 0.85189635
0.048689023 0.76383513 0.20355392 0.1140469 0.8552004
0.06347343 0.8230759 0.20881283 0.11320298 0.85131776
0.048689023 0.76383513 0.20355392 0.44047576 0.9023013
0.1268409 0.75443876 0.22608078 0.10874015 0.8555597
0.043371975 0.7494571 0.19349015 0.4404835 0.90113944
-0.07379848 0.8985936 0.14596009 0.12316673 0.8468258
0.084358186 0.8984402 0.21027982 0.112103395 0.8463619
0.09827776 0.9882869 0.21166193 0.11148013 0.84048295
-0.0694333 0.9941844 0.14708185 0.1231531 0.8406332
-0.20813552 0.89585495 0.06176126 0.133373 0.84741324
-0.20491666 0.99929005 0.06292498 0.13344097 0.8407663
-0.06781125 1.0909885 0.14812446 0.12332223 0.83436984
-0.20165962 1.1039524 0.06410229 0.13353229 0.8340467
0.09000482 1.0798904 0.21232092 0.11225066 0.834551
-0.06764819 1.1706991 0.14894378 0.123552196 0.8292145
-0.1990869 1.1866251 0.06503236 0.13362718 0.82873493
0.07388665 1.1576967 0.21257699 0.113477066 0.82953966
0.17152153 1.1630541 0.23674154 0.10699631 0.8289132
0.22485007 1.0813286 0.23768806 0.10335628 0.8340728
0.22883438 1.1756852 0.2179352 0.10316144 0.82781684
0.3208391 1.0882593 0.22011507 0.09705251 0.8333413
0.259508 1.1813587 0.15997803 0.4979943 0.86024463
0.3208391 1.0882593 0.22011507 0.49305 0.85382307
0.18292536 1.2216399 0.21449018 0.10618817 0.82487005
0.20216163 1.2259227 0.15806746 0.4987749 0.864842
0.22883438 1.1756852 0.2179352 0.49416226 0.8620129
0.26007056 1.1797881 0.08029604 0.50286925 0.85939986
0.22816293 1.1736865 -0.007125616 0.50866014 0.8594226
0.20088245 1.2235043 0.07876587 0.50386596 0.8639395
0.18303083 1.1638204 -0.11567259 0.5162435 0.8592383
0.1762531 1.2154367 -0.008432865 0.50976175 0.8635381
0.2506001 1.0855325 -0.11421549 0.51463556 0.8526693
0.14637561 1.1514337 -0.26182544 0.5262776 0.85810214
0.14215548 1.202535 -0.116642356 0.51715916 0.86281353
0.12811409 1.1416227 -0.44707787 0.53895617 0.8565978
0.11505328 1.1865823 -0.26251292 0.5268729 0.86120635
0.11555387 1.1695808 -0.6667129 0.5540839 0.8578876
0.13194172 1.1387161 -0.6664809 0.5540012 0.85551524
0.13881369 1.1706176 -0.90431726 0.5702147 0.8571482
0.14845167 1.140127 -0.90430677 0.57017595 0.85498965
0.14654197 1.0787601 -0.904997 0.5701005 0.8508546
0.065070406 1.1823202 -0.90666044 0.33259547 0.90168047
0.11555387 1.1695808 -0.6667129 0.3351286 0.8859328
0.13881369 1.1706176 -0.90431726 0.33743092 0.90127003
-0.10408355 1.1898646 -0.9122323 0.32163775 0.9026166
0.043487802 1.1812812 -0.66900027 0.33039793 0.8863281
-0.1231211 1.1931084 -0.45494235 0.3188168 0.87299496
0.034063593 1.1858463 -0.44976723 0.3290263 0.87211794
0.10464728 1.1738412 -0.44753253 0.33366525 0.871751
-0.10695128 1.2066987 -0.2697214 0.31918585 0.8608894
0.04542105 1.1993909 -0.2647072 0.32906005 0.8600253
0.11505328 1.1865823 -0.26251292 0.33364955 0.85968494
-0.07829492 1.2238573 -0.12378669 0.3204768 0.8512996
0.07204394 1.2163734 -0.11884248 0.33015254 0.8504081
0.14215548 1.202535 -0.116642356 0.33477613 0.850057
-0.044448122 1.2377696 -0.0155751705 0.3222143 0.84419614
0.104971156 1.2301475 -0.010663152 0.33172032 0.8432413
0.1762531 1.2154367 -0.008432865 0.3364104 0.8428146
0.0025921315 1.2455895 0.07236934 0.32482493 0.8384362
0.13560306 1.2385653 0.07673955 0.3331454 0.83749276
0.20088245 1.2235043 0.07876587 0.33743095 0.8369729
0.15589835 1.2405868 0.15532088 0.33385128 0.8324543
0.20216163 1.2259227 0.15806746 0.336891 0.8318362
0.066228375 1.2455019 0.1532774 0.3283928 0.8331612
-0.025534645 1.2405856 0.14926183 0.32277846 0.83374554
-0.13065432 1.2450409 0.06791401 0.3164654 0.8391795
-0.06250124 1.219051 0.14915895 0.32014525 0.8333292
-0.19405626 1.2393255 -0.020555496 0.3126879 0.84500384
-0.1894007 1.2303075 0.06580174 0.3126099 0.8394062
-0.25986832 1.228485 -0.022863984 0.14059195 0.8263261
-0.1894007 1.2303075 0.06580174 0.13328032 0.8258755
-0.06250124 1.219051 0.14915895 0.12342186 0.82607156
0.065224126 1.20842 0.21042454 0.3275993 0.82863617
0.05836372 1.2312078 0.19890952 0.32764646 0.8303012
0.065224126 1.20842 0.21042454 0.11420862 0.8262819
0.118584976 1.2358309 0.21010554 0.3312317 0.8294096
0.14379631 1.2125285 0.2331034 0.33256906 0.8271933
0.14379631 1.2125285 0.2331034 0.10891862 0.8257776
0.16055892 1.2365814 0.2023772 0.33377463 0.82956254
0.18292536 1.2216399 0.21449018 0.33518875 0.8283775
-0.27046818 1.1884363 -0.023626804 0.14086464 0.8289745
-0.294977 1.2163012 -0.13109994 0.1479396 0.82722723
-0.30554208 1.1792064 -0.13183153 0.14810589 0.8297189
-0.27299657 1.1071872 -0.024540782 0.14082138 0.8341478
-0.3079098 1.1031208 -0.13268745 0.14808308 0.8346081
-0.27625418 1.0025057 -0.02571845 0.14074673 0.84085095
-0.2793883 0.89912194 -0.026925802 0.14067574 0.8474828
-0.31399038 0.90772307 -0.13488555 0.14796387 0.84716463
-0.3109681 1.0048438 -0.133793 0.14802939 0.8409208
-0.34480685 0.91886353 -0.28060973 0.15757191 0.846716
-0.34204972 1.0075084 -0.27960598 0.15762134 0.84100115
-0.3392582 1.0972115 -0.27859712 0.15766639 0.8352223
-0.36746645 0.9286639 -0.46580207 0.16961807 0.84635836
-0.3649244 1.0103511 -0.4648832 0.16965482 0.841087
-0.36235207 1.0930108 -0.46395338 0.16968808 0.83575636
-0.36036065 1.1570053 -0.4632336 0.16970909 0.8316286
-0.337097 1.1666591 -0.2778157 0.15769412 0.83074194
-0.34955347 1.1881448 -0.46255457 0.16965716 0.82949877
-0.3265068 1.200488 -0.2771169 0.15759136 0.82845235
-0.35426733 1.184376 -0.6822516 0.18386517 0.82995176
-0.36540216 1.1543783 -0.6829299 0.18387774 0.8320257
-0.3477019 1.1859387 -0.9204081 0.19930544 0.8300463
-0.35921687 1.1561142 -0.92109716 0.19930366 0.83212274
-0.3673221 1.092683 -0.6836239 0.18386342 0.8360146
-0.36112654 1.0947473 -0.9217874 0.199288 0.8361034
-0.369802 1.0129933 -0.68452036 0.18383895 0.8411682
-0.3722527 0.93424124 -0.6854061 0.18380988 0.846263
-0.36603093 0.93714917 -0.92356026 0.19923519 0.8463267
-0.36359322 1.0154821 -0.92267907 0.19926292 0.8412457
-0.36790484 0.8769314 -0.9242376 0.19921093 0.8502317
-0.3663839 0.83449304 -0.6883551 0.18386713 0.8527882
-0.374102 0.87372786 -0.6861223 0.1837841 0.8501803
-0.34113917 0.8330136 -0.47723472 0.16963409 0.85309553
-0.36236173 0.8695217 -0.4738742 0.16958658 0.8504148
-0.34036678 0.8566406 -0.29123425 0.1575283 0.8511183
-0.32018277 0.81744736 -0.29397738 0.15752716 0.85396785
-0.31329763 0.8380251 -0.1418159 0.14789928 0.8519722
-0.29792503 0.7946311 -0.14446056 0.14783798 0.8550341
-0.2733753 1.1929784 -0.91785395 0.3106816 0.9035668
-0.35426733 1.184376 -0.6822516 0.3045888 0.88857096
-0.28263485 1.1915512 -0.6797863 0.30925062 0.88815504
-0.11950423 1.188643 -0.67436826 0.31982204 0.8872356
-0.28044954 1.195751 -0.4601692 0.3086144 0.8738828
-0.34955347 1.1881448 -0.46255457 0.30411452 0.8743032
-0.25947973 1.208993 -0.27479136 0.30931512 0.86174595
-0.3265068 1.200488 -0.2771169 0.3049496 0.86217564
-0.22880478 1.2258477 -0.12879264 0.31079546 0.8521293
-0.294977 1.2163012 -0.13109994 0.30648705 0.85255766
-0.25986832 1.228485 -0.022863984 0.30840492 0.8453964
-0.33346885 1.015586 -0.99812543 0.1461362 0.6497119
-0.33323187 1.0145936 -0.9053587 0.8477089 0.79940945
-0.30875245 1.013828 -0.90501344 0.6444206 0.22382571
-0.13148423 0.8611023 -0.900653 0.65468746 0.23492773
-0.13237377 0.84141135 -0.89700973 0.8413266 0.78926647
0.083644286 1.0014082 -0.88646996 0.8479506 0.78204864
0.059105426 1.0022436 -0.8928472 0.646026 0.24755073
-0.122335136 1.1551006 -0.89734566 0.6357388 0.2362053
-0.122001335 1.1747221 -0.89326036 0.85459614 0.789445
-0.30489302 1.2850554 -0.9759289 0.11047178 0.9630945
0.5677985 0.71442586 -0.9526113 0.29398954 0.9610399
0.12526484 0.82199335 -0.91010845 0.4500811 0.8300267
-0.20669897 0.76119983 0.058655143 0.13312502 0.85608447
0.18292536 1.2216399 0.21449018 0.49509174 0.8661727
0.10464728 1.1738412 -0.44753253 0.5392354 0.859311
-0.36125088 0.8373144 -0.9261993 0.19930544 0.85283613
-0.3477019 1.1859387 -0.9204081 0.30584902 0.90399164
3 0 1 2
3 3 4 5
3 6 7 8
3 9 10 6
3 2 11 12
3 1 13 11
3 14 15 1
3 15 16 13
3 17 18 15
3 5 19 20
3 20 21 22
3 18 23 24
3 25 21 26
3 26 27 28
3 19 27 21
3 27 29 28
3 30 27 31
3 32 33 30
3 33 34 29
3 35 36 34
3 37 35 32
3 38 39 37
3 39 40 36
3 41 42 40
3 43 41 38
3 44 45 46
3 45 47 48
3 49 44 46
3 50 51 49
3 52 50 53
3 54 55 56
3 55 57 58
3 56 59 60
3 55 61 59
3 62 60 63
3 64 56 62
3 65 64 62
3 65 63 66
3 67 53 68
3 69 67 68
3 70 69 71
3 72 65 73
3 74 70 71
3 75 76 74
3 77 75 78
3 79 80 81
3 80 82 83
3 84 80 85
3 85 83 86
3 36 81 84
3 42 81 40
3 34 84 87
3 87 85 88
3 29 87 89
3 89 88 90
3 90 91 92
3 88 86 91
3 92 93 94
3 91 95 93
3 86 73 95
3 93 66 96
3 95 65 66
3 83 72 73
3 66 97 96
3 94 96 98
3 96 99 98
3 97 100 99
3 63 101 97
3 101 102 100
3 60 103 101
3 103 104 102
3 59 105 103
3 105 30 104
3 61 32 105
3 58 37 61
3 102 106 107
3 104 31 106
3 106 108 107
3 106 109 110
3 110 111 108
3 110 112 113
3 114 109 4
3 4 31 19
3 10 115 7
3 116 117 10
3 108 118 119
3 120 121 116
3 122 116 9
3 123 120 122
3 124 125 120
3 124 126 127
3 123 128 124
3 129 130 128
3 128 131 126
3 130 132 131
3 133 134 130
3 135 136 137
3 138 139 136
3 140 141 138
3 142 138 135
3 142 143 144
3 135 145 143
3 146 144 143
3 147 143 145
3 148 149 146
3 150 146 147
3 151 144 149
3 152 149 153
3 154 155 156
3 155 157 156
3 158 159 157
3 152 160 151
3 161 162 159
3 163 160 164
3 165 166 161
3 158 165 161
3 167 165 168
3 169 170 165
3 171 158 155
3 171 167 168
3 172 173 167
3 167 174 169
3 175 174 173
3 176 175 173
3 174 177 169
3 174 178 179
3 180 181 178
3 175 182 180
3 18 182 16
3 182 183 181
3 13 175 184
3 181 185 186
3 178 186 187
3 188 189 190
3 191 190 192
3 179 187 193
3 194 192 195
3 195 196 197
3 192 198 196
3 199 200 201
3 202 203 200
3 201 204 205
3 200 206 204
3 203 207 206
3 208 209 203
3 210 209 211
3 212 207 209
3 213 28 212
3 214 212 210
3 215 26 213
3 216 213 214
3 217 218 189
3 189 219 220
3 183 221 185
3 190 220 198
3 24 222 183
3 207 90 206
3 28 89 207
3 206 92 204
3 204 94 205
3 223 205 224
3 224 225 226
3 94 225 205
3 225 227 226
3 225 99 228
3 228 141 227
3 229 230 228
3 99 229 228
3 107 119 229
3 100 107 229
3 119 231 230
3 141 231 139
3 226 140 232
3 233 226 232
3 233 234 235
3 234 140 142
3 223 233 236
3 236 235 237
3 238 235 239
3 235 240 239
3 241 239 160
3 160 240 151
3 234 144 240
3 242 238 241
3 243 237 238
3 244 245 246
3 247 248 244
3 249 237 250
3 251 236 249
3 252 253 247
3 254 247 255
3 255 244 256
3 177 257 170
3 170 258 166
3 166 259 162
3 256 246 260
3 261 241 163
3 179 262 177
3 194 252 254
3 195 263 252
3 199 223 251
3 264 176 265
3 266 176 172
3 267 265 266
3 268 265 269
3 12 264 268
3 11 184 264
3 270 266 271
3 271 172 171
3 272 271 273
3 273 171 155
3 274 273 154
3 275 276 134
3 134 277 132
3 47 78 48
3 58 43 38
3 278 279 280
3 278 281 282
3 283 284 281
3 285 286 284
3 287 288 289
3 287 290 291
3 292 290 293
3 292 294 295
3 295 296 297
3 295 298 290
3 297 299 300
3 297 301 298
3 290 302 291
3 298 303 302
3 301 304 303
3 300 305 301
3 305 306 304
3 307 308 305
3 308 309 306
3 310 311 308
3 310 312 313
3 307 314 310
3 313 315 316
3 313 317 311
3 315 318 316
3 317 318 319
3 311 320 309
3 320 319 321
3 322 323 324
3 325 324 326
3 327 328 323
3 329 321 330
3 331 332 333
3 334 332 335
3 309 329 336
3 337 335 338
3 338 339 340
3 335 341 339
3 342 340 343
3 344 338 342
3 345 343 346
3 347 342 345
3 304 348 349
3 306 336 348
3 303 349 350
3 351 345 352
3 302 350 353
3 354 352 355
3 355 356 357
3 352 346 356
3 284 354 355
3 284 357 281
3 281 358 282
3 357 359 358
3 282 360 279
3 358 361 360
3 359 362 361
3 356 363 359
3 363 364 362
3 346 365 363
3 365 366 364
3 343 367 365
3 340 368 367
3 367 369 366
3 370 371 372
3 371 373 374
3 374 375 376
3 368 377 369
3 376 378 327
3 377 341 331
3 339 379 368
3 380 376 381
3 381 327 322
3 382 322 325
3 383 381 382
3 384 374 380
3 385 380 383
3 385 386 387
3 383 388 386
3 387 389 390
3 386 391 389
3 392 388 393
3 393 382 325
3 394 393 395
3 395 325 326
3 396 397 315
3 398 392 394
3 399 400 396
3 401 399 396
3 312 396 315
3 402 403 401
3 314 401 312
3 404 405 402
3 406 402 314
3 407 408 404
3 299 404 406
3 300 406 307
3 296 407 299
3 409 410 407
3 411 409 412
3 294 409 296
3 413 412 414
3 414 294 415
3 416 417 418
3 419 420 416
3 420 421 422
3 420 423 417
3 422 424 425
3 423 425 426
3 425 427 428
3 426 428 429
3 428 430 431
3 429 431 432
3 431 433 434
3 432 434 435
3 435 436 437
3 434 438 436
3 433 439 438
3 430 440 433
3 440 441 439
3 442 443 440
3 444 390 445
3 445 389 446
3 439 447 448
3 389 449 446
3 450 447 451
3 452 391 392
3 438 448 450
3 436 450 453
3 453 451 454
3 437 453 454
3 455 387 390
3 456 455 444
3 457 458 455
3 459 460 458
3 460 387 458
3 461 385 460
3 462 460 463
3 464 463 465
3 466 463 459
3 467 465 468
3 469 465 466
3 470 466 471
3 471 459 457
3 472 471 473
3 473 457 456
3 474 470 472
3 475 469 470
3 476 475 474
3 477 478 475
3 479 480 478
3 478 468 469
3 481 468 480
3 482 480 483
3 484 481 482
3 484 485 486
3 486 487 488
3 481 488 467
3 487 489 488
3 467 489 464
3 490 491 489
3 464 491 462
3 492 372 491
3 491 461 462
3 372 384 461
3 493 494 495
3 493 496 419
3 496 497 421
3 495 498 497
3 421 499 424
3 497 500 499
3 424 501 427
3 499 502 501
3 427 442 430
3 501 503 442
3 291 353 288
3 0 14 1
3 3 114 4
3 6 10 7
3 9 116 10
3 2 1 11
3 1 15 13
3 14 17 15
3 15 18 16
3 17 504 18
3 5 4 19
3 20 19 21
3 18 504 23
3 25 22 21
3 26 21 27
3 19 31 27
3 27 33 29
3 30 33 27
3 32 35 33
3 33 35 34
3 35 39 36
3 37 39 35
3 38 41 39
3 39 41 40
3 41 505 42
3 43 505 41
3 44 506 45
3 45 506 47
3 49 51 44
3 50 507 51
3 52 507 50
3 54 508 55
3 55 508 57
3 56 55 59
3 55 58 61
3 62 56 60
3 64 54 56
3 65 509 64
3 65 62 63
3 67 52 53
3 69 510 67
3 70 510 69
3 72 509 65
3 74 76 70
3 75 511 76
3 77 511 75
3 79 512 80
3 80 512 82
3 84 81 80
3 85 80 83
3 36 40 81
3 42 79 81
3 34 36 84
3 87 84 85
3 29 34 87
3 89 87 88
3 90 88 91
3 88 85 86
3 92 91 93
3 91 86 95
3 86 83 73
3 93 95 66
3 95 73 65
3 83 82 72
3 66 63 97
3 94 93 96
3 96 97 99
3 97 101 100
3 63 60 101
3 101 103 102
3 60 59 103
3 103 105 104
3 59 61 105
3 105 32 30
3 61 37 32
3 58 38 37
3 102 104 106
3 104 30 31
3 106 110 108
3 106 31 109
3 110 113 111
3 110 109 112
3 114 112 109
3 4 109 31
3 10 117 115
3 116 121 117
3 108 111 118
3 120 125 121
3 122 120 116
3 123 124 120
3 124 127 125
3 124 128 126
3 123 129 128
3 129 133 130
3 128 130 131
3 130 134 132
3 133 275 134
3 135 138 136
3 138 141 139
3 140 227 141
3 142 140 138
3 142 135 143
3 135 137 145
3 146 149 144
3 147 146 143
3 148 153 149
3 150 148 146
3 151 240 144
3 152 151 149
3 154 273 155
3 155 158 157
3 158 161 159
3 152 164 160
3 161 166 162
3 163 241 160
3 165 170 166
3 158 168 165
3 167 169 165
3 169 177 170
3 171 168 158
3 171 172 167
3 172 176 173
3 167 173 174
3 175 180 174
3 176 184 175
3 174 179 177
3 174 180 178
3 180 182 181
3 175 16 182
3 18 24 182
3 182 24 183
3 13 16 175
3 181 183 185
3 178 181 186
3 188 217 189
3 191 188 190
3 179 178 187
3 194 191 192
3 195 192 196
3 192 190 198
3 199 202 200
3 202 208 203
3 201 200 204
3 200 203 206
3 203 209 207
3 208 211 209
3 210 212 209
3 212 28 207
3 213 26 28
3 214 213 212
3 215 25 26
3 216 215 213
3 217 513 218
3 189 218 219
3 183 222 221
3 190 189 220
3 24 23 222
3 207 89 90
3 28 29 89
3 206 90 92
3 204 92 94
3 223 201 205
3 224 205 225
3 94 98 225
3 225 228 227
3 225 98 99
3 228 230 141
3 229 119 230
3 99 100 229
3 107 108 119
3 100 102 107
3 119 118 231
3 141 230 231
3 226 227 140
3 233 224 226
3 233 232 234
3 234 232 140
3 223 224 233
3 236 233 235
3 238 237 235
3 235 234 240
3 241 238 239
3 160 239 240
3 234 142 144
3 242 243 238
3 243 250 237
3 244 248 245
3 247 253 248
3 249 236 237
3 251 223 236
3 252 263 253
3 254 252 247
3 255 247 244
3 177 262 257
3 170 257 258
3 166 258 259
3 256 244 246
3 261 242 241
3 179 193 262
3 194 195 252
3 195 197 263
3 199 201 223
3 264 184 176
3 266 265 176
3 267 269 265
3 268 264 265
3 12 11 264
3 11 13 184
3 270 267 266
3 271 266 172
3 272 270 271
3 273 271 171
3 274 272 273
3 275 514 276
3 134 276 277
3 47 77 78
3 58 57 43
3 278 282 279
3 278 283 281
3 283 285 284
3 285 515 286
3 287 291 288
3 287 293 290
3 292 295 290
3 292 415 294
3 295 294 296
3 295 297 298
3 297 296 299
3 297 300 301
3 290 298 302
3 298 301 303
3 301 305 304
3 300 307 305
3 305 308 306
3 307 310 308
3 308 311 309
3 310 313 311
3 310 314 312
3 307 406 314
3 313 312 315
3 313 316 317
3 315 397 318
3 317 316 318
3 311 317 320
3 320 317 319
3 322 327 323
3 325 322 324
3 327 378 328
3 329 320 321
3 331 341 332
3 334 333 332
3 309 320 329
3 337 334 335
3 338 335 339
3 335 332 341
3 342 338 340
3 344 337 338
3 345 342 343
3 347 344 342
3 304 306 348
3 306 309 336
3 303 304 349
3 351 347 345
3 302 303 350
3 354 351 352
3 355 352 356
3 352 345 346
3 284 286 354
3 284 355 357
3 281 357 358
3 357 356 359
3 282 358 360
3 358 359 361
3 359 363 362
3 356 346 363
3 363 365 364
3 346 343 365
3 365 367 366
3 343 340 367
3 340 339 368
3 367 368 369
3 370 516 371
3 371 516 373
3 374 373 375
3 368 379 377
3 376 375 378
3 377 379 341
3 339 341 379
3 380 374 376
3 381 376 327
3 382 381 322
3 383 380 381
3 384 371 374
3 385 384 380
3 385 383 386
3 383 382 388
3 387 386 389
3 386 388 391
3 392 391 388
3 393 388 382
3 394 392 393
3 395 393 325
3 396 400 397
3 398 452 392
3 399 517 400
3 401 403 399
3 312 401 396
3 402 405 403
3 314 402 401
3 404 408 405
3 406 404 402
3 407 410 408
3 299 407 404
3 300 299 406
3 296 409 407
3 409 518 410
3 411 518 409
3 294 412 409
3 413 411 412
3 414 412 294
3 416 420 417
3 419 496 420
3 420 496 421
3 420 422 423
3 422 421 424
3 423 422 425
3 425 424 427
3 426 425 428
3 428 427 430
3 429 428 431
3 431 430 433
3 432 431 434
3 435 434 436
3 434 433 438
3 433 440 439
3 430 442 440
3 440 443 441
3 442 503 443
3 444 455 390
3 445 390 389
3 439 441 447
3 389 391 449
3 450 448 447
3 452 449 391
3 438 439 448
3 436 438 450
3 453 450 451
3 437 436 453
3 455 458 387
3 456 457 455
3 457 459 458
3 459 463 460
3 460 385 387
3 461 384 385
3 462 461 460
3 464 462 463
3 466 465 463
3 467 464 465
3 469 468 465
3 470 469 466
3 471 466 459
3 472 470 471
3 473 471 457
3 474 475 470
3 475 478 469
3 476 477 475
3 477 479 478
3 479 483 480
3 478 480 468
3 481 467 468
3 482 481 480
3 484 486 481
3 484 519 485
3 486 485 487
3 481 486 488
3 487 490 489
3 467 488 489
3 490 492 491
3 464 489 491
3 492 370 372
3 491 372 461
3 372 371 384
3 493 520 494
3 493 495 496
3 496 495 497
3 495 494 498
3 421 497 499
3 497 498 500
3 424 499 501
3 499 500 502
3 427 501 442
3 501 502 503
3 291 302 353
