ply
format ascii 1.0
comment Created in Blender version 4.2.3 LTS
element vertex 521
property float x
property float y
property float z
property float s
property float t
element face 784
property list uchar uint vertex_indices
end_header
-0.100612864 -0.6645274 -0.95671904 0.2698405 0.96188235
-0.015115753 -0.6652702 -0.9950882 0.27256402 0.9564748
-0.085739836 -0.6702293 -0.9979242 0.27257138 0.9610526
-0.13518219 -0.7033328 -0.9718009 0.83425564 0.08391611
-0.085739836 -0.6702293 -0.9979242 0.8314282 0.08156268
-0.103541836 -0.70474726 -1.0143107 0.83400494 0.08096532
-0.017360285 -0.70643586 -1.0276347 0.09937625 0.8651714
-0.085739836 -0.6702293 -0.9979242 0.09479523 0.8624406
-0.015115753 -0.6652702 -0.9950882 0.09938245 0.8617986
-0.018507257 -0.6534955 -0.9221412 0.26781765 0.9564855
0.102656856 -0.6676133 -0.9805089 0.2719262 0.9488343
0.102782026 -0.7099276 -1.0245837 0.10704342 0.86509264
0.102656856 -0.6676133 -0.9805089 0.1070289 0.8611518
0.10014723 -0.80121756 -1.031839 0.107040636 0.87100923
-0.020713523 -0.79744005 -1.0333 0.09925919 0.87098163
-0.103541836 -0.70474726 -1.0143107 0.09376298 0.86501
-0.02528347 -0.9442956 -1.034952 0.09918294 0.88043946
-0.10980742 -0.7948341 -1.0184911 0.09342975 0.87087536
-0.1508853 -0.9410144 -0.97948325 0.8475013 0.084265925
-0.10980742 -0.7948341 -1.0184911 0.8392135 0.08091386
-0.114377394 -0.94168967 -1.0201432 0.84751546 0.08114787
-0.14441375 -0.7928534 -0.97589886 0.83910877 0.08402063
-0.118936464 -1.0881937 -1.0217911 0.8557488 0.08100192
-0.02984251 -1.0907996 -1.0366 0.09915488 0.889874
-0.114377394 -0.94168967 -1.0201432 0.09333487 0.8804088
-0.15362926 -1.0889901 -0.97923005 0.85584366 0.0840759
-0.15146728 -0.9415363 -0.93327916 0.8474946 0.08697898
-0.12073137 -1.0738596 -0.88836944 0.85537857 0.08992506
-0.14587267 -0.94197613 -0.91219676 0.8474926 0.08819371
-0.112596765 -0.8124575 -0.885429 0.8396582 0.08987455
-0.1239347 -0.78284866 -0.9074744 0.8380946 0.088152796
-0.109064505 -0.8172054 -0.8882917 0.83999264 0.090102576
-0.11690979 -1.069312 -0.8911277 0.85505134 0.09015531
-0.1426313 -0.94209665 -0.9110018 0.8474923 0.08837368
-0.114443645 -1.0680329 -0.90595734 0.85438645 0.090764925
-0.1401896 -0.94209784 -0.9176551 0.84748995 0.088809446
-0.10667227 -0.81830156 -0.9031483 0.8406752 0.09069931
-0.09965502 -0.8224296 -0.9183773 0.8413938 0.09140991
-0.10717259 -1.064008 -0.9210948 0.853692 0.09149906
-0.13233475 -0.94226265 -0.9247278 0.8474849 0.08944841
-0.09089275 -1.0547493 -0.92723954 0.8530577 0.09230289
-0.1141441 -0.942799 -0.9273778 0.84747314 0.09046603
-0.08397792 -0.8325422 -0.92473996 0.84204835 0.092177644
-0.1141441 -0.942799 -0.9273778 0.67013025 0.24919197
-0.06304152 -0.8463075 -0.9251505 0.676664 0.24651684
-0.08397792 -0.8325422 -0.92473996 0.677418 0.24795108
-0.06914078 -1.0423064 -0.9273554 0.66401714 0.24566019
-0.08966468 -0.94356465 -0.9270326 0.6702373 0.24761198
-0.006630704 -0.7863379 -0.92031324 0.68088865 0.24326219
0.005223289 -0.8055404 -0.9224545 0.6797181 0.24237971
0.097086325 -0.78267044 -0.91527927 0.6817979 0.23660406
0.09675254 -0.80229175 -0.9193648 0.68050414 0.23650996
0.18915226 -0.8113325 -0.91637146 0.68049395 0.23051482
0.20180742 -0.7929304 -0.910869 0.6817979 0.22979599
0.25683486 -0.8563807 -0.9145709 0.6780383 0.22588435
0.27852318 -0.84400755 -0.9083153 0.6790031 0.22452818
0.30273205 -0.95598406 -0.9084891 0.6719534 0.22224571
0.27819318 -0.95514876 -0.9148661 0.6718427 0.22388695
0.25073564 -1.0523796 -0.9167758 0.66543543 0.22503534
0.27160835 -1.0662144 -0.9108149 0.66466266 0.22356123
0.19186734 -1.112353 -0.9144622 0.6611764 0.22840042
0.18038459 -1.093081 -0.91954076 0.66237175 0.22928913
0.086714104 -1.1159811 -0.91902864 0.66026056 0.23515168
0.08760367 -1.0962901 -0.9226719 0.66155547 0.2352324
-0.0035443157 -1.0872889 -0.925624 0.6615467 0.24115206
-0.016570672 -1.1057606 -0.92390645 0.6602688 0.24186921
-0.09089275 -1.0547493 -0.92723954 0.6630772 0.24697965
0.08524759 -1.1307826 -0.89211094 0.8556747 0.10072709
-0.016570672 -1.1057606 -0.92390645 0.8548206 0.096017666
-0.026687846 -1.1195632 -0.90799844 0.8558201 0.095678784
-0.03196399 -1.1256838 -0.87081707 0.85770017 0.09545222
-0.034378216 -1.1277347 -0.833717 0.85965705 0.09538585
0.08294304 -1.137528 -0.8302573 0.8584459 0.10157939
0.19933312 -1.1269102 -0.8801192 0.8543049 0.10519817
0.08080317 -1.1399424 -0.76826155 0.86144143 0.10269804
0.20034371 -1.1336887 -0.80183613 0.8570414 0.107287645
0.07974289 -1.1444468 -0.7409769 0.8629016 0.10323389
0.19872068 -1.1361327 -0.72343385 0.86048096 0.11000325
-0.03668098 -1.1323415 -0.8185617 0.8605887 0.09536255
0.2895697 -1.0819548 -0.7859906 0.8537898 0.11122333
0.19926284 -1.1404734 -0.6893705 0.8623388 0.11142212
0.2851672 -1.0789642 -0.7037991 0.8563709 0.11571466
0.20382763 -1.1599699 -0.6841177 0.86361927 0.111895986
0.28952402 -1.078215 -0.6712774 0.8577719 0.11821906
0.079064324 -1.1613607 -0.7370511 0.86393124 0.10323395
0.3236789 -0.959092 -0.6901618 0.8479584 0.11825146
0.33290726 -1.1059885 -0.6672882 0.8598735 0.12127155
0.33037257 -0.95973647 -0.650823 0.8480164 0.12097025
0.46412468 -1.1116523 -0.67356765 0.85931796 0.13103954
0.33245382 -1.1954588 -0.67705786 0.86598176 0.121225946
0.4607761 -1.2009153 -0.6825172 0.866083 0.13090318
0.20428143 -1.1994381 -0.6914438 0.8663729 0.11184802
0.37209928 -0.9610088 -0.65060604 0.84807855 0.12391554
0.29868984 -0.834918 -0.6649114 0.83813345 0.11865183
0.47334015 -0.81551546 -0.67023623 0.8371211 0.13156493
0.47134262 -0.9638419 -0.67149365 0.84824884 0.13152687
0.60130626 -0.82036585 -0.71600544 0.83734494 0.14180863
0.5967364 -0.96722126 -0.71765697 0.8484875 0.1415924
0.5921773 -1.1137254 -0.71930563 0.8595883 0.14126648
0.34721476 -0.72042423 -0.6678854 0.82990026 0.12202696
0.3423813 -0.8111826 -0.6620735 0.836125 0.12180242
0.47558314 -0.72509134 -0.67716444 0.83025527 0.1317554
0.7253528 -0.82338804 -0.7905005 0.8375325 0.1528412
0.604357 -0.72894895 -0.72120535 0.83031833 0.14212853
0.7207828 -0.9702434 -0.79215276 0.84875804 0.15261577
0.81700385 -0.734988 -0.8725699 0.83097357 0.16226842
0.8177987 -0.8253338 -0.8732728 0.8377797 0.16229215
0.8132287 -0.9721892 -0.8749248 0.8489752 0.1621754
0.71622384 -1.1167476 -0.7938007 0.8599523 0.15228383
0.8086696 -1.1186932 -0.87657297 0.86017835 0.1617434
0.8022874 -1.2079012 -0.87788975 0.866928 0.16139415
0.71287215 -1.2068278 -0.7989155 0.8669533 0.15225548
0.58957165 -1.2040782 -0.7265502 0.86654073 0.1412318
0.58972603 -1.2454562 -0.77061427 0.8711266 0.14262079
0.71057373 -1.2471049 -0.82983243 0.8708007 0.1535782
0.46119744 -1.2418692 -0.73389184 0.8712033 0.13173816
0.33291584 -1.2379806 -0.7246765 0.87127525 0.121185146
0.58972603 -1.2454562 -0.77061427 0.11825433 0.95076764
0.46467823 -1.2533313 -0.8500482 0.123167194 0.94253165
0.59266 -1.2570853 -0.87039936 0.12474155 0.95075524
0.46119744 -1.2418692 -0.73389184 0.11561725 0.9425331
0.3365761 -1.2493883 -0.84620893 0.12264903 0.93425596
0.20495556 -1.2338002 -0.7423667 0.115617365 0.9259415
0.2084363 -1.2452619 -0.858523 0.12316727 0.925943
0.20495556 -1.2338002 -0.7423667 0.87079406 0.11076762
0.07858418 -1.2293599 -0.7875196 0.118254595 0.91766965
0.08151819 -1.2409889 -0.88730466 0.12474168 0.91768235
0.0781834 -1.1959484 -0.7435607 0.86606973 0.10279573
0.07858418 -1.2293599 -0.7875196 0.8692152 0.10093136
-0.039565787 -1.1514972 -0.81909525 0.86166304 0.09496023
-0.03956692 -1.1901265 -0.8239397 0.86391807 0.094257645
-0.037343964 -1.2235522 -0.85456884 0.86613685 0.09249236
-0.10576926 -1.2138063 -0.90988505 0.8637554 0.08759178
-0.123212084 -1.1814786 -0.90887535 0.8616242 0.08765668
-0.14995463 -1.1780486 -0.97714126 0.8605692 0.08395665
-0.1338632 -1.101901 -0.91106355 0.8568844 0.088190526
-0.11784829 -1.2183821 -0.96294963 0.86347884 0.08434447
-0.102625325 -1.2128451 -1.0040282 0.86329705 0.0816365
-0.11825822 -1.1776607 -1.0196306 0.86080927 0.08106242
-0.032128498 -1.1810112 -1.0329734 0.09921489 0.8956192
-0.102625325 -1.2128451 -1.0040282 0.09461198 0.8982593
-0.11825822 -1.1776607 -1.0196306 0.09360912 0.8957255
-0.118936464 -1.0881937 -1.0217911 0.09333753 0.8899245
0.08799659 -1.1850573 -1.0299286 0.10687542 0.8957807
-0.032442138 -1.2220535 -1.0013517 0.09918511 0.8989422
0.091018274 -1.0945771 -1.0351392 0.10693593 0.8899257
-0.032442138 -1.2220535 -1.0013517 0.13187969 0.91002464
-0.11784829 -1.2183821 -0.96294963 0.12915947 0.90461564
-0.102625325 -1.2128451 -1.0040282 0.13188805 0.9054483
0.085239336 -1.2273252 -0.9868051 0.1312392 0.9176647
-0.03659974 -1.2348938 -0.9286815 0.1271354 0.91000986
0.2127042 -1.2314312 -0.9743947 0.13072166 0.92593956
0.21570064 -1.1890901 -1.0246807 0.1151379 0.895886
0.085239336 -1.2273252 -0.9868051 0.10681784 0.8996774
0.34102362 -1.2355024 -0.96745884 0.1305499 0.934256
0.3440986 -1.1931375 -1.0200976 0.12347909 0.89594585
0.2127042 -1.2314312 -0.9743947 0.11511018 0.9001516
0.34716564 -1.1026434 -1.0266675 0.12351207 0.89006156
0.21875645 -1.0985997 -1.0309144 0.1151922 0.8900038
0.22331549 -0.9520956 -1.0292662 0.115251705 0.8805264
0.35172468 -0.9561392 -1.0250193 0.123563305 0.88057065
0.095577255 -0.948073 -1.033491 0.10699269 0.8804822
0.22788548 -0.8052402 -1.0276145 0.115295194 0.8710223
0.3562947 -0.80928385 -1.0233673 0.12361469 0.8710572
0.23048608 -0.71396077 -1.0193359 0.11530681 0.86507916
0.3588841 -0.71800786 -1.0147527 0.12364797 0.86511225
0.23012167 -0.6717195 -0.9680985 0.11532688 0.8607744
0.3584411 -0.6757906 -0.9611627 0.123672634 0.8606839
0.22665185 -0.6599062 -0.8519381 0.2638516 0.94055474
0.3584411 -0.6757906 -0.9611627 0.27123764 0.932241
0.23012167 -0.6717195 -0.9680985 0.2714093 0.94055843
0.099733725 -0.655633 -0.8807198 0.26542535 0.9488156
0.48289376 -0.66797554 -0.8434633 0.26385155 0.9239647
0.48636365 -0.6797887 -0.9596237 0.2714092 0.9239609
0.48636365 -0.6797887 -0.9596237 0.13197967 0.860867
0.61087555 -0.6717294 -0.8638145 0.2654252 0.9157409
0.6137987 -0.68370974 -0.9636036 0.27192616 0.9157224
0.6137987 -0.68370974 -0.9636036 0.14023526 0.86133677
0.48672807 -0.72203004 -1.010861 0.13195185 0.8651717
0.61392397 -0.726024 -1.0076784 0.14017777 0.8652761
0.48412734 -0.81330943 -1.0191394 0.13189724 0.87111455
0.6067191 -0.96416926 -1.0165857 0.14005947 0.88065875
0.611289 -0.81731385 -1.0149337 0.14011687 0.8711918
0.72805905 -0.96801883 -1.0100361 0.14791104 0.88070244
0.7326291 -0.8211635 -1.0083841 0.14794102 0.8712444
0.7346262 -0.7301165 -1.0027639 0.14788237 0.8654373
0.8170496 -0.971021 -0.9893373 0.1538277 0.88073474
0.8216194 -0.8241655 -0.98768556 0.1538277 0.8711962
0.8207165 -0.733853 -0.9837421 0.1535554 0.8653363
0.80383754 -0.6982429 -0.96850264 0.15253615 0.8627597
0.7328019 -0.6888228 -0.9703518 0.14790924 0.86206746
0.7328019 -0.6888228 -0.9703518 0.27256444 0.9080425
0.81647676 -0.6934072 -0.92638767 0.26984045 0.90256894
0.80383754 -0.6982429 -0.96850264 0.27257138 0.9034114
0.7321228 -0.67713344 -0.89731514 0.2678176 0.90802974
0.80383754 -0.6982429 -0.96850264 0.82699585 0.16999272
0.84961367 -0.7346916 -0.9391452 0.8313129 0.16745926
0.8207165 -0.733853 -0.9837421 0.83035964 0.1713708
0.81647676 -0.6934072 -0.92638767 0.8274112 0.1662069
0.8006936 -0.6992041 -0.8743595 0.26639706 0.9033917
0.85172987 -0.8256172 -0.94193447 0.83775496 0.1681594
0.8216194 -0.8241655 -0.98768556 0.8374351 0.17234538
0.8170496 -0.971021 -0.9893373 0.8492222 0.17251891
0.84715986 -0.97247267 -0.94358647 0.8491236 0.16816784
0.84260094 -1.1189766 -0.94523466 0.8604662 0.16761708
0.8124905 -1.1175251 -0.9909855 0.86097246 0.17183933
0.806 -1.2067662 -0.98906195 0.868 0.17051509
0.83486277 -1.2087129 -0.94447744 0.8668372 0.16662003
0.786952 -1.2408587 -0.97460663 0.87127525 0.16896534
0.7992415 -1.247262 -0.932618 0.87064797 0.16517082
0.7838081 -1.2418196 -0.8804635 0.12571852 0.96310055
0.7140305 -1.2585318 -0.90385544 0.12713534 0.958469
0.7992415 -1.247262 -0.932618 0.1291594 0.9639271
0.71547556 -1.2456062 -0.9766153 0.13188004 0.9584522
0.786952 -1.2408587 -0.97460663 0.13188805 0.9630819
0.5963812 -1.2434216 -0.9698998 0.13123915 0.9507727
0.71057373 -1.2471049 -0.82983243 0.1223209 0.95845115
0.46894604 -1.2395005 -0.96591985 0.13072157 0.9425352
0.71547556 -1.2456062 -0.9766153 0.14770745 0.8992139
0.59913844 -1.2011535 -1.0130233 0.1400088 0.8959654
0.71985805 -1.2046919 -1.0081025 0.14771631 0.89588726
0.5963812 -1.2434216 -0.9698998 0.14002293 0.8998638
0.4719426 -1.1971595 -1.0162059 0.1317828 0.89597887
0.46894604 -1.2395005 -0.96591985 0.13176274 0.90024465
0.47499835 -1.106669 -1.0224396 0.13179424 0.89009625
0.6021601 -1.1106733 -1.0182339 0.14001149 0.890109
0.47955745 -0.96016484 -1.0207914 0.13183762 0.88061476
0.72350013 -1.114523 -1.0116843 0.14783362 0.8901368
0.806 -1.2067662 -0.98906195 0.15339513 0.89605224
0.8124905 -1.1175251 -0.9909855 0.1537313 0.8902455
0.786952 -1.2408587 -0.97460663 0.15234742 0.8985788
0.7838081 -1.2418196 -0.8804635 0.8698367 0.16073456
0.8006936 -0.6992041 -0.8743595 0.82799464 0.16176593
0.7276404 -0.73225236 -0.7935771 0.83047855 0.15316893
0.6071435 -0.6857444 -0.7643181 0.8257458 0.14375827
0.7279 -0.69032145 -0.82356894 0.26300102 0.9080437
0.6071435 -0.6857444 -0.7643181 0.25893524 0.9157278
0.47861493 -0.6821578 -0.7275957 0.8251058 0.13285033
0.35033333 -0.67826945 -0.71837795 0.8245092 0.12222623
0.3547917 -0.6640324 -0.83962405 0.26333356 0.932241
0.47861493 -0.6821578 -0.7275957 0.25629857 0.9239632
0.21949202 -0.710381 -0.68560493 0.8291091 0.11256841
0.22237305 -0.6740885 -0.7360705 0.2562987 0.94055635
0.22237305 -0.6740885 -0.7360705 0.8245326 0.11164527
0.09346466 -0.70488584 -0.7380365 0.8290981 0.10334077
0.09600167 -0.66964793 -0.7812234 0.2589355 0.948829
0.21657635 -0.7502762 -0.6784853 0.8319647 0.11251167
0.09215985 -0.74053586 -0.7323171 0.83135265 0.10372394
-0.026796982 -0.74117285 -0.8144795 0.8334148 0.09519647
0.09600167 -0.66964793 -0.7812234 0.82577115 0.10153387
-0.02436398 -0.70157933 -0.8184444 0.8310318 0.09452685
-0.10832654 -0.70313275 -0.9034947 0.83322763 0.087702766
-0.08888374 -0.6711905 -0.90378106 0.83100706 0.08766426
-0.100612864 -0.6645274 -0.95671904 0.8312453 0.084332235
-0.08888374 -0.6711905 -0.90378106 0.26639715 0.96107274
-0.02001758 -0.666769 -0.84830534 0.2630015 0.9564735
0.09177558 -0.7577766 -0.7366272 0.83242583 0.10369303
-0.025121406 -0.76087713 -0.8143829 0.83454686 0.095577806
0.092570975 -0.76178247 -0.76400745 0.8338982 0.10310319
-0.023100689 -0.7653315 -0.82964027 0.83549947 0.095570326
-0.020792648 -0.7666948 -0.86677873 0.83750653 0.09557696
0.094600126 -0.76293105 -0.8260435 0.8369225 0.10188082
0.096524045 -0.768415 -0.8880347 0.83974177 0.10094194
-0.015881225 -0.77229416 -0.90409195 0.8394505 0.0957498
-0.006630704 -0.7863379 -0.92031324 0.8404984 0.096063085
0.097086325 -0.78267044 -0.91527927 0.84109086 0.100609
0.2101397 -0.7796413 -0.8762127 0.84121424 0.10551134
0.21151501 -0.7746999 -0.7977978 0.8384866 0.10765616
0.20180742 -0.7929304 -0.910869 0.84240544 0.10462562
0.29342484 -0.8352071 -0.86989176 0.8435247 0.10833187
0.29734105 -0.83222353 -0.7831813 0.84184945 0.11151356
0.27852318 -0.84400755 -0.9083153 0.84421897 0.10712529
0.31970716 -0.95695686 -0.8689693 0.8477681 0.10941084
0.32442564 -0.95810807 -0.779693 0.847852 0.113133915
0.30273205 -0.95598406 -0.9084891 0.8477148 0.10782678
0.28590727 -1.0767857 -0.87260926 0.8519671 0.10804788
0.27160835 -1.0662144 -0.9108149 0.85120904 0.10681978
0.19186734 -1.112353 -0.9144622 0.8531282 0.104309075
0.086714104 -1.1159811 -0.91902864 0.8543604 0.10043048
0.29511338 -0.83364743 -0.69792616 0.8394408 0.11608624
0.21124558 -0.7696975 -0.68415606 0.83326983 0.111984864
0.21005444 -0.77382916 -0.71922004 0.8350998 0.11049015
-0.037343964 -1.2235522 -0.85456884 0.12232137 0.91002584
-0.10576926 -1.2138063 -0.90988505 0.12571862 0.9054291
-0.054289058 -0.7644583 -0.9398736 0.38607556 0.9032878
0.099596396 -0.7683324 -0.6963824 0.39513612 0.88696736
0.11501689 -0.76711625 -0.93424666 0.39700612 0.9023001
-0.13763832 -0.7652628 -0.70605314 0.3798217 0.8884714
-0.13107286 -0.76369727 -0.9442092 0.38112488 0.9038518
0.26193497 -0.7760881 -0.6912285 0.40567315 0.8860214
0.28415662 -0.77511615 -0.9286798 0.40793788 0.90131736
0.3294458 -0.78265077 -0.692541 0.41018143 0.8857333
0.35544282 -0.779018 -0.9281186 0.41255394 0.90101844
0.3294458 -0.78265077 -0.692541 0.79504263 0.24233153
0.36749014 -0.818845 -0.92634356 0.81104386 0.23898502
0.35544282 -0.779018 -0.9281186 0.81118846 0.24179937
0.3518716 -0.8221613 -0.6912612 0.7948498 0.23931526
0.36561626 -0.8790626 -0.9270209 0.81101567 0.23492286
0.36453098 -0.88155717 -0.68908346 0.79475224 0.23502548
0.36317864 -0.95739543 -0.9279021 0.8110021 0.22965352
0.3595875 -1.0394846 -0.6907803 0.79482144 0.22402513
0.36071205 -1.0366608 -0.9287938 0.8110744 0.2243232
0.34354156 -1.0971799 -0.69533265 0.79497504 0.21966256
0.35880238 -1.0980277 -0.929484 0.8111498 0.22018817
0.34728748 -1.1278521 -0.93017304 0.8111885 0.21802956
0.31700003 -1.1272539 -0.69804347 0.37272435 0.8452521
0.2729609 -1.1348921 -0.932727 0.37019128 0.8295045
0.34728748 -1.1278521 -0.93017304 0.3750267 0.8299149
0.24419145 -1.1372945 -0.6977695 0.3679937 0.84485686
0.10366906 -1.1317781 -0.9383489 0.3592335 0.82856834
0.0881878 -1.1349462 -0.70050657 0.35741785 0.8439494
-0.06548487 -1.1242341 -0.94392073 0.34827742 0.8276182
-0.14585032 -1.1159163 -0.7081281 0.34218457 0.842614
-0.13922824 -1.1125314 -0.9462639 0.34344485 0.8271933
-0.13922824 -1.1125314 -0.9462639 0.78776884 0.70790094
-0.15509821 -1.0852766 -0.70812404 0.77234113 0.70592153
-0.14886628 -1.0820408 -0.9462744 0.78776705 0.70582455
-0.15317823 -1.0235813 -0.70743 0.7723269 0.70193267
-0.14695646 -1.020674 -0.9455842 0.78775144 0.70184386
-0.1506985 -0.9438916 -0.70653355 0.7723023 0.696779
-0.14448993 -0.9414087 -0.9446925 0.78772634 0.6967016
-0.14205222 -0.86307573 -0.9438113 0.7876985 0.6916205
-0.14824773 -0.8651395 -0.7056476 0.7722733 0.6916843
-0.14017837 -0.80285805 -0.94313395 0.7876743 0.68771565
-0.13763832 -0.7652628 -0.70605314 0.7723305 0.6851591
-0.13107286 -0.76369727 -0.9442092 0.78776884 0.6851111
-0.14636387 -0.8045995 -0.70496666 0.77224755 0.6877669
-0.13292514 -0.76151687 -0.48635614 0.75809747 0.6848517
-0.14327763 -0.8648074 -0.4859773 0.75808144 0.6915889
-0.11806272 -0.79244876 -0.29985404 0.7459917 0.68682885
-0.14132355 -0.802011 -0.48527086 0.75805 0.68753237
-0.12018342 -0.860596 -0.3006208 0.74603534 0.69123125
-0.122942016 -0.9492439 -0.30161774 0.74608475 0.6969461
-0.14581971 -0.94649446 -0.48689616 0.7581183 0.69686025
-0.14839189 -1.0291541 -0.487826 0.75815153 0.7021909
-0.15038337 -1.0931485 -0.48854578 0.7581725 0.70631856
-0.12573348 -1.0389471 -0.3026271 0.74612975 0.702725
-0.12789463 -1.1083946 -0.30340815 0.7461576 0.70720536
-0.0949152 -1.0500716 -0.15690899 0.7365465 0.70333916
-0.09185691 -0.9517946 -0.15580344 0.73649275 0.6970265
-0.09728293 -1.126157 -0.15776491 0.7365693 0.70822835
-0.060397938 -1.0587299 -0.04890549 0.7292848 0.7037994
-0.057140425 -0.9540484 -0.047727942 0.72921014 0.69709635
-0.06292631 -1.139979 -0.04981959 0.7293281 0.7089727
0.01094009 -1.0619295 0.03973794 0.72199565 0.70390046
-0.08883466 -0.85467374 -0.15471101 0.73642725 0.6907826
0.017415836 -0.853832 0.042078853 0.7218364 0.69053406
-0.05392106 -0.85059804 -0.04656422 0.7291392 0.6904644
0.014197066 -0.9572671 0.04091537 0.7219044 0.6971809
0.15126382 -0.8668087 0.1261009 0.71163017 0.6911214
0.14527671 -1.0592036 0.123936534 0.7117856 0.7035774
0.14967687 -0.962487 0.12507093 0.71161646 0.697314
0.30907905 -0.87793374 0.19029713 0.7005668 0.69158536
0.30343252 -1.0593837 0.1882559 0.70071405 0.7033962
0.28226888 -1.1359417 0.18649352 0.7019405 0.7084075
0.14127521 -1.1376011 0.122115135 0.7120156 0.70873266
0.009524927 -1.1438186 0.038746357 0.7220906 0.70921224
0.378757 -1.1462972 0.20790696 0.6954597 0.70903397
0.43680108 -1.0694767 0.21274865 0.69181967 0.70387435
0.31738496 -0.96848035 0.18964994 0.69994354 0.6974642
0.51698446 -1.0762715 0.1878233 0.6855159 0.7046059
0.46334755 -0.973329 0.21115482 0.68959445 0.6975888
0.43739498 -1.1604506 0.1887933 0.6916248 0.7101304
0.44285756 -0.87670195 0.21493995 0.69166857 0.6913263
0.5365629 -0.8704144 0.19655132 0.6853499 0.6907445
0.5698799 -0.9760088 0.19233346 0.6817982 0.6976784
0.58960587 -0.8663185 0.14074433 0.7380462 0.23525941
0.5698799 -0.9760088 0.19233346 0.73361194 0.22925834
0.6544127 -0.9783115 0.14176512 0.738228 0.22927466
0.574862 -1.0844125 0.1361295 0.7381117 0.22324085
0.44844764 -0.7850608 0.19439542 0.6913299 0.6851742
0.47891498 -0.778882 0.1375035 0.7387857 0.24358726
0.5365629 -0.8704144 0.19655132 0.7339359 0.23710729
0.5882921 -0.8666115 0.061012864 0.7422684 0.23502196
0.47925204 -0.7799991 0.05815065 0.7437181 0.24277696
0.651989 -0.9773264 0.062009692 0.7415277 0.22929323
0.5385844 -0.8686067 -0.026961327 0.7476733 0.23564087
0.45001006 -0.79063797 -0.03305006 0.74955 0.24281386
0.5916754 -0.9744769 -0.026269197 0.7464798 0.22932255
0.469656 -0.8723497 -0.13638175 0.7555582 0.23615271
0.41049403 -0.80839396 -0.15451288 0.7571375 0.24265194
0.5086153 -0.970704 -0.13594365 0.7545456 0.2293612
0.5320672 -1.0780386 -0.02931726 0.7477307 0.22296228
0.4635948 -1.0676595 -0.13843703 0.7556094 0.22250848
0.5814928 -1.0851097 0.058554888 0.74232733 0.22352614
0.43564546 -1.1566323 -0.03333974 0.74963397 0.2157552
0.3982522 -1.1297752 -0.15437865 0.7572174 0.21593943
0.46705097 -1.166669 0.05390036 0.7438431 0.2157779
0.38107923 -1.1948302 -0.035716176 0.75073564 0.21163972
0.3367091 -1.1631454 -0.16507721 0.75813305 0.21236427
0.40525913 -1.2065735 0.051429033 0.74483985 0.21123825
0.40553182 -1.2071882 0.1281681 0.7397487 0.21033582
0.40525913 -1.2065735 0.051429033 0.3750267 0.89421207
0.35510924 -1.2208741 0.1251638 0.37144706 0.89873064
0.33917254 -1.2174995 0.04911089 0.37074122 0.8936922
0.38107923 -1.1948302 -0.035716176 0.37400618 0.88837034
0.30839202 -1.205047 -0.038338184 0.36931613 0.8879437
0.26921964 -1.2204846 0.12389922 0.36598855 0.89802384
0.21039666 -1.2139622 0.04367006 0.3624207 0.8927488
0.15979715 -1.2032474 -0.043352127 0.35981008 0.8869888
0.3367091 -1.1631454 -0.16507721 0.37237194 0.881128
0.2556733 -1.1807854 -0.16097581 0.36774832 0.8807769
0.12674306 -1.1850189 -0.15088451 0.3580726 0.8798853
0.011400893 -1.195426 -0.048118472 0.35028368 0.88618106
-0.023595825 -1.1775353 -0.15582871 0.34839123 0.8790557
0.096781954 -1.2033143 0.039132595 0.3540612 0.89200544
0.02282931 -1.1864365 0.038321137 0.3502057 0.89177877
-0.05483736 -1.1806163 -0.04996431 0.3460007 0.88578856
-0.08904491 -1.163844 -0.15787458 0.34408283 0.8786273
-0.08904491 -1.163844 -0.15787458 0.73640305 0.71072
-0.05483736 -1.1806163 -0.04996431 0.7290554 0.7116212
0.14869396 -1.1833136 0.11861229 0.35774103 0.89785576
0.02282931 -1.1864365 0.038321137 0.7217437 0.7120717
0.18702163 -1.2071185 0.11692953 0.3603742 0.8974394
0.26951998 -1.1855319 0.18214118 0.36519507 0.9025488
0.26951998 -1.1855319 0.18214118 0.702672 0.71166533
0.14869396 -1.1833136 0.11861229 0.7118853 0.7118756
0.34517097 -1.1927127 0.1995008 0.697382 0.7121696
0.31880763 -1.2149036 0.17825735 0.3688275 0.90177536
0.26180416 -1.2074473 0.16993761 0.3652422 0.9008838
0.35984153 -1.2169547 0.16932213 0.37137038 0.9016224
0.34517097 -1.1927127 0.1995008 0.37016484 0.90399164
0.40553182 -1.2071882 0.1281681 0.37448677 0.89934874
0.3875299 -1.2010367 0.180017 0.69465154 0.7130772
0.43739498 -1.1604506 0.1887933 0.73513615 0.21316488
0.46694374 -1.1687136 0.13299763 0.73896813 0.21493317
0.51698446 -1.0762715 0.1878233 0.73402387 0.2213547
-0.05306141 -1.1555294 -0.3013903 0.34691092 0.869439
-0.1194285 -1.1428237 -0.30347717 0.34254542 0.8690093
-0.1194285 -1.1428237 -0.30347717 0.74605477 0.7094948
-0.07303785 -1.1368464 -0.48640907 0.34621018 0.85730207
-0.14153348 -1.1249071 -0.48857462 0.3417103 0.85688174
-0.14153348 -1.1249071 -0.48857462 0.7581206 0.70844847
-0.07480423 -1.1275845 -0.70587456 0.3468464 0.8430299
-0.14585032 -1.1159163 -0.7081281 0.7723286 0.70799553
0.08414684 -1.1441083 -0.48123395 0.35641262 0.85819
0.22470756 -1.1589715 -0.31277084 0.36665583 0.8711597
0.21652628 -1.1432729 -0.49426544 0.3666221 0.859067
0.09931095 -1.1628368 -0.2963766 0.35678166 0.8702956
0.30645373 -1.139982 -0.3205794 0.37124535 0.8715
0.29704273 -1.1270233 -0.5004052 0.37126106 0.85943395
0.36417443 -1.10671 -0.31102455 0.7672515 0.21707565
0.30645373 -1.139982 -0.3205794 0.7678467 0.21397142
0.34470356 -1.0944746 -0.49420965 0.77993006 0.21858001
0.29704273 -1.1270233 -0.5004052 0.78020924 0.21586686
0.31700003 -1.1272539 -0.69804347 0.7950577 0.21729018
0.37380868 -1.042055 -0.4775735 0.7794949 0.22350457
0.3927701 -0.963455 -0.46908295 0.7792047 0.2294668
0.40694875 -1.055054 -0.28620172 0.76626587 0.22283165
0.37112543 -0.96032435 -0.6892749 0.79470223 0.22955693
0.4143682 -0.88285613 -0.29402125 0.7662121 0.2359057
0.3809312 -0.8877857 -0.48294842 0.7794293 0.23536159
0.3757006 -0.82424575 -0.3108554 0.76715505 0.24158497
0.355197 -0.830483 -0.49336302 0.7798095 0.24021167
0.43889463 -0.96693665 -0.28303587 0.7656243 0.22940378
0.35336602 -0.76416636 -0.15786552 0.75817764 0.24676876
0.32419628 -0.7828976 -0.312289 0.767887 0.24525915
0.31244326 -0.79105 -0.49371564 0.7802141 0.24351959
0.2517482 -0.75916904 -0.29699504 0.40425915 0.8598253
0.35336602 -0.76416636 -0.15786552 0.4097525 0.84995717
0.32419628 -0.7828976 -0.312289 0.40861514 0.8595589
0.23866065 -0.7713099 -0.48230278 0.40424818 0.8718702
0.31244326 -0.79105 -0.49371564 0.40866214 0.87159395
0.32114732 -0.7274131 -0.03371072 0.40697992 0.84306604
0.28253362 -0.7422065 -0.14666355 0.4053634 0.8502319
0.38961482 -0.7418533 -0.03638959 0.75076586 0.24745162
0.35375464 -0.7187856 0.05455923 0.40848586 0.8372963
0.38961482 -0.7418533 -0.03638959 0.41144234 0.8427492
0.41672778 -0.72801244 0.054722667 0.74484885 0.24783297
0.41818053 -0.72867304 0.13230515 0.7397406 0.2487022
0.3695801 -0.7177087 0.130252 0.4093044 0.8321917
0.41672778 -0.72801244 0.054722667 0.41255394 0.83694714
0.28500605 -0.71159667 0.13074946 0.40370992 0.8328409
0.22170356 -0.7110378 0.05035901 0.40006387 0.8381743
0.17466205 -0.7188975 -0.037585974 0.39741802 0.8439737
0.19355707 -0.7166761 0.12724435 0.39800173 0.8334268
0.08843829 -0.71218973 0.04589677 0.39160106 0.8389241
0.025035203 -0.7179439 -0.042573094 0.38783276 0.8448269
0.14081268 -0.7328934 -0.14579844 0.39567953 0.8511083
-0.009714708 -0.731468 -0.15081084 0.38599083 0.851988
0.1121531 -0.75015557 -0.29173434 0.3944119 0.8607019
-0.04039137 -0.7483775 -0.29681015 0.38456762 0.861602
0.0959806 -0.76383126 -0.47695625 0.39408234 0.87277734
-0.06136264 -0.76166433 -0.48218858 0.38391933 0.8737027
-0.06354846 -0.765883 -0.7018057 0.38459876 0.887922
-0.109880105 -0.749227 -0.30091906 0.38009033 0.8621357
-0.13292514 -0.76151687 -0.48635614 0.3793061 0.87424135
-0.07835229 -0.7334785 -0.15490282 0.38157132 0.85252136
-0.08651124 -0.7800129 -0.15387106 0.7363627 0.685975
-0.109880105 -0.749227 -0.30091906 0.7459906 0.68397945
-0.051439837 -0.7708647 -0.04566729 0.72907376 0.6853649
-0.07835229 -0.7334785 -0.15490282 0.7363014 0.6829131
-0.043245062 -0.7213392 -0.046667576 0.38343948 0.845352
0.019941702 -0.77266467 0.042991877 0.7218003 0.68531007
-0.043245062 -0.7213392 -0.046667576 0.7289175 0.68213314
0.027223319 -0.719491 0.041998625 0.3876608 0.839366
0.15412596 -0.7306461 0.12535667 0.3953683 0.83339363
0.15412596 -0.7306461 0.12535667 0.7117273 0.68229395
0.027223319 -0.719491 0.041998625 0.7215885 0.6818627
0.15138428 -0.78846705 0.12690485 0.71173024 0.68605083
0.28102165 -0.741864 0.18572581 0.7025103 0.68274677
0.29270095 -0.8013967 0.19028652 0.70166636 0.6866294
0.3578462 -0.7404718 0.20450628 0.6972036 0.6823875
0.38992715 -0.7967627 0.21293128 0.69518375 0.68617815
0.40003824 -0.73374504 0.1860503 0.6944517 0.68154263
0.3755513 -0.7220388 0.1757325 0.4092874 0.8291947
0.3578462 -0.7404718 0.20450628 0.407883 0.8271933
0.40003824 -0.73374504 0.1860503 0.4105091 0.82831496
0.3339348 -0.72240764 0.18375492 0.40664682 0.82901305
0.28102165 -0.741864 0.18572581 0.4029486 0.8287438
0.27692565 -0.72637886 0.17613459 0.4029563 0.8299057
0.41818053 -0.72867304 0.13230515 0.4121315 0.83181566
0.44844764 -0.7850608 0.19439542 0.7348909 0.24527946
0.33291584 -1.2379806 -0.7246765 0.114751145 0.9342559
0.34102362 -1.2355024 -0.96745884 0.12345453 0.90033627
0.7279 -0.69032145 -0.82356894 0.82664996 0.15469098
0.35033333 -0.67826945 -0.71837795 0.2554326 0.9322411
-0.02001758 -0.666769 -0.84830534 0.828659 0.09276238
0.3875299 -1.2010367 0.180017 0.37278453 0.90280753
0.3875299 -1.2010367 0.180017 0.73606557 0.2090051
0.40003824 -0.73374504 0.1860503 0.7360357 0.24997053
3 0 1 2
3 3 4 5
3 6 7 8
3 9 10 1
3 11 8 12
3 13 6 11
3 14 15 6
3 16 17 14
3 13 16 14
3 18 19 20
3 21 5 19
3 22 18 20
3 23 24 16
3 25 26 18
3 26 21 18
3 26 27 28
3 26 29 30
3 28 31 29
3 28 32 33
3 33 34 35
3 33 36 31
3 35 37 36
3 35 38 39
3 39 40 41
3 39 42 37
3 43 44 45
3 43 46 47
3 48 44 49
3 50 49 51
3 50 52 53
3 53 54 55
3 56 54 57
3 56 58 59
3 60 58 61
3 62 61 63
3 62 64 65
3 65 46 66
3 67 68 69
3 69 40 38
3 70 67 69
3 34 69 38
3 71 72 70
3 32 70 34
3 72 73 67
3 74 75 72
3 76 77 74
3 78 74 71
3 77 79 75
3 80 81 77
3 82 83 80
3 84 80 76
3 83 85 81
3 86 87 83
3 88 89 90
3 89 82 91
3 88 92 86
3 92 93 87
3 94 92 95
3 96 95 97
3 98 95 88
3 94 99 100
3 96 101 94
3 102 103 96
3 104 96 97
3 105 102 106
3 106 104 107
3 107 108 109
3 108 97 98
3 110 108 111
3 108 112 111
3 98 90 112
3 111 113 114
3 112 115 113
3 90 116 115
3 117 118 119
3 120 121 118
3 121 122 123
3 116 91 124
3 123 125 126
3 124 127 128
3 91 84 127
3 127 129 130
3 128 130 131
3 130 132 131
3 129 133 130
3 134 135 25
3 136 133 134
3 137 134 138
3 138 25 22
3 139 140 141
3 23 141 142
3 143 144 139
3 145 139 23
3 146 147 148
3 149 150 146
3 151 126 149
3 152 153 143
3 154 123 151
3 155 156 152
3 157 152 158
3 158 143 145
3 157 159 160
3 158 161 159
3 160 162 163
3 162 161 13
3 145 16 161
3 163 164 165
3 162 11 164
3 165 166 167
3 164 12 166
3 168 169 170
3 171 170 10
3 169 172 173
3 174 165 167
3 173 175 176
3 177 178 174
3 179 180 178
3 178 163 165
3 180 160 163
3 181 180 182
3 183 182 184
3 185 182 179
3 186 184 187
3 188 184 185
3 189 185 190
3 190 179 177
3 191 192 193
3 176 194 191
3 195 196 197
3 198 105 196
3 194 199 192
3 197 200 201
3 196 106 200
3 200 202 201
3 106 203 200
3 202 204 205
3 107 204 203
3 204 206 205
3 109 207 204
3 207 208 206
3 110 209 207
3 210 211 212
3 212 213 214
3 211 215 213
3 216 119 211
3 119 217 215
3 218 219 220
3 221 222 219
3 223 155 222
3 118 154 217
3 219 224 225
3 222 157 224
3 225 226 181
3 226 157 160
3 220 225 227
3 227 181 183
3 228 227 229
3 229 183 186
3 230 220 228
3 231 111 114
3 232 233 105
3 233 234 103
3 175 235 194
3 172 236 175
3 103 237 101
3 101 238 99
3 239 240 172
3 238 241 99
3 242 239 168
3 243 244 241
3 245 168 171
3 99 246 100
3 241 247 246
3 244 248 247
3 249 250 244
3 248 251 30
3 250 252 251
3 30 3 21
3 251 253 3
3 254 9 0
3 255 171 9
3 248 256 247
3 30 257 248
3 257 258 256
3 29 259 257
3 31 260 259
3 259 261 258
3 260 262 261
3 36 263 260
3 263 42 264
3 262 264 265
3 261 266 267
3 262 268 266
3 267 269 270
3 266 271 269
3 270 272 273
3 272 271 274
3 79 272 275
3 272 276 275
3 75 275 73
3 73 276 277
3 67 277 278
3 81 273 79
3 279 273 85
3 93 85 87
3 280 279 93
3 281 270 279
3 258 267 281
3 256 281 280
3 247 280 246
3 246 93 100
3 126 282 150
3 150 283 147
3 129 76 78
3 135 78 27
3 27 71 32
3 284 285 286
3 287 284 288
3 286 289 290
3 290 291 292
3 293 294 295
3 296 297 294
3 298 299 297
3 299 300 301
3 301 302 303
3 302 304 303
3 305 306 307
3 308 309 306
3 310 311 309
3 311 312 313
3 314 315 316
3 316 317 318
3 318 319 320
3 319 321 320
3 322 323 321
3 323 324 325
3 326 327 324
3 328 326 322
3 329 327 330
3 331 330 328
3 332 328 333
3 333 322 319
3 334 332 333
3 317 333 319
3 335 336 334
3 315 334 317
3 337 338 336
3 336 339 332
3 340 341 338
3 338 342 339
3 343 344 341
3 344 342 341
3 342 345 339
3 342 346 347
3 348 349 346
3 350 348 344
3 351 352 349
3 353 351 350
3 354 350 355
3 355 344 356
3 357 353 354
3 358 359 353
3 360 361 358
3 362 358 357
3 363 359 361
3 364 361 365
3 366 367 368
3 367 369 368
3 370 363 364
3 371 372 366
3 371 373 374
3 366 375 373
3 374 376 377
3 373 378 376
3 377 379 380
3 376 381 379
3 381 382 383
3 378 384 382
3 383 385 386
3 382 387 385
3 386 388 389
3 385 390 388
3 369 387 384
3 387 391 390
3 392 393 394
3 395 394 396
3 394 397 398
3 396 398 399
3 400 396 401
3 401 399 402
3 402 403 404
3 399 405 403
3 403 406 407
3 404 407 408
3 409 343 340
3 410 356 343
3 405 411 406
3 412 355 356
3 413 414 411
3 415 355 416
3 417 354 415
3 418 414 419
3 397 419 413
3 420 421 418
3 393 418 397
3 398 413 405
3 422 420 393
3 423 357 417
3 424 391 425
3 426 425 369
3 427 408 428
3 429 340 337
3 430 428 431
3 432 337 335
3 433 431 312
3 434 335 315
3 435 427 430
3 310 430 433
3 436 435 437
3 437 310 308
3 436 402 438
3 438 404 427
3 439 437 440
3 439 401 436
3 441 389 442
3 443 442 444
3 302 444 445
3 440 308 305
3 300 443 302
3 446 441 443
3 447 448 446
3 449 446 300
3 450 447 451
3 451 449 298
3 452 451 453
3 453 298 296
3 380 450 452
3 379 454 450
3 455 452 456
3 456 453 457
3 458 459 460
3 461 460 462
3 463 459 464
3 465 380 455
3 466 467 463
3 468 377 465
3 469 374 468
3 470 471 466
3 472 466 473
3 473 463 474
3 475 473 476
3 476 474 477
3 477 478 479
3 474 464 478
3 479 480 481
3 478 458 480
3 481 482 483
3 480 461 482
3 483 285 484
3 285 461 289
3 289 462 291
3 485 483 486
3 486 484 287
3 487 481 485
3 488 489 329
3 490 491 488
3 492 479 487
3 493 494 490
3 495 477 492
3 496 476 495
3 493 497 498
3 346 499 493
3 346 490 347
3 499 500 497
3 349 501 499
3 502 501 503
3 503 352 363
3 504 503 370
3 505 506 507
3 508 509 506
3 510 472 475
3 508 470 472
3 505 511 470
3 509 475 496
3 469 512 371
3 347 488 345
3 345 329 331
3 339 331 332
3 457 296 293
3 454 383 448
3 448 386 441
3 375 369 384
3 0 9 1
3 3 253 4
3 6 15 7
3 9 171 10
3 11 6 8
3 13 14 6
3 14 17 15
3 16 24 17
3 13 161 16
3 18 21 19
3 21 3 5
3 22 25 18
3 23 142 24
3 25 135 26
3 26 30 21
3 26 135 27
3 26 28 29
3 28 33 31
3 28 27 32
3 33 32 34
3 33 35 36
3 35 39 37
3 35 34 38
3 39 38 40
3 39 41 42
3 43 47 44
3 43 66 46
3 48 45 44
3 50 48 49
3 50 51 52
3 53 52 54
3 56 55 54
3 56 57 58
3 60 59 58
3 62 60 61
3 62 63 64
3 65 64 46
3 67 278 68
3 69 68 40
3 70 72 67
3 34 70 69
3 71 74 72
3 32 71 70
3 72 75 73
3 74 77 75
3 76 80 77
3 78 76 74
3 77 81 79
3 80 83 81
3 82 86 83
3 84 82 80
3 83 87 85
3 86 92 87
3 88 86 89
3 89 86 82
3 88 95 92
3 92 100 93
3 94 100 92
3 96 94 95
3 98 97 95
3 94 101 99
3 96 103 101
3 102 233 103
3 104 102 96
3 105 233 102
3 106 102 104
3 107 104 108
3 108 104 97
3 110 109 108
3 108 98 112
3 98 88 90
3 111 112 113
3 112 90 115
3 90 89 116
3 117 120 118
3 120 513 121
3 121 513 122
3 116 89 91
3 123 122 125
3 124 91 127
3 91 82 84
3 127 84 129
3 128 127 130
3 130 133 132
3 129 135 133
3 134 133 135
3 136 132 133
3 137 136 134
3 138 134 25
3 139 144 140
3 23 139 141
3 143 153 144
3 145 143 139
3 146 150 147
3 149 126 150
3 151 123 126
3 152 156 153
3 154 121 123
3 155 514 156
3 157 155 152
3 158 152 143
3 157 158 159
3 158 145 161
3 160 159 162
3 162 159 161
3 145 23 16
3 163 162 164
3 162 13 11
3 165 164 166
3 164 11 12
3 168 239 169
3 171 168 170
3 169 239 172
3 174 178 165
3 173 172 175
3 177 179 178
3 179 182 180
3 178 180 163
3 180 226 160
3 181 226 180
3 183 181 182
3 185 184 182
3 186 183 184
3 188 187 184
3 189 188 185
3 190 185 179
3 191 194 192
3 176 175 194
3 195 198 196
3 198 232 105
3 194 235 199
3 197 196 200
3 196 105 106
3 200 203 202
3 106 107 203
3 202 203 204
3 107 109 204
3 204 207 206
3 109 110 207
3 207 209 208
3 110 231 209
3 210 216 211
3 212 211 213
3 211 119 215
3 216 117 119
3 119 118 217
3 218 221 219
3 221 223 222
3 223 514 155
3 118 121 154
3 219 222 224
3 222 155 157
3 225 224 226
3 226 224 157
3 220 219 225
3 227 225 181
3 228 220 227
3 229 227 183
3 230 218 220
3 231 110 111
3 232 515 233
3 233 515 234
3 175 236 235
3 172 240 236
3 103 234 237
3 101 237 238
3 239 516 240
3 238 243 241
3 242 516 239
3 243 249 244
3 245 242 168
3 99 241 246
3 241 244 247
3 244 250 248
3 249 517 250
3 248 250 251
3 250 517 252
3 30 251 3
3 251 252 253
3 254 255 9
3 255 245 171
3 248 257 256
3 30 29 257
3 257 259 258
3 29 31 259
3 31 36 260
3 259 260 261
3 260 263 262
3 36 37 263
3 263 37 42
3 262 263 264
3 261 262 266
3 262 265 268
3 267 266 269
3 266 268 271
3 270 269 272
3 272 269 271
3 79 273 272
3 272 274 276
3 75 79 275
3 73 275 276
3 67 73 277
3 81 85 273
3 279 270 273
3 93 279 85
3 280 281 279
3 281 267 270
3 258 261 267
3 256 258 281
3 247 256 280
3 246 280 93
3 126 125 282
3 150 282 283
3 129 84 76
3 135 129 78
3 27 78 71
3 284 484 285
3 287 484 284
3 286 285 289
3 290 289 291
3 293 296 294
3 296 298 297
3 298 449 299
3 299 449 300
3 301 300 302
3 302 445 304
3 305 308 306
3 308 310 309
3 310 433 311
3 311 433 312
3 314 434 315
3 316 315 317
3 318 317 319
3 319 322 321
3 322 326 323
3 323 326 324
3 326 330 327
3 328 330 326
3 329 489 327
3 331 329 330
3 332 331 328
3 333 328 322
3 334 336 332
3 317 334 333
3 335 337 336
3 315 335 334
3 337 340 338
3 336 338 339
3 340 343 341
3 338 341 342
3 343 356 344
3 344 348 342
3 342 347 345
3 342 348 346
3 348 351 349
3 350 351 348
3 351 359 352
3 353 359 351
3 354 353 350
3 355 350 344
3 357 358 353
3 358 361 359
3 360 365 361
3 362 360 358
3 363 352 359
3 364 363 361
3 366 372 367
3 367 426 369
3 370 503 363
3 371 512 372
3 371 366 373
3 366 368 375
3 374 373 376
3 373 375 378
3 377 376 379
3 376 378 381
3 381 378 382
3 378 375 384
3 383 382 385
3 382 384 387
3 386 385 388
3 385 387 390
3 369 425 387
3 387 425 391
3 392 422 393
3 395 392 394
3 394 393 397
3 396 394 398
3 400 395 396
3 401 396 399
3 402 399 403
3 399 398 405
3 403 405 406
3 404 403 407
3 409 410 343
3 410 412 356
3 405 413 411
3 412 416 355
3 413 419 414
3 415 354 355
3 417 357 354
3 418 421 414
3 397 418 419
3 420 518 421
3 393 420 418
3 398 397 413
3 422 518 420
3 423 362 357
3 424 519 391
3 426 424 425
3 427 404 408
3 429 409 340
3 430 427 428
3 432 429 337
3 433 430 431
3 434 432 335
3 435 438 427
3 310 435 430
3 436 438 435
3 437 435 310
3 436 401 402
3 438 402 404
3 439 436 437
3 439 400 401
3 441 386 389
3 443 441 442
3 302 443 444
3 440 437 308
3 300 446 443
3 446 448 441
3 447 454 448
3 449 447 446
3 450 454 447
3 451 447 449
3 452 450 451
3 453 451 298
3 380 379 450
3 379 381 454
3 455 380 452
3 456 452 453
3 458 464 459
3 461 458 460
3 463 467 459
3 465 377 380
3 466 471 467
3 468 374 377
3 469 371 374
3 470 511 471
3 472 470 466
3 473 466 463
3 475 472 473
3 476 473 474
3 477 474 478
3 474 463 464
3 479 478 480
3 478 464 458
3 481 480 482
3 480 458 461
3 483 482 285
3 285 482 461
3 289 461 462
3 485 481 483
3 486 483 484
3 487 479 481
3 488 491 489
3 490 494 491
3 492 477 479
3 493 498 494
3 495 476 477
3 496 475 476
3 493 499 497
3 346 349 499
3 346 493 490
3 499 501 500
3 349 352 501
3 502 500 501
3 503 501 352
3 504 502 503
3 505 508 506
3 508 510 509
3 510 508 472
3 508 505 470
3 505 507 511
3 509 510 475
3 469 520 512
3 347 490 488
3 345 488 329
3 339 345 331
3 457 453 296
3 454 381 383
3 448 383 386
3 375 368 369
