ply
format ascii 1.0
comment Created in Blender version 4.2.3 LTS
element vertex 107
property float x
property float y
property float z
property uchar red
property uchar green
property uchar blue
property uchar alpha
property float s
property float t
element face 74
property list uchar uint vertex_indices
end_header
0.5766284 -0.18650788 0.83662176 254 254 254 255 0.57444304 0.9012456
0.62733024 -0.12491555 0.7760055 254 254 254 255 0.5806802 0.90758824
0.60399127 -0.18641485 0.7541032 254 254 254 255 0.5764407 0.9100374
0.77625215 -0.169902 1.7509519 254 254 254 255 0.46004763 0.5383514
0.7762838 -0.30179408 1.7496746 254 254 254 255 0.42766166 0.53065974
0.8417542 -0.23575422 1.7427661 254 254 254 255 0.46004763 0.5306512
0.5766284 -0.18650788 0.83662176 254 254 254 255 0.57444304 0.9012456
0.62733024 -0.12491555 0.8971899 254 254 254 255 0.57701105 0.8960185
0.5950259 -0.09175017 0.84295267 254 254 254 255 0.5820967 0.8993821
0.6879224 -0.07644179 0.83659774 254 254 254 255 0.67165536 0.89155257
0.62733024 -0.12491555 0.7760055 254 254 254 255 0.68022317 0.8880513
0.5950259 -0.09175017 0.84295267 254 254 254 255 0.6794477 0.89515257
0.62733024 -0.12491555 0.8971899 254 254 254 255 0.67590505 0.90007555
0.6879224 -0.10370828 0.9183972 254 254 254 255 0.66957545 0.90007555
0.7552736 -0.13252257 0.8928686 254 254 254 255 0.66589344 0.89598477
0.7764809 -0.111315295 0.83227634 254 254 254 255 0.6656796 0.8890306
0.6879224 -0.07644179 0.83659774 254 254 254 255 0.6656796 0.89873004
0.7552736 -0.13252257 0.7716841 254 254 254 255 0.6605375 0.8917508
0.6879224 -0.10370828 0.75479823 254 254 254 255 0.6656796 0.88987887
0.8037474 -0.1931148 0.83227634 254 254 254 255 0.6522225 0.8964629
0.7764809 -0.111315295 0.83227634 254 254 254 255 0.6598951 0.8987186
0.7552736 -0.13252257 0.8928686 254 254 254 255 0.65720916 0.90351
0.7764809 -0.1931148 0.91407585 254 254 254 255 0.65090877 0.9039149
0.6946814 -0.1931148 0.72321033 254 254 254 255 0.5751815 0.91639304
0.62733024 -0.12491555 0.7760055 254 254 254 255 0.5806802 0.90758824
0.6879224 -0.10370828 0.75479823 254 254 254 255 0.5820967 0.91137993
0.6946814 -0.1931148 0.72321033 254 254 254 255 0.6589493 0.8839381
0.7764809 -0.1931148 0.75047684 254 254 254 255 0.65540195 0.88804007
0.6946814 -0.1931148 0.9413424 254 254 254 255 0.6721402 0.908859
0.7552736 -0.13252257 0.8928686 254 254 254 255 0.68010646 0.9042673
0.6879224 -0.10370828 0.9183972 254 254 254 255 0.68010646 0.9117321
0.62733024 -0.12491555 0.8971899 254 254 254 255 0.6769776 0.915313
0.6040271 -0.18649511 0.91909206 254 254 254 255 0.6707165 0.9157022
0.6319934 -0.25469434 0.89356345 254 254 254 255 0.66619545 0.9101491
0.6946814 -0.2749143 0.91407585 254 254 254 255 0.6656796 0.90510094
0.7552736 -0.25370702 0.8928686 254 254 254 255 0.6696928 0.90007555
0.7764809 -0.1931148 0.91407585 254 254 254 255 0.6750695 0.9011308
0.8417542 -0.23575422 1.7427661 254 254 254 255 0.42766166 0.69228965
0.6697103 -0.2619302 0.8748617 254 254 254 255 0.406958 0.6114678
0.7044678 -0.2268703 0.8719937 254 254 254 255 0.42412594 0.6115406
0.66969347 -0.19191007 0.87539196 254 254 254 255 0.39351773 0.6115133
0.8417542 -0.23575422 1.7427661 254 254 254 255 0.3628997 0.69216144
0.7044678 -0.2268703 0.8719937 254 254 254 255 0.37635392 0.6114714
0.634936 -0.22696994 0.8782601 254 254 254 255 0.35117733 0.61161727
0.77625215 -0.169902 1.7509519 254 254 254 255 0.33051378 0.692577
0.66969347 -0.19191007 0.87539196 254 254 254 255 0.3340094 0.6116903
0.7762838 -0.30179408 1.7496746 254 254 254 255 0.33051378 0.692566
0.634936 -0.22696994 0.8782601 254 254 254 255 0.31060717 0.6116127
0.6697103 -0.2619302 0.8748617 254 254 254 255 0.32776806 0.6116991
0.6760157 -0.23991288 1.9517695 254 254 254 255 0.83950603 0.63452125
0.8011142 -0.36568028 1.9357697 254 254 254 255 0.87888837 0.65414655
0.82023895 -0.24133842 2.0994008 254 254 254 255 0.84838265 0.6948468
0.8011142 -0.36568028 1.9357697 254 254 254 255 0.9182499 0.5804536
0.9261522 -0.23955451 1.9222662 254 254 254 255 0.87888837 0.6001281
0.82023895 -0.24133842 2.0994008 254 254 254 255 0.8892747 0.53975344
0.76458323 -0.23032896 1.6858636 254 254 254 255 0.9182499 0.69484675
0.76458323 -0.23032896 1.6858636 254 254 254 255 0.8788883 0.53975344
0.76458323 -0.23032896 1.6858636 254 254 254 255 0.83950603 0.53975344
0.6760157 -0.23991288 1.9517695 254 254 254 255 0.83950603 0.6532599
0.80105364 -0.113787144 1.938266 254 254 254 255 0.80018634 0.63337564
0.76458323 -0.23032896 1.6858636 254 254 254 255 0.9191064 0.53975344
0.80105364 -0.113787144 1.938266 254 254 254 255 0.9563093 0.59995115
0.9261522 -0.23955451 1.9222662 254 254 254 255 0.9182499 0.62530744
0.82023895 -0.24133842 2.0994008 254 254 254 255 0.8099643 0.69587636
0.82023895 -0.24133842 2.0994008 254 254 254 255 0.9563093 0.68108374
0.5631401 -0.23637687 -5.9538044e-05 254 254 254 255 0.3285374 0.5308594
0.5448792 -0.21801835 -5.9433223e-05 254 254 254 255 0.31959304 0.5306512
0.56313133 -0.19960752 -5.9538044e-05 254 254 254 255 0.3339883 0.53082705
0.5448792 -0.21801835 -5.9433223e-05 254 254 254 255 0.34295577 0.5306512
0.58139217 -0.21796604 -5.9433223e-05 254 254 254 255 0.38630807 0.530792
0.56313133 -0.19960752 -5.9538044e-05 254 254 254 255 0.3952756 0.5306512
0.58139217 -0.21796604 -5.9433223e-05 254 254 254 255 0.42408887 0.53082657
0.5631401 -0.23637687 -5.9538044e-05 254 254 254 255 0.41512135 0.5306512
0.5766284 -0.18650788 0.83662176 254 254 254 255 0.57444304 0.9012456
0.6319576 -0.25461408 0.7709891 254 254 254 255 0.5695242 0.9107708
0.6106526 -0.27591157 0.8322519 254 254 254 255 0.56622326 0.90463793
0.6319934 -0.25469434 0.89356345 254 254 254 255 0.5658551 0.89920115
0.6040271 -0.18649511 0.91909206 254 254 254 255 0.5714873 0.8944185
0.8037474 -0.1931148 0.83227634 254 254 254 255 0.63806546 0.9137629
0.7552736 -0.25370702 0.8928686 254 254 254 255 0.63040453 0.91015863
0.7764809 -0.2749143 0.83227634 254 254 254 255 0.6368435 0.9091321
0.8037474 -0.1931148 0.83227634 254 254 254 255 0.6522225 0.8964629
0.7552736 -0.25370702 0.7716841 254 254 254 255 0.65055263 0.88768995
0.7764809 -0.1931148 0.75047684 254 254 254 255 0.65540195 0.88804007
0.6946814 -0.30218077 0.83227634 254 254 254 255 0.63408846 0.9014387
0.7552736 -0.25370702 0.7716841 254 254 254 255 0.64209014 0.9057236
0.6946814 -0.2749143 0.91407585 254 254 254 255 0.6263145 0.9052073
0.6319934 -0.25469434 0.89356345 254 254 254 255 0.62649167 0.8999089
0.6106526 -0.27591157 0.8322519 254 254 254 255 0.63156116 0.8952949
0.6319576 -0.25461408 0.7709891 254 254 254 255 0.6381773 0.89547384
0.6946814 -0.2749143 0.75047684 254 254 254 255 0.64209014 0.8992199
0.6946814 -0.1931148 0.72321033 254 254 254 255 0.6589493 0.8839381
0.6946814 -0.2749143 0.75047684 254 254 254 255 0.6514607 0.8838427
0.6946814 -0.1931148 0.72321033 254 254 254 255 0.5751815 0.91639304
0.60399127 -0.18641485 0.7541032 254 254 254 255 0.5764407 0.9100374
0.5950259 -0.09175017 0.84295267 254 254 254 255 0.5820967 0.8993821
0.7107818 -0.23594189 1.7578602 254 254 254 255 0.42766166 0.53835994
0.6040271 -0.18649511 0.91909206 254 254 254 255 0.5714873 0.8944185
0.6879224 -0.10370828 0.75479823 254 254 254 255 0.6754049 0.8838427
0.60399127 -0.18641485 0.7541032 254 254 254 255 0.5764407 0.9100374
0.7762838 -0.30179408 1.7496746 254 254 254 255 0.3952757 0.69228965
0.77625215 -0.169902 1.7509519 254 254 254 255 0.3952757 0.6924033
0.7107818 -0.23594189 1.7578602 254 254 254 255 0.3628997 0.692577
0.7107818 -0.23594189 1.7578602 254 254 254 255 0.29812178 0.692566
0.7764809 -0.1931148 0.91407585 254 254 254 255 0.62929726 0.9144504
0.7764809 -0.2749143 0.83227634 254 254 254 255 0.6464156 0.8932364
0.6946814 -0.2749143 0.75047684 254 254 254 255 0.56726277 0.91539466
3 0 1 2
3 3 4 5
3 6 7 8
3 9 10 11
3 9 12 13
3 9 14 15
3 16 17 18
3 19 17 20
3 19 21 22
3 23 24 25
3 26 17 27
3 28 29 30
3 28 31 32
3 28 33 34
3 28 35 36
3 37 38 39
3 40 41 42
3 43 44 45
3 46 47 48
3 49 50 51
3 52 53 54
3 55 53 52
3 56 50 49
3 57 58 59
3 60 61 62
3 59 58 63
3 62 61 64
3 65 47 66
3 43 67 68
3 40 69 70
3 71 38 72
3 73 74 75
3 73 76 77
3 78 79 80
3 81 82 83
3 84 85 80
3 84 79 86
3 84 87 88
3 84 89 90
3 91 82 92
3 93 74 94
3 0 95 1
3 3 96 4
3 6 97 7
3 9 98 10
3 9 11 12
3 9 13 14
3 16 20 17
3 19 27 17
3 19 20 21
3 23 99 24
3 26 18 17
3 28 36 29
3 28 30 31
3 28 32 33
3 28 34 35
3 37 100 38
3 40 101 41
3 43 102 44
3 46 103 47
3 65 48 47
3 43 45 67
3 40 42 69
3 71 39 38
3 73 94 74
3 73 75 76
3 78 104 79
3 81 105 82
3 84 90 85
3 84 80 79
3 84 86 87
3 84 88 89
3 91 83 82
3 93 106 74
