ply
format ascii 1.0
comment Created in Blender version 4.2.3 LTS
element vertex 583
property float x
property float y
property float z
property uchar red
property uchar green
property uchar blue
property uchar alpha
property float s
property float t
element face 456
property list uchar uint vertex_indices
end_header
-0.26412144 0.05494923 0.87611604 254 254 254 255 0.106974855 0.57914716
-0.1707628 -0.07532974 0.68478435 254 254 254 255 0.10004783 0.5941226
-0.19809109 -0.17469433 0.8495963 254 254 254 255 0.092612535 0.58090216
-0.15208197 -0.08383187 1.140597 254 254 254 255 0.1000382 0.557629
-0.20947017 0.06825009 1.1972357 254 254 254 255 0.109250054 0.5533706
-0.15208197 0.22033206 1.140597 254 254 254 255 0.121050656 0.55793166
-0.19809109 0.2845928 0.90263575 254 254 254 255 0.12435879 0.5771183
-0.1707628 0.26170817 0.7399678 254 254 254 255 0.1233495 0.59004563
-0.22555709 0.09318921 0.7123762 254 254 254 255 0.11044495 0.5921978
-6.873017e-18 0.31578246 0.7488215 254 254 254 255 0.13930704 0.589305
-0.19809109 0.2845928 0.90263575 254 254 254 255 0.12719263 0.576223
-1.1361693e-17 0.36114064 0.91147566 254 254 254 255 0.13824509 0.57654035
-0.15208197 0.22033206 1.140597 254 254 254 255 0.13246992 0.5571089
0 0.27772024 1.1972357 254 254 254 255 0.14106928 0.5533706
0.15208197 0.22033206 1.140597 254 254 254 255 0.15280004 0.55814236
0.19809109 0.2845928 0.90263575 254 254 254 255 0.15367317 0.5775692
0.26412144 0.05494923 0.87611604 254 254 254 255 0.079374194 0.6198366
0.1707628 0.26170817 0.7399678 254 254 254 255 0.09015776 0.60847855
0.19809109 0.2845928 0.90263575 254 254 254 255 0.092612505 0.62149924
0.15208197 0.22033206 1.140597 254 254 254 255 0.08713786 0.6405414
0.20947017 0.06825009 1.1972357 254 254 254 255 0.07883507 0.6453973
0.15208197 -0.08383187 1.140597 254 254 254 255 0.066992074 0.6409943
0.19809109 -0.17469433 0.8495963 254 254 254 255 0.062154826 0.6179422
0.1707628 -0.07532974 0.68478435 254 254 254 255 0.067795545 0.60456806
0.22555709 0.09318921 0.7123762 254 254 254 255 0.08062844 0.6066195
-8.189244e-18 -0.12940404 0.6759308 254 254 254 255 0.059060004 0.603641
-1.2265386e-17 -0.25124222 0.84075636 254 254 254 255 0.051106993 0.6170017
-1.2265386e-17 -0.25124222 0.84075636 254 254 254 255 0.13922176 0.6460011
0.15208197 -0.08383187 1.140597 254 254 254 255 0.15185703 0.6708639
0 -0.14122006 1.1972357 254 254 254 255 0.14315479 0.6753394
-0.15208197 -0.08383187 1.140597 254 254 254 255 0.1307456 0.67365915
-0.19809109 -0.17469433 0.8495963 254 254 254 255 0.1243588 0.65011036
-0.19809109 -0.17469433 0.8495963 254 254 254 255 0.13243027 0.6753394
-8.189244e-18 -0.12940404 0.6759308 254 254 254 255 0.14333053 0.6903644
-1.2265386e-17 -0.25124222 0.84075636 254 254 254 255 0.13151045 0.6903644
0.1707628 0.26170817 0.7399678 254 254 254 255 0.15226229 0.59034455
9.0126175e-18 0.39775953 0.042582594 254 254 254 255 0.13589813 0.6460011
-8.189244e-18 -0.12940404 0.6759308 254 254 254 255 0.17236768 0.5973223
0.21725543 -0.1484855 0.11567901 254 254 254 255 0.1847166 0.55370456
0.1707628 -0.07532974 0.68478435 254 254 254 255 0.18334377 0.599023
-0.28696823 0.06825009 0.13069905 254 254 254 255 0.10712519 0.63881075
-0.21725543 -0.105257705 0.15225638 254 254 254 255 0.096740976 0.6367698
0.28696823 0.06825009 0.071555555 254 254 254 255 0.08037408 0.5555249
0 0.06825009 1.2700568 254 254 254 255 0.10673778 0.66065073
0.15208197 0.22033206 1.140597 254 254 254 255 0.09292017 0.65156597
0 0.27772024 1.1972357 254 254 254 255 0.101742625 0.6454358
-0.15208197 0.22033206 1.140597 254 254 254 255 0.11371812 0.6445324
-0.20947017 0.06825009 1.1972357 254 254 254 255 0.12125857 0.65432835
-0.15208197 -0.08383187 1.140597 254 254 254 255 0.12125857 0.6644784
0 -0.14122006 1.1972357 254 254 254 255 0.11212848 0.6729085
0.15208197 -0.08383187 1.140597 254 254 254 255 0.10046063 0.67151195
0.20947017 0.06825009 1.1972357 254 254 254 255 0.092612535 0.664016
0 0.06825009 0.08655558 254 254 254 255 0.07054183 0.6649286
-0.21725543 0.2949613 0.06015528 254 254 254 255 0.0902849 0.6758853
9.0126175e-18 0.39775953 0.042582594 254 254 254 255 0.07829262 0.6875914
0.21725543 0.2849857 0.05017962 254 254 254 255 0.061164316 0.6845508
0.28696823 0.06825009 0.071555555 254 254 254 255 0.05132771 0.67127186
0.21725543 -0.1484855 0.11567901 254 254 254 255 0.051106993 0.65456814
3.539268e-18 -0.21470627 0.12748547 254 254 254 255 0.06394358 0.6453973
-0.21725543 -0.105257705 0.15225638 254 254 254 255 0.081573084 0.6475011
-0.28696823 0.06825009 0.13069905 254 254 254 255 0.0902849 0.6579389
0.21725543 0.2849857 0.05017962 254 254 254 255 0.09261252 0.5533706
-0.21725543 -0.105257705 0.15225638 254 254 254 255 0.15367322 0.55734193
3.539268e-18 -0.21470627 0.12748547 254 254 254 255 0.17083596 0.5533706
-0.21725543 0.2949613 0.06015528 254 254 254 255 0.1243588 0.64339244
-0.1707628 0.26170817 0.7399678 254 254 254 255 0.12943493 0.5891841
-0.06341911 -0.019433776 0.11169311 254 254 254 255 0.34156442 0.6004722
-0.23413683 -0.0994417 0.05119732 254 254 254 255 0.31722203 0.58128536
-0.09304354 -0.15976357 0.051316187 254 254 254 255 0.3422009 0.57717
-0.06341911 -0.019433776 -5.9433223e-05 254 254 254 255 0.39874795 0.6447943
-0.2344291 -0.0990524 -5.9433223e-05 254 254 254 255 0.37405396 0.6623957
-0.22383395 0.035807732 -5.9433223e-05 254 254 254 255 0.37076518 0.6420632
-0.16760452 0.1593743 0.105341196 254 254 254 255 0.4002742 0.6166123
-0.22383395 0.035807732 -5.9433223e-05 254 254 254 255 0.41972935 0.6354865
-0.22383395 0.035807732 0.11169311 254 254 254 255 0.39910147 0.6354868
-0.09304354 -0.15976357 0.051316187 254 254 254 255 0.3247817 0.6228666
-0.06341911 -0.019433776 -5.9433223e-05 254 254 254 255 0.33426455 0.64413464
-0.06341911 -0.019433776 0.11169311 254 254 254 255 0.31363663 0.64413464
-0.23413683 -0.0994417 0.05119732 254 254 254 255 0.3643537 0.6461821
-0.09333582 -0.15937428 5.9538044e-05 254 254 254 255 0.35489243 0.6229381
-0.09304354 -0.15976357 0.051316187 254 254 254 255 0.3643537 0.6228666
-0.029671503 0.11814218 0.105341196 254 254 254 255 0.31363663 0.664977
-0.16760452 0.1593743 -5.9433223e-05 254 254 254 255 0.33309206 0.68326294
-0.16760452 0.1593743 0.105341196 254 254 254 255 0.3136367 0.68326294
-0.029671503 0.11814218 0.105341196 254 254 254 255 0.31480873 0.664977
-0.029671503 0.11814218 -5.9433223e-05 254 254 254 255 0.33426413 0.664977
-0.23413683 -0.0994417 0.05119732 254 254 254 255 0.41026837 0.6560541
-0.2344291 -0.0990524 -5.9433223e-05 254 254 254 255 0.41972962 0.6559953
-0.16760452 0.1593743 -5.9433223e-05 254 254 254 255 0.37527284 0.6218528
-0.029671503 0.11814218 -5.9433223e-05 254 254 254 255 0.39910147 0.62327296
-0.16760452 0.1593743 0.105341196 254 254 254 255 0.31840926 0.6228666
-0.029671503 0.11814218 0.105341196 254 254 254 255 0.3422009 0.6214228
0.06341911 -0.019433776 0.11169311 254 254 254 255 0.37012866 0.5995644
0.23413683 -0.0994417 0.05119732 254 254 254 255 0.3457863 0.61875117
0.22383395 0.035807732 0.11169311 254 254 254 255 0.3422009 0.5968239
0.06341911 -0.019433776 -5.9433223e-05 254 254 254 255 0.39874795 0.59891135
0.2344291 -0.0990524 -5.9433223e-05 254 254 254 255 0.37405396 0.58131
0.09333582 -0.15937428 5.9538044e-05 254 254 254 255 0.39910147 0.57717
0.22383395 0.035807732 -5.9433223e-05 254 254 254 255 0.41972935 0.5977376
0.16760452 0.1593743 0.105341196 254 254 254 255 0.4002742 0.6166118
0.22383395 0.035807732 0.11169311 254 254 254 255 0.39910147 0.5977373
0.06341911 -0.019433776 -5.9433223e-05 254 254 254 255 0.33426455 0.64413464
0.09304354 -0.15976357 0.051316187 254 254 254 255 0.34374738 0.6228666
0.06341911 -0.019433776 0.11169311 254 254 254 255 0.3548924 0.64413464
0.09333582 -0.15937428 5.9538044e-05 254 254 254 255 0.35489243 0.66236335
0.23413683 -0.0994417 0.05119732 254 254 254 255 0.36435363 0.6463207
0.09304354 -0.15976357 0.051316187 254 254 254 255 0.36435363 0.6624304
0.16760452 0.1593743 -5.9433223e-05 254 254 254 255 0.4185569 0.6560541
0.029671503 0.11814218 0.105341196 254 254 254 255 0.39910147 0.67792875
0.16760452 0.1593743 0.105341196 254 254 254 255 0.39910147 0.6560541
0.029671503 0.11814218 0.105341196 254 254 254 255 0.3537203 0.664977
0.23413683 -0.0994417 0.05119732 254 254 254 255 0.41026834 0.57717
0.16760452 0.1593743 -5.9433223e-05 254 254 254 255 0.37527284 0.6218528
0.029671503 0.11814218 -5.9433223e-05 254 254 254 255 0.39910147 0.6204327
0.16760452 0.1593743 0.105341196 254 254 254 255 0.3469735 0.57717
0.029671503 0.11814218 0.105341196 254 254 254 255 0.37076518 0.57861376
-0.025153516 0.2972124 1.8121762 254 254 254 255 0.16240764 0.58810866
0.014465553 0.29892182 1.8496485 254 254 254 255 0.16037211 0.58600855
0.06756062 0.2674161 1.8220968 254 254 254 255 0.16354288 0.58238226
-0.14958468 0.17762402 1.8418907 254 254 254 255 0.15245739 0.6636339
-0.09285785 0.226168 1.9266423 254 254 254 255 0.15999152 0.667637
-0.11025365 0.26141754 1.8864784 254 254 254 255 0.15647194 0.66983956
-0.026371963 0.05823725 1.8765893 254 254 254 255 0.17072064 0.5556332
0.013728358 0.22785911 1.9291425 254 254 254 255 0.16757914 0.5455177
-0.039687615 0.21516977 1.9411412 254 254 254 255 0.17138886 0.54516065
0.06756062 0.2674161 1.8220968 254 254 254 255 0.14389345 0.5862422
0.031861342 0.26367235 1.8898121 254 254 254 255 0.14852552 0.5874639
0.098059215 0.17782564 1.8468747 254 254 254 255 0.14462352 0.5931551
-0.2697912 0.33293867 1.5152287 254 254 254 255 0.12524992 0.6720724
-0.5225552 0.07097666 1.4760549 254 254 254 255 0.114821434 0.65437585
-0.3469752 0.10387494 1.5490826 254 254 254 255 0.12590939 0.65650636
-0.2697912 0.33293867 1.5152287 254 254 254 255 0.15210171 0.5613733
-0.03653413 0.5583266 1.299533 254 254 254 255 0.12610956 0.54930425
-0.4374098 0.43306088 1.3624005 254 254 254 255 0.15489349 0.54516065
-0.2697912 -0.12518883 1.5829365 254 254 254 255 0.13211426 0.6401086
-0.029988516 -0.4179174 1.6046381 254 254 254 255 0.14365517 0.61817664
-0.037167523 -0.18302396 1.6196493 254 254 254 255 0.1432444 0.63510257
0.19959174 -0.12301989 1.5871595 254 254 254 255 0.13493611 0.6052298
0.49957892 0.07491195 1.4543688 254 254 254 255 0.10838309 0.59962416
0.27677578 0.106043875 1.5533056 254 254 254 255 0.124756545 0.5936616
0.27677578 0.106043875 1.5533056 254 254 254 255 0.09951417 0.6364138
0.16904204 0.29661825 1.6882862 254 254 254 255 0.08535071 0.6451783
0.24666709 0.15320112 1.7400451 254 254 254 255 0.084272474 0.636605
0.015307651 -0.050266463 1.770986 254 254 254 255 0.16793977 0.56701046
0.19959174 -0.12301989 1.5871595 254 254 254 255 0.1549696 0.58238226
0.1897628 -0.0091445055 1.7791752 254 254 254 255 0.15551323 0.5649946
-0.18852332 0.14777079 1.7217222 254 254 254 255 0.14307132 0.6605115
-0.13773778 -0.0008210198 1.7579678 254 254 254 255 0.14808927 0.6500138
0.19331267 0.33293867 1.5152287 254 254 254 255 0.124160334 0.57674694
0.015996628 0.34606367 1.6752678 254 254 254 255 0.14030127 0.57529855
0.16904204 0.29661825 1.6882862 254 254 254 255 0.13246246 0.58361447
0.1897628 -0.0091445055 1.7791752 254 254 254 255 0.08309534 0.6238807
-0.13773778 -0.0008210198 1.7579678 254 254 254 255 0.1786784 0.5658428
-0.037167523 -0.18302396 1.6196493 254 254 254 255 0.17185608 0.5823415
-0.13722105 0.29642653 1.686179 254 254 254 255 0.14176795 0.67047083
-0.038239256 0.40929335 1.5039442 254 254 254 255 0.13629015 0.56434995
-0.13722105 0.29642653 1.686179 254 254 254 255 0.15086952 0.57339
0.31450212 0.4205815 1.3277651 254 254 254 255 0.10853076 0.56970996
-0.029988516 -0.4179174 1.6046381 254 254 254 255 0.1549696 0.6149543
0.3306576 -0.30472088 1.5333612 254 254 254 255 0.12854151 0.61817664
-0.39953482 -0.30101138 1.5322679 254 254 254 255 0.124898136 0.6277717
-0.038704686 0.30992016 1.8351495 254 254 254 255 0.16050757 0.5892358
-0.04030784 0.3934688 1.8570774 254 254 254 255 0.1549696 0.58842343
-0.04030784 0.3934688 1.8570774 254 254 254 255 0.1563368 0.67857695
-0.039687615 0.21516977 1.9411412 254 254 254 255 0.15889472 0.60895383
0.013728358 0.22785911 1.9291425 254 254 254 255 0.15555918 0.6068158
-0.04030784 0.3934688 1.8570774 254 254 254 255 0.16262192 0.59506214
0.031861342 0.26367235 1.8898121 254 254 254 255 0.107469305 0.6263368
0.014465553 0.29892182 1.8496485 254 254 254 255 0.10505395 0.6238912
-0.04030784 0.3934688 1.8570774 254 254 254 255 0.107469305 0.61879474
0.098059215 0.17782564 1.8468747 254 254 254 255 0.102320865 0.65565556
0.013728358 0.22785911 1.9291425 254 254 254 255 0.10768597 0.6498096
0.066646785 0.08818478 1.8704065 254 254 254 255 0.10768597 0.6601932
-0.1190861 0.08803356 1.8666686 254 254 254 255 0.17722568 0.55506915
-0.09285785 0.226168 1.9266423 254 254 254 255 0.17512804 0.54566824
-0.118172266 0.26726484 1.818359 254 254 254 255 0.15154642 0.6696158
-0.09212066 0.29723078 1.8471483 254 254 254 255 0.15428229 0.67189926
-0.09212066 0.29723078 1.8471483 254 254 254 255 0.1604749 0.59330404
-0.025153516 0.2972124 1.8121762 254 254 254 255 0.14857283 0.58114755
-0.118172266 0.26726484 1.818359 254 254 254 255 0.1549696 0.5799639
0.1897628 -0.0091445055 1.7791752 254 254 254 255 0.14020893 0.6046447
0.066646785 0.08818478 1.8704065 254 254 254 255 0.14904563 0.59797525
-0.1190861 0.08803356 1.8666686 254 254 254 255 0.15567644 0.65733445
0.066646785 0.08818478 1.8704065 254 254 254 255 0.16407634 0.5549573
0.031861342 0.26367235 1.8898121 254 254 254 255 0.1549696 0.6026493
-0.09285785 0.226168 1.9266423 254 254 254 255 0.16262192 0.60850155
-0.39314973 -0.30327752 1.5047075 254 254 254 255 0.1073173 0.609501
-0.4770553 0.06352991 1.4348252 254 254 254 255 0.08256382 0.61541736
-0.014923464 0.08019059 1.642418 254 254 254 255 0.0911755 0.5826601
-0.036042027 0.5294491 1.2860904 254 254 254 255 0.04909792 0.58336544
0.30246347 0.40327573 1.3164055 254 254 254 255 0.058227006 0.55905503
0.32606474 -0.30733994 1.5055646 254 254 254 255 0.04909792 0.65869665
-0.03282402 -0.41895983 1.5628741 254 254 254 255 0.06246602 0.6348475
-0.014923464 0.08019059 1.642418 254 254 254 255 0.08309534 0.65869665
0.45360386 0.06557448 1.4153539 254 254 254 255 0.0826122 0.5483735
0.32606474 -0.30733994 1.5055646 254 254 254 255 0.10838309 0.5577277
-0.41818932 0.410704 1.3458182 254 254 254 255 0.058286253 0.6110065
-0.39314973 -0.30327752 1.5047075 254 254 254 255 0.077525094 0.61879474
0.31450212 0.4205815 1.3277651 254 254 254 255 0.05771817 0.5582185
-0.39953482 -0.30101138 1.5322679 254 254 254 255 0.102320865 0.6713571
-0.03282402 -0.41895983 1.5628741 254 254 254 255 0.09951419 0.64519536
-0.029988516 -0.4179174 1.6046381 254 254 254 255 0.102320865 0.64499885
-0.03653413 0.5583266 1.299533 254 254 254 255 0.16251567 0.6382155
-0.41818932 0.410704 1.3458182 254 254 254 255 0.16224748 0.66790015
-0.4374098 0.43306088 1.3624005 254 254 254 255 0.15999152 0.6687684
-0.5225552 0.07097666 1.4760549 254 254 254 255 0.17029949 0.68426836
-0.4770553 0.06352991 1.4348252 254 254 254 255 0.17352778 0.6810786
0.3306576 -0.30472088 1.5333612 254 254 254 255 0.10505395 0.64928114
0.45360386 0.06557448 1.4153539 254 254 254 255 0.102320865 0.6197799
0.49957892 0.07491195 1.4543688 254 254 254 255 0.10505395 0.61879474
0.3306576 -0.30472088 1.5333612 254 254 254 255 0.10161291 0.61879474
0.32606474 -0.30733994 1.5055646 254 254 254 255 0.09967354 0.6191241
0.31450212 0.4205815 1.3277651 254 254 254 255 0.17221017 0.61817664
-0.036042027 0.5294491 1.2860904 254 254 254 255 0.16467515 0.63879263
-0.39953482 -0.30101138 1.5322679 254 254 254 255 0.10838309 0.6100285
-0.0015512946 -0.22864555 1.3106776 254 254 254 255 0.6465431 0.6872926
0.15279002 -0.11005389 1.4037265 254 254 254 255 0.6677792 0.7027018
-5.1697903e-11 -0.16948855 1.4353793 254 254 254 255 0.64743495 0.7099613
-0.15279002 -0.11005389 1.4037265 254 254 254 255 0.6174091 0.7090422
-0.0141042555 -0.26576114 1.0270699 254 254 254 255 0.6369036 0.6381137
0.04918313 -0.29124144 0.7923824 254 254 254 255 0.6407421 0.5960065
0.08288722 -0.23657846 1.0491927 254 254 254 255 0.6518294 0.64054835
-0.04918313 -0.29124144 0.7923824 254 254 254 255 0.624528 0.59804755
3.4472265e-25 -0.3070233 0.7923824 254 254 254 255 0.63362706 0.5966725
-0.12110082 -0.23384036 1.0525762 254 254 254 255 0.61815125 0.6454222
0.16333802 -0.14361256 1.293529 254 254 254 255 0.6677792 0.68284297
0.018032156 -0.29559478 0.6637965 254 254 254 255 0.63139105 0.5745176
-0.036505565 -0.29559478 0.65079457 254 254 254 255 0.62194735 0.57342094
-0.016164238 -0.30266988 0.6422858 254 254 254 255 0.6254478 0.57138157
0.055420253 -0.2979532 0.49911696 254 254 254 255 0.63195175 0.5454656
0.15984857 -0.07849783 1.3389457 254 254 254 255 0.5572417 0.69131416
0.0015419204 -0.16522942 1.2272704 254 254 254 255 0.5859075 0.6737534
0.0014103055 -0.1199625 1.429607 254 254 254 255 0.5790001 0.7092977
-0.1619277 -0.09408652 1.2877568 254 254 254 255 0.6139318 0.6906499
-0.15481055 -0.07144311 1.3621114 254 254 254 255 0.6103866 0.70372856
0.050593436 -0.24171537 0.7866102 254 254 254 255 0.5934118 0.5958152
-0.013429948 -0.21841116 1.0046693 254 254 254 255 0.59597105 0.63493145
0.09283062 -0.18431433 1.046804 254 254 254 255 0.5772395 0.6403794
-0.047772825 -0.24171537 0.7866102 254 254 254 255 0.61025214 0.59840405
-0.11969051 -0.18431433 1.046804 254 254 254 255 0.61362326 0.6459726
0.16474833 -0.09408652 1.2877568 254 254 254 255 0.5580046 0.68205225
0.019442461 -0.24606873 0.65802425 254 254 254 255 0.60404295 0.57488334
0.0014103056 -0.25749725 0.7866102 254 254 254 255 0.6012541 0.5965701
-0.03509526 -0.24606873 0.6450224 254 254 254 255 0.6139318 0.5741343
0.055420253 -0.2979532 0.49911696 254 254 254 255 0.60272807 0.5454656
-0.014753932 -0.25314385 0.6365136 254 254 254 255 0.61055136 0.57192755
0.055420253 -0.2979532 0.49911696 254 254 254 255 0.6960783 0.5454656
0.019442461 -0.24606873 0.65802425 254 254 254 255 0.69803846 0.57389987
0.018032156 -0.29559478 0.6637965 254 254 254 255 0.6891251 0.57317257
0.050593436 -0.24171537 0.7866102 254 254 254 255 0.69328773 0.59625137
0.08288722 -0.23657846 1.0491927 254 254 254 255 0.6828216 0.6412945
0.04918313 -0.29124144 0.7923824 254 254 254 255 0.68437433 0.5955242
-0.15481055 -0.07144311 1.3621114 254 254 254 255 0.6831702 0.5509975
-0.16333802 -0.14361256 1.293529 254 254 254 255 0.6732866 0.5644426
-0.15279002 -0.11005389 1.4037265 254 254 254 255 0.67471164 0.5454656
0.09283062 -0.18431433 1.046804 254 254 254 255 0.6920836 0.64292467
0.16333802 -0.14361256 1.293529 254 254 254 255 0.6886637 0.6870308
0.15279002 -0.11005389 1.4037265 254 254 254 255 0.7094573 0.5468122
0.0014103055 -0.1199625 1.429607 254 254 254 255 0.70578235 0.57064533
-5.1697903e-11 -0.16948855 1.4353793 254 254 254 255 0.6980385 0.5711509
-0.036505565 -0.29559478 0.65079457 254 254 254 255 0.6742482 0.680693
-0.03509526 -0.24606873 0.6450224 254 254 254 255 0.6831702 0.6800524
0.055420253 -0.2979532 0.49911696 254 254 254 255 0.6808731 0.70932233
-0.11969051 -0.18431433 1.046804 254 254 254 255 0.6767012 0.6082921
-0.12110082 -0.23384036 1.0525762 254 254 254 255 0.6677792 0.6089327
-0.047772825 -0.24171537 0.7866102 254 254 254 255 0.67798895 0.6559826
-0.04918313 -0.29124144 0.7923824 254 254 254 255 0.6690669 0.6566233
0.15984857 -0.07849783 1.3389457 254 254 254 255 0.6980385 0.696949
0.15279002 -0.11005389 1.4037265 254 254 254 255 0.68965703 0.7068169
-0.15279002 -0.11005389 1.4037265 254 254 254 255 0.711199 0.5947603
-0.20372003 0.06825009 1.4314536 254 254 254 255 0.6322186 0.83519477
-0.1279375 -0.10356176 1.2865105 254 254 254 255 0.6448014 0.81574106
-0.15279002 -0.11005389 1.4314536 254 254 254 255 0.6487633 0.8305154
-0.22898124 0.06841994 1.4576482 254 254 254 255 0.65211076 0.6364256
-0.20610376 -0.07868314 1.5980536 254 254 254 255 0.669142 0.6468042
-0.22588572 0.066873334 1.6189014 254 254 254 255 0.65660393 0.6518687
-0.16295522 0.24058487 1.5809317 254 254 254 255 0.6416015 0.6487862
-0.173336 0.27767298 1.4103385 254 254 254 255 0.6336156 0.6332723
-0.1279375 0.15231322 1.2865105 254 254 254 255 0.6224411 0.81987596
-0.16899 0.02437573 1.2357804 254 254 254 255 0.63149226 0.81435716
0 0.30598873 1.3607846 254 254 254 255 0.6792439 0.81816196
-0.1279375 0.15231322 1.2865105 254 254 254 255 0.6681901 0.80383515
-0.15279002 0.24655408 1.3977252 254 254 254 255 0.6792439 0.8020902
-0.0033920452 0.34243 1.3748823 254 254 254 255 0.6661019 0.66821194
-0.16295522 0.24058487 1.5809317 254 254 254 255 0.690167 0.65476215
-0.0060271523 0.3099002 1.6366551 254 254 254 255 0.69294584 0.6718488
0.15692806 0.22328328 1.5561379 254 254 254 255 0.68324584 0.6816485
0.16994396 0.26282087 1.4260867 254 254 254 255 0.6695316 0.6816485
0 0.30598873 1.3607846 254 254 254 255 0.568908 0.83008015
0.1279375 0.15231322 1.2865105 254 254 254 255 0.5851469 0.8378719
0 0.19336572 1.2357804 254 254 254 255 0.57689095 0.8449713
0.20372003 0.06825009 1.4314536 254 254 254 255 0.596771 0.8234354
0.15279002 0.24655408 1.3977252 254 254 254 255 0.5793387 0.82418776
0.22898124 0.06841994 1.4576482 254 254 254 255 0.6175973 0.61804557
0.15692806 0.22328328 1.5561379 254 254 254 255 0.6033451 0.60654235
0.2134174 0.060174372 1.6443024 254 254 254 255 0.620393 0.599896
0.18256496 -0.06532308 1.6432133 254 254 254 255 0.63022524 0.6033586
0.1869367 -0.088495515 1.4574741 254 254 254 255 0.6297985 0.6223346
0.1279375 -0.10356176 1.2865105 254 254 254 255 0.60720015 0.8432875
0.16899 0.02437573 1.2357804 254 254 254 255 0.5967634 0.8447275
0 -0.16948855 1.4314536 254 254 254 255 0.6254602 0.8745593
0.1279375 -0.10356176 1.2865105 254 254 254 255 0.6371556 0.8582221
0.15279002 -0.11005389 1.4314536 254 254 254 255 0.6405391 0.873189
0.13621661 -0.06796652 1.5763968 254 254 254 255 0.641633 0.88873374
0 -0.11936793 1.6271268 254 254 254 255 0.6287169 0.8952949
-0.13621661 -0.06796652 1.5763968 254 254 254 255 0.6176928 0.8915154
-0.15279002 -0.11005389 1.4314536 254 254 254 255 0.6136862 0.87630904
-0.1279375 -0.10356176 1.2865105 254 254 254 255 0.61467046 0.8608347
0 -0.14461426 1.2357804 254 254 254 255 0.6242886 0.8540629
0 0.02437573 1.170556 254 254 254 255 0.63294905 0.8020902
0 0.19336572 1.2357804 254 254 254 255 0.61992055 0.8111219
0 0.02437573 1.170556 254 254 254 255 0.5905563 0.85507405
0 -0.14461426 1.2357804 254 254 254 255 0.6060205 0.8521247
0 0.06825009 1.6923513 254 254 254 255 0.5817834 0.8718916
0.13621661 0.2044667 1.5763968 254 254 254 255 0.5925457 0.8901479
0 0.25586814 1.6271268 254 254 254 255 0.57810116 0.8899603
-0.13621661 0.2044667 1.5763968 254 254 254 255 0.5702977 0.882684
-0.18761802 0.06825009 1.6271268 254 254 254 255 0.56865984 0.86808825
-0.13621661 -0.06796652 1.5763968 254 254 254 255 0.57883626 0.85838836
0 -0.11936793 1.6271268 254 254 254 255 0.5898617 0.8564966
0.13621661 -0.06796652 1.5763968 254 254 254 255 0.6010842 0.86585224
0.18761802 0.06825009 1.6271268 254 254 254 255 0.599303 0.8783686
-0.19587854 -0.095438935 1.455908 254 254 254 255 0.6670096 0.6324409
-0.20372003 0.06825009 1.4314536 254 254 254 255 0.6519049 0.63300055
-0.15279002 -0.11005389 1.4314536 254 254 254 255 0.6684496 0.6283212
-0.15279002 0.24655408 1.3977252 254 254 254 255 0.6363872 0.6308256
-0.0033920452 0.34243 1.3748823 254 254 254 255 0.63022524 0.6248938
-0.0033920452 0.34243 1.3748823 254 254 254 255 0.58554137 0.6257808
0.15279002 0.24655408 1.3977252 254 254 254 255 0.599025 0.62199354
0 0.30598873 1.3607846 254 254 254 255 0.58859426 0.62788594
0.16994396 0.26282087 1.4260867 254 254 254 255 0.5985529 0.6184237
0.20372003 0.06825009 1.4314536 254 254 254 255 0.6164573 0.6212412
-0.19587854 -0.095438935 1.455908 254 254 254 255 0.63022524 0.6771729
-0.13621661 -0.06796652 1.5763968 254 254 254 255 0.6373791 0.68932116
-0.20610376 -0.07868314 1.5980536 254 254 254 255 0.631146 0.6922779
-0.20610376 -0.07868314 1.5980536 254 254 254 255 0.59242135 0.65287983
-0.18761802 0.06825009 1.6271268 254 254 254 255 0.5883461 0.66589403
-0.22588572 0.066873334 1.6189014 254 254 254 255 0.58554137 0.66489136
-0.13621661 0.2044667 1.5763968 254 254 254 255 0.589984 0.6804898
-0.16295522 0.24058487 1.5809317 254 254 254 255 0.5865156 0.6828853
0 0.25586814 1.6271268 254 254 254 255 0.59778744 0.6877661
-0.0060271523 0.3099002 1.6366551 254 254 254 255 0.59528065 0.69222426
0.13621661 0.2044667 1.5763968 254 254 254 255 0.61223197 0.6879537
0.15692806 0.22328328 1.5561379 254 254 254 255 0.6140163 0.69061446
0.18761802 0.06825009 1.6271268 254 254 254 255 0.6189893 0.6761744
0.2134174 0.060174372 1.6443024 254 254 254 255 0.62077045 0.675809
0.18256496 -0.06532308 1.6432133 254 254 254 255 0.62077045 0.6640489
0.18761802 0.06825009 1.6271268 254 254 254 255 0.6258809 0.65287983
0.13621661 -0.06796652 1.5763968 254 254 254 255 0.6260884 0.6640489
0.1869367 -0.088495515 1.4574741 254 254 254 255 0.66407317 0.67345107
0.13621661 -0.06796652 1.5763968 254 254 254 255 0.66131926 0.68653953
0.15279002 -0.11005389 1.4314536 254 254 254 255 0.6602254 0.67099476
-0.1725748 0.18976338 1.0248573 254 254 254 255 0.1308519 0.6851879
-0.19381134 0.15261146 1.115717 254 254 254 255 0.12525874 0.68012977
-0.093395025 0.112997524 1.103929 254 254 254 255 0.13151045 0.6753394
-0.3600214 0.12634426 0.87059927 254 254 254 255 0.18842585 0.5737763
-0.39918423 0.03772865 0.6226673 254 254 254 255 0.19354036 0.5533706
-0.42702764 0.124557085 0.93908143 254 254 254 255 0.19057779 0.5789325
-0.42702764 0.124557085 0.93908143 254 254 254 255 0.1243588 0.69996446
-0.1725748 0.18976338 1.0248573 254 254 254 255 0.092612535 0.6776144
-0.32102036 -0.011712498 0.9346364 254 254 254 255 0.10321534 0.693547
-0.3600214 0.12634426 0.87059927 254 254 254 255 0.09359279 0.693547
-0.19381134 0.15261146 1.115717 254 254 254 255 0.19353215 0.60616904
-0.43835977 0.014786015 0.9664338 254 254 254 255 0.18521439 0.6247284
-0.194018 0.061555874 1.1713476 254 254 254 255 0.18608971 0.6053392
-0.18657173 0.047740523 1.0676553 254 254 254 255 0.17065866 0.63269573
-0.43835977 0.014786015 0.9664338 254 254 254 255 0.15367322 0.6231342
-0.32102036 -0.011712498 0.9346364 254 254 254 255 0.1623918 0.62074274
-0.18657173 0.047740523 1.0676553 254 254 254 255 0.102753505 0.6801358
-0.093395025 0.112997524 1.103929 254 254 254 255 0.09856528 0.67368096
-0.093395025 0.112997524 1.103929 254 254 254 255 0.19144286 0.599023
-0.194018 0.061555874 1.1713476 254 254 254 255 0.106868386 0.6729085
-0.3198647 -0.057161085 0.6643144 254 254 254 255 0.14441635 0.6870357
-0.29281226 0.13512054 0.6601131 254 254 254 255 0.15157686 0.6753394
-0.20171876 -0.014914676 0.71151114 254 254 254 255 0.15157686 0.68804747
-0.3600214 0.12634426 0.87059927 254 254 254 255 0.10993543 0.67552274
-0.20171876 -0.014914676 0.71151114 254 254 254 255 0.11828378 0.69263285
-0.29281226 0.13512054 0.6601131 254 254 254 255 0.106868386 0.69274837
-0.3198647 -0.057161085 0.6643144 254 254 254 255 0.19859798 0.55648845
-0.43835977 0.014786015 0.9664338 254 254 254 255 0.19859798 0.5804419
-0.3198647 -0.057161085 0.6643144 254 254 254 255 0.16323307 0.599023
-0.20171876 -0.014914676 0.71151114 254 254 254 255 0.17065866 0.6039558
0.18082993 0.18976338 1.0248573 254 254 254 255 0.17734097 0.6043596
0.101650156 0.112997524 1.103929 254 254 254 255 0.1827045 0.599023
0.20206648 0.15261146 1.115717 254 254 254 255 0.18521439 0.6039751
0.19482687 0.047740523 1.0676553 254 254 254 255 0.16782852 0.67822295
0.101650156 0.112997524 1.103929 254 254 254 255 0.16698445 0.68672025
0.18082993 0.18976338 1.0248573 254 254 254 255 0.15805605 0.6828284
0.20206648 0.15261146 1.115717 254 254 254 255 0.17878138 0.6526365
0.101650156 0.112997524 1.103929 254 254 254 255 0.18462111 0.6474097
0.22248404 0.057407863 1.1290826 254 254 254 255 0.18423937 0.65717345
0.22248404 0.057407863 1.1290826 254 254 254 255 0.19584034 0.6854014
0.101650156 0.112997524 1.103929 254 254 254 255 0.18974547 0.6928703
0.19482687 0.047740523 1.0676553 254 254 254 255 0.19052063 0.68441725
-0.16857406 0.033787005 0.5788698 254 254 254 255 0.59082407 0.90159523
-0.22380687 -0.034412216 0.5139562 254 254 254 255 0.59702766 0.909006
-0.19584055 0.033787005 0.49707028 254 254 254 255 0.5920011 0.91054785
-0.16857406 0.033787005 0.5788698 254 254 254 255 0.6221232 0.914709
-0.22380687 -0.034412216 0.63514066 254 254 254 255 0.6146289 0.91015863
-0.20259956 -0.05561948 0.5745484 254 254 254 255 0.62106794 0.90913224
-0.21704787 0.094379246 0.63946205 254 254 254 255 0.583144 0.89789987
-0.19584055 0.033787005 0.6606693 254 254 254 255 0.58847004 0.8944185
-0.21704787 0.094379246 0.5182776 254 254 254 255 0.5857596 0.9098476
-0.18474355 0.12754463 0.5852248 254 254 254 255 0.5820967 0.90257823
-0.27764007 0.142853 0.5788698 254 254 254 255 0.65698546 0.83514965
-0.21704787 0.094379246 0.5182776 254 254 254 255 0.65863 0.82815206
-0.27764007 0.11558651 0.49707028 254 254 254 255 0.66347355 0.829686
-0.21704787 0.094379246 0.63946205 254 254 254 255 0.6499074 0.8373152
-0.18474355 0.12754463 0.5852248 254 254 254 255 0.6510636 0.83036464
-0.34499124 0.086772226 0.63514066 254 254 254 255 0.65837604 0.8449996
-0.27764007 0.11558651 0.6606693 254 254 254 255 0.651698 0.8420563
-0.34499124 0.086772226 0.5139562 254 254 254 255 0.6670987 0.83583647
-0.36619857 0.107979506 0.5745484 254 254 254 255 0.66359484 0.8411514
-0.39346504 0.02618 0.5745484 254 254 254 255 0.6559321 0.81616807
-0.34499124 0.086772226 0.5139562 254 254 254 255 0.65191436 0.80815256
-0.36619857 0.02618 0.49274892 254 254 254 255 0.65668386 0.8071729
-0.39346504 0.02618 0.5745484 254 254 254 255 0.6670987 0.8449803
-0.34499124 -0.034412216 0.63514066 254 254 254 255 0.6626227 0.8214046
-0.36619857 0.02618 0.65634793 254 254 254 255 0.65668386 0.82359993
-0.34499124 -0.034412216 0.5139562 254 254 254 255 0.6626227 0.80923635
-0.36619857 -0.05561948 0.5745484 254 254 254 255 0.663912 0.816118
-0.28439906 -0.082885996 0.5745484 254 254 254 255 0.6183129 0.9014387
-0.34499124 -0.034412216 0.5139562 254 254 254 255 0.62240165 0.89547384
-0.28439906 -0.05561948 0.49274892 254 254 254 255 0.6263145 0.8992199
-0.34499124 -0.034412216 0.63514066 254 254 254 255 0.61071604 0.8999089
-0.36619857 -0.05561948 0.5745484 254 254 254 255 0.61578554 0.8952949
-0.28439906 -0.05561948 0.65634793 254 254 254 255 0.61053896 0.9052073
-0.22380687 -0.034412216 0.5139562 254 254 254 255 0.6263145 0.9057236
-0.28439906 0.02618 0.4654824 254 254 254 255 0.5914401 0.91645837
-0.28439906 0.02618 0.4654824 254 254 254 255 0.658939 0.8020902
-0.27764007 0.11558651 0.49707028 254 254 254 255 0.65122503 0.8042686
-0.28439906 -0.05561948 0.49274892 254 254 254 255 0.5980417 0.9128252
-0.28439906 0.02618 0.7250351 254 254 254 255 0.6494557 0.8497015
-0.36619857 0.02618 0.65634793 254 254 254 255 0.6595081 0.849501
-0.19584055 0.033787005 0.6606693 254 254 254 255 0.60763943 0.9041538
-0.27764007 0.11558651 0.6606693 254 254 254 255 0.5990238 0.91026783
-0.28439906 0.02618 0.7250351 254 254 254 255 0.5980417 0.9008436
-0.22380687 -0.034412216 0.63514066 254 254 254 255 0.60763943 0.8977864
-0.28439906 -0.05561948 0.65634793 254 254 254 255 0.66616714 0.82198673
-0.28439906 0.02618 0.7250351 254 254 254 255 0.658939 0.82815206
-0.094381005 -0.14281486 1.452245 254 254 254 255 0.10668546 0.57394636
-0.08313538 -0.086785935 1.4919411 254 254 254 255 0.1676274 0.6348883
-0.079654254 -0.09557264 1.4425118 254 254 254 255 0.10668546 0.6348883
-0.08313538 -0.086785935 1.4919411 254 254 254 255 0.1676274 0.57394636
-0.03232909 -0.11153611 1.4486824 254 254 254 255 0.10668546 0.6348883
-0.079654254 -0.09557264 1.4425118 254 254 254 255 0.10668546 0.57394636
-0.03581022 -0.102749385 1.4981118 254 254 254 255 0.1676274 0.57394636
-0.051438328 -0.15730006 1.4578441 254 254 254 255 0.10668546 0.6348883
-0.03232909 -0.11153611 1.4486824 254 254 254 255 0.10668546 0.57394636
-0.051438328 -0.15730006 1.4578441 254 254 254 255 0.10668546 0.57394636
-0.09753976 -0.13484184 1.4970969 254 254 254 255 0.1676274 0.6348883
-0.094381005 -0.14281486 1.452245 254 254 254 255 0.10668546 0.6348883
-0.03232909 -0.11153611 1.4486824 254 254 254 255 0.1676274 0.57394636
-0.03581022 -0.102749385 1.4981118 254 254 254 255 0.10668546 0.57394636
-0.0545971 -0.14932701 1.5026963 254 254 254 255 0.10668546 0.6348883
-0.12581554 -0.11532 1.5098078 254 254 254 255 0.10668546 0.57394636
-0.118598424 -0.05793221 1.5489787 254 254 254 255 0.1676274 0.6348883
-0.11511729 -0.06671893 1.4995494 254 254 254 255 0.10668546 0.6348883
-0.118598424 -0.05793221 1.5489787 254 254 254 255 0.1676274 0.57394636
-0.024289388 -0.09735648 1.5113924 254 254 254 255 0.10668546 0.6348883
-0.11511729 -0.06671893 1.4995494 254 254 254 255 0.10668546 0.57394636
-0.027770521 -0.08856976 1.5608217 254 254 254 255 0.1676274 0.57394636
-0.04339863 -0.14312041 1.5205541 254 254 254 255 0.10668546 0.6348883
-0.024289388 -0.09735648 1.5113924 254 254 254 255 0.10668546 0.57394636
-0.04339863 -0.14312041 1.5205541 254 254 254 255 0.10668546 0.57394636
-0.12897429 -0.10734699 1.5546597 254 254 254 255 0.1676274 0.6348883
-0.12581554 -0.11532 1.5098078 254 254 254 255 0.10668546 0.6348883
-0.024289388 -0.09735648 1.5113924 254 254 254 255 0.1676274 0.57394636
-0.027770521 -0.08856976 1.5608217 254 254 254 255 0.10668546 0.57394636
-0.046557393 -0.13514736 1.565406 254 254 254 255 0.10668546 0.6348883
0.094381005 -0.14281486 1.452245 254 254 254 255 0.10668546 0.57394636
0.08313538 -0.086785935 1.4919411 254 254 254 255 0.1676274 0.6348883
0.09753976 -0.13484184 1.4970969 254 254 254 255 0.10668546 0.6348883
0.03232909 -0.11153611 1.4486824 254 254 254 255 0.1676274 0.57394636
0.08313538 -0.086785935 1.4919411 254 254 254 255 0.10668546 0.6348883
0.079654254 -0.09557264 1.4425118 254 254 254 255 0.10668546 0.57394636
0.051438328 -0.15730006 1.4578441 254 254 254 255 0.1676274 0.57394636
0.03581022 -0.102749385 1.4981118 254 254 254 255 0.10668546 0.6348883
0.03232909 -0.11153611 1.4486824 254 254 254 255 0.10668546 0.57394636
0.051438328 -0.15730006 1.4578441 254 254 254 255 0.10668546 0.57394636
0.09753976 -0.13484184 1.4970969 254 254 254 255 0.1676274 0.6348883
0.0545971 -0.14932701 1.5026963 254 254 254 255 0.10668546 0.6348883
0.094381005 -0.14281486 1.452245 254 254 254 255 0.1676274 0.57394636
0.03232909 -0.11153611 1.4486824 254 254 254 255 0.10668546 0.6348883
0.03581022 -0.102749385 1.4981118 254 254 254 255 0.10668546 0.57394636
0.12581554 -0.11532 1.5098078 254 254 254 255 0.10668546 0.57394636
0.118598424 -0.05793221 1.5489787 254 254 254 255 0.1676274 0.6348883
0.12897429 -0.10734699 1.5546597 254 254 254 255 0.10668546 0.6348883
0.024289388 -0.09735648 1.5113924 254 254 254 255 0.1676274 0.57394636
0.118598424 -0.05793221 1.5489787 254 254 254 255 0.10668546 0.6348883
0.11511729 -0.06671893 1.4995494 254 254 254 255 0.10668546 0.57394636
0.04339863 -0.14312041 1.5205541 254 254 254 255 0.1676274 0.57394636
0.027770521 -0.08856976 1.5608217 254 254 254 255 0.10668546 0.6348883
0.024289388 -0.09735648 1.5113924 254 254 254 255 0.10668546 0.57394636
0.04339863 -0.14312041 1.5205541 254 254 254 255 0.10668546 0.57394636
0.12897429 -0.10734699 1.5546597 254 254 254 255 0.1676274 0.6348883
0.046557393 -0.13514736 1.565406 254 254 254 255 0.10668546 0.6348883
0.12581554 -0.11532 1.5098078 254 254 254 255 0.1676274 0.57394636
0.024289388 -0.09735648 1.5113924 254 254 254 255 0.10668546 0.6348883
0.027770521 -0.08856976 1.5608217 254 254 254 255 0.10668546 0.57394636
0.19809109 -0.17469433 0.8495963 254 254 254 255 0.15185703 0.64646953
-0.1707628 -0.07532974 0.68478435 254 254 254 255 0.14329797 0.6776838
0.21725543 0.2849857 0.05017962 254 254 254 255 0.15367317 0.64561886
0.21725543 -0.1484855 0.11567901 254 254 254 255 0.063948676 0.55925333
-0.21725543 0.2949613 0.06015528 254 254 254 255 0.12435879 0.6445324
-0.1707628 -0.07532974 0.68478435 254 254 254 255 0.15942714 0.599023
-0.22383395 0.035807732 0.11169311 254 254 254 255 0.31363663 0.60321265
-0.09333582 -0.15937428 5.9538044e-05 254 254 254 255 0.39910147 0.6665357
-0.16760452 0.1593743 -5.9433223e-05 254 254 254 255 0.41972962 0.6166121
-0.09333582 -0.15937428 5.9538044e-05 254 254 254 255 0.3342429 0.62292624
-0.2344291 -0.0990524 -5.9433223e-05 254 254 254 255 0.3548924 0.6462537
-0.029671503 0.11814218 -5.9433223e-05 254 254 254 255 0.33309206 0.664977
0.09304354 -0.15976357 0.051316187 254 254 254 255 0.37076518 0.6228666
0.22383395 0.035807732 -5.9433223e-05 254 254 254 255 0.37076518 0.6016425
0.16760452 0.1593743 -5.9433223e-05 254 254 254 255 0.41972962 0.6166121
0.09333582 -0.15937428 5.9538044e-05 254 254 254 255 0.33428615 0.62292624
0.2344291 -0.0990524 -5.9433223e-05 254 254 254 255 0.3548924 0.6462537
0.029671503 0.11814218 -5.9433223e-05 254 254 254 255 0.4185569 0.67792875
0.029671503 0.11814218 -5.9433223e-05 254 254 254 255 0.3342649 0.664977
0.2344291 -0.0990524 -5.9433223e-05 254 254 254 255 0.41972962 0.5772288
0.014465553 0.29892182 1.8496485 254 254 254 255 0.14748248 0.58357954
-0.4374098 0.43306088 1.3624005 254 254 254 255 0.10838309 0.67857695
0.19331267 0.33293867 1.5152287 254 254 254 255 0.098268375 0.65032065
0.19959174 -0.12301989 1.5871595 254 254 254 255 0.09951417 0.61879474
-0.2697912 -0.12518883 1.5829365 254 254 254 255 0.18820557 0.58238226
-0.037167523 -0.18302396 1.6196493 254 254 254 255 0.15150748 0.60183686
0.031861342 0.26367235 1.8898121 254 254 254 255 0.10351339 0.64928114
-0.118172266 0.26726484 1.818359 254 254 254 255 0.16354288 0.59506214
0.24666709 0.15320112 1.7400451 254 254 254 255 0.13232334 0.5960286
0.49957892 0.07491195 1.4543688 254 254 254 255 0.08382033 0.54516065
-0.39314973 -0.30327752 1.5047075 254 254 254 255 0.10040106 0.67089546
0.32606474 -0.30733994 1.5055646 254 254 254 255 0.10294993 0.64906263
0.30246347 0.40327573 1.3164055 254 254 254 255 0.17352778 0.61932844
-0.5225552 0.07097666 1.4760549 254 254 254 255 0.08387987 0.61879474
-0.16333802 -0.14361256 1.293529 254 254 254 255 0.6139318 0.68962103
-0.1619277 -0.09408652 1.2877568 254 254 254 255 0.6822087 0.563802
0.16474833 -0.09408652 1.2877568 254 254 254 255 0.6975771 0.68775797
0.15984857 -0.07849783 1.3389457 254 254 254 255 0.7217374 0.5454656
-0.15481055 -0.07144311 1.3621114 254 254 254 255 0.7217374 0.5948205
-0.15279002 0.24655408 1.3977252 254 254 254 255 0.61670095 0.8330198
0 0.19336572 1.2357804 254 254 254 255 0.66616714 0.8175019
-0.173336 0.27767298 1.4103385 254 254 254 255 0.6727026 0.6518687
0.15279002 -0.11005389 1.4314536 254 254 254 255 0.61053896 0.8283606
0 -0.14461426 1.2357804 254 254 254 255 0.6494557 0.80566025
0 0.30598873 1.3607846 254 254 254 255 0.633098 0.6228233
0.15279002 -0.11005389 1.4314536 254 254 254 255 0.63022524 0.6261664
-0.15279002 -0.11005389 1.4314536 254 254 254 255 0.6333725 0.6741148
-0.13621661 -0.06796652 1.5763968 254 254 254 255 0.59852254 0.65619415
0.2134174 0.060174372 1.6443024 254 254 254 255 0.624592 0.6541076
0.18256496 -0.06532308 1.6432133 254 254 254 255 0.6661019 0.6931007
-0.29281226 0.13512054 0.6601131 254 254 254 255 0.1847166 0.5573552
-0.3600214 0.12634426 0.87059927 254 254 254 255 0.13151045 0.7008616
-0.42702764 0.124557085 0.93908143 254 254 254 255 0.19353215 0.62452775
-0.194018 0.061555874 1.1713476 254 254 254 255 0.16992016 0.64093184
-0.39918423 0.03772865 0.6226673 254 254 254 255 0.14333053 0.6783061
-0.32102036 -0.011712498 0.9346364 254 254 254 255 0.11828378 0.6729085
-0.20259956 -0.05561948 0.5745484 254 254 254 255 0.5980417 0.9020965
-0.19584055 0.033787005 0.6606693 254 254 254 255 0.613355 0.91539645
-0.36619857 0.107979506 0.5745484 254 254 254 255 0.6494557 0.8146548
-0.27764007 0.11558651 0.49707028 254 254 254 255 0.5830454 0.9141567
-0.28439906 -0.05561948 0.49274892 254 254 254 255 0.66616714 0.80555964
-0.21704787 0.094379246 0.63946205 254 254 254 255 0.605332 0.90972114
-0.28439906 -0.05561948 0.65634793 254 254 254 255 0.60222757 0.8944185
-0.09753976 -0.13484184 1.4970969 254 254 254 255 0.1676274 0.57394636
-0.03581022 -0.102749385 1.4981118 254 254 254 255 0.1676274 0.6348883
-0.0545971 -0.14932701 1.5026963 254 254 254 255 0.1676274 0.6348883
-0.0545971 -0.14932701 1.5026963 254 254 254 255 0.1676274 0.57394636
-0.051438328 -0.15730006 1.4578441 254 254 254 255 0.1676274 0.6348883
-0.12897429 -0.10734699 1.5546597 254 254 254 255 0.1676274 0.57394636
-0.027770521 -0.08856976 1.5608217 254 254 254 255 0.1676274 0.6348883
-0.046557393 -0.13514736 1.565406 254 254 254 255 0.1676274 0.6348883
-0.046557393 -0.13514736 1.565406 254 254 254 255 0.1676274 0.57394636
-0.04339863 -0.14312041 1.5205541 254 254 254 255 0.1676274 0.6348883
0.079654254 -0.09557264 1.4425118 254 254 254 255 0.1676274 0.57394636
0.03581022 -0.102749385 1.4981118 254 254 254 255 0.1676274 0.6348883
0.0545971 -0.14932701 1.5026963 254 254 254 255 0.1676274 0.6348883
0.051438328 -0.15730006 1.4578441 254 254 254 255 0.1676274 0.6348883
0.0545971 -0.14932701 1.5026963 254 254 254 255 0.1676274 0.57394636
0.11511729 -0.06671893 1.4995494 254 254 254 255 0.1676274 0.57394636
0.027770521 -0.08856976 1.5608217 254 254 254 255 0.1676274 0.6348883
0.046557393 -0.13514736 1.565406 254 254 254 255 0.1676274 0.6348883
0.04339863 -0.14312041 1.5205541 254 254 254 255 0.1676274 0.6348883
0.046557393 -0.13514736 1.565406 254 254 254 255 0.1676274 0.57394636
3 0 1 2
3 0 3 4
3 0 5 6
3 0 7 8
3 9 10 11
3 11 12 13
3 11 14 15
3 15 9 11
3 16 17 18
3 16 19 20
3 16 21 22
3 16 23 24
3 25 22 26
3 27 28 29
3 27 30 31
3 32 33 34
3 35 36 9
3 37 38 39
3 1 40 41
3 23 42 24
3 43 44 45
3 43 46 47
3 43 48 49
3 43 50 51
3 52 53 54
3 52 55 56
3 52 57 58
3 52 59 60
3 24 61 17
3 7 40 8
3 37 62 63
3 9 64 65
3 66 67 68
3 69 70 71
3 72 73 74
3 75 76 77
3 78 79 80
3 81 82 83
3 84 76 85
3 86 73 87
3 69 88 89
3 90 66 91
3 92 93 94
3 95 96 97
3 98 99 100
3 101 102 103
3 104 105 106
3 107 108 109
3 110 101 103
3 111 98 100
3 112 95 113
3 92 114 115
3 116 117 118
3 119 120 121
3 122 123 124
3 125 126 127
3 128 129 130
3 131 132 133
3 134 135 136
3 137 138 139
3 140 141 142
3 143 144 145
3 146 134 147
3 148 149 150
3 151 140 142
3 152 153 143
3 128 146 154
3 155 156 149
3 139 157 148
3 137 158 159
3 134 129 160
3 148 132 155
3 117 161 162
3 121 120 163
3 164 165 166
3 167 168 169
3 170 171 172
3 173 124 174
3 175 121 176
3 116 177 161
3 178 156 179
3 175 146 119
3 152 122 173
3 180 127 181
3 125 149 178
3 146 182 119
3 143 183 122
3 127 150 125
3 165 184 166
3 185 164 166
3 176 121 163
3 161 177 162
3 186 187 188
3 189 190 188
3 191 192 193
3 194 195 188
3 187 196 188
3 196 189 188
3 192 197 193
3 190 194 188
3 198 194 190
3 199 200 201
3 202 203 204
3 205 203 206
3 207 208 209
3 210 200 211
3 212 213 202
3 214 187 186
3 215 216 217
3 218 215 217
3 219 220 221
3 219 222 223
3 215 224 219
3 215 221 225
3 223 226 220
3 223 227 228
3 226 228 229
3 228 227 229
3 230 231 232
3 232 233 234
3 235 236 237
3 236 238 239
3 231 239 233
3 237 231 240
3 241 242 235
3 242 243 238
3 241 244 245
3 245 244 243
3 246 247 248
3 249 250 251
3 252 253 254
3 248 249 251
3 255 256 250
3 257 258 259
3 260 261 262
3 253 263 264
3 265 260 266
3 256 267 268
3 264 265 266
3 258 269 259
3 270 271 272
3 273 274 275
3 273 276 277
3 270 278 279
3 280 281 282
3 283 284 285
3 283 286 287
3 288 289 290
3 291 289 292
3 293 294 295
3 293 296 297
3 291 298 299
3 300 301 302
3 300 303 304
3 300 305 306
3 300 307 308
3 309 278 310
3 311 289 299
3 311 298 312
3 309 271 279
3 313 314 315
3 313 316 317
3 313 318 319
3 313 320 321
3 322 323 324
3 273 325 323
3 326 325 277
3 327 328 329
3 330 331 328
3 297 331 293
3 332 333 334
3 335 336 337
3 337 338 339
3 339 340 341
3 341 342 343
3 343 344 345
3 346 347 348
3 349 350 351
3 352 353 354
3 355 356 357
3 352 358 353
3 359 360 361
3 362 363 364
3 365 366 367
3 368 359 369
3 362 364 370
3 371 368 369
3 372 373 374
3 375 376 377
3 357 378 379
3 367 380 381
3 382 383 384
3 385 386 387
3 388 389 390
3 391 392 393
3 394 395 396
3 397 398 399
3 394 400 401
3 394 402 403
3 404 405 406
3 404 407 408
3 404 409 410
3 404 411 412
3 413 414 415
3 416 409 412
3 413 417 418
3 413 419 420
3 421 422 423
3 421 424 425
3 421 398 426
3 421 427 399
3 428 402 396
3 429 414 430
3 429 419 415
3 428 395 431
3 432 409 433
3 434 435 436
3 436 437 434
3 418 438 439
3 440 441 442
3 443 444 445
3 446 447 448
3 449 450 451
3 452 451 445
3 453 450 454
3 455 456 457
3 458 459 460
3 461 462 463
3 464 465 466
3 467 466 460
3 468 465 469
3 470 471 472
3 473 474 475
3 476 477 478
3 479 480 481
3 482 483 475
3 484 480 474
3 485 486 487
3 488 489 490
3 491 492 493
3 494 495 496
3 497 498 490
3 499 495 489
3 0 8 1
3 0 2 3
3 0 4 5
3 0 6 7
3 9 65 10
3 11 10 12
3 11 13 14
3 15 35 9
3 16 24 17
3 16 18 19
3 16 20 21
3 16 22 23
3 25 23 22
3 27 500 28
3 27 29 30
3 32 501 33
3 35 502 36
3 37 63 38
3 1 8 40
3 23 503 42
3 43 51 44
3 43 45 46
3 43 47 48
3 43 49 50
3 52 60 53
3 52 54 55
3 52 56 57
3 52 58 59
3 24 42 61
3 7 504 40
3 37 505 62
3 9 36 64
3 66 506 67
3 69 507 70
3 72 508 73
3 75 509 76
3 78 510 79
3 81 511 82
3 84 77 76
3 86 74 73
3 69 71 88
3 90 506 66
3 92 512 93
3 95 513 96
3 98 514 99
3 101 515 102
3 104 516 105
3 107 517 108
3 110 518 101
3 111 519 98
3 112 513 95
3 92 94 114
3 116 161 117
3 119 182 120
3 122 183 123
3 125 520 126
3 128 521 129
3 131 155 132
3 134 160 135
3 137 159 138
3 140 522 141
3 143 153 144
3 146 130 134
3 148 155 149
3 151 523 140
3 152 524 153
3 128 130 146
3 155 131 156
3 139 138 157
3 137 525 158
3 134 130 129
3 148 157 132
3 170 526 171
3 173 122 124
3 175 119 121
3 116 527 177
3 178 149 156
3 175 154 146
3 152 143 122
3 180 528 127
3 125 150 149
3 146 147 182
3 143 145 183
3 127 528 150
3 198 529 194
3 199 530 200
3 202 213 203
3 205 204 203
3 207 531 208
3 210 201 200
3 212 532 213
3 214 533 187
3 215 225 216
3 218 534 215
3 219 223 220
3 219 224 222
3 215 534 224
3 215 219 221
3 223 228 226
3 223 222 227
3 230 240 231
3 232 231 233
3 235 242 236
3 236 242 238
3 231 236 239
3 237 236 231
3 241 245 242
3 242 245 243
3 249 255 250
3 252 535 253
3 248 247 249
3 255 536 256
3 257 537 258
3 253 535 263
3 265 261 260
3 256 536 267
3 264 263 265
3 258 538 269
3 270 279 271
3 273 322 274
3 273 275 276
3 270 539 278
3 280 540 281
3 283 541 284
3 283 285 286
3 288 292 289
3 291 299 289
3 293 330 294
3 293 295 296
3 291 542 298
3 300 308 301
3 300 302 303
3 300 304 305
3 300 306 307
3 309 279 278
3 311 290 289
3 311 299 298
3 309 543 271
3 313 321 314
3 313 315 316
3 313 317 318
3 313 319 320
3 322 273 323
3 273 277 325
3 326 544 325
3 327 330 328
3 330 293 331
3 297 545 331
3 332 546 333
3 335 547 336
3 337 336 338
3 339 338 340
3 341 340 342
3 343 342 344
3 346 548 347
3 349 549 350
3 355 550 356
3 352 551 358
3 359 368 360
3 362 552 363
3 365 553 366
3 372 554 373
3 375 555 376
3 357 356 378
3 367 366 380
3 394 556 395
3 397 557 398
3 394 403 400
3 394 396 402
3 404 408 405
3 404 410 407
3 404 412 409
3 404 406 411
3 413 558 414
3 416 433 409
3 413 420 417
3 413 415 419
3 421 425 422
3 421 426 424
3 421 399 398
3 421 423 427
3 428 559 402
3 429 415 414
3 429 560 419
3 428 396 395
3 432 410 409
3 434 561 435
3 436 562 437
3 418 417 438
3 440 563 441
3 443 564 444
3 446 565 447
3 449 566 450
3 452 567 451
3 453 443 450
3 455 568 456
3 458 569 459
3 461 570 462
3 464 571 465
3 467 572 466
3 468 458 465
3 470 573 471
3 473 574 474
3 476 575 477
3 479 482 480
3 482 576 483
3 484 577 480
3 485 578 486
3 488 579 489
3 491 580 492
3 494 497 495
3 497 581 498
3 499 582 495
