ply
format ascii 1.0
comment Created in Blender version 4.2.3 LTS
element vertex 30
property float x
property float y
property float z
property uchar red
property uchar green
property uchar blue
property uchar alpha
property float s
property float t
element face 18
property list uchar uint vertex_indices
end_header
0.42702764 0.124557085 0.93908143 254 254 254 255 0.17732458 0.6237963
0.6620169 -0.053906765 0.78070784 254 254 254 255 0.1733131 0.6474097
0.3600214 0.12634426 0.87059927 254 254 254 255 0.17065866 0.62154794
0.18082993 0.18976338 1.0248573 254 254 254 255 0.17734097 0.6043596
0.20206648 0.15261146 1.115717 254 254 254 255 0.18521439 0.6039751
0.3600214 0.12634426 0.87059927 254 254 254 255 0.15367322 0.6670594
0.19482687 0.047740523 1.0676553 254 254 254 255 0.16782852 0.67822295
0.18082993 0.18976338 1.0248573 254 254 254 255 0.15805605 0.6828284
0.22248404 0.057407863 1.1290826 254 254 254 255 0.18423937 0.65717345
0.42702764 0.124557085 0.93908143 254 254 254 255 0.17065866 0.66465795
0.20206648 0.15261146 1.115717 254 254 254 255 0.17878138 0.6526365
0.19482687 0.047740523 1.0676553 254 254 254 255 0.19052063 0.68441725
0.43835977 0.014786015 0.9664338 254 254 254 255 0.19284134 0.66567546
0.22248404 0.057407863 1.1290826 254 254 254 255 0.19584034 0.6854014
0.5522917 -0.19826132 0.8046341 254 254 254 255 0.19647624 0.5804419
0.69930905 -0.079487555 0.92268425 254 254 254 255 0.18508245 0.59109885
0.5762498 -0.17715286 0.9472764 254 254 254 255 0.1847166 0.5808905
0.6620169 -0.053906765 0.78070784 254 254 254 255 0.15506253 0.64093184
0.36563337 -0.008172586 0.88909984 254 254 254 255 0.1626064 0.6628278
0.43835977 0.014786015 0.9664338 254 254 254 255 0.17751671 0.6693247
0.69930905 -0.079487555 0.92268425 254 254 254 255 0.17390203 0.68794215
0.36563337 -0.008172586 0.88909984 254 254 254 255 0.18462111 0.6663411
0.5762498 -0.17715286 0.9472764 254 254 254 255 0.19584034 0.65198237
0.43835977 0.014786015 0.9664338 254 254 254 255 0.19284134 0.66567546
0.69930905 -0.079487555 0.92268425 254 254 254 255 0.18521439 0.64626765
0.36563337 -0.008172586 0.88909984 254 254 254 255 0.18462111 0.6663411
0.6620169 -0.053906765 0.78070784 254 254 254 255 0.19647624 0.593284
0.5522917 -0.19826132 0.8046341 254 254 254 255 0.16782852 0.64377487
0.5762498 -0.17715286 0.9472764 254 254 254 255 0.18462111 0.68375725
0.5522917 -0.19826132 0.8046341 254 254 254 255 0.18505122 0.6474097
3 0 1 2
3 0 3 4
3 5 6 7
3 8 9 10
3 11 12 13
3 14 15 16
3 17 18 5
3 19 20 9
3 21 22 23
3 0 24 1
3 0 2 3
3 5 18 6
3 8 19 9
3 11 25 12
3 14 26 15
3 17 27 18
3 19 28 20
3 21 29 22
