ply
format ascii 1.0
comment Created in Blender version 4.2.3 LTS
element vertex 481
property float x
property float y
property float z
property float s
property float t
element face 638
property list uchar uint vertex_indices
end_header
-0.069018126 -0.20141125 -0.10013682 0.64832 0.58325
0.028085709 -0.18258286 -0.081683755 0.63747 0.58105
-0.03194928 -0.13836265 -0.005974114 0.64354 0.57129
0.05968523 -0.10180545 -0.04166788 0.63217 0.57191
0.011283398 -0.08086169 -0.0058453083 0.63716 0.56705
-0.09410429 -0.17458606 -0.006367445 0.65105 0.5727
-0.06590414 -0.23336124 -0.18579197 0.64826 0.59314
-0.16998982 -0.19980288 -0.10749602 0.65936 0.58383
0.027531862 -0.23601186 -0.18049687 0.63836 0.59314
0.09478235 -0.23699808 -0.18517035 0.63119 0.59424
0.043362856 -0.2780813 -0.28651243 0.63761 0.60488
0.09739375 -0.18486774 -0.102528214 0.63005 0.58377
-0.06487155 -0.2717433 -0.2875139 0.64848 0.60442
-0.06487155 -0.2717433 -0.2875139 0.46487 0.83954
0.04031825 -0.33453822 -0.48503664 0.48829 0.84909
0.043362856 -0.2780813 -0.28651243 0.46617 0.85223
-0.17169285 -0.22786975 -0.19045854 0.65953 0.59326
-0.173105 -0.26540327 -0.2885095 0.46438 0.82695
-0.06713343 -0.32824492 -0.486028 0.48752 0.83801
-0.173105 -0.26540327 -0.2885095 0.65962 0.60428
0.046462297 -0.23985028 -0.38014448 0.47623 0.85804
0.044752598 -0.26657236 -0.53422016 0.4932 0.85623
0.030004263 -0.35497773 -0.6855917 0.50751 0.84648
0.10171008 -0.18784404 -0.4566388 0.63235 0.62507
0.09841943 -0.23828506 -0.377482 0.63214 0.6151
0.046462297 -0.23985028 -0.38014448 0.63747 0.61498
0.09603238 -0.25745332 -0.28326488 0.63185 0.60495
0.049569607 -0.20161474 -0.4737747 0.48645 0.86301
0.049569607 -0.20161474 -0.4737747 0.63805 0.62513
0.14828014 -0.25836992 -0.2856633 0.62632 0.60551
0.14854074 -0.2395761 -0.19453847 0.6256 0.59569
0.15287256 -0.18002462 -0.28597468 0.42194 0.91717
0.14854074 -0.2395761 -0.19453847 0.41138 0.92166
0.14828014 -0.25836992 -0.2856633 0.41507 0.91261
0.15086007 -0.18784976 -0.1172384 0.62445 0.58585
0.15460491 -0.1326983 -0.17295188 0.41946 0.9298
0.15086007 -0.18784976 -0.1172384 0.41138 0.93143
0.15305042 -0.1674118 -0.22482646 0.41946 0.92324
0.15733933 -0.08062053 -0.13862276 0.42201 0.93584
0.15493393 -0.11024141 -0.066084564 0.41518 0.94043
0.15460491 -0.1326983 -0.17295188 0.82028 0.97084
0.09389734 -0.076904416 -0.13920844 0.8158 0.96176
0.15733933 -0.08062053 -0.13862276 0.82284 0.96278
0.09116268 -0.1289823 -0.17353773 0.81375 0.96727
0.089607716 -0.16369224 -0.22541076 0.80979 0.9716
0.15305042 -0.1674118 -0.22482646 0.81463 0.97764
0.09411812 -0.096390486 -0.28687572 0.6032 0.578
0.09378266 -0.09039581 -0.21251857 0.60937 0.57318
0.089607716 -0.16369224 -0.22541076 0.61248 0.58036
0.09116268 -0.1289823 -0.17353773 0.61503 0.57432
0.08943343 -0.17630506 -0.28655756 0.80445 0.97405
0.08943343 -0.17630506 -0.28655756 0.60785 0.585
0.09880471 -0.016474247 -0.2871971 0.59855 0.57099
0.09511471 -0.09106517 -0.36128134 0.59636 0.58182
0.09070325 -0.16424608 -0.3478074 0.60177 0.58747
0.15287256 -0.18002462 -0.28597468 0.80643 0.98184
0.15414572 -0.1679622 -0.3472215 0.79757 0.98155
0.09070325 -0.16424608 -0.3478074 0.79875 0.97437
0.15663338 -0.13371968 -0.39937025 0.78949 0.97882
0.09319067 -0.13000023 -0.39995456 0.59522 0.58747
0.09319067 -0.13000023 -0.39995456 0.79337 0.97227
0.1599853 -0.081950784 -0.43411016 0.78256 0.97281
0.15663338 -0.13371968 -0.39937025 0.43261 0.90999
0.15888166 -0.11222541 -0.5064143 0.44075 0.90191
0.1599853 -0.081950784 -0.43411016 0.43917 0.90999
0.15388227 -0.1893723 -0.45464137 0.43098 0.90191
0.15017629 -0.24039817 -0.37692976 0.42198 0.9057
0.15414572 -0.1679622 -0.3472215 0.42657 0.91253
0.15388227 -0.1893723 -0.45464137 0.62679 0.6251
0.15017629 -0.24039817 -0.37692976 0.62666 0.61527
0.16367817 -0.020910025 -0.44671214 0.44524 0.91246
0.16438174 -0.021264315 -0.5251922 0.4498 0.9056
0.15888166 -0.11222541 -0.5064143 0.62663 0.63498
0.11032343 -0.018098354 -0.5256888 0.63224 0.6449
0.16438174 -0.021264315 -0.5251922 0.62652 0.6449
0.105193615 -0.10946214 -0.5072868 0.6323 0.63502
0.16367817 -0.020910025 -0.44671214 0.77932 0.96422
0.100236416 -0.017194033 -0.44729763 0.78693 0.96259
0.10370731 0.04395461 -0.43518406 0.7864 0.95668
0.1671493 0.0402385 -0.43459833 0.77915 0.95569
0.16955638 0.069860935 -0.50713956 0.45671 0.9125
0.1671493 0.0402385 -0.43459833 0.44988 0.9171
0.16988301 0.09231973 -0.40026766 0.45242 0.92314
0.1736288 0.14746785 -0.45598277 0.4605 0.92151
0.16955638 0.069860935 -0.50713956 0.62663 0.65481
0.12163401 0.15203428 -0.45799103 0.63235 0.66472
0.1736288 0.14746785 -0.45598277 0.62679 0.66469
0.11591339 0.073382616 -0.50801694 0.6323 0.65477
0.16988301 0.09231973 -0.40026766 0.78144 0.94715
0.10644102 0.09603584 -0.40085334 0.78825 0.95122
0.10799599 0.13074589 -0.3489805 0.79211 0.9469
0.17143822 0.12702978 -0.34839463 0.78782 0.94066
0.17594719 0.19919753 -0.378681 0.4605 0.93128
0.17143822 0.12702978 -0.34839463 0.45242 0.9297
0.10644102 0.09603584 -0.40085334 0.58207 0.56767
0.10799599 0.13074589 -0.3489805 0.58461 0.56162
0.10382104 0.05744946 -0.36187255 0.58772 0.56881
0.10348892 0.06344402 -0.2875139 0.5939 0.56399
0.10817385 0.1433587 -0.28783196 0.58925 0.55699
0.10817385 0.1433587 -0.28783196 0.79738 0.9444
0.102488995 0.05811894 -0.21310997 0.60073 0.56017
0.10690069 0.13129616 -0.22658515 0.59532 0.55451
0.17161274 0.13964272 -0.28724778 0.79574 0.93735
0.10690069 0.13129616 -0.22658515 0.80314 0.94446
0.1044147 0.097055435 -0.17443985 0.60187 0.55451
0.17034292 0.12758017 -0.22599947 0.80458 0.93658
0.1044147 0.097055435 -0.17443985 0.80871 0.94647
0.17161274 0.13964272 -0.28724778 0.44995 0.93577
0.17620492 0.21799171 -0.28755802 0.45681 0.94033
0.17431188 0.2000196 -0.19629002 0.44991 0.94723
0.17034292 0.12758017 -0.22599947 0.44531 0.9404
0.17060661 0.1489904 -0.118579686 0.62443 0.70393
0.17431188 0.2000196 -0.19629002 0.62558 0.69409
0.120622635 0.20381331 -0.18692315 0.63117 0.69554
0.1678555 0.093337774 -0.1738509 0.43927 0.94295
0.17060661 0.1489904 -0.118579686 0.4409 0.95103
0.12421036 0.22320342 -0.28518033 0.63183 0.68484
0.17620492 0.21799171 -0.28755802 0.62631 0.68427
0.1678555 0.093337774 -0.1738509 0.81294 0.94017
0.10106063 0.045288324 -0.13969505 0.81308 0.95044
0.16450262 0.041572094 -0.13910937 0.81895 0.94631
0.1656084 0.071844935 -0.06680983 0.43113 0.95103
0.16450262 0.041572094 -0.13910937 0.43271 0.94295
0.16010857 -0.019112825 -0.048030496 0.61893 0.72301
0.1656084 0.071844935 -0.06680983 0.62223 0.71364
0.114640236 0.07465315 -0.055978656 0.62749 0.71566
0.16081166 -0.019466877 -0.12651086 0.42664 0.94047
0.16010857 -0.019112825 -0.048030496 0.42208 0.94734
0.11716461 0.15239048 -0.10387099 0.63003 0.70602
0.16081166 -0.019466877 -0.12651086 0.82284 0.95409
0.097369194 -0.015750766 -0.12709665 0.81528 0.9559
0.10106063 0.045288324 -0.13969505 0.60792 0.55706
0.097369194 -0.015750766 -0.12709665 0.61255 0.56169
0.09808469 -0.016113043 -0.20714605 0.60555 0.56634
0.09389734 -0.076904416 -0.13920844 0.61503 0.56776
0.05371785 0.21072936 -0.18227786 0.63834 0.69665
0.048075676 0.15838623 -0.08304441 0.63744 0.70874
0.07430935 0.24982011 -0.2886138 0.63759 0.68491
-0.046172857 0.18828452 -0.10168886 0.6483 0.70655
-0.03392577 0.2561617 -0.28961372 0.64846 0.68537
-0.039390326 0.21896958 -0.1875959 0.64825 0.69666
-0.14509392 0.22584379 -0.19226676 0.65952 0.69654
-0.14215755 0.26250303 -0.29061234 0.65962 0.68552
-0.028207064 0.3361988 -0.4861669 0.02593 0.67739
-0.14215755 0.26250303 -0.29061234 0.00153 0.68822
-0.03392577 0.2561617 -0.28961372 0.00233 0.67502
0.07924533 0.3299023 -0.48517707 0.02693 0.66661
0.07430935 0.24982011 -0.2886138 0.00452 0.66166
0.07288051 0.2107445 -0.3819363 0.01493 0.65519
0.07060456 0.33541733 -0.70215195 0.04658 0.66946
0.07584429 0.26561284 -0.5246459 0.03101 0.66028
0.12429714 0.20314038 -0.37924016 0.63213 0.67469
0.07288051 0.2107445 -0.3819363 0.63747 0.67481
0.07145214 0.17166567 -0.47526065 0.63805 0.66466
0.07145214 0.17166567 -0.47526065 0.02567 0.65012
0.049002647 0.07882047 -0.51016206 0.63939 0.65466
-0.03678274 0.17800725 -0.47626066 0.64871 0.66471
-0.03678274 0.17800725 -0.47626066 0.20754 0.67645
0.07244158 0.2013216 -0.564121 0.19733 0.66481
0.07145214 0.17166567 -0.47526065 0.20753 0.66464
0.07244158 0.2013216 -0.564121 0.03586 0.65387
0.06602812 0.25725675 -0.70241714 0.04893 0.66256
0.061449528 0.17909765 -0.702687 0.05175 0.655
-0.035010576 0.20761824 -0.56511056 0.19733 0.67653
0.061449528 0.17909765 -0.702687 0.18205 0.666
0.034912586 0.14352584 -0.93862474 0.07568 0.66367
0.03933072 0.21664953 -0.95313954 0.07276 0.67066
-0.0055229664 0.023311377 -1.2245414 0.10792 0.67291
-0.031383514 0.34139442 -0.70309174 0.04661 0.67876
-0.04938817 0.22184777 -0.95395905 0.07309 0.67944
-0.13337064 0.347368 -0.7040329 0.0466 0.68823
-0.13565755 0.34249347 -0.48716107 0.02558 0.68823
-0.24310637 0.34878993 -0.48814896 0.02592 0.69906
-0.23535895 0.35334504 -0.70497257 0.0466 0.69771
-0.22682786 0.2322427 -0.95559484 0.07309 0.69704
-0.3155465 0.23744094 -0.9564141 0.07275 0.70583
-0.33734655 0.3593186 -0.70591396 0.04656 0.70701
-0.341923 0.28115803 -0.70617914 0.04891 0.71391
-0.31996107 0.1643169 -0.9418976 0.07566 0.71282
-0.28859067 0.03989613 -1.2271522 0.1079 0.7036
-0.3539629 0.29079378 -0.5286106 0.03099 0.71617
-0.34650064 0.20299578 -0.70645064 0.05173 0.72147
-0.35736537 0.22650254 -0.56808543 0.03584 0.72259
-0.3614781 0.19703138 -0.47925624 0.02564 0.72633
-0.35736537 0.22650254 -0.56808543 0.19733 0.7117
-0.25324607 0.19068992 -0.47825778 0.20754 0.70007
-0.3614781 0.19703138 -0.47925624 0.20754 0.71187
-0.24991512 0.22020793 -0.56709146 0.19733 0.69998
-0.34650064 0.20299578 -0.70645064 0.18205 0.71051
-0.14501476 0.18434846 -0.47725928 0.20754 0.68826
-0.14501476 0.18434846 -0.47725928 0.65971 0.66476
-0.25663877 0.09710574 -0.51336074 0.67063 0.65463
-0.25324607 0.19068992 -0.47825778 0.67073 0.66481
-0.3511653 0.1022625 -0.5138513 0.68033 0.65471
-0.3614781 0.19703138 -0.47925624 0.68151 0.66478
-0.42253828 0.10492742 -0.51298285 0.68791 0.65483
-0.4273851 0.013402224 -0.5306507 0.68797 0.6449
-0.35505867 0.009167671 -0.52998275 0.6803 0.6449
-0.48186564 0.10802376 -0.5131489 0.69423 0.65488
-0.48703694 0.016898394 -0.53119993 0.69433 0.6449
-0.49254012 -0.074062586 -0.5124235 0.69422 0.63491
-0.3620615 -0.08361554 -0.5131119 0.68033 0.63509
-0.43325853 -0.07791734 -0.51225287 0.68791 0.63496
-0.43971968 -0.15612292 -0.46163332 0.68783 0.62493
-0.48774004 0.017252445 -0.45271963 0.76799 0.96446
-0.48703694 0.016898394 -0.53119993 0.77607 0.96609
-0.49254012 -0.074062586 -0.5124235 0.77228 0.9751
-0.49754 -0.15120602 -0.46064943 0.69406 0.62495
-0.4947853 -0.09555364 -0.40537632 0.76081 0.97514
-0.49754 -0.15120602 -0.46064943 0.76537 0.982
-0.49143267 -0.043788075 -0.44011796 0.76545 0.9705
-0.48774004 0.017252445 -0.45271963 0.98099 0.78809
-0.42430115 0.013536453 -0.45213544 0.9795 0.78065
-0.42083 0.074685216 -0.44002196 0.98473 0.77811
-0.42799377 -0.04750395 -0.43953377 0.97373 0.78088
-0.49143267 -0.043788075 -0.44011796 0.97245 0.78802
-0.48426938 0.078404665 -0.44060472 0.76799 0.9579
-0.48186564 0.10802376 -0.5131489 0.77607 0.95632
-0.48426938 0.078404665 -0.44060472 0.98943 0.78469
-0.4180963 0.12676644 -0.40569127 0.98895 0.7739
-0.42083 0.074685216 -0.44002196 0.8122 0.72625
-0.42191362 0.070512295 -0.3488599 0.82168 0.72767
-0.4180963 0.12676644 -0.40569127 0.81467 0.73232
-0.42430115 0.013536453 -0.45213544 0.8122 0.7197
-0.42479086 0.013783574 -0.3972234 0.81785 0.72084
-0.41957712 0.1192714 -0.29245156 0.82649 0.73385
-0.4257326 0.014256358 -0.2920348 0.82868 0.72302
-0.4165411 0.16147661 -0.35381818 0.81931 0.73696
-0.41636324 0.17408943 -0.29266977 0.82535 0.7395
-0.47980547 0.17780542 -0.29325563 0.99846 0.76044
-0.4165411 0.16147661 -0.35381818 0.99083 0.7683
-0.41636324 0.17408943 -0.29266977 0.99042 0.76232
-0.48153496 0.13048244 -0.4062754 0.9952 0.77776
-0.47998 0.16519248 -0.35440236 0.99846 0.76969
-0.48153496 0.13048244 -0.4062754 0.76552 0.95183
-0.47779346 0.18563414 -0.46199083 0.77239 0.94727
-0.4754746 0.23736048 -0.3846904 0.76548 0.94037
-0.47998 0.16519248 -0.35440236 0.76088 0.9472
-0.41787958 0.23490548 -0.38424027 0.68799 0.67492
-0.4754746 0.23736048 -0.3846904 0.69417 0.67479
-0.47521162 0.25615585 -0.29356867 0.69439 0.68473
-0.47779346 0.18563414 -0.46199083 0.69407 0.66485
-0.47980547 0.17780542 -0.29325563 0.75484 0.94465
-0.47521162 0.25615585 -0.29356867 0.75647 0.93658
-0.4172194 0.25492442 -0.2901746 0.68816 0.68525
-0.47710657 0.2381823 -0.20229769 0.69493 0.69467
-0.47710657 0.2381823 -0.20229769 0.7467 0.93658
-0.41785002 0.23535955 -0.19188994 0.68865 0.69606
-0.48081517 0.1871531 -0.12458897 0.69585 0.70461
-0.48356462 0.13150215 -0.17986345 0.74221 0.94713
-0.48081517 0.1871531 -0.12458897 0.73766 0.94026
-0.48107743 0.165748 -0.23201042 0.74829 0.94465
-0.48691916 0.07973504 -0.14511871 0.73758 0.95176
-0.48581028 0.1100111 -0.07281625 0.73075 0.94717
-0.48356462 0.13150215 -0.17986345 0.98775 0.74594
-0.4234767 0.07601881 -0.14453304 0.97809 0.75074
-0.48691916 0.07973504 -0.14511871 0.97912 0.74326
-0.42012239 0.12778604 -0.17927772 0.98356 0.7529
-0.4176364 0.16202688 -0.23142302 0.98814 0.75679
-0.48107743 0.165748 -0.23201042 0.99423 0.75232
-0.4176364 0.16202688 -0.23142302 0.83191 0.7395
-0.4229281 0.071020365 -0.23565453 0.83333 0.73003
-0.42012239 0.12778604 -0.17927772 0.83798 0.73703
-0.4234767 0.07601881 -0.14453304 0.84262 0.73239
-0.42667627 0.014731169 -0.18684173 0.83951 0.72521
-0.42716765 0.014979839 -0.13193434 0.84516 0.72635
-0.4306383 -0.04617226 -0.1440494 0.84516 0.71979
-0.4295535 -0.04199767 -0.23520511 0.83568 0.71837
-0.49060988 0.01869595 -0.1325202 0.96993 0.74338
-0.42716765 0.014979839 -0.13193434 0.97212 0.75127
-0.49408102 -0.042452693 -0.14463365 0.96194 0.74799
-0.4306383 -0.04617226 -0.1440494 0.96692 0.75378
-0.49681664 -0.09453547 -0.17896128 0.73751 0.97043
-0.49648476 -0.07207525 -0.072090745 0.72696 0.96594
-0.49408102 -0.042452693 -0.14463365 0.73503 0.96436
-0.4333744 -0.09825158 -0.1783756 0.96319 0.75808
-0.49681664 -0.09453547 -0.17896128 0.9568 0.75491
-0.49060988 0.01869595 -0.1325202 0.73503 0.95781
-0.43492937 -0.13296175 -0.23024845 0.96151 0.76346
-0.4333744 -0.09825158 -0.1783756 0.84269 0.71372
-0.43492937 -0.13296175 -0.23024845 0.83805 0.70909
-0.43188977 -0.09076011 -0.29161477 0.83087 0.7122
-0.4351039 -0.14557469 -0.29139513 0.83201 0.70654
-0.4351039 -0.14557469 -0.29139513 0.96214 0.76919
-0.4983716 -0.12924552 -0.23083419 0.9548 0.76269
-0.4983716 -0.12924552 -0.23083419 0.74214 0.97507
-0.502877 -0.20141351 -0.20054615 0.73755 0.9819
-0.49854565 -0.14185834 -0.29198098 0.74819 0.97761
-0.49854565 -0.14185834 -0.29198098 0.95504 0.77065
-0.5031378 -0.22020745 -0.29167104 0.74656 0.98569
-0.50124526 -0.20223522 -0.38293898 0.75633 0.98569
-0.49727273 -0.12979603 -0.35322767 0.95792 0.77857
-0.49727273 -0.12979603 -0.35322767 0.75474 0.97761
-0.44375682 -0.2065233 -0.38248384 0.68799 0.61488
-0.50124526 -0.20223522 -0.38293898 0.69416 0.61501
-0.5031378 -0.22020745 -0.29167104 0.69438 0.60507
-0.38646436 -0.21448481 -0.3841384 0.68199 0.61481
-0.44539714 -0.22573566 -0.2882607 0.68816 0.60456
-0.502877 -0.20141351 -0.20054615 0.69493 0.59514
-0.3895681 -0.2527206 -0.2905066 0.68177 0.60453
-0.4436903 -0.20545173 -0.19013739 0.68865 0.59375
-0.3724692 -0.2125783 -0.18418527 0.68095 0.59276
-0.44160318 -0.15328956 -0.10750127 0.68955 0.5832
-0.5005617 -0.14968693 -0.12324762 0.69584 0.58521
-0.49648476 -0.07207525 -0.072090745 0.69769 0.57539
-0.5005617 -0.14968693 -0.12324762 0.73064 0.97499
-0.36706758 -0.15943396 -0.085329175 0.68141 0.58061
-0.38976812 -0.07547188 -0.04581225 0.68639 0.57127
-0.43989062 -0.07512474 -0.06027162 0.69173 0.57345
-0.29239273 -0.12310672 -0.008376777 0.67391 0.57088
-0.4354458 0.015805483 -0.04598391 0.69477 0.56393
-0.3892429 0.013136029 -0.03623426 0.69002 0.56222
-0.32861137 -0.060949564 -0.008980393 0.68013 0.56634
-0.49131322 0.019050121 -0.054039955 0.70052 0.56583
-0.42924213 0.10651851 -0.060994804 0.69172 0.71638
-0.49131322 0.019050121 -0.054039955 0.70052 0.724
-0.4354458 0.015805483 -0.04598391 0.69477 0.7259
-0.3794155 0.10112071 -0.046515822 0.68638 0.71855
-0.3892429 0.013136029 -0.03623426 0.69001 0.72761
-0.32035756 0.07984424 -0.009540796 0.68011 0.72349
-0.42183304 0.183972 -0.10884261 0.68955 0.70662
-0.34707975 0.18153715 -0.08668542 0.6814 0.70921
-0.27712345 0.13734663 -0.00941515 0.6739 0.71894
-0.48581028 0.1100111 -0.07281625 0.69769 0.71444
-0.34627962 0.23416281 -0.1859647 0.68094 0.69705
-0.24792957 0.20010579 -0.10354841 0.67039 0.70677
-0.35862017 0.27518237 -0.29261082 0.68177 0.68527
-0.25038886 0.26884443 -0.2916109 0.67082 0.68548
-0.25114822 0.23137963 -0.1895495 0.67083 0.69686
-0.25038886 0.26884443 -0.2916109 0.00232 0.70142
-0.3505621 0.35508323 -0.48914185 0.02692 0.70985
-0.35862017 0.27518237 -0.29261082 0.0045 0.71478
-0.360049 0.23610687 -0.38593346 0.0149 0.72125
-0.360049 0.23610687 -0.38593346 0.68199 0.67499
-0.4197955 0.18375528 -0.46298552 0.68783 0.66486
-0.14664364 0.19842625 -0.10908377 0.65934 0.70598
-0.21496868 0.17356992 -0.00902164 0.66641 0.71728
-0.14374065 0.18365979 -0.008426309 0.65872 0.71694
-0.074177265 0.1653223 -0.007722199 0.65102 0.71711
-0.016681671 0.12208915 -0.0070096254 0.6435 0.71851
-0.33869982 0.010280132 -0.009391785 0.68432 0.73
-0.49131322 0.019050121 -0.054039955 0.72696 0.95617
-0.33869982 0.010280132 -0.009391785 0.68433 0.55983
-0.27077842 -0.18958986 -0.10199821 0.6704 0.58304
-0.23489523 -0.16633844 -0.0076673627 0.66643 0.57253
-0.27766538 -0.22095442 -0.18774855 0.67083 0.59295
-0.28133655 -0.25906205 -0.289508 0.67082 0.60432
-0.28203607 -0.3156538 -0.48801166 0.48751 0.81587
-0.28133655 -0.25906205 -0.289508 0.46485 0.81436
-0.38948822 -0.3093573 -0.4890012 0.48827 0.80478
-0.3895681 -0.2527206 -0.2905066 0.46614 0.80167
-0.38646436 -0.21448481 -0.3841384 0.4762 0.79585
-0.385051 -0.24139166 -0.53818303 0.49317 0.79764
-0.37794685 -0.33107638 -0.68935347 0.5075 0.80738
-0.27595854 -0.33705342 -0.6884136 0.50745 0.81708
-0.34730172 -0.29460025 -0.89279395 0.52728 0.80937
-0.3730302 -0.24920797 -0.7023467 0.51013 0.79973
-0.3806181 -0.17343092 -0.5873646 0.49869 0.79048
-0.36811447 -0.16733956 -0.71534 0.51314 0.79147
-0.34332252 -0.22520483 -0.8833703 0.52886 0.8025
-0.2751298 -0.18259537 -0.47677013 0.62275 0.81515
-0.27316594 -0.17972398 -0.5863736 0.61086 0.81523
-0.3806181 -0.17343092 -0.5873646 0.61086 0.80356
-0.36811447 -0.16733956 -0.71534 0.59695 0.80475
-0.38336158 -0.1762538 -0.47776872 0.48642 0.79087
-0.38336158 -0.1762538 -0.47776872 0.62275 0.80339
-0.16689658 -0.18893516 -0.47577485 0.65971 0.62503
-0.2751298 -0.18259537 -0.47677013 0.67073 0.62498
-0.26758003 -0.08953428 -0.51261765 0.67063 0.63517
-0.38336158 -0.1762538 -0.47776872 0.68151 0.62501
-0.16689658 -0.18893516 -0.47577485 0.62275 0.8269
-0.054837465 -0.10200024 -0.5106546 0.64888 0.6352
-0.16110682 -0.0957737 -0.511639 0.65973 0.6352
-0.05866456 -0.19527662 -0.47477627 0.64871 0.62508
-0.058261633 -0.19231379 -0.5843929 0.61086 0.83857
-0.05866456 -0.19527662 -0.47477627 0.62274 0.83866
-0.16571355 -0.18602073 -0.5853839 0.61086 0.8269
0.049188852 -0.1986084 -0.5833987 0.61085 0.85024
0.03983617 -0.19123745 -0.71157676 0.59695 0.84905
-0.062151432 -0.18526387 -0.712518 0.59695 0.83798
0.034920454 -0.2731092 -0.69858503 0.51015 0.85413
0.03983617 -0.19123745 -0.71157676 0.51317 0.86239
0.049188852 -0.1986084 -0.5833987 0.49872 0.86339
0.011550665 -0.24599242 -0.8800962 0.52889 0.85134
0.0155313015 -0.17659545 -0.8706758 0.53052 0.85857
0.0155313015 -0.17659545 -0.8706758 0.57967 0.84616
0.0075752735 -0.31539166 -0.8895192 0.5273 0.84447
-0.019937038 -0.19868898 -1.071898 0.54966 0.84719
-0.017747164 -0.15758657 -1.048325 0.54922 0.85227
-0.017747164 -0.15758657 -1.048325 0.56036 0.84223
-0.08851361 -0.15344 -1.0489782 0.56041 0.83456
-0.07318759 -0.17139721 -0.87149507 0.57968 0.83653
-0.09070349 -0.19454241 -1.0725514 0.5553 0.83453
-0.019937038 -0.19868898 -1.071898 0.55522 0.84218
-0.16413903 -0.17929018 -0.7134591 0.59695 0.8269
-0.16190815 -0.16620052 -0.8723115 0.57968 0.8269
-0.2506268 -0.1610024 -0.8731307 0.57968 0.81727
-0.26612687 -0.17331314 -0.71439874 0.59695 0.81583
-0.23004842 -0.1451484 -1.0502821 0.56041 0.81926
-0.33934212 -0.15580428 -0.8739488 0.57967 0.80764
-0.3008151 -0.1410017 -1.0509355 0.56036 0.81157
-0.3030045 -0.18210757 -1.0745103 0.55521 0.81162
-0.3008151 -0.1410017 -1.0509355 0.5492 0.80154
-0.3030045 -0.18210757 -1.0745103 0.54964 0.80663
-0.33934212 -0.15580428 -0.8739488 0.53049 0.79526
-0.23223662 -0.18624926 -1.0738583 0.5553 0.81929
-0.23442912 -0.22735476 -1.0974349 0.55021 0.81934
-0.30519605 -0.22320819 -1.0980884 0.55006 0.8117
-0.16366243 -0.23150134 -1.0967814 0.55025 0.82691
-0.25858283 -0.29979873 -0.89197433 0.5276 0.8181
-0.1698637 -0.30499673 -0.89115477 0.52769 0.82692
-0.17397118 -0.3430271 -0.68747234 0.50743 0.82693
-0.08114505 -0.31019497 -0.8903357 0.52761 0.83574
-0.092894316 -0.23564649 -1.0961311 0.55021 0.83448
-0.022128344 -0.23978949 -1.0954762 0.55007 0.84211
-0.16146994 -0.19039571 -1.0732049 0.55533 0.82691
-0.15928173 -0.14929485 -1.0496285 0.56043 0.82691
-0.071983576 -0.3490007 -0.6865313 0.50746 0.83678
-0.17458439 -0.32194686 -0.48702064 0.48726 0.82694
0.049569607 -0.20161474 -0.4737747 0.62274 0.85042
0.04213071 -0.014103055 -0.5263202 0.63943 0.6449
0.03810525 -0.10706258 -0.50942117 0.63939 0.63513
-0.049616575 -0.008728385 -0.5271665 0.6489 0.6449
-0.04389453 0.08464134 -0.5114008 0.64888 0.65459
-0.15016603 0.0908699 -0.51238054 0.65973 0.65459
-0.2616136 0.0036919117 -0.5291208 0.67063 0.6449
-0.15549278 -0.0025260448 -0.5281409 0.65974 0.6449
-0.16533327 -0.18467736 -0.006959796 0.65874 0.57287
-0.4947853 -0.09555364 -0.40537632 0.96397 0.78527
-0.43383336 -0.13351536 -0.35264522 0.96429 0.77464
-0.43383336 -0.13351536 -0.35264522 0.82545 0.70654
-0.42853856 -0.0425092 -0.3484118 0.82403 0.71602
-0.43134642 -0.09926963 -0.40479225 0.81938 0.70902
-0.43134642 -0.09926963 -0.40479225 0.96835 0.77868
-0.42799377 -0.04750395 -0.43953377 0.81474 0.71365
-0.14246249 0.2139113 -0.5661017 0.19733 0.68826
-0.24451303 0.1970222 -0.7055092 0.18205 0.69938
-0.14252567 0.1910485 -0.7045679 0.18205 0.68826
-0.040537834 0.18507147 -0.70362836 0.18205 0.67713
-0.058222532 0.075601816 -0.9249232 0.15513 0.67858
0.030492783 0.070403814 -0.92410517 0.15513 0.6689
-0.012442112 -0.09017038 -1.1952372 0.12071 0.67283
0.030492783 0.070403814 -0.92410517 0.07876 0.65635
-0.012442112 -0.09017038 -1.1952372 0.11326 0.66124
-0.008984089 -0.033427715 -1.2098893 0.11059 0.6671
-0.008984089 -0.033427715 -1.2098893 0.11431 0.67286
-0.076289654 0.027457952 -1.2251947 0.10801 0.6806
-0.07975078 -0.02928114 -1.2105428 0.11436 0.68057
-0.08320832 -0.08602381 -1.1958904 0.12074 0.68055
-0.15051436 -0.025134802 -1.2111946 0.11438 0.68825
-0.14694142 0.08080006 -0.92574215 0.15513 0.68826
-0.15397692 -0.08187866 -1.1965407 0.12075 0.68826
-0.23566031 0.0859983 -0.92656183 0.15513 0.69794
-0.22474337 -0.077732205 -1.1971941 0.12074 0.69597
-0.22128248 -0.020989656 -1.211845 0.11436 0.69594
-0.29204893 -0.01684308 -1.2124985 0.11431 0.70366
-0.29550982 -0.07358563 -1.1978478 0.12071 0.70368
-0.29204893 -0.01684308 -1.2124985 0.11057 0.70942
-0.32438087 0.09119487 -0.92737824 0.07874 0.72014
-0.29550982 -0.07358563 -1.1978478 0.11324 0.71527
-0.13810706 0.22704601 -0.9547783 0.07319 0.68824
-0.14705634 0.03160453 -1.2258484 0.10803 0.68825
-0.21782255 0.035751224 -1.226502 0.108 0.69591
-0.32438087 0.09119487 -0.92737824 0.15513 0.70761
0.17594719 0.19919753 -0.378681 0.62665 0.67452
0.070037365 0.074790716 -0.04237002 0.63213 0.71789
0.10993385 -0.01614511 -0.040952444 0.62397 0.72499
0.06933212 -0.013727784 -0.03200358 0.62805 0.72672
0.019536972 0.059931993 -0.006406009 0.63713 0.72274
0.16010857 -0.019112825 -0.048030496 0.61898 0.56677
0.10993385 -0.01614511 -0.040952444 0.62401 0.5648
0.10399151 -0.10698664 -0.0552541 0.62753 0.57413
0.06933212 -0.013727784 -0.03200358 0.62809 0.56308
0.15493393 -0.11024141 -0.066084564 0.62226 0.57614
0.029625177 -0.011297703 -0.00599432 0.63261 0.72898
0.029625177 -0.011297703 -0.00599432 0.63265 0.56081
0.10370731 0.04395461 -0.43518406 0.58207 0.57422
0.09951925 -0.016833186 -0.36724508 0.59154 0.57564
0.09654331 -0.07823467 -0.43469584 0.58918 0.58493
0.100236416 -0.017194033 -0.44729763 0.58454 0.58029
0.09654331 -0.07823467 -0.43469584 0.78933 0.96816
3 0 1 2
3 3 2 1
3 3 4 2
3 0 2 5
3 6 0 7
3 7 0 5
3 8 1 0
3 8 0 6
3 9 8 10
3 11 8 9
3 8 12 10
3 11 1 8
3 8 6 12
3 13 14 15
3 12 6 16
3 17 18 13
3 12 16 19
3 13 18 14
3 14 20 15
3 14 21 20
3 22 21 14
3 18 22 14
3 23 24 25
3 26 25 24
3 21 27 20
3 23 25 28
3 26 10 25
3 29 26 24
3 30 26 29
3 30 9 26
3 9 10 26
3 31 32 33
3 34 9 30
3 35 36 32
3 31 37 32
3 35 32 37
3 35 38 39
3 40 41 42
3 40 43 41
3 40 44 43
3 40 45 44
3 35 39 36
3 46 47 48
3 47 49 48
3 45 50 44
3 46 48 51
3 52 46 53
3 46 54 53
3 46 51 54
3 52 47 46
3 55 56 57
3 58 57 56
3 55 57 50
3 53 54 59
3 58 60 57
3 61 60 58
3 62 63 64
3 62 65 63
3 62 66 65
3 62 67 66
3 68 69 24
3 29 24 69
3 31 33 66
3 31 66 67
3 70 63 71
3 72 73 74
3 72 75 73
3 72 23 75
3 72 68 23
3 70 64 63
3 61 76 77
3 76 78 77
3 76 79 78
3 70 80 81
3 70 71 80
3 82 80 83
3 84 85 86
3 84 87 85
3 84 73 87
3 84 74 73
3 82 81 80
3 79 88 89
3 88 90 89
3 88 91 90
3 82 92 93
3 82 83 92
3 94 95 96
3 95 97 96
3 95 98 97
3 91 99 90
3 96 97 52
3 100 52 97
3 101 97 98
3 101 100 97
3 102 103 99
3 104 100 101
3 105 106 103
3 102 105 103
3 107 108 109
3 107 92 108
3 91 102 99
3 107 93 92
3 107 109 110
3 111 112 113
3 114 109 115
3 112 116 113
3 112 117 116
3 114 110 109
3 105 118 106
3 118 119 106
3 118 120 119
3 114 121 122
3 114 115 121
3 123 124 125
3 126 121 127
3 124 128 125
3 124 111 128
3 126 122 121
3 120 129 130
3 42 130 129
3 126 39 38
3 126 127 39
3 131 132 133
3 120 130 119
3 133 132 134
3 42 41 130
3 100 133 52
3 131 133 100
3 52 133 47
3 133 134 47
3 111 113 128
3 128 113 135
3 125 128 136
3 128 135 136
3 113 137 135
3 135 138 136
3 135 137 139
3 135 140 138
3 135 139 140
3 139 141 140
3 139 142 141
3 143 144 145
3 146 145 147
3 146 143 145
3 148 146 147
3 149 143 146
3 150 149 146
3 148 150 146
3 116 151 152
3 85 152 151
3 116 152 137
3 85 153 152
3 154 150 148
3 87 153 85
3 87 155 153
3 155 156 153
3 157 158 159
3 154 160 150
3 160 161 150
3 160 162 161
3 163 164 158
3 157 163 158
3 162 165 161
3 161 165 166
3 150 161 149
3 161 166 149
3 165 167 166
3 166 168 149
3 167 169 166
3 166 169 168
3 149 168 143
3 169 170 168
3 168 170 171
3 168 171 143
3 143 171 144
3 144 171 172
3 171 173 172
3 171 170 173
3 170 174 173
3 173 174 175
3 172 173 176
3 173 175 176
3 175 177 176
3 175 178 177
3 179 178 175
3 174 179 175
3 176 177 180
3 178 181 177
3 177 181 182
3 177 182 180
3 180 182 183
3 184 185 186
3 184 187 185
3 188 187 184
3 187 189 185
3 190 191 192
3 192 191 193
3 192 193 194
3 194 193 195
3 193 196 195
3 193 197 196
3 191 197 193
3 196 198 195
3 196 199 198
3 196 200 199
3 201 196 197
3 196 202 200
3 201 202 196
3 203 200 202
3 204 205 206
3 203 207 200
3 208 206 209
3 208 210 206
3 204 206 210
3 211 212 213
3 211 214 212
3 211 215 214
3 204 216 217
3 211 213 218
3 204 217 205
3 218 213 219
3 220 221 222
3 223 224 220
3 220 224 221
3 225 221 226
3 227 221 225
3 224 226 221
3 227 222 221
3 228 227 225
3 229 230 231
3 232 219 230
3 229 233 230
3 232 230 233
3 218 219 232
3 234 217 216
3 234 235 217
3 234 236 235
3 234 237 236
3 238 239 240
3 238 241 239
3 242 243 236
3 242 236 237
3 244 240 245
3 238 240 244
3 242 246 243
3 247 245 248
3 244 245 247
3 249 250 246
3 242 251 246
3 249 246 251
3 249 252 253
3 254 255 256
3 254 257 255
3 254 258 257
3 249 253 250
3 254 259 258
3 259 231 258
3 228 225 260
3 260 225 261
3 260 261 262
3 261 263 262
3 261 264 263
3 226 264 261
3 225 226 261
3 264 265 263
3 264 266 265
3 267 266 264
3 226 267 264
3 268 255 269
3 270 268 269
3 270 269 271
3 272 273 274
3 270 275 276
3 270 271 275
3 277 274 273
3 276 275 278
3 267 279 266
3 267 280 279
3 267 281 280
3 281 282 280
3 283 284 278
3 276 278 284
3 272 285 286
3 287 286 285
3 283 288 284
3 287 289 286
3 287 290 289
3 291 288 283
3 287 292 290
3 293 294 207
3 293 295 294
3 208 209 290
3 208 290 292
3 296 293 203
3 296 297 293
3 293 207 203
3 293 297 295
3 297 298 295
3 296 299 297
3 299 300 297
3 297 300 298
3 299 301 300
3 301 302 300
3 300 303 298
3 300 302 303
3 302 304 303
3 272 286 305
3 272 305 273
3 301 306 302
3 307 302 306
3 302 308 304
3 307 308 302
3 307 306 309
3 307 310 308
3 311 307 312
3 307 311 310
3 307 309 312
3 308 310 313
3 314 315 316
3 317 316 318
3 317 314 316
3 318 319 317
3 317 320 314
3 317 321 320
3 317 322 321
3 317 319 322
3 320 323 314
3 320 248 323
3 247 248 320
3 324 320 321
3 324 247 320
3 325 324 321
3 326 247 324
3 327 326 324
3 325 328 324
3 327 324 328
3 141 327 328
3 329 330 331
3 141 142 327
3 144 172 329
3 329 172 330
3 172 176 330
3 330 332 331
3 176 180 330
3 330 180 332
3 333 244 326
3 333 238 244
3 333 334 238
3 333 194 334
3 180 183 332
3 238 334 241
3 334 198 241
3 194 195 334
3 334 195 198
3 335 325 336
3 335 328 325
3 325 321 322
3 325 322 336
3 335 336 337
3 140 141 335
3 335 141 328
3 140 335 138
3 335 338 138
3 335 337 338
3 138 338 339
3 326 244 247
3 318 340 319
3 314 323 315
3 277 273 341
3 308 313 304
3 277 341 253
3 311 312 342
3 343 306 301
3 343 309 306
3 343 344 309
3 7 344 343
3 7 343 345
3 343 301 345
3 16 345 346
3 7 345 16
3 346 345 301
3 347 17 348
3 16 346 19
3 349 348 350
3 346 301 299
3 349 347 348
3 351 352 349
3 352 353 349
3 351 349 350
3 353 347 349
3 353 354 347
3 355 354 353
3 356 355 353
3 352 356 353
3 357 358 356
3 358 359 356
3 356 359 355
3 357 356 352
3 360 361 362
3 361 363 362
3 364 357 352
3 360 362 365
3 366 367 368
3 367 201 368
3 367 369 201
3 370 361 360
3 371 366 372
3 366 368 372
3 371 373 366
3 374 370 375
3 374 376 370
3 370 376 361
3 377 374 375
3 378 374 377
3 379 376 374
3 378 379 374
3 380 381 382
3 383 381 380
3 383 384 381
3 385 379 378
3 386 383 380
3 386 387 383
3 383 388 384
3 383 387 388
3 389 390 391
3 389 392 390
3 389 393 392
3 389 391 385
3 385 391 379
3 391 394 379
3 391 395 394
3 390 395 391
3 379 394 376
3 394 395 396
3 376 394 397
3 394 396 397
3 395 398 396
3 397 396 399
3 396 400 399
3 396 398 400
3 398 401 400
3 402 403 359
3 402 359 404
3 398 405 401
3 406 401 405
3 403 407 355
3 406 407 401
3 403 355 359
3 408 406 405
3 407 406 409
3 406 408 410
3 406 410 409
3 409 410 411
3 411 410 412
3 410 408 413
3 410 413 412
3 412 413 414
3 414 413 392
3 413 408 415
3 413 415 392
3 416 415 405
3 390 415 416
3 408 405 415
3 390 392 415
3 395 416 398
3 416 405 398
3 390 416 395
3 386 414 387
3 412 414 386
3 414 392 393
3 417 412 386
3 411 412 417
3 418 411 417
3 18 417 22
3 417 386 22
3 418 417 18
3 347 418 17
3 17 418 18
3 354 411 418
3 354 418 347
3 409 411 354
3 355 409 354
3 407 409 355
3 358 404 359
3 397 399 363
3 361 397 363
3 376 397 361
3 386 380 22
3 22 380 21
3 380 382 21
3 21 382 27
3 377 375 419
3 420 421 371
3 421 373 371
3 422 371 372
3 420 371 422
3 73 420 155
3 73 421 420
3 420 423 155
3 420 422 423
3 155 423 156
3 423 190 156
3 423 424 190
3 422 424 423
3 190 424 191
3 424 425 191
3 422 426 424
3 424 426 425
3 372 425 426
3 372 368 425
3 368 197 425
3 191 425 197
3 422 372 426
3 73 75 421
3 75 28 421
3 421 28 373
3 368 201 197
3 369 202 201
3 369 203 202
3 296 203 369
3 364 352 351
3 7 427 344
3 428 291 429
3 291 283 429
3 281 430 282
3 431 430 281
3 431 432 430
3 428 429 433
3 224 431 226
3 434 431 224
3 226 431 281
3 434 432 431
3 215 428 433
3 215 433 214
3 226 281 267
3 268 256 255
3 277 253 252
3 259 229 231
3 223 434 224
3 189 163 157
3 189 435 163
3 187 435 189
3 436 435 187
3 435 437 438
3 436 437 435
3 435 438 163
3 437 439 438
3 438 439 440
3 163 438 164
3 438 440 164
3 439 441 440
3 162 442 165
3 442 443 444
3 442 444 165
3 165 444 167
3 445 446 167
3 445 447 446
3 445 448 447
3 445 441 448
3 448 449 447
3 450 451 448
3 448 451 449
3 439 448 441
3 450 448 439
3 452 450 437
3 437 450 439
3 453 451 450
3 453 450 452
3 451 453 454
3 453 455 454
3 456 453 452
3 453 456 455
3 179 457 178
3 457 458 178
3 457 459 458
3 460 461 462
3 461 454 462
3 174 462 179
3 460 462 174
3 169 460 170
3 446 460 169
3 170 460 174
3 446 461 460
3 461 449 454
3 446 449 461
3 178 458 181
3 463 436 188
3 456 452 463
3 463 452 436
3 451 454 449
3 452 437 436
3 446 447 449
3 167 446 169
3 188 436 187
3 73 155 87
3 117 464 151
3 86 151 464
3 117 151 116
3 86 85 151
3 138 339 136
3 113 116 137
3 465 136 339
3 125 136 465
3 466 125 465
3 467 465 468
3 466 465 467
3 465 339 468
3 469 470 471
3 123 125 466
3 470 472 3
3 470 3 471
3 473 471 11
3 469 471 473
3 471 1 11
3 471 3 1
3 467 468 474
3 472 4 3
3 472 475 4
3 104 131 100
3 476 96 477
3 94 96 476
3 96 52 477
3 477 478 479
3 476 477 479
3 52 53 477
3 477 53 478
3 61 480 60
3 61 77 480
3 53 59 478
3 79 89 78
3 75 23 28
3 68 24 23
3 45 55 50
3 47 134 49
3 473 11 34
3 34 11 9
3 6 7 16
3 7 5 427
